<?xml version="1.0" encoding="UTF-8" standalone="no"?>
<!DOCTYPE svg PUBLIC "-//W3C//DTD SVG 1.1//EN"
 "http://www.w3.org/Graphics/SVG/1.1/DTD/svg11.dtd">
<!-- Generated by graphviz version 2.43.0 (0)
 -->
<!-- Title: InputHandler Pages: 1 -->
<svg width="154pt" height="365pt"
 viewBox="0.00 0.00 154.00 365.00" xmlns="http://www.w3.org/2000/svg" xmlns:xlink="http://www.w3.org/1999/xlink">
<g id="graph0" class="graph" transform="scale(1 1) rotate(0) translate(4 361)">
<title>InputHandler</title>
<polygon fill="white" stroke="transparent" points="-4,4 -4,-361 150,-361 150,4 -4,4"/>
<!-- Node1 -->
<g id="node1" class="node">
<title>Node1</title>
<g id="a_node1"><a xlink:title=" ">
<polygon fill="#bfbfbf" stroke="black" points="0,-0.5 0,-101.5 146,-101.5 146,-0.5 0,-0.5"/>
<text text-anchor="middle" x="73" y="-89.5" font-family="Helvetica,sans-Serif" font-size="10.00">InputHandler</text>
<polyline fill="none" stroke="black" points="0,-82.5 146,-82.5 "/>
<text text-anchor="middle" x="73" y="-70.5" font-family="Helvetica,sans-Serif" font-size="10.00"> </text>
<polyline fill="none" stroke="black" points="0,-63.5 146,-63.5 "/>
<text text-anchor="start" x="8" y="-51.5" font-family="Helvetica,sans-Serif" font-size="10.00">+ InputHandler(int cvAPin,</text>
<text text-anchor="start" x="8" y="-40.5" font-family="Helvetica,sans-Serif" font-size="10.00"> int cvBPin)</text>
<text text-anchor="start" x="8" y="-29.5" font-family="Helvetica,sans-Serif" font-size="10.00">+ void begin()</text>
<text text-anchor="start" x="8" y="-18.5" font-family="Helvetica,sans-Serif" font-size="10.00">+ int readCVA()</text>
<text text-anchor="start" x="8" y="-7.5" font-family="Helvetica,sans-Serif" font-size="10.00">+ int readCVB()</text>
</a>
</g>
</g>
<!-- Node2 -->
<g id="node2" class="node">
<title>Node2</title>
<g id="a_node2"><a xlink:href="classAnalogInputPin.html" target="_top" xlink:title=" ">
<polygon fill="white" stroke="black" points="3,-160.5 3,-239.5 143,-239.5 143,-160.5 3,-160.5"/>
<text text-anchor="middle" x="73" y="-227.5" font-family="Helvetica,sans-Serif" font-size="10.00">AnalogInputPin</text>
<polyline fill="none" stroke="black" points="3,-220.5 143,-220.5 "/>
<text text-anchor="middle" x="73" y="-208.5" font-family="Helvetica,sans-Serif" font-size="10.00"> </text>
<polyline fill="none" stroke="black" points="3,-201.5 143,-201.5 "/>
<text text-anchor="start" x="11" y="-189.5" font-family="Helvetica,sans-Serif" font-size="10.00">+ AnalogInputPin(int pin)</text>
<text text-anchor="start" x="11" y="-178.5" font-family="Helvetica,sans-Serif" font-size="10.00">+ void begin()</text>
<text text-anchor="start" x="11" y="-167.5" font-family="Helvetica,sans-Serif" font-size="10.00">+ int read()</text>
</a>
</g>
</g>
<!-- Node2&#45;&gt;Node1 -->
<g id="edge1" class="edge">
<title>Node2&#45;&gt;Node1</title>
<path fill="none" stroke="#404040" d="M73,-160.38C73,-146.21 73,-129.8 73,-114.1"/>
<polygon fill="none" stroke="#404040" points="73,-113.72 69,-107.72 73,-101.72 77,-107.72 73,-113.72"/>
<text text-anchor="middle" x="85.5" y="-134" font-family="Helvetica,sans-Serif" font-size="10.00"> &#45;cvA</text>
<text text-anchor="middle" x="85.5" y="-123" font-family="Helvetica,sans-Serif" font-size="10.00">&#45;cvB</text>
</g>
<!-- Node3 -->
<g id="node3" class="node">
<title>Node3</title>
<g id="a_node3"><a xlink:href="classPin.html" target="_top" xlink:title=" ">
<polygon fill="white" stroke="black" points="23.5,-277.5 23.5,-356.5 122.5,-356.5 122.5,-277.5 23.5,-277.5"/>
<text text-anchor="middle" x="73" y="-344.5" font-family="Helvetica,sans-Serif" font-size="10.00">Pin</text>
<polyline fill="none" stroke="black" points="23.5,-337.5 122.5,-337.5 "/>
<text text-anchor="start" x="31.5" y="-325.5" font-family="Helvetica,sans-Serif" font-size="10.00"># int pin</text>
<text text-anchor="start" x="31.5" y="-314.5" font-family="Helvetica,sans-Serif" font-size="10.00"># bool state</text>
<polyline fill="none" stroke="black" points="23.5,-307.5 122.5,-307.5 "/>
<text text-anchor="start" x="31.5" y="-295.5" font-family="Helvetica,sans-Serif" font-size="10.00">+ Pin(int pin=&#45;1)</text>
<text text-anchor="start" x="31.5" y="-284.5" font-family="Helvetica,sans-Serif" font-size="10.00">+ ~Pin()</text>
</a>
</g>
</g>
<!-- Node3&#45;&gt;Node2 -->
<g id="edge2" class="edge">
<title>Node3&#45;&gt;Node2</title>
<path fill="none" stroke="midnightblue" d="M73,-267.2C73,-258.02 73,-248.53 73,-239.71"/>
<polygon fill="none" stroke="midnightblue" points="69.5,-267.39 73,-277.39 76.5,-267.39 69.5,-267.39"/>
</g>
</g>
</svg>
