<?xml version="1.0" encoding="UTF-8" standalone="no"?>
<!DOCTYPE svg PUBLIC "-//W3C//DTD SVG 1.1//EN"
 "http://www.w3.org/Graphics/SVG/1.1/DTD/svg11.dtd">
<!-- Generated by graphviz version 2.43.0 (0)
 -->
<!-- Title: Pin Pages: 1 -->
<svg width="637pt" height="584pt"
 viewBox="0.00 0.00 636.50 584.00" xmlns="http://www.w3.org/2000/svg" xmlns:xlink="http://www.w3.org/1999/xlink">
<g id="graph0" class="graph" transform="scale(1 1) rotate(0) translate(4 580)">
<title>Pin</title>
<polygon fill="white" stroke="transparent" points="-4,4 -4,-580 632.5,-580 632.5,4 -4,4"/>
<!-- Node1 -->
<g id="node1" class="node">
<title>Node1</title>
<g id="a_node1"><a xlink:title=" ">
<polygon fill="#bfbfbf" stroke="black" points="181.5,-496.5 181.5,-575.5 280.5,-575.5 280.5,-496.5 181.5,-496.5"/>
<text text-anchor="middle" x="231" y="-563.5" font-family="Helvetica,sans-Serif" font-size="10.00">Pin</text>
<polyline fill="none" stroke="black" points="181.5,-556.5 280.5,-556.5 "/>
<text text-anchor="start" x="189.5" y="-544.5" font-family="Helvetica,sans-Serif" font-size="10.00"># int pin</text>
<text text-anchor="start" x="189.5" y="-533.5" font-family="Helvetica,sans-Serif" font-size="10.00"># bool state</text>
<polyline fill="none" stroke="black" points="181.5,-526.5 280.5,-526.5 "/>
<text text-anchor="start" x="189.5" y="-514.5" font-family="Helvetica,sans-Serif" font-size="10.00">+ Pin(int pin=&#45;1)</text>
<text text-anchor="start" x="189.5" y="-503.5" font-family="Helvetica,sans-Serif" font-size="10.00">+ ~Pin()</text>
</a>
</g>
</g>
<!-- Node2 -->
<g id="node2" class="node">
<title>Node2</title>
<g id="a_node2"><a xlink:href="classAnalogInputPin.xhtml" target="_top" xlink:title=" ">
<polygon fill="white" stroke="black" points="0,-358.5 0,-437.5 140,-437.5 140,-358.5 0,-358.5"/>
<text text-anchor="middle" x="70" y="-425.5" font-family="Helvetica,sans-Serif" font-size="10.00">AnalogInputPin</text>
<polyline fill="none" stroke="black" points="0,-418.5 140,-418.5 "/>
<text text-anchor="middle" x="70" y="-406.5" font-family="Helvetica,sans-Serif" font-size="10.00"> </text>
<polyline fill="none" stroke="black" points="0,-399.5 140,-399.5 "/>
<text text-anchor="start" x="8" y="-387.5" font-family="Helvetica,sans-Serif" font-size="10.00">+ AnalogInputPin(int pin)</text>
<text text-anchor="start" x="8" y="-376.5" font-family="Helvetica,sans-Serif" font-size="10.00">+ void begin()</text>
<text text-anchor="start" x="8" y="-365.5" font-family="Helvetica,sans-Serif" font-size="10.00">+ int read()</text>
</a>
</g>
</g>
<!-- Node1&#45;&gt;Node2 -->
<g id="edge1" class="edge">
<title>Node1&#45;&gt;Node2</title>
<path fill="none" stroke="midnightblue" d="M177.49,-489.8C157.52,-472.93 135.04,-453.94 115.82,-437.7"/>
<polygon fill="none" stroke="midnightblue" points="175.4,-492.61 185.29,-496.39 179.91,-487.26 175.4,-492.61"/>
</g>
<!-- Node3 -->
<g id="node3" class="node">
<title>Node3</title>
<g id="a_node3"><a xlink:href="classInputPin.xhtml" target="_top" xlink:title=" ">
<polygon fill="white" stroke="black" points="158,-336.5 158,-459.5 304,-459.5 304,-336.5 158,-336.5"/>
<text text-anchor="middle" x="231" y="-447.5" font-family="Helvetica,sans-Serif" font-size="10.00">InputPin</text>
<polyline fill="none" stroke="black" points="158,-440.5 304,-440.5 "/>
<text text-anchor="start" x="166" y="-428.5" font-family="Helvetica,sans-Serif" font-size="10.00">&#45; bool useInternalPullup</text>
<text text-anchor="start" x="166" y="-417.5" font-family="Helvetica,sans-Serif" font-size="10.00">&#45; bool useInternalPulldown</text>
<polyline fill="none" stroke="black" points="158,-410.5 304,-410.5 "/>
<text text-anchor="start" x="166" y="-398.5" font-family="Helvetica,sans-Serif" font-size="10.00">+ InputPin(int pin)</text>
<text text-anchor="start" x="166" y="-387.5" font-family="Helvetica,sans-Serif" font-size="10.00">+ InputPin(int pin,</text>
<text text-anchor="start" x="166" y="-376.5" font-family="Helvetica,sans-Serif" font-size="10.00"> bool internalPullup,</text>
<text text-anchor="start" x="166" y="-365.5" font-family="Helvetica,sans-Serif" font-size="10.00"> bool internalPulldown)</text>
<text text-anchor="start" x="166" y="-354.5" font-family="Helvetica,sans-Serif" font-size="10.00">+ virtual void begin()</text>
<text text-anchor="start" x="166" y="-343.5" font-family="Helvetica,sans-Serif" font-size="10.00">+ virtual bool getState()</text>
</a>
</g>
</g>
<!-- Node1&#45;&gt;Node3 -->
<g id="edge2" class="edge">
<title>Node1&#45;&gt;Node3</title>
<path fill="none" stroke="midnightblue" d="M231,-486.14C231,-477.53 231,-468.47 231,-459.57"/>
<polygon fill="none" stroke="midnightblue" points="227.5,-486.39 231,-496.39 234.5,-486.39 227.5,-486.39"/>
</g>
<!-- Node4 -->
<g id="node4" class="node">
<title>Node4</title>
<g id="a_node4"><a xlink:href="classOutputPin.xhtml" target="_top" xlink:title=" ">
<polygon fill="white" stroke="black" points="322.5,-347.5 322.5,-448.5 457.5,-448.5 457.5,-347.5 322.5,-347.5"/>
<text text-anchor="middle" x="390" y="-436.5" font-family="Helvetica,sans-Serif" font-size="10.00">OutputPin</text>
<polyline fill="none" stroke="black" points="322.5,-429.5 457.5,-429.5 "/>
<text text-anchor="middle" x="390" y="-417.5" font-family="Helvetica,sans-Serif" font-size="10.00"> </text>
<polyline fill="none" stroke="black" points="322.5,-410.5 457.5,-410.5 "/>
<text text-anchor="start" x="330.5" y="-398.5" font-family="Helvetica,sans-Serif" font-size="10.00">+ OutputPin(int pin=&#45;1)</text>
<text text-anchor="start" x="330.5" y="-387.5" font-family="Helvetica,sans-Serif" font-size="10.00">+ virtual void begin()</text>
<text text-anchor="start" x="330.5" y="-376.5" font-family="Helvetica,sans-Serif" font-size="10.00">+ virtual void setState</text>
<text text-anchor="start" x="330.5" y="-365.5" font-family="Helvetica,sans-Serif" font-size="10.00">(bool state)</text>
<text text-anchor="start" x="330.5" y="-354.5" font-family="Helvetica,sans-Serif" font-size="10.00">+ virtual bool getState()</text>
</a>
</g>
</g>
<!-- Node1&#45;&gt;Node4 -->
<g id="edge3" class="edge">
<title>Node1&#45;&gt;Node4</title>
<path fill="none" stroke="midnightblue" d="M284.03,-489.64C299.41,-476.49 316.28,-462.06 331.95,-448.66"/>
<polygon fill="none" stroke="midnightblue" points="281.46,-487.23 276.14,-496.39 286.01,-492.55 281.46,-487.23"/>
</g>
<!-- Node5 -->
<g id="node5" class="node">
<title>Node5</title>
<g id="a_node5"><a xlink:href="classGate.xhtml" target="_top" xlink:title=" ">
<polygon fill="white" stroke="black" points="124,-55.5 124,-244.5 288,-244.5 288,-55.5 124,-55.5"/>
<text text-anchor="middle" x="206" y="-232.5" font-family="Helvetica,sans-Serif" font-size="10.00">Gate</text>
<polyline fill="none" stroke="black" points="124,-225.5 288,-225.5 "/>
<text text-anchor="start" x="132" y="-213.5" font-family="Helvetica,sans-Serif" font-size="10.00">&#45; int gateOnDuration</text>
<text text-anchor="start" x="132" y="-202.5" font-family="Helvetica,sans-Serif" font-size="10.00">&#45; unsigned long triggeredTime</text>
<text text-anchor="start" x="132" y="-191.5" font-family="Helvetica,sans-Serif" font-size="10.00">&#45; int division</text>
<polyline fill="none" stroke="black" points="124,-184.5 288,-184.5 "/>
<text text-anchor="start" x="132" y="-172.5" font-family="Helvetica,sans-Serif" font-size="10.00">+ Gate(int pin=&#45;1)</text>
<text text-anchor="start" x="132" y="-161.5" font-family="Helvetica,sans-Serif" font-size="10.00">+ ~Gate()</text>
<text text-anchor="start" x="132" y="-150.5" font-family="Helvetica,sans-Serif" font-size="10.00">+ void trigger(unsigned</text>
<text text-anchor="start" x="132" y="-139.5" font-family="Helvetica,sans-Serif" font-size="10.00"> long currentTime)</text>
<text text-anchor="start" x="132" y="-128.5" font-family="Helvetica,sans-Serif" font-size="10.00">+ void update(unsigned</text>
<text text-anchor="start" x="132" y="-117.5" font-family="Helvetica,sans-Serif" font-size="10.00"> long currentTime)</text>
<text text-anchor="start" x="132" y="-106.5" font-family="Helvetica,sans-Serif" font-size="10.00">+ void setDivision(int</text>
<text text-anchor="start" x="132" y="-95.5" font-family="Helvetica,sans-Serif" font-size="10.00"> divition)</text>
<text text-anchor="start" x="132" y="-84.5" font-family="Helvetica,sans-Serif" font-size="10.00">+ int getDivision()</text>
<text text-anchor="start" x="132" y="-73.5" font-family="Helvetica,sans-Serif" font-size="10.00">+ void setGateOnDuration</text>
<text text-anchor="start" x="132" y="-62.5" font-family="Helvetica,sans-Serif" font-size="10.00">(int duration)</text>
</a>
</g>
</g>
<!-- Node4&#45;&gt;Node5 -->
<g id="edge4" class="edge">
<title>Node4&#45;&gt;Node5</title>
<path fill="none" stroke="midnightblue" d="M332.29,-340.04C320.44,-327.29 308.41,-313.53 298,-300 284.74,-282.78 271.71,-263.55 259.82,-244.78"/>
<polygon fill="none" stroke="midnightblue" points="329.83,-342.53 339.24,-347.42 334.93,-337.74 329.83,-342.53"/>
</g>
<!-- Node6 -->
<g id="node6" class="node">
<title>Node6</title>
<g id="a_node6"><a xlink:href="classLED.xhtml" target="_top" xlink:title=" ">
<polygon fill="white" stroke="black" points="306.5,-0.5 306.5,-299.5 473.5,-299.5 473.5,-0.5 306.5,-0.5"/>
<text text-anchor="middle" x="390" y="-287.5" font-family="Helvetica,sans-Serif" font-size="10.00">LED</text>
<polyline fill="none" stroke="black" points="306.5,-280.5 473.5,-280.5 "/>
<text text-anchor="start" x="314.5" y="-268.5" font-family="Helvetica,sans-Serif" font-size="10.00">&#45; unsigned long blinkStartTime</text>
<text text-anchor="start" x="314.5" y="-257.5" font-family="Helvetica,sans-Serif" font-size="10.00">&#45; unsigned long blinkInterval</text>
<text text-anchor="start" x="314.5" y="-246.5" font-family="Helvetica,sans-Serif" font-size="10.00">&#45; int intensity</text>
<text text-anchor="start" x="314.5" y="-235.5" font-family="Helvetica,sans-Serif" font-size="10.00">&#45; bool isBlinking</text>
<text text-anchor="start" x="314.5" y="-224.5" font-family="Helvetica,sans-Serif" font-size="10.00">&#45; int ledOnDuration</text>
<text text-anchor="start" x="314.5" y="-213.5" font-family="Helvetica,sans-Serif" font-size="10.00">&#45; int invertedLedOnDuration</text>
<text text-anchor="start" x="314.5" y="-202.5" font-family="Helvetica,sans-Serif" font-size="10.00">&#45; unsigned long triggeredTime</text>
<text text-anchor="start" x="314.5" y="-191.5" font-family="Helvetica,sans-Serif" font-size="10.00">&#45; bool inverted</text>
<polyline fill="none" stroke="black" points="306.5,-184.5 473.5,-184.5 "/>
<text text-anchor="start" x="314.5" y="-172.5" font-family="Helvetica,sans-Serif" font-size="10.00">+ LED(int pin=&#45;1)</text>
<text text-anchor="start" x="314.5" y="-161.5" font-family="Helvetica,sans-Serif" font-size="10.00">+ ~LED()</text>
<text text-anchor="start" x="314.5" y="-150.5" font-family="Helvetica,sans-Serif" font-size="10.00">+ void startBlinking</text>
<text text-anchor="start" x="314.5" y="-139.5" font-family="Helvetica,sans-Serif" font-size="10.00">(unsigned long interval)</text>
<text text-anchor="start" x="314.5" y="-128.5" font-family="Helvetica,sans-Serif" font-size="10.00">+ void stopBlinking()</text>
<text text-anchor="start" x="314.5" y="-117.5" font-family="Helvetica,sans-Serif" font-size="10.00">+ void updateBlinking()</text>
<text text-anchor="start" x="314.5" y="-106.5" font-family="Helvetica,sans-Serif" font-size="10.00">+ void setIntensity(int</text>
<text text-anchor="start" x="314.5" y="-95.5" font-family="Helvetica,sans-Serif" font-size="10.00"> intensity)</text>
<text text-anchor="start" x="314.5" y="-84.5" font-family="Helvetica,sans-Serif" font-size="10.00">+ void trigger(unsigned</text>
<text text-anchor="start" x="314.5" y="-73.5" font-family="Helvetica,sans-Serif" font-size="10.00"> long currentTime, bool</text>
<text text-anchor="start" x="314.5" y="-62.5" font-family="Helvetica,sans-Serif" font-size="10.00"> inverted=false)</text>
<text text-anchor="start" x="314.5" y="-51.5" font-family="Helvetica,sans-Serif" font-size="10.00">+ void update(unsigned</text>
<text text-anchor="start" x="314.5" y="-40.5" font-family="Helvetica,sans-Serif" font-size="10.00"> long currentTime)</text>
<text text-anchor="start" x="314.5" y="-29.5" font-family="Helvetica,sans-Serif" font-size="10.00">+ void resetIvernted()</text>
<text text-anchor="start" x="314.5" y="-18.5" font-family="Helvetica,sans-Serif" font-size="10.00">+ void setLedOnDuration</text>
<text text-anchor="start" x="314.5" y="-7.5" font-family="Helvetica,sans-Serif" font-size="10.00">(int duration)</text>
</a>
</g>
</g>
<!-- Node4&#45;&gt;Node6 -->
<g id="edge5" class="edge">
<title>Node4&#45;&gt;Node6</title>
<path fill="none" stroke="midnightblue" d="M390,-336.88C390,-325.28 390,-312.67 390,-299.66"/>
<polygon fill="none" stroke="midnightblue" points="386.5,-337.22 390,-347.22 393.5,-337.22 386.5,-337.22"/>
</g>
<!-- Node7 -->
<g id="node7" class="node">
<title>Node7</title>
<g id="a_node7"><a xlink:href="classPWMPin.xhtml" target="_top" xlink:title=" ">
<polygon fill="white" stroke="black" points="491.5,-94 491.5,-206 628.5,-206 628.5,-94 491.5,-94"/>
<text text-anchor="middle" x="560" y="-194" font-family="Helvetica,sans-Serif" font-size="10.00">PWMPin</text>
<polyline fill="none" stroke="black" points="491.5,-187 628.5,-187 "/>
<text text-anchor="start" x="499.5" y="-175" font-family="Helvetica,sans-Serif" font-size="10.00">&#45; int dutyCycle</text>
<text text-anchor="start" x="499.5" y="-164" font-family="Helvetica,sans-Serif" font-size="10.00">&#45; HardwareTimer * timer</text>
<polyline fill="none" stroke="black" points="491.5,-157 628.5,-157 "/>
<text text-anchor="start" x="499.5" y="-145" font-family="Helvetica,sans-Serif" font-size="10.00">+ PWMPin(int pin=&#45;1)</text>
<text text-anchor="start" x="499.5" y="-134" font-family="Helvetica,sans-Serif" font-size="10.00">+ virtual void begin()</text>
<text text-anchor="start" x="499.5" y="-123" font-family="Helvetica,sans-Serif" font-size="10.00">+ void setDutyCycle(int</text>
<text text-anchor="start" x="499.5" y="-112" font-family="Helvetica,sans-Serif" font-size="10.00"> dutyCycle)</text>
<text text-anchor="start" x="499.5" y="-101" font-family="Helvetica,sans-Serif" font-size="10.00">+ int getDutyCycle()</text>
</a>
</g>
</g>
<!-- Node4&#45;&gt;Node7 -->
<g id="edge6" class="edge">
<title>Node4&#45;&gt;Node7</title>
<path fill="none" stroke="midnightblue" d="M449.78,-340.04C461.5,-327.43 473.19,-313.72 483,-300 503.83,-270.86 522.42,-235.33 536.11,-206.27"/>
<polygon fill="none" stroke="midnightblue" points="447.21,-337.66 442.89,-347.33 452.3,-342.47 447.21,-337.66"/>
</g>
</g>
</svg>
