<?xml version="1.0" encoding="UTF-8" standalone="no"?>
<!DOCTYPE svg PUBLIC "-//W3C//DTD SVG 1.1//EN"
 "http://www.w3.org/Graphics/SVG/1.1/DTD/svg11.dtd">
<!-- Generated by graphviz version 2.43.0 (0)
 -->
<!-- Title: LEDs Pages: 1 -->
<svg width="175pt" height="856pt"
 viewBox="0.00 0.00 175.00 856.00" xmlns="http://www.w3.org/2000/svg" xmlns:xlink="http://www.w3.org/1999/xlink">
<g id="graph0" class="graph" transform="scale(1 1) rotate(0) translate(4 852)">
<title>LEDs</title>
<polygon fill="white" stroke="transparent" points="-4,4 -4,-852 171,-852 171,4 -4,4"/>
<!-- Node1 -->
<g id="node1" class="node">
<title>Node1</title>
<g id="a_node1"><a xlink:title=" ">
<polygon fill="#bfbfbf" stroke="black" points="12,-0.5 12,-244.5 155,-244.5 155,-0.5 12,-0.5"/>
<text text-anchor="middle" x="83.5" y="-232.5" font-family="Helvetica,sans-Serif" font-size="10.00">LEDs</text>
<polyline fill="none" stroke="black" points="12,-225.5 155,-225.5 "/>
<text text-anchor="start" x="20" y="-213.5" font-family="Helvetica,sans-Serif" font-size="10.00">+ int numLeds</text>
<polyline fill="none" stroke="black" points="12,-206.5 155,-206.5 "/>
<text text-anchor="start" x="20" y="-194.5" font-family="Helvetica,sans-Serif" font-size="10.00">+ LEDs(std::vector&lt;</text>
<text text-anchor="start" x="20" y="-183.5" font-family="Helvetica,sans-Serif" font-size="10.00"> int &gt; pins, int numLeds)</text>
<text text-anchor="start" x="20" y="-172.5" font-family="Helvetica,sans-Serif" font-size="10.00">+ ~LEDs()</text>
<text text-anchor="start" x="20" y="-161.5" font-family="Helvetica,sans-Serif" font-size="10.00">+ void begin()</text>
<text text-anchor="start" x="20" y="-150.5" font-family="Helvetica,sans-Serif" font-size="10.00">+ void setState(int index,</text>
<text text-anchor="start" x="20" y="-139.5" font-family="Helvetica,sans-Serif" font-size="10.00"> bool state)</text>
<text text-anchor="start" x="20" y="-128.5" font-family="Helvetica,sans-Serif" font-size="10.00">+ void setState(int index,</text>
<text text-anchor="start" x="20" y="-117.5" font-family="Helvetica,sans-Serif" font-size="10.00"> bool state, int intensity)</text>
<text text-anchor="start" x="20" y="-106.5" font-family="Helvetica,sans-Serif" font-size="10.00">+ bool getState(int index)</text>
<text text-anchor="start" x="20" y="-95.5" font-family="Helvetica,sans-Serif" font-size="10.00">+ void setAllLeds(bool</text>
<text text-anchor="start" x="20" y="-84.5" font-family="Helvetica,sans-Serif" font-size="10.00"> state)</text>
<text text-anchor="start" x="20" y="-73.5" font-family="Helvetica,sans-Serif" font-size="10.00">+ void startBlinking</text>
<text text-anchor="start" x="20" y="-62.5" font-family="Helvetica,sans-Serif" font-size="10.00">(int index, unsigned</text>
<text text-anchor="start" x="20" y="-51.5" font-family="Helvetica,sans-Serif" font-size="10.00"> long interval)</text>
<text text-anchor="start" x="20" y="-40.5" font-family="Helvetica,sans-Serif" font-size="10.00">+ void stopBlinking(int</text>
<text text-anchor="start" x="20" y="-29.5" font-family="Helvetica,sans-Serif" font-size="10.00"> index)</text>
<text text-anchor="start" x="20" y="-18.5" font-family="Helvetica,sans-Serif" font-size="10.00">+ void stopAllBlinking()</text>
<text text-anchor="start" x="20" y="-7.5" font-family="Helvetica,sans-Serif" font-size="10.00">and 6 more...</text>
</a>
</g>
</g>
<!-- Node2 -->
<g id="node2" class="node">
<title>Node2</title>
<g id="a_node2"><a xlink:href="classLED.xhtml" target="_top" xlink:title=" ">
<polygon fill="white" stroke="black" points="0,-292.5 0,-591.5 167,-591.5 167,-292.5 0,-292.5"/>
<text text-anchor="middle" x="83.5" y="-579.5" font-family="Helvetica,sans-Serif" font-size="10.00">LED</text>
<polyline fill="none" stroke="black" points="0,-572.5 167,-572.5 "/>
<text text-anchor="start" x="8" y="-560.5" font-family="Helvetica,sans-Serif" font-size="10.00">&#45; unsigned long blinkStartTime</text>
<text text-anchor="start" x="8" y="-549.5" font-family="Helvetica,sans-Serif" font-size="10.00">&#45; unsigned long blinkInterval</text>
<text text-anchor="start" x="8" y="-538.5" font-family="Helvetica,sans-Serif" font-size="10.00">&#45; int intensity</text>
<text text-anchor="start" x="8" y="-527.5" font-family="Helvetica,sans-Serif" font-size="10.00">&#45; bool isBlinking</text>
<text text-anchor="start" x="8" y="-516.5" font-family="Helvetica,sans-Serif" font-size="10.00">&#45; int ledOnDuration</text>
<text text-anchor="start" x="8" y="-505.5" font-family="Helvetica,sans-Serif" font-size="10.00">&#45; int invertedLedOnDuration</text>
<text text-anchor="start" x="8" y="-494.5" font-family="Helvetica,sans-Serif" font-size="10.00">&#45; unsigned long triggeredTime</text>
<text text-anchor="start" x="8" y="-483.5" font-family="Helvetica,sans-Serif" font-size="10.00">&#45; bool inverted</text>
<polyline fill="none" stroke="black" points="0,-476.5 167,-476.5 "/>
<text text-anchor="start" x="8" y="-464.5" font-family="Helvetica,sans-Serif" font-size="10.00">+ LED(int pin=&#45;1)</text>
<text text-anchor="start" x="8" y="-453.5" font-family="Helvetica,sans-Serif" font-size="10.00">+ ~LED()</text>
<text text-anchor="start" x="8" y="-442.5" font-family="Helvetica,sans-Serif" font-size="10.00">+ void startBlinking</text>
<text text-anchor="start" x="8" y="-431.5" font-family="Helvetica,sans-Serif" font-size="10.00">(unsigned long interval)</text>
<text text-anchor="start" x="8" y="-420.5" font-family="Helvetica,sans-Serif" font-size="10.00">+ void stopBlinking()</text>
<text text-anchor="start" x="8" y="-409.5" font-family="Helvetica,sans-Serif" font-size="10.00">+ void updateBlinking()</text>
<text text-anchor="start" x="8" y="-398.5" font-family="Helvetica,sans-Serif" font-size="10.00">+ void setIntensity(int</text>
<text text-anchor="start" x="8" y="-387.5" font-family="Helvetica,sans-Serif" font-size="10.00"> intensity)</text>
<text text-anchor="start" x="8" y="-376.5" font-family="Helvetica,sans-Serif" font-size="10.00">+ void trigger(unsigned</text>
<text text-anchor="start" x="8" y="-365.5" font-family="Helvetica,sans-Serif" font-size="10.00"> long currentTime, bool</text>
<text text-anchor="start" x="8" y="-354.5" font-family="Helvetica,sans-Serif" font-size="10.00"> inverted=false)</text>
<text text-anchor="start" x="8" y="-343.5" font-family="Helvetica,sans-Serif" font-size="10.00">+ void update(unsigned</text>
<text text-anchor="start" x="8" y="-332.5" font-family="Helvetica,sans-Serif" font-size="10.00"> long currentTime)</text>
<text text-anchor="start" x="8" y="-321.5" font-family="Helvetica,sans-Serif" font-size="10.00">+ void resetIvernted()</text>
<text text-anchor="start" x="8" y="-310.5" font-family="Helvetica,sans-Serif" font-size="10.00">+ void setLedOnDuration</text>
<text text-anchor="start" x="8" y="-299.5" font-family="Helvetica,sans-Serif" font-size="10.00">(int duration)</text>
</a>
</g>
</g>
<!-- Node2&#45;&gt;Node1 -->
<g id="edge1" class="edge">
<title>Node2&#45;&gt;Node1</title>
<path fill="none" stroke="#404040" d="M83.5,-292.48C83.5,-280.62 83.5,-268.68 83.5,-256.94"/>
<polygon fill="none" stroke="#404040" points="83.5,-256.78 79.5,-250.78 83.5,-244.78 87.5,-250.78 83.5,-256.78"/>
<text text-anchor="middle" x="97.5" y="-266" font-family="Helvetica,sans-Serif" font-size="10.00"> &#45;leds</text>
</g>
<!-- Node3 -->
<g id="node3" class="node">
<title>Node3</title>
<g id="a_node3"><a xlink:href="classOutputPin.xhtml" target="_top" xlink:title=" ">
<polygon fill="white" stroke="black" points="16,-629.5 16,-730.5 151,-730.5 151,-629.5 16,-629.5"/>
<text text-anchor="middle" x="83.5" y="-718.5" font-family="Helvetica,sans-Serif" font-size="10.00">OutputPin</text>
<polyline fill="none" stroke="black" points="16,-711.5 151,-711.5 "/>
<text text-anchor="middle" x="83.5" y="-699.5" font-family="Helvetica,sans-Serif" font-size="10.00"> </text>
<polyline fill="none" stroke="black" points="16,-692.5 151,-692.5 "/>
<text text-anchor="start" x="24" y="-680.5" font-family="Helvetica,sans-Serif" font-size="10.00">+ OutputPin(int pin=&#45;1)</text>
<text text-anchor="start" x="24" y="-669.5" font-family="Helvetica,sans-Serif" font-size="10.00">+ virtual void begin()</text>
<text text-anchor="start" x="24" y="-658.5" font-family="Helvetica,sans-Serif" font-size="10.00">+ virtual void setState</text>
<text text-anchor="start" x="24" y="-647.5" font-family="Helvetica,sans-Serif" font-size="10.00">(bool state)</text>
<text text-anchor="start" x="24" y="-636.5" font-family="Helvetica,sans-Serif" font-size="10.00">+ virtual bool getState()</text>
</a>
</g>
</g>
<!-- Node3&#45;&gt;Node2 -->
<g id="edge2" class="edge">
<title>Node3&#45;&gt;Node2</title>
<path fill="none" stroke="midnightblue" d="M83.5,-618.96C83.5,-610.29 83.5,-601.07 83.5,-591.56"/>
<polygon fill="none" stroke="midnightblue" points="80,-619.24 83.5,-629.24 87,-619.24 80,-619.24"/>
</g>
<!-- Node4 -->
<g id="node4" class="node">
<title>Node4</title>
<g id="a_node4"><a xlink:href="classPin.xhtml" target="_top" xlink:title=" ">
<polygon fill="white" stroke="black" points="34,-768.5 34,-847.5 133,-847.5 133,-768.5 34,-768.5"/>
<text text-anchor="middle" x="83.5" y="-835.5" font-family="Helvetica,sans-Serif" font-size="10.00">Pin</text>
<polyline fill="none" stroke="black" points="34,-828.5 133,-828.5 "/>
<text text-anchor="start" x="42" y="-816.5" font-family="Helvetica,sans-Serif" font-size="10.00"># int pin</text>
<text text-anchor="start" x="42" y="-805.5" font-family="Helvetica,sans-Serif" font-size="10.00"># bool state</text>
<polyline fill="none" stroke="black" points="34,-798.5 133,-798.5 "/>
<text text-anchor="start" x="42" y="-786.5" font-family="Helvetica,sans-Serif" font-size="10.00">+ Pin(int pin=&#45;1)</text>
<text text-anchor="start" x="42" y="-775.5" font-family="Helvetica,sans-Serif" font-size="10.00">+ ~Pin()</text>
</a>
</g>
</g>
<!-- Node4&#45;&gt;Node3 -->
<g id="edge3" class="edge">
<title>Node4&#45;&gt;Node3</title>
<path fill="none" stroke="midnightblue" d="M83.5,-757.89C83.5,-748.94 83.5,-739.6 83.5,-730.63"/>
<polygon fill="none" stroke="midnightblue" points="80,-758.17 83.5,-768.17 87,-758.17 80,-758.17"/>
</g>
</g>
</svg>
