<?xml version="1.0" encoding="UTF-8" standalone="no"?>
<!DOCTYPE svg PUBLIC "-//W3C//DTD SVG 1.1//EN"
 "http://www.w3.org/Graphics/SVG/1.1/DTD/svg11.dtd">
<!-- Generated by graphviz version 2.43.0 (0)
 -->
<!-- Title: LED Pages: 1 -->
<svg width="175pt" height="562pt"
 viewBox="0.00 0.00 175.00 562.00" xmlns="http://www.w3.org/2000/svg" xmlns:xlink="http://www.w3.org/1999/xlink">
<g id="graph0" class="graph" transform="scale(1 1) rotate(0) translate(4 558)">
<title>LED</title>
<polygon fill="white" stroke="transparent" points="-4,4 -4,-558 171,-558 171,4 -4,4"/>
<!-- Node1 -->
<g id="node1" class="node">
<title>Node1</title>
<g id="a_node1"><a xlink:title=" ">
<polygon fill="#bfbfbf" stroke="black" points="0,-0.5 0,-299.5 167,-299.5 167,-0.5 0,-0.5"/>
<text text-anchor="middle" x="83.5" y="-287.5" font-family="Helvetica,sans-Serif" font-size="10.00">LED</text>
<polyline fill="none" stroke="black" points="0,-280.5 167,-280.5 "/>
<text text-anchor="start" x="8" y="-268.5" font-family="Helvetica,sans-Serif" font-size="10.00">&#45; unsigned long blinkStartTime</text>
<text text-anchor="start" x="8" y="-257.5" font-family="Helvetica,sans-Serif" font-size="10.00">&#45; unsigned long blinkInterval</text>
<text text-anchor="start" x="8" y="-246.5" font-family="Helvetica,sans-Serif" font-size="10.00">&#45; int intensity</text>
<text text-anchor="start" x="8" y="-235.5" font-family="Helvetica,sans-Serif" font-size="10.00">&#45; bool isBlinking</text>
<text text-anchor="start" x="8" y="-224.5" font-family="Helvetica,sans-Serif" font-size="10.00">&#45; int ledOnDuration</text>
<text text-anchor="start" x="8" y="-213.5" font-family="Helvetica,sans-Serif" font-size="10.00">&#45; int invertedLedOnDuration</text>
<text text-anchor="start" x="8" y="-202.5" font-family="Helvetica,sans-Serif" font-size="10.00">&#45; unsigned long triggeredTime</text>
<text text-anchor="start" x="8" y="-191.5" font-family="Helvetica,sans-Serif" font-size="10.00">&#45; bool inverted</text>
<polyline fill="none" stroke="black" points="0,-184.5 167,-184.5 "/>
<text text-anchor="start" x="8" y="-172.5" font-family="Helvetica,sans-Serif" font-size="10.00">+ LED(int pin=&#45;1)</text>
<text text-anchor="start" x="8" y="-161.5" font-family="Helvetica,sans-Serif" font-size="10.00">+ ~LED()</text>
<text text-anchor="start" x="8" y="-150.5" font-family="Helvetica,sans-Serif" font-size="10.00">+ void startBlinking</text>
<text text-anchor="start" x="8" y="-139.5" font-family="Helvetica,sans-Serif" font-size="10.00">(unsigned long interval)</text>
<text text-anchor="start" x="8" y="-128.5" font-family="Helvetica,sans-Serif" font-size="10.00">+ void stopBlinking()</text>
<text text-anchor="start" x="8" y="-117.5" font-family="Helvetica,sans-Serif" font-size="10.00">+ void updateBlinking()</text>
<text text-anchor="start" x="8" y="-106.5" font-family="Helvetica,sans-Serif" font-size="10.00">+ void setIntensity(int</text>
<text text-anchor="start" x="8" y="-95.5" font-family="Helvetica,sans-Serif" font-size="10.00"> intensity)</text>
<text text-anchor="start" x="8" y="-84.5" font-family="Helvetica,sans-Serif" font-size="10.00">+ void trigger(unsigned</text>
<text text-anchor="start" x="8" y="-73.5" font-family="Helvetica,sans-Serif" font-size="10.00"> long currentTime, bool</text>
<text text-anchor="start" x="8" y="-62.5" font-family="Helvetica,sans-Serif" font-size="10.00"> inverted=false)</text>
<text text-anchor="start" x="8" y="-51.5" font-family="Helvetica,sans-Serif" font-size="10.00">+ void update(unsigned</text>
<text text-anchor="start" x="8" y="-40.5" font-family="Helvetica,sans-Serif" font-size="10.00"> long currentTime)</text>
<text text-anchor="start" x="8" y="-29.5" font-family="Helvetica,sans-Serif" font-size="10.00">+ void resetIvernted()</text>
<text text-anchor="start" x="8" y="-18.5" font-family="Helvetica,sans-Serif" font-size="10.00">+ void setLedOnDuration</text>
<text text-anchor="start" x="8" y="-7.5" font-family="Helvetica,sans-Serif" font-size="10.00">(int duration)</text>
</a>
</g>
</g>
<!-- Node2 -->
<g id="node2" class="node">
<title>Node2</title>
<g id="a_node2"><a xlink:href="classOutputPin.html" target="_top" xlink:title=" ">
<polygon fill="white" stroke="black" points="16,-336.5 16,-437.5 151,-437.5 151,-336.5 16,-336.5"/>
<text text-anchor="middle" x="83.5" y="-425.5" font-family="Helvetica,sans-Serif" font-size="10.00">OutputPin</text>
<polyline fill="none" stroke="black" points="16,-418.5 151,-418.5 "/>
<text text-anchor="middle" x="83.5" y="-406.5" font-family="Helvetica,sans-Serif" font-size="10.00"> </text>
<polyline fill="none" stroke="black" points="16,-399.5 151,-399.5 "/>
<text text-anchor="start" x="24" y="-387.5" font-family="Helvetica,sans-Serif" font-size="10.00">+ OutputPin(int pin=&#45;1)</text>
<text text-anchor="start" x="24" y="-376.5" font-family="Helvetica,sans-Serif" font-size="10.00">+ virtual void begin()</text>
<text text-anchor="start" x="24" y="-365.5" font-family="Helvetica,sans-Serif" font-size="10.00">+ virtual void setState</text>
<text text-anchor="start" x="24" y="-354.5" font-family="Helvetica,sans-Serif" font-size="10.00">(bool state)</text>
<text text-anchor="start" x="24" y="-343.5" font-family="Helvetica,sans-Serif" font-size="10.00">+ virtual bool getState()</text>
</a>
</g>
</g>
<!-- Node2&#45;&gt;Node1 -->
<g id="edge1" class="edge">
<title>Node2&#45;&gt;Node1</title>
<path fill="none" stroke="midnightblue" d="M83.5,-326.18C83.5,-317.85 83.5,-308.99 83.5,-299.87"/>
<polygon fill="none" stroke="midnightblue" points="80,-326.45 83.5,-336.45 87,-326.45 80,-326.45"/>
</g>
<!-- Node3 -->
<g id="node3" class="node">
<title>Node3</title>
<g id="a_node3"><a xlink:href="classPin.html" target="_top" xlink:title=" ">
<polygon fill="white" stroke="black" points="34,-474.5 34,-553.5 133,-553.5 133,-474.5 34,-474.5"/>
<text text-anchor="middle" x="83.5" y="-541.5" font-family="Helvetica,sans-Serif" font-size="10.00">Pin</text>
<polyline fill="none" stroke="black" points="34,-534.5 133,-534.5 "/>
<text text-anchor="start" x="42" y="-522.5" font-family="Helvetica,sans-Serif" font-size="10.00"># int pin</text>
<text text-anchor="start" x="42" y="-511.5" font-family="Helvetica,sans-Serif" font-size="10.00"># bool state</text>
<polyline fill="none" stroke="black" points="34,-504.5 133,-504.5 "/>
<text text-anchor="start" x="42" y="-492.5" font-family="Helvetica,sans-Serif" font-size="10.00">+ Pin(int pin=&#45;1)</text>
<text text-anchor="start" x="42" y="-481.5" font-family="Helvetica,sans-Serif" font-size="10.00">+ ~Pin()</text>
</a>
</g>
</g>
<!-- Node3&#45;&gt;Node2 -->
<g id="edge2" class="edge">
<title>Node3&#45;&gt;Node2</title>
<path fill="none" stroke="midnightblue" d="M83.5,-464.41C83.5,-455.64 83.5,-446.49 83.5,-437.69"/>
<polygon fill="none" stroke="midnightblue" points="80,-464.48 83.5,-474.48 87,-464.48 80,-464.48"/>
</g>
</g>
</svg>
