<?xml version="1.0" encoding="UTF-8" standalone="no"?>
<!DOCTYPE svg PUBLIC "-//W3C//DTD SVG 1.1//EN"
 "http://www.w3.org/Graphics/SVG/1.1/DTD/svg11.dtd">
<!-- Generated by graphviz version 2.43.0 (0)
 -->
<!-- Title: Gates Pages: 1 -->
<svg width="173pt" height="856pt"
 viewBox="0.00 0.00 173.00 856.00" xmlns="http://www.w3.org/2000/svg" xmlns:xlink="http://www.w3.org/1999/xlink">
<g id="graph0" class="graph" transform="scale(1 1) rotate(0) translate(4 852)">
<title>Gates</title>
<polygon fill="white" stroke="transparent" points="-4,4 -4,-852 169,-852 169,4 -4,4"/>
<!-- Node1 -->
<g id="node1" class="node">
<title>Node1</title>
<g id="a_node1"><a xlink:title=" ">
<polygon fill="#bfbfbf" stroke="black" points="0,-0.5 0,-354.5 165,-354.5 165,-0.5 0,-0.5"/>
<text text-anchor="middle" x="82.5" y="-342.5" font-family="Helvetica,sans-Serif" font-size="10.00">Gates</text>
<polyline fill="none" stroke="black" points="0,-335.5 165,-335.5 "/>
<text text-anchor="start" x="8" y="-323.5" font-family="Helvetica,sans-Serif" font-size="10.00">+ int numGates</text>
<text text-anchor="start" x="8" y="-312.5" font-family="Helvetica,sans-Serif" font-size="10.00">+ int * gateCounters</text>
<text text-anchor="start" x="8" y="-301.5" font-family="Helvetica,sans-Serif" font-size="10.00">&#45; int selectedGate</text>
<polyline fill="none" stroke="black" points="0,-294.5 165,-294.5 "/>
<text text-anchor="start" x="8" y="-282.5" font-family="Helvetica,sans-Serif" font-size="10.00">+ Gates(std::vector</text>
<text text-anchor="start" x="8" y="-271.5" font-family="Helvetica,sans-Serif" font-size="10.00">&lt; int &gt; pins, int numGates)</text>
<text text-anchor="start" x="8" y="-260.5" font-family="Helvetica,sans-Serif" font-size="10.00">+ ~Gates()</text>
<text text-anchor="start" x="8" y="-249.5" font-family="Helvetica,sans-Serif" font-size="10.00">+ void begin()</text>
<text text-anchor="start" x="8" y="-238.5" font-family="Helvetica,sans-Serif" font-size="10.00">+ void setState(int gateIndex,</text>
<text text-anchor="start" x="8" y="-227.5" font-family="Helvetica,sans-Serif" font-size="10.00"> bool state)</text>
<text text-anchor="start" x="8" y="-216.5" font-family="Helvetica,sans-Serif" font-size="10.00">+ bool getState(int gateIndex)</text>
<text text-anchor="start" x="8" y="-205.5" font-family="Helvetica,sans-Serif" font-size="10.00">+ void turnOnGate(int</text>
<text text-anchor="start" x="8" y="-194.5" font-family="Helvetica,sans-Serif" font-size="10.00"> index)</text>
<text text-anchor="start" x="8" y="-183.5" font-family="Helvetica,sans-Serif" font-size="10.00">+ void turnOffGate(int</text>
<text text-anchor="start" x="8" y="-172.5" font-family="Helvetica,sans-Serif" font-size="10.00"> index)</text>
<text text-anchor="start" x="8" y="-161.5" font-family="Helvetica,sans-Serif" font-size="10.00">+ void setALLGates(bool</text>
<text text-anchor="start" x="8" y="-150.5" font-family="Helvetica,sans-Serif" font-size="10.00"> state)</text>
<text text-anchor="start" x="8" y="-139.5" font-family="Helvetica,sans-Serif" font-size="10.00">+ void update(unsigned</text>
<text text-anchor="start" x="8" y="-128.5" font-family="Helvetica,sans-Serif" font-size="10.00"> long currentTime)</text>
<text text-anchor="start" x="8" y="-117.5" font-family="Helvetica,sans-Serif" font-size="10.00">+ void trigger(int index,</text>
<text text-anchor="start" x="8" y="-106.5" font-family="Helvetica,sans-Serif" font-size="10.00"> unsigned long currentTime)</text>
<text text-anchor="start" x="8" y="-95.5" font-family="Helvetica,sans-Serif" font-size="10.00">+ void setDivision(int</text>
<text text-anchor="start" x="8" y="-84.5" font-family="Helvetica,sans-Serif" font-size="10.00"> index, int division)</text>
<text text-anchor="start" x="8" y="-73.5" font-family="Helvetica,sans-Serif" font-size="10.00">+ int getDivision(int</text>
<text text-anchor="start" x="8" y="-62.5" font-family="Helvetica,sans-Serif" font-size="10.00"> index)</text>
<text text-anchor="start" x="8" y="-51.5" font-family="Helvetica,sans-Serif" font-size="10.00">+ void setSelectedGate</text>
<text text-anchor="start" x="8" y="-40.5" font-family="Helvetica,sans-Serif" font-size="10.00">(int gate)</text>
<text text-anchor="start" x="8" y="-29.5" font-family="Helvetica,sans-Serif" font-size="10.00">+ int getSelectedGate()</text>
<text text-anchor="start" x="8" y="-18.5" font-family="Helvetica,sans-Serif" font-size="10.00">+ void setGateOnDuration</text>
<text text-anchor="start" x="8" y="-7.5" font-family="Helvetica,sans-Serif" font-size="10.00">(int index, int duration)</text>
</a>
</g>
</g>
<!-- Node2 -->
<g id="node2" class="node">
<title>Node2</title>
<g id="a_node2"><a xlink:href="classGate.html" target="_top" xlink:title=" ">
<polygon fill="white" stroke="black" points="0.5,-402.5 0.5,-591.5 164.5,-591.5 164.5,-402.5 0.5,-402.5"/>
<text text-anchor="middle" x="82.5" y="-579.5" font-family="Helvetica,sans-Serif" font-size="10.00">Gate</text>
<polyline fill="none" stroke="black" points="0.5,-572.5 164.5,-572.5 "/>
<text text-anchor="start" x="8.5" y="-560.5" font-family="Helvetica,sans-Serif" font-size="10.00">&#45; int gateOnDuration</text>
<text text-anchor="start" x="8.5" y="-549.5" font-family="Helvetica,sans-Serif" font-size="10.00">&#45; unsigned long triggeredTime</text>
<text text-anchor="start" x="8.5" y="-538.5" font-family="Helvetica,sans-Serif" font-size="10.00">&#45; int division</text>
<polyline fill="none" stroke="black" points="0.5,-531.5 164.5,-531.5 "/>
<text text-anchor="start" x="8.5" y="-519.5" font-family="Helvetica,sans-Serif" font-size="10.00">+ Gate(int pin=&#45;1)</text>
<text text-anchor="start" x="8.5" y="-508.5" font-family="Helvetica,sans-Serif" font-size="10.00">+ ~Gate()</text>
<text text-anchor="start" x="8.5" y="-497.5" font-family="Helvetica,sans-Serif" font-size="10.00">+ void trigger(unsigned</text>
<text text-anchor="start" x="8.5" y="-486.5" font-family="Helvetica,sans-Serif" font-size="10.00"> long currentTime)</text>
<text text-anchor="start" x="8.5" y="-475.5" font-family="Helvetica,sans-Serif" font-size="10.00">+ void update(unsigned</text>
<text text-anchor="start" x="8.5" y="-464.5" font-family="Helvetica,sans-Serif" font-size="10.00"> long currentTime)</text>
<text text-anchor="start" x="8.5" y="-453.5" font-family="Helvetica,sans-Serif" font-size="10.00">+ void setDivision(int</text>
<text text-anchor="start" x="8.5" y="-442.5" font-family="Helvetica,sans-Serif" font-size="10.00"> divition)</text>
<text text-anchor="start" x="8.5" y="-431.5" font-family="Helvetica,sans-Serif" font-size="10.00">+ int getDivision()</text>
<text text-anchor="start" x="8.5" y="-420.5" font-family="Helvetica,sans-Serif" font-size="10.00">+ void setGateOnDuration</text>
<text text-anchor="start" x="8.5" y="-409.5" font-family="Helvetica,sans-Serif" font-size="10.00">(int duration)</text>
</a>
</g>
</g>
<!-- Node2&#45;&gt;Node1 -->
<g id="edge1" class="edge">
<title>Node2&#45;&gt;Node1</title>
<path fill="none" stroke="#404040" d="M82.5,-402.46C82.5,-391.07 82.5,-379.14 82.5,-366.97"/>
<polygon fill="none" stroke="#404040" points="82.5,-366.73 78.5,-360.73 82.5,-354.73 86.5,-360.73 82.5,-366.73"/>
<text text-anchor="middle" x="110" y="-376" font-family="Helvetica,sans-Serif" font-size="10.00"> &#45;gateArray</text>
</g>
<!-- Node3 -->
<g id="node3" class="node">
<title>Node3</title>
<g id="a_node3"><a xlink:href="classOutputPin.html" target="_top" xlink:title=" ">
<polygon fill="white" stroke="black" points="15,-629.5 15,-730.5 150,-730.5 150,-629.5 15,-629.5"/>
<text text-anchor="middle" x="82.5" y="-718.5" font-family="Helvetica,sans-Serif" font-size="10.00">OutputPin</text>
<polyline fill="none" stroke="black" points="15,-711.5 150,-711.5 "/>
<text text-anchor="middle" x="82.5" y="-699.5" font-family="Helvetica,sans-Serif" font-size="10.00"> </text>
<polyline fill="none" stroke="black" points="15,-692.5 150,-692.5 "/>
<text text-anchor="start" x="23" y="-680.5" font-family="Helvetica,sans-Serif" font-size="10.00">+ OutputPin(int pin=&#45;1)</text>
<text text-anchor="start" x="23" y="-669.5" font-family="Helvetica,sans-Serif" font-size="10.00">+ virtual void begin()</text>
<text text-anchor="start" x="23" y="-658.5" font-family="Helvetica,sans-Serif" font-size="10.00">+ virtual void setState</text>
<text text-anchor="start" x="23" y="-647.5" font-family="Helvetica,sans-Serif" font-size="10.00">(bool state)</text>
<text text-anchor="start" x="23" y="-636.5" font-family="Helvetica,sans-Serif" font-size="10.00">+ virtual bool getState()</text>
</a>
</g>
</g>
<!-- Node3&#45;&gt;Node2 -->
<g id="edge2" class="edge">
<title>Node3&#45;&gt;Node2</title>
<path fill="none" stroke="midnightblue" d="M82.5,-618.93C82.5,-610.1 82.5,-600.84 82.5,-591.53"/>
<polygon fill="none" stroke="midnightblue" points="79,-619.06 82.5,-629.06 86,-619.06 79,-619.06"/>
</g>
<!-- Node4 -->
<g id="node4" class="node">
<title>Node4</title>
<g id="a_node4"><a xlink:href="classPin.html" target="_top" xlink:title=" ">
<polygon fill="white" stroke="black" points="33,-768.5 33,-847.5 132,-847.5 132,-768.5 33,-768.5"/>
<text text-anchor="middle" x="82.5" y="-835.5" font-family="Helvetica,sans-Serif" font-size="10.00">Pin</text>
<polyline fill="none" stroke="black" points="33,-828.5 132,-828.5 "/>
<text text-anchor="start" x="41" y="-816.5" font-family="Helvetica,sans-Serif" font-size="10.00"># int pin</text>
<text text-anchor="start" x="41" y="-805.5" font-family="Helvetica,sans-Serif" font-size="10.00"># bool state</text>
<polyline fill="none" stroke="black" points="33,-798.5 132,-798.5 "/>
<text text-anchor="start" x="41" y="-786.5" font-family="Helvetica,sans-Serif" font-size="10.00">+ Pin(int pin=&#45;1)</text>
<text text-anchor="start" x="41" y="-775.5" font-family="Helvetica,sans-Serif" font-size="10.00">+ ~Pin()</text>
</a>
</g>
</g>
<!-- Node4&#45;&gt;Node3 -->
<g id="edge3" class="edge">
<title>Node4&#45;&gt;Node3</title>
<path fill="none" stroke="midnightblue" d="M82.5,-757.89C82.5,-748.94 82.5,-739.6 82.5,-730.63"/>
<polygon fill="none" stroke="midnightblue" points="79,-758.17 82.5,-768.17 86,-758.17 79,-758.17"/>
</g>
</g>
</svg>
