<?xml version="1.0" encoding="UTF-8" standalone="no"?>
<!DOCTYPE svg PUBLIC "-//W3C//DTD SVG 1.1//EN"
 "http://www.w3.org/Graphics/SVG/1.1/DTD/svg11.dtd">
<!-- Generated by graphviz version 2.43.0 (0)
 -->
<!-- Title: PWMPin Pages: 1 -->
<svg width="145pt" height="375pt"
 viewBox="0.00 0.00 145.00 375.00" xmlns="http://www.w3.org/2000/svg" xmlns:xlink="http://www.w3.org/1999/xlink">
<g id="graph0" class="graph" transform="scale(1 1) rotate(0) translate(4 371)">
<title>PWMPin</title>
<polygon fill="white" stroke="transparent" points="-4,4 -4,-371 141,-371 141,4 -4,4"/>
<!-- Node1 -->
<g id="node1" class="node">
<title>Node1</title>
<g id="a_node1"><a xlink:title=" ">
<polygon fill="#bfbfbf" stroke="black" points="0,-0.5 0,-112.5 137,-112.5 137,-0.5 0,-0.5"/>
<text text-anchor="middle" x="68.5" y="-100.5" font-family="Helvetica,sans-Serif" font-size="10.00">PWMPin</text>
<polyline fill="none" stroke="black" points="0,-93.5 137,-93.5 "/>
<text text-anchor="start" x="8" y="-81.5" font-family="Helvetica,sans-Serif" font-size="10.00">&#45; int dutyCycle</text>
<text text-anchor="start" x="8" y="-70.5" font-family="Helvetica,sans-Serif" font-size="10.00">&#45; HardwareTimer * timer</text>
<polyline fill="none" stroke="black" points="0,-63.5 137,-63.5 "/>
<text text-anchor="start" x="8" y="-51.5" font-family="Helvetica,sans-Serif" font-size="10.00">+ PWMPin(int pin=&#45;1)</text>
<text text-anchor="start" x="8" y="-40.5" font-family="Helvetica,sans-Serif" font-size="10.00">+ virtual void begin()</text>
<text text-anchor="start" x="8" y="-29.5" font-family="Helvetica,sans-Serif" font-size="10.00">+ void setDutyCycle(int</text>
<text text-anchor="start" x="8" y="-18.5" font-family="Helvetica,sans-Serif" font-size="10.00"> dutyCycle)</text>
<text text-anchor="start" x="8" y="-7.5" font-family="Helvetica,sans-Serif" font-size="10.00">+ int getDutyCycle()</text>
</a>
</g>
</g>
<!-- Node2 -->
<g id="node2" class="node">
<title>Node2</title>
<g id="a_node2"><a xlink:href="classOutputPin.xhtml" target="_top" xlink:title=" ">
<polygon fill="white" stroke="black" points="1,-149.5 1,-250.5 136,-250.5 136,-149.5 1,-149.5"/>
<text text-anchor="middle" x="68.5" y="-238.5" font-family="Helvetica,sans-Serif" font-size="10.00">OutputPin</text>
<polyline fill="none" stroke="black" points="1,-231.5 136,-231.5 "/>
<text text-anchor="middle" x="68.5" y="-219.5" font-family="Helvetica,sans-Serif" font-size="10.00"> </text>
<polyline fill="none" stroke="black" points="1,-212.5 136,-212.5 "/>
<text text-anchor="start" x="9" y="-200.5" font-family="Helvetica,sans-Serif" font-size="10.00">+ OutputPin(int pin=&#45;1)</text>
<text text-anchor="start" x="9" y="-189.5" font-family="Helvetica,sans-Serif" font-size="10.00">+ virtual void begin()</text>
<text text-anchor="start" x="9" y="-178.5" font-family="Helvetica,sans-Serif" font-size="10.00">+ virtual void setState</text>
<text text-anchor="start" x="9" y="-167.5" font-family="Helvetica,sans-Serif" font-size="10.00">(bool state)</text>
<text text-anchor="start" x="9" y="-156.5" font-family="Helvetica,sans-Serif" font-size="10.00">+ virtual bool getState()</text>
</a>
</g>
</g>
<!-- Node2&#45;&gt;Node1 -->
<g id="edge1" class="edge">
<title>Node2&#45;&gt;Node1</title>
<path fill="none" stroke="midnightblue" d="M68.5,-139.01C68.5,-130.29 68.5,-121.34 68.5,-112.72"/>
<polygon fill="none" stroke="midnightblue" points="65,-139.11 68.5,-149.11 72,-139.11 65,-139.11"/>
</g>
<!-- Node3 -->
<g id="node3" class="node">
<title>Node3</title>
<g id="a_node3"><a xlink:href="classPin.xhtml" target="_top" xlink:title=" ">
<polygon fill="white" stroke="black" points="19,-287.5 19,-366.5 118,-366.5 118,-287.5 19,-287.5"/>
<text text-anchor="middle" x="68.5" y="-354.5" font-family="Helvetica,sans-Serif" font-size="10.00">Pin</text>
<polyline fill="none" stroke="black" points="19,-347.5 118,-347.5 "/>
<text text-anchor="start" x="27" y="-335.5" font-family="Helvetica,sans-Serif" font-size="10.00"># int pin</text>
<text text-anchor="start" x="27" y="-324.5" font-family="Helvetica,sans-Serif" font-size="10.00"># bool state</text>
<polyline fill="none" stroke="black" points="19,-317.5 118,-317.5 "/>
<text text-anchor="start" x="27" y="-305.5" font-family="Helvetica,sans-Serif" font-size="10.00">+ Pin(int pin=&#45;1)</text>
<text text-anchor="start" x="27" y="-294.5" font-family="Helvetica,sans-Serif" font-size="10.00">+ ~Pin()</text>
</a>
</g>
</g>
<!-- Node3&#45;&gt;Node2 -->
<g id="edge2" class="edge">
<title>Node3&#45;&gt;Node2</title>
<path fill="none" stroke="midnightblue" d="M68.5,-277.41C68.5,-268.64 68.5,-259.49 68.5,-250.69"/>
<polygon fill="none" stroke="midnightblue" points="65,-277.48 68.5,-287.48 72,-277.48 65,-277.48"/>
</g>
</g>
</svg>
