<?xml version="1.0" encoding="UTF-8" standalone="no"?>
<!DOCTYPE svg PUBLIC "-//W3C//DTD SVG 1.1//EN"
 "http://www.w3.org/Graphics/SVG/1.1/DTD/svg11.dtd">
<!-- Generated by graphviz version 2.43.0 (0)
 -->
<!-- Title: SPDTSwitch Pages: 1 -->
<svg width="154pt" height="398pt"
 viewBox="0.00 0.00 154.00 398.00" xmlns="http://www.w3.org/2000/svg" xmlns:xlink="http://www.w3.org/1999/xlink">
<g id="graph0" class="graph" transform="scale(1 1) rotate(0) translate(4 394)">
<title>SPDTSwitch</title>
<polygon fill="white" stroke="transparent" points="-4,4 -4,-394 150,-394 150,4 -4,4"/>
<!-- Node1 -->
<g id="node1" class="node">
<title>Node1</title>
<g id="a_node1"><a xlink:title=" ">
<polygon fill="#bfbfbf" stroke="black" points="8,-0.5 8,-90.5 138,-90.5 138,-0.5 8,-0.5"/>
<text text-anchor="middle" x="73" y="-78.5" font-family="Helvetica,sans-Serif" font-size="10.00">SPDTSwitch</text>
<polyline fill="none" stroke="black" points="8,-71.5 138,-71.5 "/>
<text text-anchor="middle" x="73" y="-59.5" font-family="Helvetica,sans-Serif" font-size="10.00"> </text>
<polyline fill="none" stroke="black" points="8,-52.5 138,-52.5 "/>
<text text-anchor="start" x="16" y="-40.5" font-family="Helvetica,sans-Serif" font-size="10.00">+ SPDTSwitch(int pinA,</text>
<text text-anchor="start" x="16" y="-29.5" font-family="Helvetica,sans-Serif" font-size="10.00"> int pinB)</text>
<text text-anchor="start" x="16" y="-18.5" font-family="Helvetica,sans-Serif" font-size="10.00">+ void begin()</text>
<text text-anchor="start" x="16" y="-7.5" font-family="Helvetica,sans-Serif" font-size="10.00">+ SwitchState read()</text>
</a>
</g>
</g>
<!-- Node2 -->
<g id="node2" class="node">
<title>Node2</title>
<g id="a_node2"><a xlink:href="classInputPin.xhtml" target="_top" xlink:title=" ">
<polygon fill="white" stroke="black" points="0,-149.5 0,-272.5 146,-272.5 146,-149.5 0,-149.5"/>
<text text-anchor="middle" x="73" y="-260.5" font-family="Helvetica,sans-Serif" font-size="10.00">InputPin</text>
<polyline fill="none" stroke="black" points="0,-253.5 146,-253.5 "/>
<text text-anchor="start" x="8" y="-241.5" font-family="Helvetica,sans-Serif" font-size="10.00">&#45; bool useInternalPullup</text>
<text text-anchor="start" x="8" y="-230.5" font-family="Helvetica,sans-Serif" font-size="10.00">&#45; bool useInternalPulldown</text>
<polyline fill="none" stroke="black" points="0,-223.5 146,-223.5 "/>
<text text-anchor="start" x="8" y="-211.5" font-family="Helvetica,sans-Serif" font-size="10.00">+ InputPin(int pin)</text>
<text text-anchor="start" x="8" y="-200.5" font-family="Helvetica,sans-Serif" font-size="10.00">+ InputPin(int pin,</text>
<text text-anchor="start" x="8" y="-189.5" font-family="Helvetica,sans-Serif" font-size="10.00"> bool internalPullup,</text>
<text text-anchor="start" x="8" y="-178.5" font-family="Helvetica,sans-Serif" font-size="10.00"> bool internalPulldown)</text>
<text text-anchor="start" x="8" y="-167.5" font-family="Helvetica,sans-Serif" font-size="10.00">+ virtual void begin()</text>
<text text-anchor="start" x="8" y="-156.5" font-family="Helvetica,sans-Serif" font-size="10.00">+ virtual bool getState()</text>
</a>
</g>
</g>
<!-- Node2&#45;&gt;Node1 -->
<g id="edge1" class="edge">
<title>Node2&#45;&gt;Node1</title>
<path fill="none" stroke="#404040" d="M73,-149.12C73,-133.94 73,-117.73 73,-102.79"/>
<polygon fill="none" stroke="#404040" points="73,-102.58 69,-96.58 73,-90.58 77,-96.58 73,-102.58"/>
<text text-anchor="middle" x="87.5" y="-123" font-family="Helvetica,sans-Serif" font-size="10.00"> &#45;pinA</text>
<text text-anchor="middle" x="87.5" y="-112" font-family="Helvetica,sans-Serif" font-size="10.00">&#45;pinB</text>
</g>
<!-- Node3 -->
<g id="node3" class="node">
<title>Node3</title>
<g id="a_node3"><a xlink:href="classPin.xhtml" target="_top" xlink:title=" ">
<polygon fill="white" stroke="black" points="23.5,-310.5 23.5,-389.5 122.5,-389.5 122.5,-310.5 23.5,-310.5"/>
<text text-anchor="middle" x="73" y="-377.5" font-family="Helvetica,sans-Serif" font-size="10.00">Pin</text>
<polyline fill="none" stroke="black" points="23.5,-370.5 122.5,-370.5 "/>
<text text-anchor="start" x="31.5" y="-358.5" font-family="Helvetica,sans-Serif" font-size="10.00"># int pin</text>
<text text-anchor="start" x="31.5" y="-347.5" font-family="Helvetica,sans-Serif" font-size="10.00"># bool state</text>
<polyline fill="none" stroke="black" points="23.5,-340.5 122.5,-340.5 "/>
<text text-anchor="start" x="31.5" y="-328.5" font-family="Helvetica,sans-Serif" font-size="10.00">+ Pin(int pin=&#45;1)</text>
<text text-anchor="start" x="31.5" y="-317.5" font-family="Helvetica,sans-Serif" font-size="10.00">+ ~Pin()</text>
</a>
</g>
</g>
<!-- Node3&#45;&gt;Node2 -->
<g id="edge2" class="edge">
<title>Node3&#45;&gt;Node2</title>
<path fill="none" stroke="midnightblue" d="M73,-300.21C73,-291.25 73,-281.79 73,-272.53"/>
<polygon fill="none" stroke="midnightblue" points="69.5,-300.47 73,-310.47 76.5,-300.47 69.5,-300.47"/>
</g>
</g>
</svg>
