<?xml version="1.0" encoding="UTF-8" standalone="no"?>
<!DOCTYPE svg PUBLIC "-//W3C//DTD SVG 1.1//EN"
 "http://www.w3.org/Graphics/SVG/1.1/DTD/svg11.dtd">
<!-- Generated by graphviz version 2.43.0 (0)
 -->
<!-- Title: AnalogInputPin Pages: 1 -->
<svg width="148pt" height="204pt"
 viewBox="0.00 0.00 148.00 204.00" xmlns="http://www.w3.org/2000/svg" xmlns:xlink="http://www.w3.org/1999/xlink">
<g id="graph0" class="graph" transform="scale(1 1) rotate(0) translate(4 200)">
<title>AnalogInputPin</title>
<polygon fill="white" stroke="transparent" points="-4,4 -4,-200 144,-200 144,4 -4,4"/>
<!-- Node1 -->
<g id="node1" class="node">
<title>Node1</title>
<g id="a_node1"><a xlink:title=" ">
<polygon fill="#bfbfbf" stroke="black" points="0,-0.5 0,-79.5 140,-79.5 140,-0.5 0,-0.5"/>
<text text-anchor="middle" x="70" y="-67.5" font-family="Helvetica,sans-Serif" font-size="10.00">AnalogInputPin</text>
<polyline fill="none" stroke="black" points="0,-60.5 140,-60.5 "/>
<text text-anchor="middle" x="70" y="-48.5" font-family="Helvetica,sans-Serif" font-size="10.00"> </text>
<polyline fill="none" stroke="black" points="0,-41.5 140,-41.5 "/>
<text text-anchor="start" x="8" y="-29.5" font-family="Helvetica,sans-Serif" font-size="10.00">+ AnalogInputPin(int pin)</text>
<text text-anchor="start" x="8" y="-18.5" font-family="Helvetica,sans-Serif" font-size="10.00">+ void begin()</text>
<text text-anchor="start" x="8" y="-7.5" font-family="Helvetica,sans-Serif" font-size="10.00">+ int read()</text>
</a>
</g>
</g>
<!-- Node2 -->
<g id="node2" class="node">
<title>Node2</title>
<g id="a_node2"><a xlink:href="classPin.html" target="_top" xlink:title=" ">
<polygon fill="white" stroke="black" points="20.5,-116.5 20.5,-195.5 119.5,-195.5 119.5,-116.5 20.5,-116.5"/>
<text text-anchor="middle" x="70" y="-183.5" font-family="Helvetica,sans-Serif" font-size="10.00">Pin</text>
<polyline fill="none" stroke="black" points="20.5,-176.5 119.5,-176.5 "/>
<text text-anchor="start" x="28.5" y="-164.5" font-family="Helvetica,sans-Serif" font-size="10.00"># int pin</text>
<text text-anchor="start" x="28.5" y="-153.5" font-family="Helvetica,sans-Serif" font-size="10.00"># bool state</text>
<polyline fill="none" stroke="black" points="20.5,-146.5 119.5,-146.5 "/>
<text text-anchor="start" x="28.5" y="-134.5" font-family="Helvetica,sans-Serif" font-size="10.00">+ Pin(int pin=&#45;1)</text>
<text text-anchor="start" x="28.5" y="-123.5" font-family="Helvetica,sans-Serif" font-size="10.00">+ ~Pin()</text>
</a>
</g>
</g>
<!-- Node2&#45;&gt;Node1 -->
<g id="edge1" class="edge">
<title>Node2&#45;&gt;Node1</title>
<path fill="none" stroke="midnightblue" d="M70,-106.15C70,-97.26 70,-88.1 70,-79.56"/>
<polygon fill="none" stroke="midnightblue" points="66.5,-106.4 70,-116.4 73.5,-106.4 66.5,-106.4"/>
</g>
</g>
</svg>
