<?xml version="1.0" encoding="UTF-8" standalone="no"?>
<!DOCTYPE svg PUBLIC "-//W3C//DTD SVG 1.1//EN"
 "http://www.w3.org/Graphics/SVG/1.1/DTD/svg11.dtd">
<!-- Generated by graphviz version 2.43.0 (0)
 -->
<!-- Title: OutputPin Pages: 1 -->
<!--zoomable 562 -->
<svg id="main" version="1.1" xmlns="http://www.w3.org/2000/svg" xmlns:xlink="http://www.w3.org/1999/xlink" xml:space="preserve" onload="init(evt)">
<style type="text/css"><![CDATA[
.edge:hover path { stroke: red; }
.edge:hover polygon { stroke: red; fill: red; }
]]></style>
<script type="text/javascript"><![CDATA[
var edges = document.getElementsByTagName('g');
if (edges && edges.length) {
  for (var i=0;i<edges.length;i++) {
    if (edges[i].id.substr(0,4)=='edge') {
      edges[i].setAttribute('class','edge');
    }
  }
}
]]></script>
        <defs>
                <circle id="rim" cx="0" cy="0" r="7"/>
                <circle id="rim2" cx="0" cy="0" r="3.5"/>
                <g id="zoomPlus">
                        <use xlink:href="#rim" fill="#404040">
                                <set attributeName="fill" to="#808080" begin="zoomplus.mouseover" end="zoomplus.mouseout"/>
                        </use>
                        <path d="M-4,0h8M0,-4v8" fill="none" stroke="white" stroke-width="1.5" pointer-events="none"/>
                </g>
                <g id="zoomMin">
                        <use xlink:href="#rim" fill="#404040">
                                <set attributeName="fill" to="#808080" begin="zoomminus.mouseover" end="zoomminus.mouseout"/>
                        </use>
                        <path d="M-4,0h8" fill="none" stroke="white" stroke-width="1.5" pointer-events="none"/>
                </g>
                <g id="dirArrow">
                        <path fill="none" stroke="white" stroke-width="1.5" d="M0,-3.0v7 M-2.5,-0.5L0,-3.0L2.5,-0.5"/>
                </g>
               <g id="resetDef">
                       <use xlink:href="#rim2" fill="#404040">
                               <set attributeName="fill" to="#808080" begin="reset.mouseover" end="reset.mouseout"/>
                       </use>
               </g>
        </defs>

<script type="text/javascript">
var viewWidth = 513;
var viewHeight = 562;
var sectionId = 'dynsection-0';
</script>
<script xlink:href="svgpan.js"/>
<svg id="graph" class="graph">
<g id="viewport">
<title>OutputPin</title>
<polygon fill="white" stroke="transparent" points="-4,4 -4,-558 508.5,-558 508.5,4 -4,4"/>
<!-- Node1 -->
<g id="node1" class="node">
<title>Node1</title>
<g id="a_node1"><a xlink:title=" ">
<polygon fill="#bfbfbf" stroke="black" points="198.5,-336.5 198.5,-437.5 333.5,-437.5 333.5,-336.5 198.5,-336.5"/>
<text text-anchor="middle" x="266" y="-425.5" font-family="Helvetica,sans-Serif" font-size="10.00">OutputPin</text>
<polyline fill="none" stroke="black" points="198.5,-418.5 333.5,-418.5 "/>
<text text-anchor="middle" x="266" y="-406.5" font-family="Helvetica,sans-Serif" font-size="10.00"> </text>
<polyline fill="none" stroke="black" points="198.5,-399.5 333.5,-399.5 "/>
<text text-anchor="start" x="206.5" y="-387.5" font-family="Helvetica,sans-Serif" font-size="10.00">+ OutputPin(int pin=&#45;1)</text>
<text text-anchor="start" x="206.5" y="-376.5" font-family="Helvetica,sans-Serif" font-size="10.00">+ virtual void begin()</text>
<text text-anchor="start" x="206.5" y="-365.5" font-family="Helvetica,sans-Serif" font-size="10.00">+ virtual void setState</text>
<text text-anchor="start" x="206.5" y="-354.5" font-family="Helvetica,sans-Serif" font-size="10.00">(bool state)</text>
<text text-anchor="start" x="206.5" y="-343.5" font-family="Helvetica,sans-Serif" font-size="10.00">+ virtual bool getState()</text>
</a>
</g>
</g>
<!-- Node3 -->
<g id="node3" class="node">
<title>Node3</title>
<g id="a_node3"><a xlink:href="classGate.xhtml" target="_top" xlink:title=" ">
<polygon fill="white" stroke="black" points="0,-55.5 0,-244.5 164,-244.5 164,-55.5 0,-55.5"/>
<text text-anchor="middle" x="82" y="-232.5" font-family="Helvetica,sans-Serif" font-size="10.00">Gate</text>
<polyline fill="none" stroke="black" points="0,-225.5 164,-225.5 "/>
<text text-anchor="start" x="8" y="-213.5" font-family="Helvetica,sans-Serif" font-size="10.00">&#45; int gateOnDuration</text>
<text text-anchor="start" x="8" y="-202.5" font-family="Helvetica,sans-Serif" font-size="10.00">&#45; unsigned long triggeredTime</text>
<text text-anchor="start" x="8" y="-191.5" font-family="Helvetica,sans-Serif" font-size="10.00">&#45; int division</text>
<polyline fill="none" stroke="black" points="0,-184.5 164,-184.5 "/>
<text text-anchor="start" x="8" y="-172.5" font-family="Helvetica,sans-Serif" font-size="10.00">+ Gate(int pin=&#45;1)</text>
<text text-anchor="start" x="8" y="-161.5" font-family="Helvetica,sans-Serif" font-size="10.00">+ ~Gate()</text>
<text text-anchor="start" x="8" y="-150.5" font-family="Helvetica,sans-Serif" font-size="10.00">+ void trigger(unsigned</text>
<text text-anchor="start" x="8" y="-139.5" font-family="Helvetica,sans-Serif" font-size="10.00"> long currentTime)</text>
<text text-anchor="start" x="8" y="-128.5" font-family="Helvetica,sans-Serif" font-size="10.00">+ void update(unsigned</text>
<text text-anchor="start" x="8" y="-117.5" font-family="Helvetica,sans-Serif" font-size="10.00"> long currentTime)</text>
<text text-anchor="start" x="8" y="-106.5" font-family="Helvetica,sans-Serif" font-size="10.00">+ void setDivision(int</text>
<text text-anchor="start" x="8" y="-95.5" font-family="Helvetica,sans-Serif" font-size="10.00"> divition)</text>
<text text-anchor="start" x="8" y="-84.5" font-family="Helvetica,sans-Serif" font-size="10.00">+ int getDivision()</text>
<text text-anchor="start" x="8" y="-73.5" font-family="Helvetica,sans-Serif" font-size="10.00">+ void setGateOnDuration</text>
<text text-anchor="start" x="8" y="-62.5" font-family="Helvetica,sans-Serif" font-size="10.00">(int duration)</text>
</a>
</g>
</g>
<!-- Node1&#45;&gt;Node3 -->
<g id="edge2" class="edge">
<title>Node1&#45;&gt;Node3</title>
<path fill="none" stroke="midnightblue" d="M200.91,-329.31C191.45,-319.92 182.17,-309.98 174,-300 160.04,-282.95 146.6,-263.6 134.52,-244.63"/>
<polygon fill="none" stroke="midnightblue" points="198.56,-331.91 208.16,-336.38 203.45,-326.9 198.56,-331.91"/>
</g>
<!-- Node4 -->
<g id="node4" class="node">
<title>Node4</title>
<g id="a_node4"><a xlink:href="classLED.xhtml" target="_top" xlink:title=" ">
<polygon fill="white" stroke="black" points="182.5,-0.5 182.5,-299.5 349.5,-299.5 349.5,-0.5 182.5,-0.5"/>
<text text-anchor="middle" x="266" y="-287.5" font-family="Helvetica,sans-Serif" font-size="10.00">LED</text>
<polyline fill="none" stroke="black" points="182.5,-280.5 349.5,-280.5 "/>
<text text-anchor="start" x="190.5" y="-268.5" font-family="Helvetica,sans-Serif" font-size="10.00">&#45; unsigned long blinkStartTime</text>
<text text-anchor="start" x="190.5" y="-257.5" font-family="Helvetica,sans-Serif" font-size="10.00">&#45; unsigned long blinkInterval</text>
<text text-anchor="start" x="190.5" y="-246.5" font-family="Helvetica,sans-Serif" font-size="10.00">&#45; int intensity</text>
<text text-anchor="start" x="190.5" y="-235.5" font-family="Helvetica,sans-Serif" font-size="10.00">&#45; bool isBlinking</text>
<text text-anchor="start" x="190.5" y="-224.5" font-family="Helvetica,sans-Serif" font-size="10.00">&#45; int ledOnDuration</text>
<text text-anchor="start" x="190.5" y="-213.5" font-family="Helvetica,sans-Serif" font-size="10.00">&#45; int invertedLedOnDuration</text>
<text text-anchor="start" x="190.5" y="-202.5" font-family="Helvetica,sans-Serif" font-size="10.00">&#45; unsigned long triggeredTime</text>
<text text-anchor="start" x="190.5" y="-191.5" font-family="Helvetica,sans-Serif" font-size="10.00">&#45; bool inverted</text>
<polyline fill="none" stroke="black" points="182.5,-184.5 349.5,-184.5 "/>
<text text-anchor="start" x="190.5" y="-172.5" font-family="Helvetica,sans-Serif" font-size="10.00">+ LED(int pin=&#45;1)</text>
<text text-anchor="start" x="190.5" y="-161.5" font-family="Helvetica,sans-Serif" font-size="10.00">+ ~LED()</text>
<text text-anchor="start" x="190.5" y="-150.5" font-family="Helvetica,sans-Serif" font-size="10.00">+ void startBlinking</text>
<text text-anchor="start" x="190.5" y="-139.5" font-family="Helvetica,sans-Serif" font-size="10.00">(unsigned long interval)</text>
<text text-anchor="start" x="190.5" y="-128.5" font-family="Helvetica,sans-Serif" font-size="10.00">+ void stopBlinking()</text>
<text text-anchor="start" x="190.5" y="-117.5" font-family="Helvetica,sans-Serif" font-size="10.00">+ void updateBlinking()</text>
<text text-anchor="start" x="190.5" y="-106.5" font-family="Helvetica,sans-Serif" font-size="10.00">+ void setIntensity(int</text>
<text text-anchor="start" x="190.5" y="-95.5" font-family="Helvetica,sans-Serif" font-size="10.00"> intensity)</text>
<text text-anchor="start" x="190.5" y="-84.5" font-family="Helvetica,sans-Serif" font-size="10.00">+ void trigger(unsigned</text>
<text text-anchor="start" x="190.5" y="-73.5" font-family="Helvetica,sans-Serif" font-size="10.00"> long currentTime, bool</text>
<text text-anchor="start" x="190.5" y="-62.5" font-family="Helvetica,sans-Serif" font-size="10.00"> inverted=false)</text>
<text text-anchor="start" x="190.5" y="-51.5" font-family="Helvetica,sans-Serif" font-size="10.00">+ void update(unsigned</text>
<text text-anchor="start" x="190.5" y="-40.5" font-family="Helvetica,sans-Serif" font-size="10.00"> long currentTime)</text>
<text text-anchor="start" x="190.5" y="-29.5" font-family="Helvetica,sans-Serif" font-size="10.00">+ void resetIvernted()</text>
<text text-anchor="start" x="190.5" y="-18.5" font-family="Helvetica,sans-Serif" font-size="10.00">+ void setLedOnDuration</text>
<text text-anchor="start" x="190.5" y="-7.5" font-family="Helvetica,sans-Serif" font-size="10.00">(int duration)</text>
</a>
</g>
</g>
<!-- Node1&#45;&gt;Node4 -->
<g id="edge3" class="edge">
<title>Node1&#45;&gt;Node4</title>
<path fill="none" stroke="midnightblue" d="M266,-326.18C266,-317.85 266,-308.99 266,-299.87"/>
<polygon fill="none" stroke="midnightblue" points="262.5,-326.45 266,-336.45 269.5,-326.45 262.5,-326.45"/>
</g>
<!-- Node5 -->
<g id="node5" class="node">
<title>Node5</title>
<g id="a_node5"><a xlink:href="classPWMPin.xhtml" target="_top" xlink:title=" ">
<polygon fill="white" stroke="black" points="367.5,-94 367.5,-206 504.5,-206 504.5,-94 367.5,-94"/>
<text text-anchor="middle" x="436" y="-194" font-family="Helvetica,sans-Serif" font-size="10.00">PWMPin</text>
<polyline fill="none" stroke="black" points="367.5,-187 504.5,-187 "/>
<text text-anchor="start" x="375.5" y="-175" font-family="Helvetica,sans-Serif" font-size="10.00">&#45; int dutyCycle</text>
<text text-anchor="start" x="375.5" y="-164" font-family="Helvetica,sans-Serif" font-size="10.00">&#45; HardwareTimer * timer</text>
<polyline fill="none" stroke="black" points="367.5,-157 504.5,-157 "/>
<text text-anchor="start" x="375.5" y="-145" font-family="Helvetica,sans-Serif" font-size="10.00">+ PWMPin(int pin=&#45;1)</text>
<text text-anchor="start" x="375.5" y="-134" font-family="Helvetica,sans-Serif" font-size="10.00">+ virtual void begin()</text>
<text text-anchor="start" x="375.5" y="-123" font-family="Helvetica,sans-Serif" font-size="10.00">+ void setDutyCycle(int</text>
<text text-anchor="start" x="375.5" y="-112" font-family="Helvetica,sans-Serif" font-size="10.00"> dutyCycle)</text>
<text text-anchor="start" x="375.5" y="-101" font-family="Helvetica,sans-Serif" font-size="10.00">+ int getDutyCycle()</text>
</a>
</g>
</g>
<!-- Node1&#45;&gt;Node5 -->
<g id="edge4" class="edge">
<title>Node1&#45;&gt;Node5</title>
<path fill="none" stroke="midnightblue" d="M332.38,-329.16C341.52,-319.89 350.37,-310.02 358,-300 379.93,-271.19 398.92,-235.33 412.66,-206.01"/>
<polygon fill="none" stroke="midnightblue" points="329.65,-326.94 325,-336.46 334.57,-331.91 329.65,-326.94"/>
</g>
<!-- Node2 -->
<g id="node2" class="node">
<title>Node2</title>
<g id="a_node2"><a xlink:href="classPin.xhtml" target="_top" xlink:title=" ">
<polygon fill="white" stroke="black" points="216.5,-474.5 216.5,-553.5 315.5,-553.5 315.5,-474.5 216.5,-474.5"/>
<text text-anchor="middle" x="266" y="-541.5" font-family="Helvetica,sans-Serif" font-size="10.00">Pin</text>
<polyline fill="none" stroke="black" points="216.5,-534.5 315.5,-534.5 "/>
<text text-anchor="start" x="224.5" y="-522.5" font-family="Helvetica,sans-Serif" font-size="10.00"># int pin</text>
<text text-anchor="start" x="224.5" y="-511.5" font-family="Helvetica,sans-Serif" font-size="10.00"># bool state</text>
<polyline fill="none" stroke="black" points="216.5,-504.5 315.5,-504.5 "/>
<text text-anchor="start" x="224.5" y="-492.5" font-family="Helvetica,sans-Serif" font-size="10.00">+ Pin(int pin=&#45;1)</text>
<text text-anchor="start" x="224.5" y="-481.5" font-family="Helvetica,sans-Serif" font-size="10.00">+ ~Pin()</text>
</a>
</g>
</g>
<!-- Node2&#45;&gt;Node1 -->
<g id="edge1" class="edge">
<title>Node2&#45;&gt;Node1</title>
<path fill="none" stroke="midnightblue" d="M266,-464.41C266,-455.64 266,-446.49 266,-437.69"/>
<polygon fill="none" stroke="midnightblue" points="262.5,-464.48 266,-474.48 269.5,-464.48 262.5,-464.48"/>
</g>
</g>
</svg>
        <g id="navigator" transform="translate(0 0)" fill="#404254">
                <rect fill="#f2f5e9" fill-opacity="0.5" stroke="#606060" stroke-width=".5" x="0" y="0" width="60" height="60"/>
                <use id="zoomplus" xlink:href="#zoomPlus" x="17" y="9" onmousedown="handleZoom(evt,'in')"/>
                <use id="zoomminus" xlink:href="#zoomMin" x="42" y="9" onmousedown="handleZoom(evt,'out')"/>
                <use id="reset" xlink:href="#resetDef" x="30" y="36" onmousedown="handleReset()"/>
                <g id="arrowUp" xlink:href="#dirArrow" transform="translate(30 24)" onmousedown="handlePan(0,-1)">
                  <use xlink:href="#rim" fill="#404040">
                        <set attributeName="fill" to="#808080" begin="arrowUp.mouseover" end="arrowUp.mouseout"/>
                  </use>
                  <path fill="none" stroke="white" stroke-width="1.5" d="M0,-3.0v7 M-2.5,-0.5L0,-3.0L2.5,-0.5"/>
                </g>
                <g id="arrowRight" xlink:href="#dirArrow" transform="rotate(90) translate(36 -43)" onmousedown="handlePan(1,0)">
                  <use xlink:href="#rim" fill="#404040">
                        <set attributeName="fill" to="#808080" begin="arrowRight.mouseover" end="arrowRight.mouseout"/>
                  </use>
                  <path fill="none" stroke="white" stroke-width="1.5" d="M0,-3.0v7 M-2.5,-0.5L0,-3.0L2.5,-0.5"/>
                </g>
                <g id="arrowDown" xlink:href="#dirArrow" transform="rotate(180) translate(-30 -48)" onmousedown="handlePan(0,1)">
                  <use xlink:href="#rim" fill="#404040">
                        <set attributeName="fill" to="#808080" begin="arrowDown.mouseover" end="arrowDown.mouseout"/>
                  </use>
                  <path fill="none" stroke="white" stroke-width="1.5" d="M0,-3.0v7 M-2.5,-0.5L0,-3.0L2.5,-0.5"/>
                </g>
                <g id="arrowLeft" xlink:href="#dirArrow" transform="rotate(270) translate(-36 17)" onmousedown="handlePan(-1,0)">
                  <use xlink:href="#rim" fill="#404040">
                        <set attributeName="fill" to="#808080" begin="arrowLeft.mouseover" end="arrowLeft.mouseout"/>
                  </use>
                  <path fill="none" stroke="white" stroke-width="1.5" d="M0,-3.0v7 M-2.5,-0.5L0,-3.0L2.5,-0.5"/>
                </g>
        </g>
        <svg viewBox="0 0 15 15" width="100%" height="30px" preserveAspectRatio="xMaxYMin meet">
         <g id="arrow_out" transform="scale(0.3 0.3)">
          <a xlink:href="classOutputPin__inherit__graph_org.svg" target="_base">
           <rect id="button" ry="5" rx="5" y="6" x="6" height="38" width="38"
                fill="#f2f5e9" fill-opacity="0.5" stroke="#606060" stroke-width="1.0"/>
           <path id="arrow"
             d="M 11.500037,31.436501 C 11.940474,20.09759 22.043105,11.32322 32.158766,21.979434 L 37.068811,17.246167 C 37.068811,17.246167 37.088388,32 37.088388,32 L 22.160133,31.978069 C 22.160133,31.978069 26.997745,27.140456 26.997745,27.140456 C 18.528582,18.264221 13.291696,25.230495 11.500037,31.436501 z"
             style="fill:#404040;"/>
          </a>
         </g>
        </svg>
</svg>
