<?xml version="1.0" encoding="UTF-8" standalone="no"?>
<!DOCTYPE svg PUBLIC "-//W3C//DTD SVG 1.1//EN"
 "http://www.w3.org/Graphics/SVG/1.1/DTD/svg11.dtd">
<!-- Generated by graphviz version 2.43.0 (0)
 -->
<!-- Title: include/Constants.h Pages: 1 -->
<!--zoomable 364 -->
<svg id="main" version="1.1" xmlns="http://www.w3.org/2000/svg" xmlns:xlink="http://www.w3.org/1999/xlink" xml:space="preserve" onload="init(evt)">
<style type="text/css"><![CDATA[
.edge:hover path { stroke: red; }
.edge:hover polygon { stroke: red; fill: red; }
]]></style>
<script type="text/javascript"><![CDATA[
var edges = document.getElementsByTagName('g');
if (edges && edges.length) {
  for (var i=0;i<edges.length;i++) {
    if (edges[i].id.substr(0,4)=='edge') {
      edges[i].setAttribute('class','edge');
    }
  }
}
]]></script>
        <defs>
                <circle id="rim" cx="0" cy="0" r="7"/>
                <circle id="rim2" cx="0" cy="0" r="3.5"/>
                <g id="zoomPlus">
                        <use xlink:href="#rim" fill="#404040">
                                <set attributeName="fill" to="#808080" begin="zoomplus.mouseover" end="zoomplus.mouseout"/>
                        </use>
                        <path d="M-4,0h8M0,-4v8" fill="none" stroke="white" stroke-width="1.5" pointer-events="none"/>
                </g>
                <g id="zoomMin">
                        <use xlink:href="#rim" fill="#404040">
                                <set attributeName="fill" to="#808080" begin="zoomminus.mouseover" end="zoomminus.mouseout"/>
                        </use>
                        <path d="M-4,0h8" fill="none" stroke="white" stroke-width="1.5" pointer-events="none"/>
                </g>
                <g id="dirArrow">
                        <path fill="none" stroke="white" stroke-width="1.5" d="M0,-3.0v7 M-2.5,-0.5L0,-3.0L2.5,-0.5"/>
                </g>
               <g id="resetDef">
                       <use xlink:href="#rim2" fill="#404040">
                               <set attributeName="fill" to="#808080" begin="reset.mouseover" end="reset.mouseout"/>
                       </use>
               </g>
        </defs>

<script type="text/javascript">
var viewWidth = 950;
var viewHeight = 364;
var sectionId = 'dynsection-1';
</script>
<script xlink:href="svgpan.js"/>
<svg id="graph" class="graph">
<g id="viewport">
<title>include/Constants.h</title>
<polygon fill="white" stroke="transparent" points="-4,4 -4,-360 946,-360 946,4 -4,4"/>
<!-- Node1 -->
<g id="node1" class="node">
<title>Node1</title>
<g id="a_node1"><a xlink:title=" ">
<polygon fill="#bfbfbf" stroke="black" points="247.5,-336.5 247.5,-355.5 360.5,-355.5 360.5,-336.5 247.5,-336.5"/>
<text text-anchor="middle" x="304" y="-343.5" font-family="Helvetica,sans-Serif" font-size="10.00">include/Constants.h</text>
</a>
</g>
</g>
<!-- Node2 -->
<g id="node2" class="node">
<title>Node2</title>
<g id="a_node2"><a xlink:href="main_8cpp.html" target="_top" xlink:title=" ">
<polygon fill="white" stroke="black" points="302.5,-0.5 302.5,-19.5 381.5,-19.5 381.5,-0.5 302.5,-0.5"/>
<text text-anchor="middle" x="342" y="-7.5" font-family="Helvetica,sans-Serif" font-size="10.00">src/main.cpp</text>
</a>
</g>
</g>
<!-- Node1&#45;&gt;Node2 -->
<g id="edge1" class="edge">
<title>Node1&#45;&gt;Node2</title>
<path fill="none" stroke="midnightblue" d="M237.33,-338.81C172.64,-331.81 79.84,-318.9 49,-300 18.15,-281.1 0,-271.18 0,-235 0,-235 0,-235 0,-121 0,-87.98 8.78,-74.7 36,-56 131.06,9.32 179.14,-38.42 293,-20 296.07,-19.5 299.25,-18.97 302.44,-18.41"/>
<polygon fill="midnightblue" stroke="midnightblue" points="237.15,-342.31 247.46,-339.88 237.88,-335.34 237.15,-342.31"/>
</g>
<!-- Node3 -->
<g id="node3" class="node">
<title>Node3</title>
<g id="a_node3"><a xlink:href="EurorackClock_8h.html" target="_top" xlink:title=" ">
<polygon fill="white" stroke="black" points="358,-168.5 358,-187.5 492,-187.5 492,-168.5 358,-168.5"/>
<text text-anchor="middle" x="425" y="-175.5" font-family="Helvetica,sans-Serif" font-size="10.00">include/EurorackClock.h</text>
</a>
</g>
</g>
<!-- Node1&#45;&gt;Node3 -->
<g id="edge2" class="edge">
<title>Node1&#45;&gt;Node3</title>
<path fill="none" stroke="midnightblue" d="M324.58,-330.17C347.74,-312.36 384.76,-280.3 405,-244 415.35,-225.44 421.03,-200.84 423.5,-187.88"/>
<polygon fill="midnightblue" stroke="midnightblue" points="322.34,-327.47 316.44,-336.28 326.54,-333.07 322.34,-327.47"/>
</g>
<!-- Node7 -->
<g id="node7" class="node">
<title>Node7</title>
<g id="a_node7"><a xlink:href="Mode0_8h.html" target="_top" xlink:title=" ">
<polygon fill="white" stroke="black" points="213.5,-56.5 213.5,-75.5 310.5,-75.5 310.5,-56.5 213.5,-56.5"/>
<text text-anchor="middle" x="262" y="-63.5" font-family="Helvetica,sans-Serif" font-size="10.00">include/Mode0.h</text>
</a>
</g>
</g>
<!-- Node1&#45;&gt;Node7 -->
<g id="edge28" class="edge">
<title>Node1&#45;&gt;Node7</title>
<path fill="none" stroke="midnightblue" d="M280.25,-330.89C254.52,-314.01 215.12,-283.05 200,-244 178.6,-188.73 189.52,-163.42 219,-112 227.38,-97.38 241.52,-83.86 251.28,-75.54"/>
<polygon fill="midnightblue" stroke="midnightblue" points="278.4,-333.86 288.72,-336.27 282.15,-327.95 278.4,-333.86"/>
</g>
<!-- Node9 -->
<g id="node9" class="node">
<title>Node9</title>
<g id="a_node9"><a xlink:href="Mode1_8h.html" target="_top" xlink:title=" ">
<polygon fill="white" stroke="black" points="471.5,-56.5 471.5,-75.5 568.5,-75.5 568.5,-56.5 471.5,-56.5"/>
<text text-anchor="middle" x="520" y="-63.5" font-family="Helvetica,sans-Serif" font-size="10.00">include/Mode1.h</text>
</a>
</g>
</g>
<!-- Node1&#45;&gt;Node9 -->
<g id="edge29" class="edge">
<title>Node1&#45;&gt;Node9</title>
<path fill="none" stroke="midnightblue" d="M371.05,-343.73C446.3,-338.34 558,-316.58 558,-235 558,-235 558,-235 558,-177 558,-137.4 535.73,-93.96 525.28,-75.77"/>
<polygon fill="midnightblue" stroke="midnightblue" points="370.44,-340.27 360.69,-344.39 370.89,-347.25 370.44,-340.27"/>
</g>
<!-- Node11 -->
<g id="node11" class="node">
<title>Node11</title>
<g id="a_node11"><a xlink:href="Mode2_8h.html" target="_top" xlink:title=" ">
<polygon fill="white" stroke="black" points="45.5,-56.5 45.5,-75.5 142.5,-75.5 142.5,-56.5 45.5,-56.5"/>
<text text-anchor="middle" x="94" y="-63.5" font-family="Helvetica,sans-Serif" font-size="10.00">include/Mode2.h</text>
</a>
</g>
</g>
<!-- Node1&#45;&gt;Node11 -->
<g id="edge30" class="edge">
<title>Node1&#45;&gt;Node11</title>
<path fill="none" stroke="midnightblue" d="M236.91,-345.01C158.11,-341.07 38,-320.97 38,-235 38,-235 38,-235 38,-177 38,-135.21 70.49,-93.26 85.98,-75.64"/>
<polygon fill="midnightblue" stroke="midnightblue" points="237.12,-348.52 247.26,-345.44 237.42,-341.53 237.12,-348.52"/>
</g>
<!-- Node13 -->
<g id="node13" class="node">
<title>Node13</title>
<g id="a_node13"><a xlink:href="Gate_8h.html" target="_top" xlink:title=" ">
<polygon fill="white" stroke="black" points="260.5,-280.5 260.5,-299.5 347.5,-299.5 347.5,-280.5 260.5,-280.5"/>
<text text-anchor="middle" x="304" y="-287.5" font-family="Helvetica,sans-Serif" font-size="10.00">include/Gate.h</text>
</a>
</g>
</g>
<!-- Node1&#45;&gt;Node13 -->
<g id="edge18" class="edge">
<title>Node1&#45;&gt;Node13</title>
<path fill="none" stroke="midnightblue" d="M304,-325.8C304,-316.91 304,-306.78 304,-299.75"/>
<polygon fill="midnightblue" stroke="midnightblue" points="300.5,-326.08 304,-336.08 307.5,-326.08 300.5,-326.08"/>
</g>
<!-- Node17 -->
<g id="node17" class="node">
<title>Node17</title>
<g id="a_node17"><a xlink:href="ResetButton_8h.html" target="_top" xlink:title=" ">
<polygon fill="white" stroke="black" points="586,-112.5 586,-131.5 710,-131.5 710,-112.5 586,-112.5"/>
<text text-anchor="middle" x="648" y="-119.5" font-family="Helvetica,sans-Serif" font-size="10.00">include/ResetButton.h</text>
</a>
</g>
</g>
<!-- Node1&#45;&gt;Node17 -->
<g id="edge31" class="edge">
<title>Node1&#45;&gt;Node17</title>
<path fill="none" stroke="midnightblue" d="M371.07,-341.01C440.05,-335.65 541.56,-323.91 572,-300 628.54,-255.59 643.72,-160.93 647.13,-131.75"/>
<polygon fill="midnightblue" stroke="midnightblue" points="370.43,-337.55 360.72,-341.78 370.96,-344.53 370.43,-337.55"/>
</g>
<!-- Node3&#45;&gt;Node2 -->
<g id="edge4" class="edge">
<title>Node3&#45;&gt;Node2</title>
<path fill="none" stroke="midnightblue" d="M427.53,-157.97C428.55,-144.68 428.44,-126.75 423,-112 408.22,-71.93 370.76,-35.7 352.43,-19.69"/>
<polygon fill="midnightblue" stroke="midnightblue" points="424.01,-157.94 426.44,-168.26 430.97,-158.68 424.01,-157.94"/>
</g>
<!-- Node4 -->
<g id="node4" class="node">
<title>Node4</title>
<g id="a_node4"><a xlink:href="EurorackClock_8cpp.html" target="_top" xlink:title=" ">
<polygon fill="white" stroke="black" points="818,-0.5 818,-19.5 942,-19.5 942,-0.5 818,-0.5"/>
<text text-anchor="middle" x="880" y="-7.5" font-family="Helvetica,sans-Serif" font-size="10.00">src/EurorackClock.cpp</text>
</a>
</g>
</g>
<!-- Node3&#45;&gt;Node4 -->
<g id="edge3" class="edge">
<title>Node3&#45;&gt;Node4</title>
<path fill="none" stroke="midnightblue" d="M501.99,-172.48C623.37,-163.51 850.16,-138.59 896,-76 908.5,-58.94 895.14,-33.28 886.37,-19.88"/>
<polygon fill="midnightblue" stroke="midnightblue" points="501.73,-168.99 492.01,-173.2 502.24,-175.97 501.73,-168.99"/>
</g>
<!-- Node5 -->
<g id="node5" class="node">
<title>Node5</title>
<g id="a_node5"><a xlink:href="MIDIHandler_8h.html" target="_top" xlink:title=" ">
<polygon fill="white" stroke="black" points="290,-112.5 290,-131.5 414,-131.5 414,-112.5 290,-112.5"/>
<text text-anchor="middle" x="352" y="-119.5" font-family="Helvetica,sans-Serif" font-size="10.00">include/MIDIHandler.h</text>
</a>
</g>
</g>
<!-- Node3&#45;&gt;Node5 -->
<g id="edge5" class="edge">
<title>Node3&#45;&gt;Node5</title>
<path fill="none" stroke="midnightblue" d="M404.86,-162.1C391.72,-152.38 375.02,-140.03 363.94,-131.83"/>
<polygon fill="midnightblue" stroke="midnightblue" points="403.15,-165.19 413.27,-168.32 407.31,-159.56 403.15,-165.19"/>
</g>
<!-- Node3&#45;&gt;Node7 -->
<g id="edge17" class="edge">
<title>Node3&#45;&gt;Node7</title>
<path fill="none" stroke="midnightblue" d="M348.04,-167.49C323.84,-161.01 298.82,-150.15 281,-132 265.85,-116.56 262.66,-89.74 262.07,-75.87"/>
<polygon fill="midnightblue" stroke="midnightblue" points="347.43,-170.95 357.98,-169.93 349.1,-164.15 347.43,-170.95"/>
</g>
<!-- Node5&#45;&gt;Node2 -->
<g id="edge6" class="edge">
<title>Node5&#45;&gt;Node2</title>
<path fill="none" stroke="midnightblue" d="M350.3,-102.35C348.11,-78.25 344.39,-37.31 342.78,-19.59"/>
<polygon fill="midnightblue" stroke="midnightblue" points="346.82,-102.73 351.22,-112.37 353.8,-102.09 346.82,-102.73"/>
</g>
<!-- Node6 -->
<g id="node6" class="node">
<title>Node6</title>
<g id="a_node6"><a xlink:href="MIDIHandler_8cpp.html" target="_top" xlink:title=" ">
<polygon fill="white" stroke="black" points="400,-0.5 400,-19.5 514,-19.5 514,-0.5 400,-0.5"/>
<text text-anchor="middle" x="457" y="-7.5" font-family="Helvetica,sans-Serif" font-size="10.00">src/MIDIHandler.cpp</text>
</a>
</g>
</g>
<!-- Node5&#45;&gt;Node6 -->
<g id="edge7" class="edge">
<title>Node5&#45;&gt;Node6</title>
<path fill="none" stroke="midnightblue" d="M367.37,-104.9C389.94,-81.25 431.28,-37.95 448.8,-19.59"/>
<polygon fill="midnightblue" stroke="midnightblue" points="364.61,-102.72 360.24,-112.37 369.68,-107.55 364.61,-102.72"/>
</g>
<!-- Node5&#45;&gt;Node7 -->
<g id="edge8" class="edge">
<title>Node5&#45;&gt;Node7</title>
<path fill="none" stroke="midnightblue" d="M328.96,-107.18C312.4,-97.24 290.58,-84.15 276.42,-75.65"/>
<polygon fill="midnightblue" stroke="midnightblue" points="327.16,-110.18 337.54,-112.32 330.77,-104.18 327.16,-110.18"/>
</g>
<!-- Node5&#45;&gt;Node9 -->
<g id="edge11" class="edge">
<title>Node5&#45;&gt;Node9</title>
<path fill="none" stroke="midnightblue" d="M388.39,-109.3C420.04,-99.13 465.17,-84.62 493.5,-75.52"/>
<polygon fill="midnightblue" stroke="midnightblue" points="387.07,-106.05 378.62,-112.44 389.21,-112.72 387.07,-106.05"/>
</g>
<!-- Node5&#45;&gt;Node11 -->
<g id="edge14" class="edge">
<title>Node5&#45;&gt;Node11</title>
<path fill="none" stroke="midnightblue" d="M301.1,-110.35C252.34,-100.14 179.71,-84.94 134.69,-75.52"/>
<polygon fill="midnightblue" stroke="midnightblue" points="300.61,-113.82 311.12,-112.44 302.05,-106.97 300.61,-113.82"/>
</g>
<!-- Node7&#45;&gt;Node2 -->
<g id="edge9" class="edge">
<title>Node7&#45;&gt;Node2</title>
<path fill="none" stroke="midnightblue" d="M283.3,-50.62C297.92,-40.76 316.83,-27.99 329.18,-19.65"/>
<polygon fill="midnightblue" stroke="midnightblue" points="281.18,-47.83 274.85,-56.32 285.1,-53.63 281.18,-47.83"/>
</g>
<!-- Node8 -->
<g id="node8" class="node">
<title>Node8</title>
<g id="a_node8"><a xlink:href="Mode0_8cpp.html" target="_top" xlink:title=" ">
<polygon fill="white" stroke="black" points="197.5,-0.5 197.5,-19.5 284.5,-19.5 284.5,-0.5 197.5,-0.5"/>
<text text-anchor="middle" x="241" y="-7.5" font-family="Helvetica,sans-Serif" font-size="10.00">src/Mode0.cpp</text>
</a>
</g>
</g>
<!-- Node7&#45;&gt;Node8 -->
<g id="edge10" class="edge">
<title>Node7&#45;&gt;Node8</title>
<path fill="none" stroke="midnightblue" d="M254.88,-46.69C251.34,-37.59 247.23,-27.01 244.4,-19.75"/>
<polygon fill="midnightblue" stroke="midnightblue" points="251.65,-48.03 258.53,-56.08 258.17,-45.49 251.65,-48.03"/>
</g>
<!-- Node9&#45;&gt;Node2 -->
<g id="edge12" class="edge">
<title>Node9&#45;&gt;Node2</title>
<path fill="none" stroke="midnightblue" d="M481.88,-53.44C448.32,-43.26 400.23,-28.66 370.07,-19.52"/>
<polygon fill="midnightblue" stroke="midnightblue" points="481.21,-56.89 491.8,-56.44 483.24,-50.19 481.21,-56.89"/>
</g>
<!-- Node10 -->
<g id="node10" class="node">
<title>Node10</title>
<g id="a_node10"><a xlink:href="Mode1_8cpp.html" target="_top" xlink:title=" ">
<polygon fill="white" stroke="black" points="532.5,-0.5 532.5,-19.5 619.5,-19.5 619.5,-0.5 532.5,-0.5"/>
<text text-anchor="middle" x="576" y="-7.5" font-family="Helvetica,sans-Serif" font-size="10.00">src/Mode1.cpp</text>
</a>
</g>
</g>
<!-- Node9&#45;&gt;Node10 -->
<g id="edge13" class="edge">
<title>Node9&#45;&gt;Node10</title>
<path fill="none" stroke="midnightblue" d="M536.33,-49.25C546.26,-39.67 558.59,-27.79 566.84,-19.83"/>
<polygon fill="midnightblue" stroke="midnightblue" points="533.77,-46.86 529,-56.32 538.63,-51.9 533.77,-46.86"/>
</g>
<!-- Node11&#45;&gt;Node2 -->
<g id="edge15" class="edge">
<title>Node11&#45;&gt;Node2</title>
<path fill="none" stroke="midnightblue" d="M143.23,-54.28C190.09,-44.08 259.7,-28.92 302.89,-19.52"/>
<polygon fill="midnightblue" stroke="midnightblue" points="142.32,-50.9 133.3,-56.44 143.81,-57.74 142.32,-50.9"/>
</g>
<!-- Node12 -->
<g id="node12" class="node">
<title>Node12</title>
<g id="a_node12"><a xlink:href="Mode2_8cpp.html" target="_top" xlink:title=" ">
<polygon fill="white" stroke="black" points="50.5,-0.5 50.5,-19.5 137.5,-19.5 137.5,-0.5 50.5,-0.5"/>
<text text-anchor="middle" x="94" y="-7.5" font-family="Helvetica,sans-Serif" font-size="10.00">src/Mode2.cpp</text>
</a>
</g>
</g>
<!-- Node11&#45;&gt;Node12 -->
<g id="edge16" class="edge">
<title>Node11&#45;&gt;Node12</title>
<path fill="none" stroke="midnightblue" d="M94,-45.8C94,-36.91 94,-26.78 94,-19.75"/>
<polygon fill="midnightblue" stroke="midnightblue" points="90.5,-46.08 94,-56.08 97.5,-46.08 90.5,-46.08"/>
</g>
<!-- Node14 -->
<g id="node14" class="node">
<title>Node14</title>
<g id="a_node14"><a xlink:href="Gate_8cpp.html" target="_top" xlink:title=" ">
<polygon fill="white" stroke="black" points="319.5,-224.5 319.5,-243.5 396.5,-243.5 396.5,-224.5 319.5,-224.5"/>
<text text-anchor="middle" x="358" y="-231.5" font-family="Helvetica,sans-Serif" font-size="10.00">src/Gate.cpp</text>
</a>
</g>
</g>
<!-- Node13&#45;&gt;Node14 -->
<g id="edge19" class="edge">
<title>Node13&#45;&gt;Node14</title>
<path fill="none" stroke="midnightblue" d="M320,-273C329.57,-263.43 341.36,-251.64 349.25,-243.75"/>
<polygon fill="midnightblue" stroke="midnightblue" points="317.51,-270.54 312.92,-280.08 322.46,-275.49 317.51,-270.54"/>
</g>
<!-- Node15 -->
<g id="node15" class="node">
<title>Node15</title>
<g id="a_node15"><a xlink:href="Gates_8h.html" target="_top" xlink:title=" ">
<polygon fill="white" stroke="black" points="209,-224.5 209,-243.5 301,-243.5 301,-224.5 209,-224.5"/>
<text text-anchor="middle" x="255" y="-231.5" font-family="Helvetica,sans-Serif" font-size="10.00">include/Gates.h</text>
</a>
</g>
</g>
<!-- Node13&#45;&gt;Node15 -->
<g id="edge20" class="edge">
<title>Node13&#45;&gt;Node15</title>
<path fill="none" stroke="midnightblue" d="M288.97,-272.43C280.38,-262.97 269.96,-251.48 262.94,-243.75"/>
<polygon fill="midnightblue" stroke="midnightblue" points="286.6,-275.03 295.91,-280.08 291.78,-270.33 286.6,-275.03"/>
</g>
<!-- Node15&#45;&gt;Node2 -->
<g id="edge22" class="edge">
<title>Node15&#45;&gt;Node2</title>
<path fill="none" stroke="midnightblue" d="M230.63,-218.73C220.05,-211.09 208.78,-200.64 203,-188 189.34,-158.11 128.9,-158.51 204,-56 215.8,-39.89 265.89,-26.48 302.33,-18.6"/>
<polygon fill="midnightblue" stroke="midnightblue" points="228.96,-221.82 239.22,-224.47 232.85,-216 228.96,-221.82"/>
</g>
<!-- Node15&#45;&gt;Node3 -->
<g id="edge23" class="edge">
<title>Node15&#45;&gt;Node3</title>
<path fill="none" stroke="midnightblue" d="M291.82,-221.3C323.85,-211.13 369.52,-196.62 398.19,-187.52"/>
<polygon fill="midnightblue" stroke="midnightblue" points="290.41,-218.08 281.94,-224.44 292.53,-224.75 290.41,-218.08"/>
</g>
<!-- Node15&#45;&gt;Node5 -->
<g id="edge24" class="edge">
<title>Node15&#45;&gt;Node5</title>
<path fill="none" stroke="midnightblue" d="M275.9,-218.36C286.78,-210.16 299.88,-199.32 310,-188 326.3,-169.77 340.65,-144.61 347.59,-131.58"/>
<polygon fill="midnightblue" stroke="midnightblue" points="273.75,-215.6 267.75,-224.33 277.88,-221.25 273.75,-215.6"/>
</g>
<!-- Node15&#45;&gt;Node7 -->
<g id="edge25" class="edge">
<title>Node15&#45;&gt;Node7</title>
<path fill="none" stroke="midnightblue" d="M233.29,-218.07C223.94,-210.31 214.03,-199.95 209,-188 205.55,-179.81 206.87,-176.63 209,-168 218.15,-130.89 243.62,-92.33 255.61,-75.6"/>
<polygon fill="midnightblue" stroke="midnightblue" points="231.16,-220.85 241.21,-224.19 235.44,-215.31 231.16,-220.85"/>
</g>
<!-- Node15&#45;&gt;Node9 -->
<g id="edge26" class="edge">
<title>Node15&#45;&gt;Node9</title>
<path fill="none" stroke="midnightblue" d="M311.26,-223.53C382.84,-211.37 497.67,-191.42 501,-188 531.43,-156.79 525.31,-97.97 521.66,-75.78"/>
<polygon fill="midnightblue" stroke="midnightblue" points="310.31,-220.15 301.03,-225.27 311.48,-227.05 310.31,-220.15"/>
</g>
<!-- Node15&#45;&gt;Node11 -->
<g id="edge27" class="edge">
<title>Node15&#45;&gt;Node11</title>
<path fill="none" stroke="midnightblue" d="M199.13,-222C177.66,-215.31 154.39,-204.7 138,-188 105.9,-155.3 96.99,-97.38 94.72,-75.6"/>
<polygon fill="midnightblue" stroke="midnightblue" points="198.26,-225.39 208.84,-224.81 200.2,-218.67 198.26,-225.39"/>
</g>
<!-- Node16 -->
<g id="node16" class="node">
<title>Node16</title>
<g id="a_node16"><a xlink:href="Gates_8cpp.html" target="_top" xlink:title=" ">
<polygon fill="white" stroke="black" points="218.5,-168.5 218.5,-187.5 301.5,-187.5 301.5,-168.5 218.5,-168.5"/>
<text text-anchor="middle" x="260" y="-175.5" font-family="Helvetica,sans-Serif" font-size="10.00">src/Gates.cpp</text>
</a>
</g>
</g>
<!-- Node15&#45;&gt;Node16 -->
<g id="edge21" class="edge">
<title>Node15&#45;&gt;Node16</title>
<path fill="none" stroke="midnightblue" d="M256.75,-214.1C257.58,-205.14 258.53,-194.86 259.19,-187.75"/>
<polygon fill="midnightblue" stroke="midnightblue" points="253.26,-213.8 255.83,-224.08 260.23,-214.45 253.26,-213.8"/>
</g>
<!-- Node17&#45;&gt;Node2 -->
<g id="edge32" class="edge">
<title>Node17&#45;&gt;Node2</title>
<path fill="none" stroke="midnightblue" d="M634.5,-104.2C621.43,-89.13 600.22,-67.66 577,-56 572.63,-53.81 447.61,-30.51 381.75,-18.33"/>
<polygon fill="midnightblue" stroke="midnightblue" points="632.1,-106.79 641.21,-112.21 637.47,-102.29 632.1,-106.79"/>
</g>
<!-- Node17&#45;&gt;Node7 -->
<g id="edge34" class="edge">
<title>Node17&#45;&gt;Node7</title>
<path fill="none" stroke="midnightblue" d="M576.69,-111.02C499.29,-100.2 377.79,-83.2 310.65,-73.81"/>
<polygon fill="midnightblue" stroke="midnightblue" points="576.45,-114.52 586.84,-112.44 577.42,-107.59 576.45,-114.52"/>
</g>
<!-- Node17&#45;&gt;Node9 -->
<g id="edge35" class="edge">
<title>Node17&#45;&gt;Node9</title>
<path fill="none" stroke="midnightblue" d="M618.38,-108.5C594.38,-98.38 561.22,-84.39 540.19,-75.52"/>
<polygon fill="midnightblue" stroke="midnightblue" points="617.14,-111.78 627.72,-112.44 619.86,-105.33 617.14,-111.78"/>
</g>
<!-- Node17&#45;&gt;Node11 -->
<g id="edge36" class="edge">
<title>Node17&#45;&gt;Node11</title>
<path fill="none" stroke="midnightblue" d="M575.7,-113.95C460.99,-102.77 240.28,-81.26 142.58,-71.74"/>
<polygon fill="midnightblue" stroke="midnightblue" points="575.5,-117.45 585.79,-114.94 576.18,-110.48 575.5,-117.45"/>
</g>
<!-- Node18 -->
<g id="node18" class="node">
<title>Node18</title>
<g id="a_node18"><a xlink:href="ResetButton_8cpp.html" target="_top" xlink:title=" ">
<polygon fill="white" stroke="black" points="773,-56.5 773,-75.5 887,-75.5 887,-56.5 773,-56.5"/>
<text text-anchor="middle" x="830" y="-63.5" font-family="Helvetica,sans-Serif" font-size="10.00">src/ResetButton.cpp</text>
</a>
</g>
</g>
<!-- Node17&#45;&gt;Node18 -->
<g id="edge33" class="edge">
<title>Node17&#45;&gt;Node18</title>
<path fill="none" stroke="midnightblue" d="M686.53,-109.57C720.86,-99.38 770.33,-84.7 801.3,-75.52"/>
<polygon fill="midnightblue" stroke="midnightblue" points="685.43,-106.24 676.84,-112.44 687.42,-112.95 685.43,-106.24"/>
</g>
<!-- Node19 -->
<g id="node19" class="node">
<title>Node19</title>
<g id="a_node19"><a xlink:href="ModeSelector_8h.html" target="_top" xlink:title=" ">
<polygon fill="white" stroke="black" points="625,-56.5 625,-75.5 755,-75.5 755,-56.5 625,-56.5"/>
<text text-anchor="middle" x="690" y="-63.5" font-family="Helvetica,sans-Serif" font-size="10.00">include/ModeSelector.h</text>
</a>
</g>
</g>
<!-- Node17&#45;&gt;Node19 -->
<g id="edge37" class="edge">
<title>Node17&#45;&gt;Node19</title>
<path fill="none" stroke="midnightblue" d="M661.11,-104.14C668.43,-94.74 677.24,-83.4 683.19,-75.75"/>
<polygon fill="midnightblue" stroke="midnightblue" points="658.31,-102.04 654.94,-112.08 663.84,-106.34 658.31,-102.04"/>
</g>
<!-- Node19&#45;&gt;Node2 -->
<g id="edge39" class="edge">
<title>Node19&#45;&gt;Node2</title>
<path fill="none" stroke="midnightblue" d="M619.27,-55.01C558.61,-46.29 468.95,-33.02 391,-20 387.93,-19.49 384.75,-18.94 381.56,-18.38"/>
<polygon fill="midnightblue" stroke="midnightblue" points="619.1,-58.52 629.49,-56.48 620.09,-51.59 619.1,-58.52"/>
</g>
<!-- Node19&#45;&gt;Node4 -->
<g id="edge38" class="edge">
<title>Node19&#45;&gt;Node4</title>
<path fill="none" stroke="midnightblue" d="M729.76,-53.7C765.62,-43.51 817.57,-28.74 850.03,-19.52"/>
<polygon fill="midnightblue" stroke="midnightblue" points="728.77,-50.34 720.11,-56.44 730.68,-57.08 728.77,-50.34"/>
</g>
<!-- Node19&#45;&gt;Node6 -->
<g id="edge40" class="edge">
<title>Node19&#45;&gt;Node6</title>
<path fill="none" stroke="midnightblue" d="M643.2,-54.15C599.17,-43.95 534.15,-28.88 493.75,-19.52"/>
<polygon fill="midnightblue" stroke="midnightblue" points="642.55,-57.6 653.08,-56.44 644.13,-50.78 642.55,-57.6"/>
</g>
<!-- Node20 -->
<g id="node20" class="node">
<title>Node20</title>
<g id="a_node20"><a xlink:href="ModeSelector_8cpp.html" target="_top" xlink:title=" ">
<polygon fill="white" stroke="black" points="638,-0.5 638,-19.5 758,-19.5 758,-0.5 638,-0.5"/>
<text text-anchor="middle" x="698" y="-7.5" font-family="Helvetica,sans-Serif" font-size="10.00">src/ModeSelector.cpp</text>
</a>
</g>
</g>
<!-- Node19&#45;&gt;Node20 -->
<g id="edge41" class="edge">
<title>Node19&#45;&gt;Node20</title>
<path fill="none" stroke="midnightblue" d="M692.8,-46.1C694.13,-37.14 695.65,-26.86 696.7,-19.75"/>
<polygon fill="midnightblue" stroke="midnightblue" points="689.32,-45.68 691.32,-56.08 696.25,-46.7 689.32,-45.68"/>
</g>
</g>
</svg>
        <g id="navigator" transform="translate(0 0)" fill="#404254">
                <rect fill="#f2f5e9" fill-opacity="0.5" stroke="#606060" stroke-width=".5" x="0" y="0" width="60" height="60"/>
                <use id="zoomplus" xlink:href="#zoomPlus" x="17" y="9" onmousedown="handleZoom(evt,'in')"/>
                <use id="zoomminus" xlink:href="#zoomMin" x="42" y="9" onmousedown="handleZoom(evt,'out')"/>
                <use id="reset" xlink:href="#resetDef" x="30" y="36" onmousedown="handleReset()"/>
                <g id="arrowUp" xlink:href="#dirArrow" transform="translate(30 24)" onmousedown="handlePan(0,-1)">
                  <use xlink:href="#rim" fill="#404040">
                        <set attributeName="fill" to="#808080" begin="arrowUp.mouseover" end="arrowUp.mouseout"/>
                  </use>
                  <path fill="none" stroke="white" stroke-width="1.5" d="M0,-3.0v7 M-2.5,-0.5L0,-3.0L2.5,-0.5"/>
                </g>
                <g id="arrowRight" xlink:href="#dirArrow" transform="rotate(90) translate(36 -43)" onmousedown="handlePan(1,0)">
                  <use xlink:href="#rim" fill="#404040">
                        <set attributeName="fill" to="#808080" begin="arrowRight.mouseover" end="arrowRight.mouseout"/>
                  </use>
                  <path fill="none" stroke="white" stroke-width="1.5" d="M0,-3.0v7 M-2.5,-0.5L0,-3.0L2.5,-0.5"/>
                </g>
                <g id="arrowDown" xlink:href="#dirArrow" transform="rotate(180) translate(-30 -48)" onmousedown="handlePan(0,1)">
                  <use xlink:href="#rim" fill="#404040">
                        <set attributeName="fill" to="#808080" begin="arrowDown.mouseover" end="arrowDown.mouseout"/>
                  </use>
                  <path fill="none" stroke="white" stroke-width="1.5" d="M0,-3.0v7 M-2.5,-0.5L0,-3.0L2.5,-0.5"/>
                </g>
                <g id="arrowLeft" xlink:href="#dirArrow" transform="rotate(270) translate(-36 17)" onmousedown="handlePan(-1,0)">
                  <use xlink:href="#rim" fill="#404040">
                        <set attributeName="fill" to="#808080" begin="arrowLeft.mouseover" end="arrowLeft.mouseout"/>
                  </use>
                  <path fill="none" stroke="white" stroke-width="1.5" d="M0,-3.0v7 M-2.5,-0.5L0,-3.0L2.5,-0.5"/>
                </g>
        </g>
        <svg viewBox="0 0 15 15" width="100%" height="30px" preserveAspectRatio="xMaxYMin meet">
         <g id="arrow_out" transform="scale(0.3 0.3)">
          <a xlink:href="Constants_8h__dep__incl_org.svg" target="_base">
           <rect id="button" ry="5" rx="5" y="6" x="6" height="38" width="38"
                fill="#f2f5e9" fill-opacity="0.5" stroke="#606060" stroke-width="1.0"/>
           <path id="arrow"
             d="M 11.500037,31.436501 C 11.940474,20.09759 22.043105,11.32322 32.158766,21.979434 L 37.068811,17.246167 C 37.068811,17.246167 37.088388,32 37.088388,32 L 22.160133,31.978069 C 22.160133,31.978069 26.997745,27.140456 26.997745,27.140456 C 18.528582,18.264221 13.291696,25.230495 11.500037,31.436501 z"
             style="fill:#404040;"/>
          </a>
         </g>
        </svg>
</svg>
