<?xml version="1.0" encoding="UTF-8" standalone="no"?>
<!DOCTYPE svg PUBLIC "-//W3C//DTD SVG 1.1//EN"
 "http://www.w3.org/Graphics/SVG/1.1/DTD/svg11.dtd">
<!-- Generated by graphviz version 2.43.0 (0)
 -->
<!-- Title: include/Debug.h Pages: 1 -->
<!--zoomable 196 -->
<svg id="main" version="1.1" xmlns="http://www.w3.org/2000/svg" xmlns:xlink="http://www.w3.org/1999/xlink" xml:space="preserve" onload="init(evt)">
<style type="text/css"><![CDATA[
.edge:hover path { stroke: red; }
.edge:hover polygon { stroke: red; fill: red; }
]]></style>
<script type="text/javascript"><![CDATA[
var edges = document.getElementsByTagName('g');
if (edges && edges.length) {
  for (var i=0;i<edges.length;i++) {
    if (edges[i].id.substr(0,4)=='edge') {
      edges[i].setAttribute('class','edge');
    }
  }
}
]]></script>
        <defs>
                <circle id="rim" cx="0" cy="0" r="7"/>
                <circle id="rim2" cx="0" cy="0" r="3.5"/>
                <g id="zoomPlus">
                        <use xlink:href="#rim" fill="#404040">
                                <set attributeName="fill" to="#808080" begin="zoomplus.mouseover" end="zoomplus.mouseout"/>
                        </use>
                        <path d="M-4,0h8M0,-4v8" fill="none" stroke="white" stroke-width="1.5" pointer-events="none"/>
                </g>
                <g id="zoomMin">
                        <use xlink:href="#rim" fill="#404040">
                                <set attributeName="fill" to="#808080" begin="zoomminus.mouseover" end="zoomminus.mouseout"/>
                        </use>
                        <path d="M-4,0h8" fill="none" stroke="white" stroke-width="1.5" pointer-events="none"/>
                </g>
                <g id="dirArrow">
                        <path fill="none" stroke="white" stroke-width="1.5" d="M0,-3.0v7 M-2.5,-0.5L0,-3.0L2.5,-0.5"/>
                </g>
               <g id="resetDef">
                       <use xlink:href="#rim2" fill="#404040">
                               <set attributeName="fill" to="#808080" begin="reset.mouseover" end="reset.mouseout"/>
                       </use>
               </g>
        </defs>

<script type="text/javascript">
var viewWidth = 1488;
var viewHeight = 196;
var sectionId = 'dynsection-1';
</script>
<script xlink:href="svgpan.js"/>
<svg id="graph" class="graph">
<g id="viewport">
<title>include/Debug.h</title>
<polygon fill="white" stroke="transparent" points="-4,4 -4,-192 1483.79,-192 1483.79,4 -4,4"/>
<!-- Node1 -->
<g id="node1" class="node">
<title>Node1</title>
<g id="a_node1"><a xlink:title=" ">
<polygon fill="#bfbfbf" stroke="black" points="733.5,-168.5 733.5,-187.5 828.5,-187.5 828.5,-168.5 733.5,-168.5"/>
<text text-anchor="middle" x="781" y="-175.5" font-family="Helvetica,sans-Serif" font-size="10.00">include/Debug.h</text>
</a>
</g>
</g>
<!-- Node2 -->
<g id="node2" class="node">
<title>Node2</title>
<g id="a_node2"><a xlink:href="Debug_8cpp.html" target="_top" xlink:title=" ">
<polygon fill="white" stroke="black" points="0,-112.5 0,-131.5 86,-131.5 86,-112.5 0,-112.5"/>
<text text-anchor="middle" x="43" y="-119.5" font-family="Helvetica,sans-Serif" font-size="10.00">src/Debug.cpp</text>
</a>
</g>
</g>
<!-- Node1&#45;&gt;Node2 -->
<g id="edge1" class="edge">
<title>Node1&#45;&gt;Node2</title>
<path fill="none" stroke="midnightblue" d="M723.17,-175.27C604.86,-171.29 326.82,-159.59 95,-132 92.09,-131.65 89.09,-131.25 86.08,-130.82"/>
<polygon fill="midnightblue" stroke="midnightblue" points="723.32,-178.78 733.44,-175.61 723.56,-171.78 723.32,-178.78"/>
</g>
<!-- Node3 -->
<g id="node3" class="node">
<title>Node3</title>
<g id="a_node3"><a xlink:href="Encoder_8cpp.html" target="_top" xlink:title=" ">
<polygon fill="white" stroke="black" points="104,-112.5 104,-131.5 196,-131.5 196,-112.5 104,-112.5"/>
<text text-anchor="middle" x="150" y="-119.5" font-family="Helvetica,sans-Serif" font-size="10.00">src/Encoder.cpp</text>
</a>
</g>
</g>
<!-- Node1&#45;&gt;Node3 -->
<g id="edge2" class="edge">
<title>Node1&#45;&gt;Node3</title>
<path fill="none" stroke="midnightblue" d="M722.92,-173.77C619.56,-167.73 396.97,-153.36 210,-132 205.5,-131.49 200.82,-130.89 196.14,-130.26"/>
<polygon fill="midnightblue" stroke="midnightblue" points="722.95,-177.28 733.14,-174.37 723.36,-170.29 722.95,-177.28"/>
</g>
<!-- Node4 -->
<g id="node4" class="node">
<title>Node4</title>
<g id="a_node4"><a xlink:href="EurorackClock_8cpp.html" target="_top" xlink:title=" ">
<polygon fill="white" stroke="black" points="286,-0.5 286,-19.5 410,-19.5 410,-0.5 286,-0.5"/>
<text text-anchor="middle" x="348" y="-7.5" font-family="Helvetica,sans-Serif" font-size="10.00">src/EurorackClock.cpp</text>
</a>
</g>
</g>
<!-- Node1&#45;&gt;Node4 -->
<g id="edge3" class="edge">
<title>Node1&#45;&gt;Node4</title>
<path fill="none" stroke="midnightblue" d="M723.14,-176.48C590.82,-174.7 275.01,-166.8 243,-132 205.06,-90.75 291.9,-39.47 330.59,-19.51"/>
<polygon fill="midnightblue" stroke="midnightblue" points="723.43,-179.99 733.48,-176.61 723.52,-172.99 723.43,-179.99"/>
</g>
<!-- Node5 -->
<g id="node5" class="node">
<title>Node5</title>
<g id="a_node5"><a xlink:href="Gate_8cpp.html" target="_top" xlink:title=" ">
<polygon fill="white" stroke="black" points="252.5,-112.5 252.5,-131.5 329.5,-131.5 329.5,-112.5 252.5,-112.5"/>
<text text-anchor="middle" x="291" y="-119.5" font-family="Helvetica,sans-Serif" font-size="10.00">src/Gate.cpp</text>
</a>
</g>
</g>
<!-- Node1&#45;&gt;Node5 -->
<g id="edge4" class="edge">
<title>Node1&#45;&gt;Node5</title>
<path fill="none" stroke="midnightblue" d="M723.11,-172.75C638.32,-166.16 475.5,-152.11 338,-132 335.29,-131.6 332.49,-131.16 329.68,-130.69"/>
<polygon fill="midnightblue" stroke="midnightblue" points="723.06,-176.26 733.3,-173.54 723.6,-169.28 723.06,-176.26"/>
</g>
<!-- Node6 -->
<g id="node6" class="node">
<title>Node6</title>
<g id="a_node6"><a xlink:href="Gates_8cpp.html" target="_top" xlink:title=" ">
<polygon fill="white" stroke="black" points="347.5,-112.5 347.5,-131.5 430.5,-131.5 430.5,-112.5 347.5,-112.5"/>
<text text-anchor="middle" x="389" y="-119.5" font-family="Helvetica,sans-Serif" font-size="10.00">src/Gates.cpp</text>
</a>
</g>
</g>
<!-- Node1&#45;&gt;Node6 -->
<g id="edge5" class="edge">
<title>Node1&#45;&gt;Node6</title>
<path fill="none" stroke="midnightblue" d="M723.4,-170.17C655.51,-161.95 539.36,-147.32 440,-132 436.98,-131.53 433.86,-131.03 430.72,-130.52"/>
<polygon fill="midnightblue" stroke="midnightblue" points="723.12,-173.66 733.47,-171.39 723.96,-166.72 723.12,-173.66"/>
</g>
<!-- Node7 -->
<g id="node7" class="node">
<title>Node7</title>
<g id="a_node7"><a xlink:href="InputHandler_8cpp.html" target="_top" xlink:title=" ">
<polygon fill="white" stroke="black" points="449,-112.5 449,-131.5 565,-131.5 565,-112.5 449,-112.5"/>
<text text-anchor="middle" x="507" y="-119.5" font-family="Helvetica,sans-Serif" font-size="10.00">src/InputHandler.cpp</text>
</a>
</g>
</g>
<!-- Node1&#45;&gt;Node7 -->
<g id="edge6" class="edge">
<title>Node1&#45;&gt;Node7</title>
<path fill="none" stroke="midnightblue" d="M727.59,-166.47C675.8,-156.27 598.23,-140.98 550.21,-131.52"/>
<polygon fill="midnightblue" stroke="midnightblue" points="727.1,-169.94 737.58,-168.44 728.45,-163.08 727.1,-169.94"/>
</g>
<!-- Node8 -->
<g id="node8" class="node">
<title>Node8</title>
<g id="a_node8"><a xlink:href="LED_8cpp.html" target="_top" xlink:title=" ">
<polygon fill="white" stroke="black" points="583.5,-112.5 583.5,-131.5 656.5,-131.5 656.5,-112.5 583.5,-112.5"/>
<text text-anchor="middle" x="620" y="-119.5" font-family="Helvetica,sans-Serif" font-size="10.00">src/LED.cpp</text>
</a>
</g>
</g>
<!-- Node1&#45;&gt;Node8 -->
<g id="edge7" class="edge">
<title>Node1&#45;&gt;Node8</title>
<path fill="none" stroke="midnightblue" d="M745.74,-165.17C715.42,-155 672.43,-140.59 645.39,-131.52"/>
<polygon fill="midnightblue" stroke="midnightblue" points="744.9,-168.58 755.49,-168.44 747.12,-161.95 744.9,-168.58"/>
</g>
<!-- Node9 -->
<g id="node9" class="node">
<title>Node9</title>
<g id="a_node9"><a xlink:href="LEDs_8cpp.html" target="_top" xlink:title=" ">
<polygon fill="white" stroke="black" points="675,-112.5 675,-131.5 753,-131.5 753,-112.5 675,-112.5"/>
<text text-anchor="middle" x="714" y="-119.5" font-family="Helvetica,sans-Serif" font-size="10.00">src/LEDs.cpp</text>
</a>
</g>
</g>
<!-- Node1&#45;&gt;Node9 -->
<g id="edge8" class="edge">
<title>Node1&#45;&gt;Node9</title>
<path fill="none" stroke="midnightblue" d="M762.17,-161.82C750.16,-152.15 735.03,-139.95 724.96,-131.83"/>
<polygon fill="midnightblue" stroke="midnightblue" points="760.25,-164.77 770.24,-168.32 764.65,-159.32 760.25,-164.77"/>
</g>
<!-- Node10 -->
<g id="node10" class="node">
<title>Node10</title>
<g id="a_node10"><a xlink:href="main_8cpp.html" target="_top" xlink:title=" ">
<polygon fill="white" stroke="black" points="1090.5,-0.5 1090.5,-19.5 1169.5,-19.5 1169.5,-0.5 1090.5,-0.5"/>
<text text-anchor="middle" x="1130" y="-7.5" font-family="Helvetica,sans-Serif" font-size="10.00">src/main.cpp</text>
</a>
</g>
</g>
<!-- Node1&#45;&gt;Node10 -->
<g id="edge9" class="edge">
<title>Node1&#45;&gt;Node10</title>
<path fill="none" stroke="midnightblue" d="M800.11,-162.04C810.85,-153.46 824.38,-142.38 836,-132 872.1,-99.76 871.27,-78.73 914,-56 944.1,-39.99 1036.77,-24.49 1090.44,-16.53"/>
<polygon fill="midnightblue" stroke="midnightblue" points="797.86,-159.36 792.19,-168.31 802.2,-164.84 797.86,-159.36"/>
</g>
<!-- Node11 -->
<g id="node11" class="node">
<title>Node11</title>
<g id="a_node11"><a xlink:href="MIDIHandler_8cpp.html" target="_top" xlink:title=" ">
<polygon fill="white" stroke="black" points="589,-0.5 589,-19.5 703,-19.5 703,-0.5 589,-0.5"/>
<text text-anchor="middle" x="646" y="-7.5" font-family="Helvetica,sans-Serif" font-size="10.00">src/MIDIHandler.cpp</text>
</a>
</g>
</g>
<!-- Node1&#45;&gt;Node11 -->
<g id="edge10" class="edge">
<title>Node1&#45;&gt;Node11</title>
<path fill="none" stroke="midnightblue" d="M780.08,-157.9C778.39,-143.52 773.88,-124.26 762,-112 726.21,-75.05 684.08,-116.22 652,-76 639,-59.7 641.59,-33.25 644.07,-19.66"/>
<polygon fill="midnightblue" stroke="midnightblue" points="776.61,-158.47 780.91,-168.15 783.59,-157.9 776.61,-158.47"/>
</g>
<!-- Node12 -->
<g id="node12" class="node">
<title>Node12</title>
<g id="a_node12"><a xlink:href="Mode0_8cpp.html" target="_top" xlink:title=" ">
<polygon fill="white" stroke="black" points="954.5,-0.5 954.5,-19.5 1041.5,-19.5 1041.5,-0.5 954.5,-0.5"/>
<text text-anchor="middle" x="998" y="-7.5" font-family="Helvetica,sans-Serif" font-size="10.00">src/Mode0.cpp</text>
</a>
</g>
</g>
<!-- Node1&#45;&gt;Node12 -->
<g id="edge11" class="edge">
<title>Node1&#45;&gt;Node12</title>
<path fill="none" stroke="midnightblue" d="M793.22,-160.18C814.93,-130.64 859.95,-71.14 881,-56 905.56,-38.33 937.94,-26.58 962.41,-19.54"/>
<polygon fill="midnightblue" stroke="midnightblue" points="790.35,-158.16 787.28,-168.3 796,-162.3 790.35,-158.16"/>
</g>
<!-- Node13 -->
<g id="node13" class="node">
<title>Node13</title>
<g id="a_node13"><a xlink:href="Mode1_8cpp.html" target="_top" xlink:title=" ">
<polygon fill="white" stroke="black" points="1219.5,-0.5 1219.5,-19.5 1306.5,-19.5 1306.5,-0.5 1219.5,-0.5"/>
<text text-anchor="middle" x="1263" y="-7.5" font-family="Helvetica,sans-Serif" font-size="10.00">src/Mode1.cpp</text>
</a>
</g>
</g>
<!-- Node1&#45;&gt;Node13 -->
<g id="edge12" class="edge">
<title>Node1&#45;&gt;Node13</title>
<path fill="none" stroke="midnightblue" d="M838.62,-172.97C915.71,-166.99 1056.46,-154.05 1175,-132 1209.76,-125.53 1217.54,-119.93 1252,-112 1331.08,-93.79 1379.59,-138.78 1431,-76 1466.96,-32.08 1367.48,-17.77 1306.54,-13.15"/>
<polygon fill="midnightblue" stroke="midnightblue" points="838.33,-169.48 828.63,-173.73 838.86,-176.46 838.33,-169.48"/>
</g>
<!-- Node14 -->
<g id="node14" class="node">
<title>Node14</title>
<g id="a_node14"><a xlink:href="Mode2_8cpp.html" target="_top" xlink:title=" ">
<polygon fill="white" stroke="black" points="1386.5,-0.5 1386.5,-19.5 1473.5,-19.5 1473.5,-0.5 1386.5,-0.5"/>
<text text-anchor="middle" x="1430" y="-7.5" font-family="Helvetica,sans-Serif" font-size="10.00">src/Mode2.cpp</text>
</a>
</g>
</g>
<!-- Node1&#45;&gt;Node14 -->
<g id="edge13" class="edge">
<title>Node1&#45;&gt;Node14</title>
<path fill="none" stroke="midnightblue" d="M839.23,-177.63C997.46,-178.75 1426.38,-177.5 1469,-132 1499.93,-98.98 1456.32,-41.25 1437.71,-19.56"/>
<polygon fill="midnightblue" stroke="midnightblue" points="838.79,-174.13 828.76,-177.55 838.73,-181.13 838.79,-174.13"/>
</g>
<!-- Node15 -->
<g id="node15" class="node">
<title>Node15</title>
<g id="a_node15"><a xlink:href="ModeSelector_8cpp.html" target="_top" xlink:title=" ">
<polygon fill="white" stroke="black" points="746,-0.5 746,-19.5 866,-19.5 866,-0.5 746,-0.5"/>
<text text-anchor="middle" x="806" y="-7.5" font-family="Helvetica,sans-Serif" font-size="10.00">src/ModeSelector.cpp</text>
</a>
</g>
</g>
<!-- Node1&#45;&gt;Node15 -->
<g id="edge14" class="edge">
<title>Node1&#45;&gt;Node15</title>
<path fill="none" stroke="midnightblue" d="M787.66,-158.67C790.35,-150.59 793.23,-140.93 795,-132 803.26,-90.41 805.33,-39.54 805.84,-19.6"/>
<polygon fill="midnightblue" stroke="midnightblue" points="784.34,-157.58 784.35,-168.18 790.95,-159.89 784.34,-157.58"/>
</g>
<!-- Node16 -->
<g id="node16" class="node">
<title>Node16</title>
<g id="a_node16"><a xlink:href="Pin_8cpp.html" target="_top" xlink:title=" ">
<polygon fill="white" stroke="black" points="1260.5,-112.5 1260.5,-131.5 1329.5,-131.5 1329.5,-112.5 1260.5,-112.5"/>
<text text-anchor="middle" x="1295" y="-119.5" font-family="Helvetica,sans-Serif" font-size="10.00">src/Pin.cpp</text>
</a>
</g>
</g>
<!-- Node1&#45;&gt;Node16 -->
<g id="edge15" class="edge">
<title>Node1&#45;&gt;Node16</title>
<path fill="none" stroke="midnightblue" d="M838.74,-173C926.84,-166.54 1099.97,-152.44 1246,-132 1250.63,-131.35 1255.48,-130.58 1260.26,-129.76"/>
<polygon fill="midnightblue" stroke="midnightblue" points="838.41,-169.52 828.69,-173.73 838.91,-176.5 838.41,-169.52"/>
</g>
<!-- Node17 -->
<g id="node17" class="node">
<title>Node17</title>
<g id="a_node17"><a xlink:href="SPDTSwitch_8cpp.html" target="_top" xlink:title=" ">
<polygon fill="white" stroke="black" points="1348,-112.5 1348,-131.5 1460,-131.5 1460,-112.5 1348,-112.5"/>
<text text-anchor="middle" x="1404" y="-119.5" font-family="Helvetica,sans-Serif" font-size="10.00">src/SPDTSwitch.cpp</text>
</a>
</g>
</g>
<!-- Node1&#45;&gt;Node17 -->
<g id="edge16" class="edge">
<title>Node1&#45;&gt;Node17</title>
<path fill="none" stroke="midnightblue" d="M838.9,-173.42C940.37,-166.91 1156.86,-151.94 1339,-132 1341.83,-131.69 1344.73,-131.35 1347.65,-131"/>
<polygon fill="midnightblue" stroke="midnightblue" points="838.61,-169.94 828.86,-174.07 839.06,-176.92 838.61,-169.94"/>
</g>
<!-- Node18 -->
<g id="node18" class="node">
<title>Node18</title>
<g id="a_node18"><a xlink:href="ResetButton_8h.html" target="_top" xlink:title=" ">
<polygon fill="white" stroke="black" points="1042,-112.5 1042,-131.5 1166,-131.5 1166,-112.5 1042,-112.5"/>
<text text-anchor="middle" x="1104" y="-119.5" font-family="Helvetica,sans-Serif" font-size="10.00">include/ResetButton.h</text>
</a>
</g>
</g>
<!-- Node1&#45;&gt;Node18 -->
<g id="edge17" class="edge">
<title>Node1&#45;&gt;Node18</title>
<path fill="none" stroke="midnightblue" d="M838.88,-167.32C899.78,-157.14 994.73,-141.27 1052.94,-131.54"/>
<polygon fill="midnightblue" stroke="midnightblue" points="837.95,-163.93 828.66,-169.03 839.1,-170.84 837.95,-163.93"/>
</g>
<!-- Node18&#45;&gt;Node10 -->
<g id="edge18" class="edge">
<title>Node18&#45;&gt;Node10</title>
<path fill="none" stroke="midnightblue" d="M1131.13,-107.32C1142.9,-99.82 1155.48,-89.32 1162,-76 1171.85,-55.89 1152.53,-32.32 1139.84,-19.83"/>
<polygon fill="midnightblue" stroke="midnightblue" points="1129.23,-104.38 1122.39,-112.47 1132.78,-110.41 1129.23,-104.38"/>
</g>
<!-- Node19 -->
<g id="node19" class="node">
<title>Node19</title>
<g id="a_node19"><a xlink:href="ResetButton_8cpp.html" target="_top" xlink:title=" ">
<polygon fill="white" stroke="black" points="923,-56.5 923,-75.5 1037,-75.5 1037,-56.5 923,-56.5"/>
<text text-anchor="middle" x="980" y="-63.5" font-family="Helvetica,sans-Serif" font-size="10.00">src/ResetButton.cpp</text>
</a>
</g>
</g>
<!-- Node18&#45;&gt;Node19 -->
<g id="edge19" class="edge">
<title>Node18&#45;&gt;Node19</title>
<path fill="none" stroke="midnightblue" d="M1074.99,-108.37C1051.77,-98.26 1019.84,-84.35 999.56,-75.52"/>
<polygon fill="midnightblue" stroke="midnightblue" points="1073.79,-111.66 1084.35,-112.44 1076.58,-105.24 1073.79,-111.66"/>
</g>
<!-- Node20 -->
<g id="node20" class="node">
<title>Node20</title>
<g id="a_node20"><a xlink:href="Mode0_8h.html" target="_top" xlink:title=" ">
<polygon fill="white" stroke="black" points="1055.5,-56.5 1055.5,-75.5 1152.5,-75.5 1152.5,-56.5 1055.5,-56.5"/>
<text text-anchor="middle" x="1104" y="-63.5" font-family="Helvetica,sans-Serif" font-size="10.00">include/Mode0.h</text>
</a>
</g>
</g>
<!-- Node18&#45;&gt;Node20 -->
<g id="edge20" class="edge">
<title>Node18&#45;&gt;Node20</title>
<path fill="none" stroke="midnightblue" d="M1104,-101.8C1104,-92.91 1104,-82.78 1104,-75.75"/>
<polygon fill="midnightblue" stroke="midnightblue" points="1100.5,-102.08 1104,-112.08 1107.5,-102.08 1100.5,-102.08"/>
</g>
<!-- Node21 -->
<g id="node21" class="node">
<title>Node21</title>
<g id="a_node21"><a xlink:href="Mode1_8h.html" target="_top" xlink:title=" ">
<polygon fill="white" stroke="black" points="1209.5,-56.5 1209.5,-75.5 1306.5,-75.5 1306.5,-56.5 1209.5,-56.5"/>
<text text-anchor="middle" x="1258" y="-63.5" font-family="Helvetica,sans-Serif" font-size="10.00">include/Mode1.h</text>
</a>
</g>
</g>
<!-- Node18&#45;&gt;Node21 -->
<g id="edge23" class="edge">
<title>Node18&#45;&gt;Node21</title>
<path fill="none" stroke="midnightblue" d="M1138.11,-109.04C1167.09,-98.88 1207.96,-84.55 1233.71,-75.52"/>
<polygon fill="midnightblue" stroke="midnightblue" points="1136.68,-105.83 1128.4,-112.44 1139,-112.44 1136.68,-105.83"/>
</g>
<!-- Node22 -->
<g id="node22" class="node">
<title>Node22</title>
<g id="a_node22"><a xlink:href="Mode2_8h.html" target="_top" xlink:title=" ">
<polygon fill="white" stroke="black" points="1324.5,-56.5 1324.5,-75.5 1421.5,-75.5 1421.5,-56.5 1324.5,-56.5"/>
<text text-anchor="middle" x="1373" y="-63.5" font-family="Helvetica,sans-Serif" font-size="10.00">include/Mode2.h</text>
</a>
</g>
</g>
<!-- Node18&#45;&gt;Node22 -->
<g id="edge26" class="edge">
<title>Node18&#45;&gt;Node22</title>
<path fill="none" stroke="midnightblue" d="M1156.44,-110.47C1207.28,-100.27 1283.44,-84.98 1330.58,-75.52"/>
<polygon fill="midnightblue" stroke="midnightblue" points="1155.74,-107.04 1146.62,-112.44 1157.12,-113.91 1155.74,-107.04"/>
</g>
<!-- Node23 -->
<g id="node23" class="node">
<title>Node23</title>
<g id="a_node23"><a xlink:href="ModeSelector_8h.html" target="_top" xlink:title=" ">
<polygon fill="white" stroke="black" points="661,-56.5 661,-75.5 791,-75.5 791,-56.5 661,-56.5"/>
<text text-anchor="middle" x="726" y="-63.5" font-family="Helvetica,sans-Serif" font-size="10.00">include/ModeSelector.h</text>
</a>
</g>
</g>
<!-- Node18&#45;&gt;Node23 -->
<g id="edge29" class="edge">
<title>Node18&#45;&gt;Node23</title>
<path fill="none" stroke="midnightblue" d="M1033.86,-110.98C962.45,-100.78 852.96,-85.14 785.62,-75.52"/>
<polygon fill="midnightblue" stroke="midnightblue" points="1033.71,-114.49 1044.1,-112.44 1034.7,-107.56 1033.71,-114.49"/>
</g>
<!-- Node20&#45;&gt;Node10 -->
<g id="edge21" class="edge">
<title>Node20&#45;&gt;Node10</title>
<path fill="none" stroke="midnightblue" d="M1112.67,-46.98C1117.09,-37.82 1122.25,-27.09 1125.79,-19.75"/>
<polygon fill="midnightblue" stroke="midnightblue" points="1109.48,-45.55 1108.29,-56.08 1115.79,-48.59 1109.48,-45.55"/>
</g>
<!-- Node20&#45;&gt;Node12 -->
<g id="edge22" class="edge">
<title>Node20&#45;&gt;Node12</title>
<path fill="none" stroke="midnightblue" d="M1077.94,-51.73C1058.32,-41.73 1031.97,-28.31 1014.99,-19.65"/>
<polygon fill="midnightblue" stroke="midnightblue" points="1076.47,-54.9 1086.97,-56.32 1079.65,-48.67 1076.47,-54.9"/>
</g>
<!-- Node21&#45;&gt;Node10 -->
<g id="edge24" class="edge">
<title>Node21&#45;&gt;Node10</title>
<path fill="none" stroke="midnightblue" d="M1228.38,-52.5C1204.38,-42.38 1171.22,-28.39 1150.19,-19.52"/>
<polygon fill="midnightblue" stroke="midnightblue" points="1227.14,-55.78 1237.72,-56.44 1229.86,-49.33 1227.14,-55.78"/>
</g>
<!-- Node21&#45;&gt;Node13 -->
<g id="edge25" class="edge">
<title>Node21&#45;&gt;Node13</title>
<path fill="none" stroke="midnightblue" d="M1259.75,-46.1C1260.58,-37.14 1261.53,-26.86 1262.19,-19.75"/>
<polygon fill="midnightblue" stroke="midnightblue" points="1256.26,-45.8 1258.83,-56.08 1263.23,-46.45 1256.26,-45.8"/>
</g>
<!-- Node22&#45;&gt;Node10 -->
<g id="edge27" class="edge">
<title>Node22&#45;&gt;Node10</title>
<path fill="none" stroke="midnightblue" d="M1324.48,-54.22C1278.56,-44.01 1210.55,-28.9 1168.32,-19.52"/>
<polygon fill="midnightblue" stroke="midnightblue" points="1323.97,-57.69 1334.5,-56.44 1325.49,-50.86 1323.97,-57.69"/>
</g>
<!-- Node22&#45;&gt;Node14 -->
<g id="edge28" class="edge">
<title>Node22&#45;&gt;Node14</title>
<path fill="none" stroke="midnightblue" d="M1389.62,-49.25C1399.73,-39.67 1412.28,-27.79 1420.68,-19.83"/>
<polygon fill="midnightblue" stroke="midnightblue" points="1387.01,-46.91 1382.16,-56.32 1391.82,-51.99 1387.01,-46.91"/>
</g>
<!-- Node23&#45;&gt;Node4 -->
<g id="edge30" class="edge">
<title>Node23&#45;&gt;Node4</title>
<path fill="none" stroke="midnightblue" d="M655.86,-54.98C584.45,-44.78 474.96,-29.14 407.62,-19.52"/>
<polygon fill="midnightblue" stroke="midnightblue" points="655.71,-58.49 666.1,-56.44 656.7,-51.56 655.71,-58.49"/>
</g>
<!-- Node23&#45;&gt;Node10 -->
<g id="edge31" class="edge">
<title>Node23&#45;&gt;Node10</title>
<path fill="none" stroke="midnightblue" d="M800.18,-55.08C885.75,-43.65 1023.24,-25.27 1090.44,-16.29"/>
<polygon fill="midnightblue" stroke="midnightblue" points="799.46,-51.65 790.02,-56.44 800.39,-58.59 799.46,-51.65"/>
</g>
<!-- Node23&#45;&gt;Node11 -->
<g id="edge32" class="edge">
<title>Node23&#45;&gt;Node11</title>
<path fill="none" stroke="midnightblue" d="M704.7,-50.62C690.08,-40.76 671.17,-27.99 658.82,-19.65"/>
<polygon fill="midnightblue" stroke="midnightblue" points="702.9,-53.63 713.15,-56.32 706.82,-47.83 702.9,-53.63"/>
</g>
<!-- Node23&#45;&gt;Node15 -->
<g id="edge33" class="edge">
<title>Node23&#45;&gt;Node15</title>
<path fill="none" stroke="midnightblue" d="M747.3,-50.62C761.92,-40.76 780.83,-27.99 793.18,-19.65"/>
<polygon fill="midnightblue" stroke="midnightblue" points="745.18,-47.83 738.85,-56.32 749.1,-53.63 745.18,-47.83"/>
</g>
</g>
</svg>
        <g id="navigator" transform="translate(0 0)" fill="#404254">
                <rect fill="#f2f5e9" fill-opacity="0.5" stroke="#606060" stroke-width=".5" x="0" y="0" width="60" height="60"/>
                <use id="zoomplus" xlink:href="#zoomPlus" x="17" y="9" onmousedown="handleZoom(evt,'in')"/>
                <use id="zoomminus" xlink:href="#zoomMin" x="42" y="9" onmousedown="handleZoom(evt,'out')"/>
                <use id="reset" xlink:href="#resetDef" x="30" y="36" onmousedown="handleReset()"/>
                <g id="arrowUp" xlink:href="#dirArrow" transform="translate(30 24)" onmousedown="handlePan(0,-1)">
                  <use xlink:href="#rim" fill="#404040">
                        <set attributeName="fill" to="#808080" begin="arrowUp.mouseover" end="arrowUp.mouseout"/>
                  </use>
                  <path fill="none" stroke="white" stroke-width="1.5" d="M0,-3.0v7 M-2.5,-0.5L0,-3.0L2.5,-0.5"/>
                </g>
                <g id="arrowRight" xlink:href="#dirArrow" transform="rotate(90) translate(36 -43)" onmousedown="handlePan(1,0)">
                  <use xlink:href="#rim" fill="#404040">
                        <set attributeName="fill" to="#808080" begin="arrowRight.mouseover" end="arrowRight.mouseout"/>
                  </use>
                  <path fill="none" stroke="white" stroke-width="1.5" d="M0,-3.0v7 M-2.5,-0.5L0,-3.0L2.5,-0.5"/>
                </g>
                <g id="arrowDown" xlink:href="#dirArrow" transform="rotate(180) translate(-30 -48)" onmousedown="handlePan(0,1)">
                  <use xlink:href="#rim" fill="#404040">
                        <set attributeName="fill" to="#808080" begin="arrowDown.mouseover" end="arrowDown.mouseout"/>
                  </use>
                  <path fill="none" stroke="white" stroke-width="1.5" d="M0,-3.0v7 M-2.5,-0.5L0,-3.0L2.5,-0.5"/>
                </g>
                <g id="arrowLeft" xlink:href="#dirArrow" transform="rotate(270) translate(-36 17)" onmousedown="handlePan(-1,0)">
                  <use xlink:href="#rim" fill="#404040">
                        <set attributeName="fill" to="#808080" begin="arrowLeft.mouseover" end="arrowLeft.mouseout"/>
                  </use>
                  <path fill="none" stroke="white" stroke-width="1.5" d="M0,-3.0v7 M-2.5,-0.5L0,-3.0L2.5,-0.5"/>
                </g>
        </g>
        <svg viewBox="0 0 15 15" width="100%" height="30px" preserveAspectRatio="xMaxYMin meet">
         <g id="arrow_out" transform="scale(0.3 0.3)">
          <a xlink:href="Debug_8h__dep__incl_org.svg" target="_base">
           <rect id="button" ry="5" rx="5" y="6" x="6" height="38" width="38"
                fill="#f2f5e9" fill-opacity="0.5" stroke="#606060" stroke-width="1.0"/>
           <path id="arrow"
             d="M 11.500037,31.436501 C 11.940474,20.09759 22.043105,11.32322 32.158766,21.979434 L 37.068811,17.246167 C 37.068811,17.246167 37.088388,32 37.088388,32 L 22.160133,31.978069 C 22.160133,31.978069 26.997745,27.140456 26.997745,27.140456 C 18.528582,18.264221 13.291696,25.230495 11.500037,31.436501 z"
             style="fill:#404040;"/>
          </a>
         </g>
        </svg>
</svg>
