<?xml version="1.0" encoding="UTF-8" standalone="no"?>
<!DOCTYPE svg PUBLIC "-//W3C//DTD SVG 1.1//EN"
 "http://www.w3.org/Graphics/SVG/1.1/DTD/svg11.dtd">
<!-- Generated by graphviz version 2.43.0 (0)
 -->
<!-- Title: src/Debug.cpp Pages: 1 -->
<svg width="108pt" height="140pt"
 viewBox="0.00 0.00 107.50 140.00" xmlns="http://www.w3.org/2000/svg" xmlns:xlink="http://www.w3.org/1999/xlink">
<g id="graph0" class="graph" transform="scale(1 1) rotate(0) translate(4 136)">
<title>src/Debug.cpp</title>
<polygon fill="white" stroke="transparent" points="-4,4 -4,-136 103.5,-136 103.5,4 -4,4"/>
<!-- Node1 -->
<g id="node1" class="node">
<title>Node1</title>
<g id="a_node1"><a xlink:title=" ">
<polygon fill="#bfbfbf" stroke="black" points="13.5,-112.5 13.5,-131.5 99.5,-131.5 99.5,-112.5 13.5,-112.5"/>
<text text-anchor="middle" x="56.5" y="-119.5" font-family="Helvetica,sans-Serif" font-size="10.00">src/Debug.cpp</text>
</a>
</g>
</g>
<!-- Node2 -->
<g id="node2" class="node">
<title>Node2</title>
<g id="a_node2"><a xlink:href="Debug_8h.html" target="_top" xlink:title=" ">
<polygon fill="white" stroke="black" points="0,-56.5 0,-75.5 57,-75.5 57,-56.5 0,-56.5"/>
<text text-anchor="middle" x="28.5" y="-63.5" font-family="Helvetica,sans-Serif" font-size="10.00">Debug.h</text>
</a>
</g>
</g>
<!-- Node1&#45;&gt;Node2 -->
<g id="edge1" class="edge">
<title>Node1&#45;&gt;Node2</title>
<path fill="none" stroke="midnightblue" d="M51.88,-112.08C48.04,-104.69 42.48,-93.95 37.74,-84.81"/>
<polygon fill="midnightblue" stroke="midnightblue" points="40.75,-83.02 33.04,-75.75 34.53,-86.24 40.75,-83.02"/>
</g>
<!-- Node3 -->
<g id="node3" class="node">
<title>Node3</title>
<g id="a_node3"><a xlink:title=" ">
<polygon fill="white" stroke="#bfbfbf" points="25,-0.5 25,-19.5 88,-19.5 88,-0.5 25,-0.5"/>
<text text-anchor="middle" x="56.5" y="-7.5" font-family="Helvetica,sans-Serif" font-size="10.00">Arduino.h</text>
</a>
</g>
</g>
<!-- Node1&#45;&gt;Node3 -->
<g id="edge3" class="edge">
<title>Node1&#45;&gt;Node3</title>
<path fill="none" stroke="midnightblue" d="M59.34,-112.2C63.02,-99.74 68.72,-76.2 66.5,-56 65.53,-47.14 63.51,-37.47 61.54,-29.38"/>
<polygon fill="midnightblue" stroke="midnightblue" points="64.88,-28.33 58.98,-19.53 58.11,-30.09 64.88,-28.33"/>
</g>
<!-- Node2&#45;&gt;Node3 -->
<g id="edge2" class="edge">
<title>Node2&#45;&gt;Node3</title>
<path fill="none" stroke="midnightblue" d="M33.12,-56.08C36.96,-48.69 42.52,-37.95 47.26,-28.81"/>
<polygon fill="midnightblue" stroke="midnightblue" points="50.47,-30.24 51.96,-19.75 44.25,-27.02 50.47,-30.24"/>
</g>
</g>
</svg>
