<?xml version="1.0" encoding="UTF-8" standalone="no"?>
<!DOCTYPE svg PUBLIC "-//W3C//DTD SVG 1.1//EN"
 "http://www.w3.org/Graphics/SVG/1.1/DTD/svg11.dtd">
<!-- Generated by graphviz version 2.43.0 (0)
 -->
<!-- Title: include/EurorackClock.h Pages: 1 -->
<svg width="533pt" height="252pt"
 viewBox="0.00 0.00 532.50 252.00" xmlns="http://www.w3.org/2000/svg" xmlns:xlink="http://www.w3.org/1999/xlink">
<g id="graph0" class="graph" transform="scale(1 1) rotate(0) translate(4 248)">
<title>include/EurorackClock.h</title>
<polygon fill="white" stroke="transparent" points="-4,4 -4,-248 528.5,-248 528.5,4 -4,4"/>
<!-- Node1 -->
<g id="node1" class="node">
<title>Node1</title>
<g id="a_node1"><a xlink:title=" ">
<polygon fill="#bfbfbf" stroke="black" points="126.5,-224.5 126.5,-243.5 260.5,-243.5 260.5,-224.5 126.5,-224.5"/>
<text text-anchor="middle" x="193.5" y="-231.5" font-family="Helvetica,sans-Serif" font-size="10.00">include/EurorackClock.h</text>
</a>
</g>
</g>
<!-- Node2 -->
<g id="node2" class="node">
<title>Node2</title>
<g id="a_node2"><a xlink:title=" ">
<polygon fill="white" stroke="#bfbfbf" points="0,-168.5 0,-187.5 101,-187.5 101,-168.5 0,-168.5"/>
<text text-anchor="middle" x="50.5" y="-175.5" font-family="Helvetica,sans-Serif" font-size="10.00">HardwareTimer.h</text>
</a>
</g>
</g>
<!-- Node1&#45;&gt;Node2 -->
<g id="edge1" class="edge">
<title>Node1&#45;&gt;Node2</title>
<path fill="none" stroke="midnightblue" d="M170.84,-224.44C147.1,-215.48 109.59,-201.31 82.76,-191.18"/>
<polygon fill="midnightblue" stroke="midnightblue" points="83.64,-187.77 73.05,-187.52 81.17,-194.32 83.64,-187.77"/>
</g>
<!-- Node3 -->
<g id="node3" class="node">
<title>Node3</title>
<g id="a_node3"><a xlink:href="LED_8h.xhtml" target="_top" xlink:title=" ">
<polygon fill="white" stroke="black" points="178.5,-56.5 178.5,-75.5 222.5,-75.5 222.5,-56.5 178.5,-56.5"/>
<text text-anchor="middle" x="200.5" y="-63.5" font-family="Helvetica,sans-Serif" font-size="10.00">LED.h</text>
</a>
</g>
</g>
<!-- Node1&#45;&gt;Node3 -->
<g id="edge2" class="edge">
<title>Node1&#45;&gt;Node3</title>
<path fill="none" stroke="midnightblue" d="M191.79,-224.43C188.08,-204.56 180.15,-153.81 186.5,-112 187.87,-103 190.69,-93.33 193.45,-85.26"/>
<polygon fill="midnightblue" stroke="midnightblue" points="196.77,-86.37 196.9,-75.78 190.19,-83.98 196.77,-86.37"/>
</g>
<!-- Node4 -->
<g id="node4" class="node">
<title>Node4</title>
<g id="a_node4"><a xlink:href="Pin_8h.xhtml" target="_top" xlink:title=" ">
<polygon fill="white" stroke="black" points="180,-0.5 180,-19.5 221,-19.5 221,-0.5 180,-0.5"/>
<text text-anchor="middle" x="200.5" y="-7.5" font-family="Helvetica,sans-Serif" font-size="10.00">Pin.h</text>
</a>
</g>
</g>
<!-- Node1&#45;&gt;Node4 -->
<g id="edge4" class="edge">
<title>Node1&#45;&gt;Node4</title>
<path fill="none" stroke="midnightblue" d="M189.73,-224.31C178.97,-198.21 150.06,-118.48 169.5,-56 172.73,-45.62 179.28,-35.52 185.52,-27.53"/>
<polygon fill="midnightblue" stroke="midnightblue" points="188.29,-29.68 192.02,-19.77 182.92,-25.19 188.29,-29.68"/>
</g>
<!-- Node5 -->
<g id="node5" class="node">
<title>Node5</title>
<g id="a_node5"><a xlink:href="Gates_8h.xhtml" target="_top" xlink:title=" ">
<polygon fill="white" stroke="black" points="268.5,-168.5 268.5,-187.5 322.5,-187.5 322.5,-168.5 268.5,-168.5"/>
<text text-anchor="middle" x="295.5" y="-175.5" font-family="Helvetica,sans-Serif" font-size="10.00">Gates.h</text>
</a>
</g>
</g>
<!-- Node1&#45;&gt;Node5 -->
<g id="edge5" class="edge">
<title>Node1&#45;&gt;Node5</title>
<path fill="none" stroke="midnightblue" d="M209.89,-224.32C226.17,-215.7 251.37,-202.36 270.22,-192.39"/>
<polygon fill="midnightblue" stroke="midnightblue" points="271.95,-195.43 279.15,-187.65 268.68,-189.24 271.95,-195.43"/>
</g>
<!-- Node8 -->
<g id="node8" class="node">
<title>Node8</title>
<g id="a_node8"><a xlink:href="Constants_8h.xhtml" target="_top" xlink:title=" ">
<polygon fill="white" stroke="black" points="450.5,-56.5 450.5,-75.5 524.5,-75.5 524.5,-56.5 450.5,-56.5"/>
<text text-anchor="middle" x="487.5" y="-63.5" font-family="Helvetica,sans-Serif" font-size="10.00">Constants.h</text>
</a>
</g>
</g>
<!-- Node1&#45;&gt;Node8 -->
<g id="edge16" class="edge">
<title>Node1&#45;&gt;Node8</title>
<path fill="none" stroke="midnightblue" d="M227.26,-224.45C255.75,-216.67 297.23,-203.96 331.5,-188 374.21,-168.11 384.49,-161.15 421.5,-132 440.54,-117 460.04,-97.13 472.85,-83.33"/>
<polygon fill="midnightblue" stroke="midnightblue" points="475.74,-85.36 479.91,-75.61 470.58,-80.63 475.74,-85.36"/>
</g>
<!-- Node10 -->
<g id="node10" class="node">
<title>Node10</title>
<g id="a_node10"><a xlink:href="LEDs_8h.xhtml" target="_top" xlink:title=" ">
<polygon fill="white" stroke="black" points="195.5,-112.5 195.5,-131.5 245.5,-131.5 245.5,-112.5 195.5,-112.5"/>
<text text-anchor="middle" x="220.5" y="-119.5" font-family="Helvetica,sans-Serif" font-size="10.00">LEDs.h</text>
</a>
</g>
</g>
<!-- Node1&#45;&gt;Node10 -->
<g id="edge15" class="edge">
<title>Node1&#45;&gt;Node10</title>
<path fill="none" stroke="midnightblue" d="M195.62,-224.37C199.98,-206.62 210.03,-165.67 215.94,-141.6"/>
<polygon fill="midnightblue" stroke="midnightblue" points="219.41,-142.14 218.39,-131.59 212.61,-140.47 219.41,-142.14"/>
</g>
<!-- Node3&#45;&gt;Node4 -->
<g id="edge3" class="edge">
<title>Node3&#45;&gt;Node4</title>
<path fill="none" stroke="midnightblue" d="M200.5,-56.08C200.5,-49.01 200.5,-38.86 200.5,-29.99"/>
<polygon fill="midnightblue" stroke="midnightblue" points="204,-29.75 200.5,-19.75 197,-29.75 204,-29.75"/>
</g>
<!-- Node6 -->
<g id="node6" class="node">
<title>Node6</title>
<g id="a_node6"><a xlink:title=" ">
<polygon fill="white" stroke="#bfbfbf" points="264,-112.5 264,-131.5 327,-131.5 327,-112.5 264,-112.5"/>
<text text-anchor="middle" x="295.5" y="-119.5" font-family="Helvetica,sans-Serif" font-size="10.00">Arduino.h</text>
</a>
</g>
</g>
<!-- Node5&#45;&gt;Node6 -->
<g id="edge6" class="edge">
<title>Node5&#45;&gt;Node6</title>
<path fill="none" stroke="midnightblue" d="M295.5,-168.08C295.5,-161.01 295.5,-150.86 295.5,-141.99"/>
<polygon fill="midnightblue" stroke="midnightblue" points="299,-141.75 295.5,-131.75 292,-141.75 299,-141.75"/>
</g>
<!-- Node7 -->
<g id="node7" class="node">
<title>Node7</title>
<g id="a_node7"><a xlink:href="Gate_8h.xhtml" target="_top" xlink:title=" ">
<polygon fill="white" stroke="black" points="345,-112.5 345,-131.5 394,-131.5 394,-112.5 345,-112.5"/>
<text text-anchor="middle" x="369.5" y="-119.5" font-family="Helvetica,sans-Serif" font-size="10.00">Gate.h</text>
</a>
</g>
</g>
<!-- Node5&#45;&gt;Node7 -->
<g id="edge7" class="edge">
<title>Node5&#45;&gt;Node7</title>
<path fill="none" stroke="midnightblue" d="M307.39,-168.32C318.65,-160.11 335.79,-147.6 349.21,-137.81"/>
<polygon fill="midnightblue" stroke="midnightblue" points="351.38,-140.56 357.39,-131.83 347.25,-134.9 351.38,-140.56"/>
</g>
<!-- Node9 -->
<g id="node9" class="node">
<title>Node9</title>
<g id="a_node9"><a xlink:title=" ">
<polygon fill="white" stroke="#bfbfbf" points="399,-0.5 399,-19.5 446,-19.5 446,-0.5 399,-0.5"/>
<text text-anchor="middle" x="422.5" y="-7.5" font-family="Helvetica,sans-Serif" font-size="10.00">vector</text>
</a>
</g>
</g>
<!-- Node5&#45;&gt;Node9 -->
<g id="edge14" class="edge">
<title>Node5&#45;&gt;Node9</title>
<path fill="none" stroke="midnightblue" d="M322.81,-173.06C347.55,-167.99 383.02,-156.68 402.5,-132 425.94,-102.3 426.48,-55.53 424.61,-29.7"/>
<polygon fill="midnightblue" stroke="midnightblue" points="428.1,-29.37 423.69,-19.73 421.12,-30.01 428.1,-29.37"/>
</g>
<!-- Node5&#45;&gt;Node10 -->
<g id="edge11" class="edge">
<title>Node5&#45;&gt;Node10</title>
<path fill="none" stroke="midnightblue" d="M283.45,-168.32C272.04,-160.11 254.67,-147.6 241.07,-137.81"/>
<polygon fill="midnightblue" stroke="midnightblue" points="242.93,-134.84 232.77,-131.83 238.84,-140.52 242.93,-134.84"/>
</g>
<!-- Node7&#45;&gt;Node4 -->
<g id="edge8" class="edge">
<title>Node7&#45;&gt;Node4</title>
<path fill="none" stroke="midnightblue" d="M356.24,-112.37C327.24,-93.49 257.94,-48.38 222.37,-25.24"/>
<polygon fill="midnightblue" stroke="midnightblue" points="223.99,-22.11 213.7,-19.59 220.17,-27.98 223.99,-22.11"/>
</g>
<!-- Node7&#45;&gt;Node8 -->
<g id="edge9" class="edge">
<title>Node7&#45;&gt;Node8</title>
<path fill="none" stroke="midnightblue" d="M388.2,-112.44C407.44,-103.64 437.65,-89.81 459.7,-79.72"/>
<polygon fill="midnightblue" stroke="midnightblue" points="461.25,-82.86 468.89,-75.52 458.34,-76.5 461.25,-82.86"/>
</g>
<!-- Node8&#45;&gt;Node9 -->
<g id="edge10" class="edge">
<title>Node8&#45;&gt;Node9</title>
<path fill="none" stroke="midnightblue" d="M477.06,-56.32C467.35,-48.26 452.68,-36.08 441,-26.37"/>
<polygon fill="midnightblue" stroke="midnightblue" points="443.06,-23.53 433.13,-19.83 438.59,-28.92 443.06,-23.53"/>
</g>
<!-- Node10&#45;&gt;Node3 -->
<g id="edge12" class="edge">
<title>Node10&#45;&gt;Node3</title>
<path fill="none" stroke="midnightblue" d="M217.2,-112.08C214.52,-104.85 210.65,-94.41 207.31,-85.4"/>
<polygon fill="midnightblue" stroke="midnightblue" points="210.5,-83.91 203.74,-75.75 203.93,-86.34 210.5,-83.91"/>
</g>
<!-- Node10&#45;&gt;Node9 -->
<g id="edge13" class="edge">
<title>Node10&#45;&gt;Node9</title>
<path fill="none" stroke="midnightblue" d="M236.35,-112.37C271.38,-93.29 355.62,-47.42 397.7,-24.51"/>
<polygon fill="midnightblue" stroke="midnightblue" points="399.61,-27.45 406.72,-19.59 396.27,-21.3 399.61,-27.45"/>
</g>
</g>
</svg>
