<?xml version="1.0" encoding="UTF-8" standalone="no"?>
<!DOCTYPE svg PUBLIC "-//W3C//DTD SVG 1.1//EN"
 "http://www.w3.org/Graphics/SVG/1.1/DTD/svg11.dtd">
<!-- Generated by graphviz version 2.43.0 (0)
 -->
<!-- Title: include/EurorackClock.h Pages: 1 -->
<svg width="545pt" height="196pt"
 viewBox="0.00 0.00 544.50 196.00" xmlns="http://www.w3.org/2000/svg" xmlns:xlink="http://www.w3.org/1999/xlink">
<g id="graph0" class="graph" transform="scale(1 1) rotate(0) translate(4 192)">
<title>include/EurorackClock.h</title>
<polygon fill="white" stroke="transparent" points="-4,4 -4,-192 540.5,-192 540.5,4 -4,4"/>
<!-- Node1 -->
<g id="node1" class="node">
<title>Node1</title>
<g id="a_node1"><a xlink:title=" ">
<polygon fill="#bfbfbf" stroke="black" points="299,-168.5 299,-187.5 433,-187.5 433,-168.5 299,-168.5"/>
<text text-anchor="middle" x="366" y="-175.5" font-family="Helvetica,sans-Serif" font-size="10.00">include/EurorackClock.h</text>
</a>
</g>
</g>
<!-- Node2 -->
<g id="node2" class="node">
<title>Node2</title>
<g id="a_node2"><a xlink:href="EurorackClock_8cpp.xhtml" target="_top" xlink:title=" ">
<polygon fill="white" stroke="black" points="117,-112.5 117,-131.5 241,-131.5 241,-112.5 117,-112.5"/>
<text text-anchor="middle" x="179" y="-119.5" font-family="Helvetica,sans-Serif" font-size="10.00">src/EurorackClock.cpp</text>
</a>
</g>
</g>
<!-- Node1&#45;&gt;Node2 -->
<g id="edge1" class="edge">
<title>Node1&#45;&gt;Node2</title>
<path fill="none" stroke="midnightblue" d="M326.41,-165.57C291.13,-155.38 240.31,-140.7 208.49,-131.52"/>
<polygon fill="midnightblue" stroke="midnightblue" points="325.79,-169.03 336.37,-168.44 327.73,-162.31 325.79,-169.03"/>
</g>
<!-- Node3 -->
<g id="node3" class="node">
<title>Node3</title>
<g id="a_node3"><a xlink:href="main_8cpp.xhtml" target="_top" xlink:title=" ">
<polygon fill="white" stroke="black" points="347.5,-0.5 347.5,-19.5 426.5,-19.5 426.5,-0.5 347.5,-0.5"/>
<text text-anchor="middle" x="387" y="-7.5" font-family="Helvetica,sans-Serif" font-size="10.00">src/main.cpp</text>
</a>
</g>
</g>
<!-- Node1&#45;&gt;Node3 -->
<g id="edge2" class="edge">
<title>Node1&#45;&gt;Node3</title>
<path fill="none" stroke="midnightblue" d="M378.73,-159.9C383.93,-151.87 389.35,-141.9 392,-132 402.94,-91.18 393.62,-39.87 389.11,-19.7"/>
<polygon fill="midnightblue" stroke="midnightblue" points="375.71,-158.11 372.89,-168.32 381.46,-162.09 375.71,-158.11"/>
</g>
<!-- Node4 -->
<g id="node4" class="node">
<title>Node4</title>
<g id="a_node4"><a xlink:href="MIDIHandler_8h.xhtml" target="_top" xlink:title=" ">
<polygon fill="white" stroke="black" points="259,-112.5 259,-131.5 383,-131.5 383,-112.5 259,-112.5"/>
<text text-anchor="middle" x="321" y="-119.5" font-family="Helvetica,sans-Serif" font-size="10.00">include/MIDIHandler.h</text>
</a>
</g>
</g>
<!-- Node1&#45;&gt;Node4 -->
<g id="edge3" class="edge">
<title>Node1&#45;&gt;Node4</title>
<path fill="none" stroke="midnightblue" d="M351.95,-160.14C344.11,-150.74 334.67,-139.4 328.29,-131.75"/>
<polygon fill="midnightblue" stroke="midnightblue" points="349.48,-162.64 358.57,-168.08 354.86,-158.16 349.48,-162.64"/>
</g>
<!-- Node6 -->
<g id="node6" class="node">
<title>Node6</title>
<g id="a_node6"><a xlink:href="Mode0_8h.xhtml" target="_top" xlink:title=" ">
<polygon fill="white" stroke="black" points="439.5,-56.5 439.5,-75.5 536.5,-75.5 536.5,-56.5 439.5,-56.5"/>
<text text-anchor="middle" x="488" y="-63.5" font-family="Helvetica,sans-Serif" font-size="10.00">include/Mode0.h</text>
</a>
</g>
</g>
<!-- Node1&#45;&gt;Node6 -->
<g id="edge15" class="edge">
<title>Node1&#45;&gt;Node6</title>
<path fill="none" stroke="midnightblue" d="M386.83,-162.29C398.4,-153.83 412.87,-142.77 425,-132 446.15,-113.21 468.7,-88.71 480.23,-75.82"/>
<polygon fill="midnightblue" stroke="midnightblue" points="384.69,-159.52 378.63,-168.21 388.79,-165.2 384.69,-159.52"/>
</g>
<!-- Node4&#45;&gt;Node3 -->
<g id="edge4" class="edge">
<title>Node4&#45;&gt;Node3</title>
<path fill="none" stroke="midnightblue" d="M334.29,-104.25C340.6,-95.97 348.04,-85.7 354,-76 365.93,-56.59 377.4,-32.34 383.16,-19.65"/>
<polygon fill="midnightblue" stroke="midnightblue" points="331.39,-102.29 328.02,-112.33 336.91,-106.58 331.39,-102.29"/>
</g>
<!-- Node5 -->
<g id="node5" class="node">
<title>Node5</title>
<g id="a_node5"><a xlink:href="MIDIHandler_8cpp.xhtml" target="_top" xlink:title=" ">
<polygon fill="white" stroke="black" points="0,-56.5 0,-75.5 114,-75.5 114,-56.5 0,-56.5"/>
<text text-anchor="middle" x="57" y="-63.5" font-family="Helvetica,sans-Serif" font-size="10.00">src/MIDIHandler.cpp</text>
</a>
</g>
</g>
<!-- Node4&#45;&gt;Node5 -->
<g id="edge5" class="edge">
<title>Node4&#45;&gt;Node5</title>
<path fill="none" stroke="midnightblue" d="M269.22,-110.41C219.33,-100.2 144.8,-84.96 98.64,-75.52"/>
<polygon fill="midnightblue" stroke="midnightblue" points="268.67,-113.87 279.17,-112.44 270.07,-107.01 268.67,-113.87"/>
</g>
<!-- Node4&#45;&gt;Node6 -->
<g id="edge6" class="edge">
<title>Node4&#45;&gt;Node6</title>
<path fill="none" stroke="midnightblue" d="M357.17,-109.3C388.64,-99.13 433.49,-84.62 461.66,-75.52"/>
<polygon fill="midnightblue" stroke="midnightblue" points="355.9,-106.04 347.46,-112.44 358.05,-112.7 355.9,-106.04"/>
</g>
<!-- Node8 -->
<g id="node8" class="node">
<title>Node8</title>
<g id="a_node8"><a xlink:href="Mode1_8h.xhtml" target="_top" xlink:title=" ">
<polygon fill="white" stroke="black" points="247.5,-56.5 247.5,-75.5 344.5,-75.5 344.5,-56.5 247.5,-56.5"/>
<text text-anchor="middle" x="296" y="-63.5" font-family="Helvetica,sans-Serif" font-size="10.00">include/Mode1.h</text>
</a>
</g>
</g>
<!-- Node4&#45;&gt;Node8 -->
<g id="edge9" class="edge">
<title>Node4&#45;&gt;Node8</title>
<path fill="none" stroke="midnightblue" d="M312.66,-102.98C308.42,-93.82 303.45,-83.09 300.05,-75.75"/>
<polygon fill="midnightblue" stroke="midnightblue" points="309.49,-104.48 316.87,-112.08 315.85,-101.54 309.49,-104.48"/>
</g>
<!-- Node10 -->
<g id="node10" class="node">
<title>Node10</title>
<g id="a_node10"><a xlink:href="Mode2_8h.xhtml" target="_top" xlink:title=" ">
<polygon fill="white" stroke="black" points="132.5,-56.5 132.5,-75.5 229.5,-75.5 229.5,-56.5 132.5,-56.5"/>
<text text-anchor="middle" x="181" y="-63.5" font-family="Helvetica,sans-Serif" font-size="10.00">include/Mode2.h</text>
</a>
</g>
</g>
<!-- Node4&#45;&gt;Node10 -->
<g id="edge12" class="edge">
<title>Node4&#45;&gt;Node10</title>
<path fill="none" stroke="midnightblue" d="M289.3,-108.77C263,-98.63 226.28,-84.47 203.08,-75.52"/>
<polygon fill="midnightblue" stroke="midnightblue" points="288.23,-112.11 298.82,-112.44 290.75,-105.58 288.23,-112.11"/>
</g>
<!-- Node6&#45;&gt;Node3 -->
<g id="edge7" class="edge">
<title>Node6&#45;&gt;Node3</title>
<path fill="none" stroke="midnightblue" d="M462.92,-51.59C444.24,-41.61 419.3,-28.27 403.19,-19.65"/>
<polygon fill="midnightblue" stroke="midnightblue" points="461.3,-54.7 471.77,-56.32 464.6,-48.52 461.3,-54.7"/>
</g>
<!-- Node7 -->
<g id="node7" class="node">
<title>Node7</title>
<g id="a_node7"><a xlink:href="Mode0_8cpp.xhtml" target="_top" xlink:title=" ">
<polygon fill="white" stroke="black" points="444.5,-0.5 444.5,-19.5 531.5,-19.5 531.5,-0.5 444.5,-0.5"/>
<text text-anchor="middle" x="488" y="-7.5" font-family="Helvetica,sans-Serif" font-size="10.00">src/Mode0.cpp</text>
</a>
</g>
</g>
<!-- Node6&#45;&gt;Node7 -->
<g id="edge8" class="edge">
<title>Node6&#45;&gt;Node7</title>
<path fill="none" stroke="midnightblue" d="M488,-45.8C488,-36.91 488,-26.78 488,-19.75"/>
<polygon fill="midnightblue" stroke="midnightblue" points="484.5,-46.08 488,-56.08 491.5,-46.08 484.5,-46.08"/>
</g>
<!-- Node8&#45;&gt;Node3 -->
<g id="edge10" class="edge">
<title>Node8&#45;&gt;Node3</title>
<path fill="none" stroke="midnightblue" d="M319.29,-51.18C336.04,-41.24 358.1,-28.15 372.42,-19.65"/>
<polygon fill="midnightblue" stroke="midnightblue" points="317.43,-48.21 310.62,-56.32 321.01,-54.23 317.43,-48.21"/>
</g>
<!-- Node9 -->
<g id="node9" class="node">
<title>Node9</title>
<g id="a_node9"><a xlink:href="Mode1_8cpp.xhtml" target="_top" xlink:title=" ">
<polygon fill="white" stroke="black" points="242.5,-0.5 242.5,-19.5 329.5,-19.5 329.5,-0.5 242.5,-0.5"/>
<text text-anchor="middle" x="286" y="-7.5" font-family="Helvetica,sans-Serif" font-size="10.00">src/Mode1.cpp</text>
</a>
</g>
</g>
<!-- Node8&#45;&gt;Node9 -->
<g id="edge11" class="edge">
<title>Node8&#45;&gt;Node9</title>
<path fill="none" stroke="midnightblue" d="M292.5,-46.1C290.84,-37.14 288.94,-26.86 287.62,-19.75"/>
<polygon fill="midnightblue" stroke="midnightblue" points="289.09,-46.89 294.35,-56.08 295.97,-45.61 289.09,-46.89"/>
</g>
<!-- Node10&#45;&gt;Node3 -->
<g id="edge13" class="edge">
<title>Node10&#45;&gt;Node3</title>
<path fill="none" stroke="midnightblue" d="M223.62,-53.83C262.51,-43.63 319.16,-28.78 354.51,-19.52"/>
<polygon fill="midnightblue" stroke="midnightblue" points="222.43,-50.52 213.64,-56.44 224.2,-57.29 222.43,-50.52"/>
</g>
<!-- Node11 -->
<g id="node11" class="node">
<title>Node11</title>
<g id="a_node11"><a xlink:href="Mode2_8cpp.xhtml" target="_top" xlink:title=" ">
<polygon fill="white" stroke="black" points="137.5,-0.5 137.5,-19.5 224.5,-19.5 224.5,-0.5 137.5,-0.5"/>
<text text-anchor="middle" x="181" y="-7.5" font-family="Helvetica,sans-Serif" font-size="10.00">src/Mode2.cpp</text>
</a>
</g>
</g>
<!-- Node10&#45;&gt;Node11 -->
<g id="edge14" class="edge">
<title>Node10&#45;&gt;Node11</title>
<path fill="none" stroke="midnightblue" d="M181,-45.8C181,-36.91 181,-26.78 181,-19.75"/>
<polygon fill="midnightblue" stroke="midnightblue" points="177.5,-46.08 181,-56.08 184.5,-46.08 177.5,-46.08"/>
</g>
</g>
</svg>
