<?xml version="1.0" encoding="UTF-8" standalone="no"?>
<!DOCTYPE svg PUBLIC "-//W3C//DTD SVG 1.1//EN"
 "http://www.w3.org/Graphics/SVG/1.1/DTD/svg11.dtd">
<!-- Generated by graphviz version 2.43.0 (0)
 -->
<!-- Title: src/EurorackClock.cpp Pages: 1 -->
<!--zoomable 308 -->
<svg id="main" version="1.1" xmlns="http://www.w3.org/2000/svg" xmlns:xlink="http://www.w3.org/1999/xlink" xml:space="preserve" onload="init(evt)">
<style type="text/css"><![CDATA[
.edge:hover path { stroke: red; }
.edge:hover polygon { stroke: red; fill: red; }
]]></style>
<script type="text/javascript"><![CDATA[
var edges = document.getElementsByTagName('g');
if (edges && edges.length) {
  for (var i=0;i<edges.length;i++) {
    if (edges[i].id.substr(0,4)=='edge') {
      edges[i].setAttribute('class','edge');
    }
  }
}
]]></script>
        <defs>
                <circle id="rim" cx="0" cy="0" r="7"/>
                <circle id="rim2" cx="0" cy="0" r="3.5"/>
                <g id="zoomPlus">
                        <use xlink:href="#rim" fill="#404040">
                                <set attributeName="fill" to="#808080" begin="zoomplus.mouseover" end="zoomplus.mouseout"/>
                        </use>
                        <path d="M-4,0h8M0,-4v8" fill="none" stroke="white" stroke-width="1.5" pointer-events="none"/>
                </g>
                <g id="zoomMin">
                        <use xlink:href="#rim" fill="#404040">
                                <set attributeName="fill" to="#808080" begin="zoomminus.mouseover" end="zoomminus.mouseout"/>
                        </use>
                        <path d="M-4,0h8" fill="none" stroke="white" stroke-width="1.5" pointer-events="none"/>
                </g>
                <g id="dirArrow">
                        <path fill="none" stroke="white" stroke-width="1.5" d="M0,-3.0v7 M-2.5,-0.5L0,-3.0L2.5,-0.5"/>
                </g>
               <g id="resetDef">
                       <use xlink:href="#rim2" fill="#404040">
                               <set attributeName="fill" to="#808080" begin="reset.mouseover" end="reset.mouseout"/>
                       </use>
               </g>
        </defs>

<script type="text/javascript">
var viewWidth = 702;
var viewHeight = 308;
var sectionId = 'dynsection-0';
</script>
<script xlink:href="svgpan.js"/>
<svg id="graph" class="graph">
<g id="viewport">
<title>src/EurorackClock.cpp</title>
<polygon fill="white" stroke="transparent" points="-4,4 -4,-304 697.54,-304 697.54,4 -4,4"/>
<!-- Node1 -->
<g id="node1" class="node">
<title>Node1</title>
<g id="a_node1"><a xlink:title=" ">
<polygon fill="#bfbfbf" stroke="black" points="561.15,-280.5 561.15,-299.5 685.15,-299.5 685.15,-280.5 561.15,-280.5"/>
<text text-anchor="middle" x="623.15" y="-287.5" font-family="Helvetica,sans-Serif" font-size="10.00">src/EurorackClock.cpp</text>
</a>
</g>
</g>
<!-- Node2 -->
<g id="node2" class="node">
<title>Node2</title>
<g id="a_node2"><a xlink:href="EurorackClock_8h.xhtml" target="_top" xlink:title=" ">
<polygon fill="white" stroke="black" points="141.65,-224.5 141.65,-243.5 236.65,-243.5 236.65,-224.5 141.65,-224.5"/>
<text text-anchor="middle" x="189.15" y="-231.5" font-family="Helvetica,sans-Serif" font-size="10.00">EurorackClock.h</text>
</a>
</g>
</g>
<!-- Node1&#45;&gt;Node2 -->
<g id="edge1" class="edge">
<title>Node1&#45;&gt;Node2</title>
<path fill="none" stroke="midnightblue" d="M560.97,-281.26C477.02,-270.82 328.56,-252.35 246.94,-242.19"/>
<polygon fill="midnightblue" stroke="midnightblue" points="247.2,-238.69 236.84,-240.93 246.33,-245.64 247.2,-238.69"/>
</g>
<!-- Node7 -->
<g id="node7" class="node">
<title>Node7</title>
<g id="a_node7"><a xlink:title=" ">
<polygon fill="white" stroke="#bfbfbf" points="585.65,-56.5 585.65,-75.5 648.65,-75.5 648.65,-56.5 585.65,-56.5"/>
<text text-anchor="middle" x="617.15" y="-63.5" font-family="Helvetica,sans-Serif" font-size="10.00">Arduino.h</text>
</a>
</g>
</g>
<!-- Node1&#45;&gt;Node7 -->
<g id="edge20" class="edge">
<title>Node1&#45;&gt;Node7</title>
<path fill="none" stroke="midnightblue" d="M631.14,-280.13C654.05,-253.52 716.41,-172.52 684.15,-112 676.6,-97.83 662.39,-87.33 649,-80.06"/>
<polygon fill="midnightblue" stroke="midnightblue" points="650.45,-76.87 639.94,-75.53 647.32,-83.13 650.45,-76.87"/>
</g>
<!-- Node12 -->
<g id="node12" class="node">
<title>Node12</title>
<g id="a_node12"><a xlink:href="Debug_8h.xhtml" target="_top" xlink:title=" ">
<polygon fill="white" stroke="black" points="617.65,-112.5 617.65,-131.5 674.65,-131.5 674.65,-112.5 617.65,-112.5"/>
<text text-anchor="middle" x="646.15" y="-119.5" font-family="Helvetica,sans-Serif" font-size="10.00">Debug.h</text>
</a>
</g>
</g>
<!-- Node1&#45;&gt;Node12 -->
<g id="edge18" class="edge">
<title>Node1&#45;&gt;Node12</title>
<path fill="none" stroke="midnightblue" d="M625.15,-280.41C629.08,-263.06 637.86,-222.53 642.15,-188 644.07,-172.55 645.09,-154.92 645.61,-141.92"/>
<polygon fill="midnightblue" stroke="midnightblue" points="649.11,-141.98 645.96,-131.86 642.12,-141.74 649.11,-141.98"/>
</g>
<!-- Node13 -->
<g id="node13" class="node">
<title>Node13</title>
<g id="a_node13"><a xlink:href="ModeSelector_8h.xhtml" target="_top" xlink:title=" ">
<polygon fill="white" stroke="black" points="506.15,-224.5 506.15,-243.5 598.15,-243.5 598.15,-224.5 506.15,-224.5"/>
<text text-anchor="middle" x="552.15" y="-231.5" font-family="Helvetica,sans-Serif" font-size="10.00">ModeSelector.h</text>
</a>
</g>
</g>
<!-- Node1&#45;&gt;Node13 -->
<g id="edge21" class="edge">
<title>Node1&#45;&gt;Node13</title>
<path fill="none" stroke="midnightblue" d="M611.75,-280.32C601.05,-272.18 584.81,-259.84 571.99,-250.09"/>
<polygon fill="midnightblue" stroke="midnightblue" points="573.85,-247.1 563.77,-243.83 569.61,-252.67 573.85,-247.1"/>
</g>
<!-- Node3 -->
<g id="node3" class="node">
<title>Node3</title>
<g id="a_node3"><a xlink:title=" ">
<polygon fill="white" stroke="#bfbfbf" points="21.65,-168.5 21.65,-187.5 122.65,-187.5 122.65,-168.5 21.65,-168.5"/>
<text text-anchor="middle" x="72.15" y="-175.5" font-family="Helvetica,sans-Serif" font-size="10.00">HardwareTimer.h</text>
</a>
</g>
</g>
<!-- Node2&#45;&gt;Node3 -->
<g id="edge2" class="edge">
<title>Node2&#45;&gt;Node3</title>
<path fill="none" stroke="midnightblue" d="M170.62,-224.44C151.53,-215.64 121.58,-201.81 99.72,-191.72"/>
<polygon fill="midnightblue" stroke="midnightblue" points="101.15,-188.53 90.61,-187.52 98.22,-194.88 101.15,-188.53"/>
</g>
<!-- Node4 -->
<g id="node4" class="node">
<title>Node4</title>
<g id="a_node4"><a xlink:href="LED_8h.xhtml" target="_top" xlink:title=" ">
<polygon fill="white" stroke="black" points="167.15,-56.5 167.15,-75.5 211.15,-75.5 211.15,-56.5 167.15,-56.5"/>
<text text-anchor="middle" x="189.15" y="-63.5" font-family="Helvetica,sans-Serif" font-size="10.00">LED.h</text>
</a>
</g>
</g>
<!-- Node2&#45;&gt;Node4 -->
<g id="edge3" class="edge">
<title>Node2&#45;&gt;Node4</title>
<path fill="none" stroke="midnightblue" d="M189.15,-224.08C189.15,-197.95 189.15,-121.21 189.15,-85.58"/>
<polygon fill="midnightblue" stroke="midnightblue" points="192.65,-85.57 189.15,-75.57 185.65,-85.57 192.65,-85.57"/>
</g>
<!-- Node5 -->
<g id="node5" class="node">
<title>Node5</title>
<g id="a_node5"><a xlink:href="Pin_8h.xhtml" target="_top" xlink:title=" ">
<polygon fill="white" stroke="black" points="168.65,-0.5 168.65,-19.5 209.65,-19.5 209.65,-0.5 168.65,-0.5"/>
<text text-anchor="middle" x="189.15" y="-7.5" font-family="Helvetica,sans-Serif" font-size="10.00">Pin.h</text>
</a>
</g>
</g>
<!-- Node2&#45;&gt;Node5 -->
<g id="edge5" class="edge">
<title>Node2&#45;&gt;Node5</title>
<path fill="none" stroke="midnightblue" d="M141.46,-227.45C94.61,-220.91 27.92,-208.27 12.15,-188 -41.02,-119.61 95.93,-50.41 159.16,-23.13"/>
<polygon fill="midnightblue" stroke="midnightblue" points="160.79,-26.24 168.64,-19.11 158.06,-19.79 160.79,-26.24"/>
</g>
<!-- Node6 -->
<g id="node6" class="node">
<title>Node6</title>
<g id="a_node6"><a xlink:href="Gates_8h.xhtml" target="_top" xlink:title=" ">
<polygon fill="white" stroke="black" points="403.15,-168.5 403.15,-187.5 457.15,-187.5 457.15,-168.5 403.15,-168.5"/>
<text text-anchor="middle" x="430.15" y="-175.5" font-family="Helvetica,sans-Serif" font-size="10.00">Gates.h</text>
</a>
</g>
</g>
<!-- Node2&#45;&gt;Node6 -->
<g id="edge6" class="edge">
<title>Node2&#45;&gt;Node6</title>
<path fill="none" stroke="midnightblue" d="M227.34,-224.44C272.78,-214.26 348.12,-197.38 393.07,-187.31"/>
<polygon fill="midnightblue" stroke="midnightblue" points="394,-190.69 402.99,-185.09 392.47,-183.86 394,-190.69"/>
</g>
<!-- Node9 -->
<g id="node9" class="node">
<title>Node9</title>
<g id="a_node9"><a xlink:href="Constants_8h.xhtml" target="_top" xlink:title=" ">
<polygon fill="white" stroke="black" points="346.15,-56.5 346.15,-75.5 420.15,-75.5 420.15,-56.5 346.15,-56.5"/>
<text text-anchor="middle" x="383.15" y="-63.5" font-family="Helvetica,sans-Serif" font-size="10.00">Constants.h</text>
</a>
</g>
</g>
<!-- Node2&#45;&gt;Node9 -->
<g id="edge17" class="edge">
<title>Node2&#45;&gt;Node9</title>
<path fill="none" stroke="midnightblue" d="M236.66,-226.68C280.73,-219.72 341.64,-206.95 356.15,-188 376.74,-161.13 340.86,-144.25 351.15,-112 354.49,-101.54 361.25,-91.43 367.7,-83.45"/>
<polygon fill="midnightblue" stroke="midnightblue" points="370.5,-85.56 374.4,-75.71 365.21,-80.98 370.5,-85.56"/>
</g>
<!-- Node11 -->
<g id="node11" class="node">
<title>Node11</title>
<g id="a_node11"><a xlink:href="LEDs_8h.xhtml" target="_top" xlink:title=" ">
<polygon fill="white" stroke="black" points="253.15,-112.5 253.15,-131.5 303.15,-131.5 303.15,-112.5 253.15,-112.5"/>
<text text-anchor="middle" x="278.15" y="-119.5" font-family="Helvetica,sans-Serif" font-size="10.00">LEDs.h</text>
</a>
</g>
</g>
<!-- Node2&#45;&gt;Node11 -->
<g id="edge16" class="edge">
<title>Node2&#45;&gt;Node11</title>
<path fill="none" stroke="midnightblue" d="M196.14,-224.37C210.89,-206.14 245.45,-163.43 264.66,-139.68"/>
<polygon fill="midnightblue" stroke="midnightblue" points="267.63,-141.57 271.2,-131.59 262.19,-137.16 267.63,-141.57"/>
</g>
<!-- Node4&#45;&gt;Node5 -->
<g id="edge4" class="edge">
<title>Node4&#45;&gt;Node5</title>
<path fill="none" stroke="midnightblue" d="M189.15,-56.08C189.15,-49.01 189.15,-38.86 189.15,-29.99"/>
<polygon fill="midnightblue" stroke="midnightblue" points="192.65,-29.75 189.15,-19.75 185.65,-29.75 192.65,-29.75"/>
</g>
<!-- Node6&#45;&gt;Node7 -->
<g id="edge7" class="edge">
<title>Node6&#45;&gt;Node7</title>
<path fill="none" stroke="midnightblue" d="M444.83,-168.37C477.05,-149.41 554.25,-104 593.45,-80.94"/>
<polygon fill="midnightblue" stroke="midnightblue" points="595.7,-83.68 602.55,-75.59 592.15,-77.64 595.7,-83.68"/>
</g>
<!-- Node8 -->
<g id="node8" class="node">
<title>Node8</title>
<g id="a_node8"><a xlink:href="Gate_8h.xhtml" target="_top" xlink:title=" ">
<polygon fill="white" stroke="black" points="359.65,-112.5 359.65,-131.5 408.65,-131.5 408.65,-112.5 359.65,-112.5"/>
<text text-anchor="middle" x="384.15" y="-119.5" font-family="Helvetica,sans-Serif" font-size="10.00">Gate.h</text>
</a>
</g>
</g>
<!-- Node6&#45;&gt;Node8 -->
<g id="edge8" class="edge">
<title>Node6&#45;&gt;Node8</title>
<path fill="none" stroke="midnightblue" d="M422.56,-168.08C415.93,-160.3 406.13,-148.8 398.1,-139.37"/>
<polygon fill="midnightblue" stroke="midnightblue" points="400.76,-137.09 391.61,-131.75 395.43,-141.63 400.76,-137.09"/>
</g>
<!-- Node10 -->
<g id="node10" class="node">
<title>Node10</title>
<g id="a_node10"><a xlink:title=" ">
<polygon fill="white" stroke="#bfbfbf" points="410.65,-0.5 410.65,-19.5 457.65,-19.5 457.65,-0.5 410.65,-0.5"/>
<text text-anchor="middle" x="434.15" y="-7.5" font-family="Helvetica,sans-Serif" font-size="10.00">vector</text>
</a>
</g>
</g>
<!-- Node6&#45;&gt;Node10 -->
<g id="edge15" class="edge">
<title>Node6&#45;&gt;Node10</title>
<path fill="none" stroke="midnightblue" d="M430.37,-168.08C431,-141.95 432.85,-65.21 433.71,-29.58"/>
<polygon fill="midnightblue" stroke="midnightblue" points="437.21,-29.65 433.95,-19.57 430.21,-29.48 437.21,-29.65"/>
</g>
<!-- Node6&#45;&gt;Node11 -->
<g id="edge12" class="edge">
<title>Node6&#45;&gt;Node11</title>
<path fill="none" stroke="midnightblue" d="M406.07,-168.44C380.61,-159.4 340.26,-145.06 311.7,-134.92"/>
<polygon fill="midnightblue" stroke="midnightblue" points="312.72,-131.57 302.13,-131.52 310.38,-138.16 312.72,-131.57"/>
</g>
<!-- Node8&#45;&gt;Node5 -->
<g id="edge9" class="edge">
<title>Node8&#45;&gt;Node5</title>
<path fill="none" stroke="midnightblue" d="M368.85,-112.37C335.03,-93.29 253.72,-47.42 213.1,-24.51"/>
<polygon fill="midnightblue" stroke="midnightblue" points="214.81,-21.46 204.38,-19.59 211.37,-27.55 214.81,-21.46"/>
</g>
<!-- Node8&#45;&gt;Node9 -->
<g id="edge10" class="edge">
<title>Node8&#45;&gt;Node9</title>
<path fill="none" stroke="midnightblue" d="M383.99,-112.08C383.86,-105.01 383.67,-94.86 383.51,-85.99"/>
<polygon fill="midnightblue" stroke="midnightblue" points="387,-85.68 383.32,-75.75 380,-85.81 387,-85.68"/>
</g>
<!-- Node9&#45;&gt;Node10 -->
<g id="edge11" class="edge">
<title>Node9&#45;&gt;Node10</title>
<path fill="none" stroke="midnightblue" d="M391.58,-56.08C399,-48.22 410.01,-36.57 418.97,-27.08"/>
<polygon fill="midnightblue" stroke="midnightblue" points="421.57,-29.42 425.89,-19.75 416.48,-24.62 421.57,-29.42"/>
</g>
<!-- Node11&#45;&gt;Node4 -->
<g id="edge13" class="edge">
<title>Node11&#45;&gt;Node4</title>
<path fill="none" stroke="midnightblue" d="M263.85,-112.32C249.97,-103.9 228.66,-90.97 212.35,-81.07"/>
<polygon fill="midnightblue" stroke="midnightblue" points="213.78,-77.85 203.42,-75.65 210.15,-83.83 213.78,-77.85"/>
</g>
<!-- Node11&#45;&gt;Node10 -->
<g id="edge14" class="edge">
<title>Node11&#45;&gt;Node10</title>
<path fill="none" stroke="midnightblue" d="M284.17,-112.41C293.97,-98.92 314.56,-72.61 337.15,-56 356.6,-41.7 381.32,-30.32 400.93,-22.58"/>
<polygon fill="midnightblue" stroke="midnightblue" points="402.29,-25.8 410.39,-18.97 399.8,-19.26 402.29,-25.8"/>
</g>
<!-- Node12&#45;&gt;Node7 -->
<g id="edge19" class="edge">
<title>Node12&#45;&gt;Node7</title>
<path fill="none" stroke="midnightblue" d="M641.37,-112.08C637.4,-104.69 631.63,-93.95 626.72,-84.81"/>
<polygon fill="midnightblue" stroke="midnightblue" points="629.67,-82.91 621.85,-75.75 623.5,-86.22 629.67,-82.91"/>
</g>
<!-- Node13&#45;&gt;Node10 -->
<g id="edge22" class="edge">
<title>Node13&#45;&gt;Node10</title>
<path fill="none" stroke="midnightblue" d="M576.49,-224.42C595.69,-216.85 622.44,-204.45 642.15,-188 666.04,-168.07 674.32,-161.51 684.15,-132 695.44,-98.13 686.2,-78.09 658.15,-56 629.03,-33.06 522.98,-19.62 467.89,-14.05"/>
<polygon fill="midnightblue" stroke="midnightblue" points="468.21,-10.56 457.91,-13.07 467.52,-17.53 468.21,-10.56"/>
</g>
<!-- Node14 -->
<g id="node14" class="node">
<title>Node14</title>
<g id="a_node14"><a xlink:href="LEDController_8h.xhtml" target="_top" xlink:title=" ">
<polygon fill="white" stroke="black" points="255.15,-168.5 255.15,-187.5 347.15,-187.5 347.15,-168.5 255.15,-168.5"/>
<text text-anchor="middle" x="301.15" y="-175.5" font-family="Helvetica,sans-Serif" font-size="10.00">LEDController.h</text>
</a>
</g>
</g>
<!-- Node13&#45;&gt;Node14 -->
<g id="edge23" class="edge">
<title>Node13&#45;&gt;Node14</title>
<path fill="none" stroke="midnightblue" d="M512.38,-224.44C468.6,-215.02 398.14,-199.87 350.77,-189.68"/>
<polygon fill="midnightblue" stroke="midnightblue" points="351.25,-186.2 340.74,-187.52 349.78,-193.04 351.25,-186.2"/>
</g>
<!-- Node15 -->
<g id="node15" class="node">
<title>Node15</title>
<g id="a_node15"><a xlink:href="Encoder_8h.xhtml" target="_top" xlink:title=" ">
<polygon fill="white" stroke="black" points="59.15,-112.5 59.15,-131.5 123.15,-131.5 123.15,-112.5 59.15,-112.5"/>
<text text-anchor="middle" x="91.15" y="-119.5" font-family="Helvetica,sans-Serif" font-size="10.00">Encoder.h</text>
</a>
</g>
</g>
<!-- Node13&#45;&gt;Node15 -->
<g id="edge25" class="edge">
<title>Node13&#45;&gt;Node15</title>
<path fill="none" stroke="midnightblue" d="M506.05,-229.84C445.49,-224.88 336.29,-213.1 246.15,-188 198.97,-174.86 147.03,-151.01 116.86,-136.14"/>
<polygon fill="midnightblue" stroke="midnightblue" points="118.37,-132.99 107.86,-131.66 115.24,-139.25 118.37,-132.99"/>
</g>
<!-- Node16 -->
<g id="node16" class="node">
<title>Node16</title>
<g id="a_node16"><a xlink:href="Mode_8h.xhtml" target="_top" xlink:title=" ">
<polygon fill="white" stroke="black" points="579.65,-168.5 579.65,-187.5 632.65,-187.5 632.65,-168.5 579.65,-168.5"/>
<text text-anchor="middle" x="606.15" y="-175.5" font-family="Helvetica,sans-Serif" font-size="10.00">Mode.h</text>
</a>
</g>
</g>
<!-- Node13&#45;&gt;Node16 -->
<g id="edge27" class="edge">
<title>Node13&#45;&gt;Node16</title>
<path fill="none" stroke="midnightblue" d="M561.07,-224.08C568.93,-216.22 580.59,-204.57 590.07,-195.08"/>
<polygon fill="midnightblue" stroke="midnightblue" points="592.81,-197.3 597.4,-187.75 587.86,-192.35 592.81,-197.3"/>
</g>
<!-- Node17 -->
<g id="node17" class="node">
<title>Node17</title>
<g id="a_node17"><a xlink:href="ResetButton_8h.xhtml" target="_top" xlink:title=" ">
<polygon fill="white" stroke="black" points="475.15,-168.5 475.15,-187.5 561.15,-187.5 561.15,-168.5 475.15,-168.5"/>
<text text-anchor="middle" x="518.15" y="-175.5" font-family="Helvetica,sans-Serif" font-size="10.00">ResetButton.h</text>
</a>
</g>
</g>
<!-- Node13&#45;&gt;Node17 -->
<g id="edge28" class="edge">
<title>Node13&#45;&gt;Node17</title>
<path fill="none" stroke="midnightblue" d="M546.54,-224.08C541.79,-216.53 534.84,-205.49 529,-196.23"/>
<polygon fill="midnightblue" stroke="midnightblue" points="531.95,-194.35 523.66,-187.75 526.03,-198.08 531.95,-194.35"/>
</g>
<!-- Node14&#45;&gt;Node11 -->
<g id="edge24" class="edge">
<title>Node14&#45;&gt;Node11</title>
<path fill="none" stroke="midnightblue" d="M297.36,-168.08C294.24,-160.77 289.73,-150.18 285.86,-141.1"/>
<polygon fill="midnightblue" stroke="midnightblue" points="289.02,-139.58 281.88,-131.75 282.58,-142.32 289.02,-139.58"/>
</g>
<!-- Node15&#45;&gt;Node5 -->
<g id="edge26" class="edge">
<title>Node15&#45;&gt;Node5</title>
<path fill="none" stroke="midnightblue" d="M98.84,-112.37C115.16,-94.05 153.47,-51.05 174.58,-27.36"/>
<polygon fill="midnightblue" stroke="midnightblue" points="177.46,-29.39 181.5,-19.59 172.23,-24.73 177.46,-29.39"/>
</g>
<!-- Node17&#45;&gt;Node5 -->
<g id="edge29" class="edge">
<title>Node17&#45;&gt;Node5</title>
<path fill="none" stroke="midnightblue" d="M514.5,-168.23C504.55,-145.51 474.64,-84.58 429.15,-56 394.67,-34.34 276.78,-19.84 220.09,-13.96"/>
<polygon fill="midnightblue" stroke="midnightblue" points="220.23,-10.46 209.93,-12.93 219.52,-17.42 220.23,-10.46"/>
</g>
<!-- Node17&#45;&gt;Node7 -->
<g id="edge30" class="edge">
<title>Node17&#45;&gt;Node7</title>
<path fill="none" stroke="midnightblue" d="M527.88,-168.39C537.64,-159.58 552.95,-145.34 565.15,-132 579.42,-116.41 594.36,-97.41 604.54,-84"/>
<polygon fill="midnightblue" stroke="midnightblue" points="607.56,-85.81 610.77,-75.71 601.96,-81.6 607.56,-85.81"/>
</g>
<!-- Node17&#45;&gt;Node9 -->
<g id="edge32" class="edge">
<title>Node17&#45;&gt;Node9</title>
<path fill="none" stroke="midnightblue" d="M507.56,-168.37C484.69,-149.73 430.44,-105.53 401.73,-82.13"/>
<polygon fill="midnightblue" stroke="midnightblue" points="403.66,-79.19 393.7,-75.59 399.24,-84.62 403.66,-79.19"/>
</g>
<!-- Node17&#45;&gt;Node12 -->
<g id="edge31" class="edge">
<title>Node17&#45;&gt;Node12</title>
<path fill="none" stroke="midnightblue" d="M538.44,-168.44C559.5,-159.56 592.67,-145.56 616.64,-135.45"/>
<polygon fill="midnightblue" stroke="midnightblue" points="618.11,-138.63 625.97,-131.52 615.39,-132.18 618.11,-138.63"/>
</g>
</g>
</svg>
        <g id="navigator" transform="translate(0 0)" fill="#404254">
                <rect fill="#f2f5e9" fill-opacity="0.5" stroke="#606060" stroke-width=".5" x="0" y="0" width="60" height="60"/>
                <use id="zoomplus" xlink:href="#zoomPlus" x="17" y="9" onmousedown="handleZoom(evt,'in')"/>
                <use id="zoomminus" xlink:href="#zoomMin" x="42" y="9" onmousedown="handleZoom(evt,'out')"/>
                <use id="reset" xlink:href="#resetDef" x="30" y="36" onmousedown="handleReset()"/>
                <g id="arrowUp" xlink:href="#dirArrow" transform="translate(30 24)" onmousedown="handlePan(0,-1)">
                  <use xlink:href="#rim" fill="#404040">
                        <set attributeName="fill" to="#808080" begin="arrowUp.mouseover" end="arrowUp.mouseout"/>
                  </use>
                  <path fill="none" stroke="white" stroke-width="1.5" d="M0,-3.0v7 M-2.5,-0.5L0,-3.0L2.5,-0.5"/>
                </g>
                <g id="arrowRight" xlink:href="#dirArrow" transform="rotate(90) translate(36 -43)" onmousedown="handlePan(1,0)">
                  <use xlink:href="#rim" fill="#404040">
                        <set attributeName="fill" to="#808080" begin="arrowRight.mouseover" end="arrowRight.mouseout"/>
                  </use>
                  <path fill="none" stroke="white" stroke-width="1.5" d="M0,-3.0v7 M-2.5,-0.5L0,-3.0L2.5,-0.5"/>
                </g>
                <g id="arrowDown" xlink:href="#dirArrow" transform="rotate(180) translate(-30 -48)" onmousedown="handlePan(0,1)">
                  <use xlink:href="#rim" fill="#404040">
                        <set attributeName="fill" to="#808080" begin="arrowDown.mouseover" end="arrowDown.mouseout"/>
                  </use>
                  <path fill="none" stroke="white" stroke-width="1.5" d="M0,-3.0v7 M-2.5,-0.5L0,-3.0L2.5,-0.5"/>
                </g>
                <g id="arrowLeft" xlink:href="#dirArrow" transform="rotate(270) translate(-36 17)" onmousedown="handlePan(-1,0)">
                  <use xlink:href="#rim" fill="#404040">
                        <set attributeName="fill" to="#808080" begin="arrowLeft.mouseover" end="arrowLeft.mouseout"/>
                  </use>
                  <path fill="none" stroke="white" stroke-width="1.5" d="M0,-3.0v7 M-2.5,-0.5L0,-3.0L2.5,-0.5"/>
                </g>
        </g>
        <svg viewBox="0 0 15 15" width="100%" height="30px" preserveAspectRatio="xMaxYMin meet">
         <g id="arrow_out" transform="scale(0.3 0.3)">
          <a xlink:href="EurorackClock_8cpp__incl_org.svg" target="_base">
           <rect id="button" ry="5" rx="5" y="6" x="6" height="38" width="38"
                fill="#f2f5e9" fill-opacity="0.5" stroke="#606060" stroke-width="1.0"/>
           <path id="arrow"
             d="M 11.500037,31.436501 C 11.940474,20.09759 22.043105,11.32322 32.158766,21.979434 L 37.068811,17.246167 C 37.068811,17.246167 37.088388,32 37.088388,32 L 22.160133,31.978069 C 22.160133,31.978069 26.997745,27.140456 26.997745,27.140456 C 18.528582,18.264221 13.291696,25.230495 11.500037,31.436501 z"
             style="fill:#404040;"/>
          </a>
         </g>
        </svg>
</svg>
