<?xml version="1.0" encoding="UTF-8" standalone="no"?>
<!DOCTYPE svg PUBLIC "-//W3C//DTD SVG 1.1//EN"
 "http://www.w3.org/Graphics/SVG/1.1/DTD/svg11.dtd">
<!-- Generated by graphviz version 2.43.0 (0)
 -->
<!-- Title: src/Gates.cpp Pages: 1 -->
<svg width="262pt" height="252pt"
 viewBox="0.00 0.00 262.19 252.00" xmlns="http://www.w3.org/2000/svg" xmlns:xlink="http://www.w3.org/1999/xlink">
<g id="graph0" class="graph" transform="scale(1 1) rotate(0) translate(4 248)">
<title>src/Gates.cpp</title>
<polygon fill="white" stroke="transparent" points="-4,4 -4,-248 258.19,-248 258.19,4 -4,4"/>
<!-- Node1 -->
<g id="node1" class="node">
<title>Node1</title>
<g id="a_node1"><a xlink:title=" ">
<polygon fill="#bfbfbf" stroke="black" points="99,-224.5 99,-243.5 182,-243.5 182,-224.5 99,-224.5"/>
<text text-anchor="middle" x="140.5" y="-231.5" font-family="Helvetica,sans-Serif" font-size="10.00">src/Gates.cpp</text>
</a>
</g>
</g>
<!-- Node2 -->
<g id="node2" class="node">
<title>Node2</title>
<g id="a_node2"><a xlink:href="Gates_8h.xhtml" target="_top" xlink:title=" ">
<polygon fill="white" stroke="black" points="113.5,-168.5 113.5,-187.5 167.5,-187.5 167.5,-168.5 113.5,-168.5"/>
<text text-anchor="middle" x="140.5" y="-175.5" font-family="Helvetica,sans-Serif" font-size="10.00">Gates.h</text>
</a>
</g>
</g>
<!-- Node1&#45;&gt;Node2 -->
<g id="edge1" class="edge">
<title>Node1&#45;&gt;Node2</title>
<path fill="none" stroke="midnightblue" d="M140.5,-224.08C140.5,-217.01 140.5,-206.86 140.5,-197.99"/>
<polygon fill="midnightblue" stroke="midnightblue" points="144,-197.75 140.5,-187.75 137,-197.75 144,-197.75"/>
</g>
<!-- Node7 -->
<g id="node7" class="node">
<title>Node7</title>
<g id="a_node7"><a xlink:title=" ">
<polygon fill="white" stroke="#bfbfbf" points="200,-0.5 200,-19.5 247,-19.5 247,-0.5 200,-0.5"/>
<text text-anchor="middle" x="223.5" y="-7.5" font-family="Helvetica,sans-Serif" font-size="10.00">vector</text>
</a>
</g>
</g>
<!-- Node1&#45;&gt;Node7 -->
<g id="edge14" class="edge">
<title>Node1&#45;&gt;Node7</title>
<path fill="none" stroke="midnightblue" d="M150.85,-224.49C176.01,-202.92 239.27,-143.01 252.5,-76 254.22,-67.28 255.01,-64.53 252.5,-56 249.49,-45.76 243.35,-35.66 237.49,-27.63"/>
<polygon fill="midnightblue" stroke="midnightblue" points="240.09,-25.27 231.17,-19.54 234.57,-29.58 240.09,-25.27"/>
</g>
<!-- Node10 -->
<g id="node10" class="node">
<title>Node10</title>
<g id="a_node10"><a xlink:href="Debug_8h.xhtml" target="_top" xlink:title=" ">
<polygon fill="white" stroke="black" points="38,-168.5 38,-187.5 95,-187.5 95,-168.5 38,-168.5"/>
<text text-anchor="middle" x="66.5" y="-175.5" font-family="Helvetica,sans-Serif" font-size="10.00">Debug.h</text>
</a>
</g>
</g>
<!-- Node1&#45;&gt;Node10 -->
<g id="edge12" class="edge">
<title>Node1&#45;&gt;Node10</title>
<path fill="none" stroke="midnightblue" d="M128.61,-224.32C117.35,-216.11 100.21,-203.6 86.79,-193.81"/>
<polygon fill="midnightblue" stroke="midnightblue" points="88.75,-190.9 78.61,-187.83 84.62,-196.56 88.75,-190.9"/>
</g>
<!-- Node3 -->
<g id="node3" class="node">
<title>Node3</title>
<g id="a_node3"><a xlink:title=" ">
<polygon fill="white" stroke="#bfbfbf" points="0,-112.5 0,-131.5 63,-131.5 63,-112.5 0,-112.5"/>
<text text-anchor="middle" x="31.5" y="-119.5" font-family="Helvetica,sans-Serif" font-size="10.00">Arduino.h</text>
</a>
</g>
</g>
<!-- Node2&#45;&gt;Node3 -->
<g id="edge2" class="edge">
<title>Node2&#45;&gt;Node3</title>
<path fill="none" stroke="midnightblue" d="M122.99,-168.32C105.43,-159.62 78.17,-146.12 57.97,-136.11"/>
<polygon fill="midnightblue" stroke="midnightblue" points="59.48,-132.96 48.97,-131.65 56.38,-139.23 59.48,-132.96"/>
</g>
<!-- Node4 -->
<g id="node4" class="node">
<title>Node4</title>
<g id="a_node4"><a xlink:href="Gate_8h.xhtml" target="_top" xlink:title=" ">
<polygon fill="white" stroke="black" points="150,-112.5 150,-131.5 199,-131.5 199,-112.5 150,-112.5"/>
<text text-anchor="middle" x="174.5" y="-119.5" font-family="Helvetica,sans-Serif" font-size="10.00">Gate.h</text>
</a>
</g>
</g>
<!-- Node2&#45;&gt;Node4 -->
<g id="edge3" class="edge">
<title>Node2&#45;&gt;Node4</title>
<path fill="none" stroke="midnightblue" d="M146.11,-168.08C150.87,-160.53 157.82,-149.49 163.65,-140.23"/>
<polygon fill="midnightblue" stroke="midnightblue" points="166.62,-142.08 168.99,-131.75 160.7,-138.35 166.62,-142.08"/>
</g>
<!-- Node2&#45;&gt;Node7 -->
<g id="edge11" class="edge">
<title>Node2&#45;&gt;Node7</title>
<path fill="none" stroke="midnightblue" d="M157.9,-168.42C172.54,-160.52 193.3,-147.69 207.5,-132 226.45,-111.07 230.63,-103.39 237.5,-76 241.45,-60.27 236.85,-42.24 231.89,-29.16"/>
<polygon fill="midnightblue" stroke="midnightblue" points="235.09,-27.74 228,-19.88 228.64,-30.45 235.09,-27.74"/>
</g>
<!-- Node8 -->
<g id="node8" class="node">
<title>Node8</title>
<g id="a_node8"><a xlink:href="LEDs_8h.xhtml" target="_top" xlink:title=" ">
<polygon fill="white" stroke="black" points="81.5,-112.5 81.5,-131.5 131.5,-131.5 131.5,-112.5 81.5,-112.5"/>
<text text-anchor="middle" x="106.5" y="-119.5" font-family="Helvetica,sans-Serif" font-size="10.00">LEDs.h</text>
</a>
</g>
</g>
<!-- Node2&#45;&gt;Node8 -->
<g id="edge7" class="edge">
<title>Node2&#45;&gt;Node8</title>
<path fill="none" stroke="midnightblue" d="M134.89,-168.08C130.13,-160.53 123.18,-149.49 117.35,-140.23"/>
<polygon fill="midnightblue" stroke="midnightblue" points="120.3,-138.35 112.01,-131.75 114.38,-142.08 120.3,-138.35"/>
</g>
<!-- Node5 -->
<g id="node5" class="node">
<title>Node5</title>
<g id="a_node5"><a xlink:href="Pin_8h.xhtml" target="_top" xlink:title=" ">
<polygon fill="white" stroke="black" points="62,-0.5 62,-19.5 103,-19.5 103,-0.5 62,-0.5"/>
<text text-anchor="middle" x="82.5" y="-7.5" font-family="Helvetica,sans-Serif" font-size="10.00">Pin.h</text>
</a>
</g>
</g>
<!-- Node4&#45;&gt;Node5 -->
<g id="edge4" class="edge">
<title>Node4&#45;&gt;Node5</title>
<path fill="none" stroke="midnightblue" d="M167.28,-112.37C151.96,-94.05 116,-51.05 96.18,-27.36"/>
<polygon fill="midnightblue" stroke="midnightblue" points="98.79,-25.02 89.69,-19.59 93.42,-29.51 98.79,-25.02"/>
</g>
<!-- Node6 -->
<g id="node6" class="node">
<title>Node6</title>
<g id="a_node6"><a xlink:href="Constants_8h.xhtml" target="_top" xlink:title=" ">
<polygon fill="white" stroke="black" points="154.5,-56.5 154.5,-75.5 228.5,-75.5 228.5,-56.5 154.5,-56.5"/>
<text text-anchor="middle" x="191.5" y="-63.5" font-family="Helvetica,sans-Serif" font-size="10.00">Constants.h</text>
</a>
</g>
</g>
<!-- Node4&#45;&gt;Node6 -->
<g id="edge5" class="edge">
<title>Node4&#45;&gt;Node6</title>
<path fill="none" stroke="midnightblue" d="M177.31,-112.08C179.58,-104.85 182.87,-94.41 185.71,-85.4"/>
<polygon fill="midnightblue" stroke="midnightblue" points="189.08,-86.34 188.75,-75.75 182.4,-84.24 189.08,-86.34"/>
</g>
<!-- Node6&#45;&gt;Node7 -->
<g id="edge6" class="edge">
<title>Node6&#45;&gt;Node7</title>
<path fill="none" stroke="midnightblue" d="M196.78,-56.08C201.21,-48.61 207.66,-37.72 213.12,-28.52"/>
<polygon fill="midnightblue" stroke="midnightblue" points="216.23,-30.14 218.31,-19.75 210.21,-26.57 216.23,-30.14"/>
</g>
<!-- Node8&#45;&gt;Node7 -->
<g id="edge10" class="edge">
<title>Node8&#45;&gt;Node7</title>
<path fill="none" stroke="midnightblue" d="M109.92,-112.5C115.64,-99.13 128.23,-72.97 145.5,-56 159.16,-42.57 177.62,-31.68 193.15,-23.98"/>
<polygon fill="midnightblue" stroke="midnightblue" points="194.84,-27.06 202.38,-19.61 191.84,-20.73 194.84,-27.06"/>
</g>
<!-- Node9 -->
<g id="node9" class="node">
<title>Node9</title>
<g id="a_node9"><a xlink:href="LED_8h.xhtml" target="_top" xlink:title=" ">
<polygon fill="white" stroke="black" points="16.5,-56.5 16.5,-75.5 60.5,-75.5 60.5,-56.5 16.5,-56.5"/>
<text text-anchor="middle" x="38.5" y="-63.5" font-family="Helvetica,sans-Serif" font-size="10.00">LED.h</text>
</a>
</g>
</g>
<!-- Node8&#45;&gt;Node9 -->
<g id="edge8" class="edge">
<title>Node8&#45;&gt;Node9</title>
<path fill="none" stroke="midnightblue" d="M95.57,-112.32C85.33,-104.18 69.78,-91.84 57.5,-82.09"/>
<polygon fill="midnightblue" stroke="midnightblue" points="59.63,-79.31 49.62,-75.83 55.28,-84.79 59.63,-79.31"/>
</g>
<!-- Node9&#45;&gt;Node5 -->
<g id="edge9" class="edge">
<title>Node9&#45;&gt;Node5</title>
<path fill="none" stroke="midnightblue" d="M45.77,-56.08C52.04,-48.38 61.29,-37.03 68.93,-27.65"/>
<polygon fill="midnightblue" stroke="midnightblue" points="71.77,-29.71 75.37,-19.75 66.34,-25.29 71.77,-29.71"/>
</g>
<!-- Node10&#45;&gt;Node3 -->
<g id="edge13" class="edge">
<title>Node10&#45;&gt;Node3</title>
<path fill="none" stroke="midnightblue" d="M60.72,-168.08C55.83,-160.53 48.67,-149.49 42.67,-140.23"/>
<polygon fill="midnightblue" stroke="midnightblue" points="45.55,-138.24 37.17,-131.75 39.67,-142.05 45.55,-138.24"/>
</g>
</g>
</svg>
