<?xml version="1.0" encoding="UTF-8" standalone="no"?>
<!DOCTYPE svg PUBLIC "-//W3C//DTD SVG 1.1//EN"
 "http://www.w3.org/Graphics/SVG/1.1/DTD/svg11.dtd">
<!-- Generated by graphviz version 2.43.0 (0)
 -->
<!-- Title: include/Gate.h Pages: 1 -->
<!--zoomable 308 -->
<svg id="main" version="1.1" xmlns="http://www.w3.org/2000/svg" xmlns:xlink="http://www.w3.org/1999/xlink" xml:space="preserve" onload="init(evt)">
<style type="text/css"><![CDATA[
.edge:hover path { stroke: red; }
.edge:hover polygon { stroke: red; fill: red; }
]]></style>
<script type="text/javascript"><![CDATA[
var edges = document.getElementsByTagName('g');
if (edges && edges.length) {
  for (var i=0;i<edges.length;i++) {
    if (edges[i].id.substr(0,4)=='edge') {
      edges[i].setAttribute('class','edge');
    }
  }
}
]]></script>
        <defs>
                <circle id="rim" cx="0" cy="0" r="7"/>
                <circle id="rim2" cx="0" cy="0" r="3.5"/>
                <g id="zoomPlus">
                        <use xlink:href="#rim" fill="#404040">
                                <set attributeName="fill" to="#808080" begin="zoomplus.mouseover" end="zoomplus.mouseout"/>
                        </use>
                        <path d="M-4,0h8M0,-4v8" fill="none" stroke="white" stroke-width="1.5" pointer-events="none"/>
                </g>
                <g id="zoomMin">
                        <use xlink:href="#rim" fill="#404040">
                                <set attributeName="fill" to="#808080" begin="zoomminus.mouseover" end="zoomminus.mouseout"/>
                        </use>
                        <path d="M-4,0h8" fill="none" stroke="white" stroke-width="1.5" pointer-events="none"/>
                </g>
                <g id="dirArrow">
                        <path fill="none" stroke="white" stroke-width="1.5" d="M0,-3.0v7 M-2.5,-0.5L0,-3.0L2.5,-0.5"/>
                </g>
               <g id="resetDef">
                       <use xlink:href="#rim2" fill="#404040">
                               <set attributeName="fill" to="#808080" begin="reset.mouseover" end="reset.mouseout"/>
                       </use>
               </g>
        </defs>

<script type="text/javascript">
var viewWidth = 758;
var viewHeight = 308;
var sectionId = 'dynsection-1';
</script>
<script xlink:href="svgpan.js"/>
<svg id="graph" class="graph">
<g id="viewport">
<title>include/Gate.h</title>
<polygon fill="white" stroke="transparent" points="-4,4 -4,-304 754,-304 754,4 -4,4"/>
<!-- Node1 -->
<g id="node1" class="node">
<title>Node1</title>
<g id="a_node1"><a xlink:title=" ">
<polygon fill="#bfbfbf" stroke="black" points="326,-280.5 326,-299.5 413,-299.5 413,-280.5 326,-280.5"/>
<text text-anchor="middle" x="369.5" y="-287.5" font-family="Helvetica,sans-Serif" font-size="10.00">include/Gate.h</text>
</a>
</g>
</g>
<!-- Node2 -->
<g id="node2" class="node">
<title>Node2</title>
<g id="a_node2"><a xlink:href="Gate_8cpp.xhtml" target="_top" xlink:title=" ">
<polygon fill="white" stroke="black" points="280,-224.5 280,-243.5 357,-243.5 357,-224.5 280,-224.5"/>
<text text-anchor="middle" x="318.5" y="-231.5" font-family="Helvetica,sans-Serif" font-size="10.00">src/Gate.cpp</text>
</a>
</g>
</g>
<!-- Node1&#45;&gt;Node2 -->
<g id="edge1" class="edge">
<title>Node1&#45;&gt;Node2</title>
<path fill="none" stroke="midnightblue" d="M354.12,-272.72C345.13,-263.2 334.14,-251.56 326.76,-243.75"/>
<polygon fill="midnightblue" stroke="midnightblue" points="351.67,-275.22 361.08,-280.08 356.76,-270.41 351.67,-275.22"/>
</g>
<!-- Node3 -->
<g id="node3" class="node">
<title>Node3</title>
<g id="a_node3"><a xlink:href="Gates_8h.xhtml" target="_top" xlink:title=" ">
<polygon fill="white" stroke="black" points="375.5,-224.5 375.5,-243.5 467.5,-243.5 467.5,-224.5 375.5,-224.5"/>
<text text-anchor="middle" x="421.5" y="-231.5" font-family="Helvetica,sans-Serif" font-size="10.00">include/Gates.h</text>
</a>
</g>
</g>
<!-- Node1&#45;&gt;Node3 -->
<g id="edge2" class="edge">
<title>Node1&#45;&gt;Node3</title>
<path fill="none" stroke="midnightblue" d="M385.18,-272.72C394.34,-263.2 405.55,-251.56 413.07,-243.75"/>
<polygon fill="midnightblue" stroke="midnightblue" points="382.5,-270.45 378.09,-280.08 387.54,-275.31 382.5,-270.45"/>
</g>
<!-- Node4 -->
<g id="node4" class="node">
<title>Node4</title>
<g id="a_node4"><a xlink:href="Gates_8cpp.xhtml" target="_top" xlink:title=" ">
<polygon fill="white" stroke="black" points="0,-168.5 0,-187.5 83,-187.5 83,-168.5 0,-168.5"/>
<text text-anchor="middle" x="41.5" y="-175.5" font-family="Helvetica,sans-Serif" font-size="10.00">src/Gates.cpp</text>
</a>
</g>
</g>
<!-- Node3&#45;&gt;Node4 -->
<g id="edge3" class="edge">
<title>Node3&#45;&gt;Node4</title>
<path fill="none" stroke="midnightblue" d="M365.39,-224.02C244.95,-206.4 213.26,-205.07 97.5,-188 92.82,-187.31 87.93,-186.56 83.07,-185.8"/>
<polygon fill="midnightblue" stroke="midnightblue" points="364.97,-227.5 375.37,-225.49 365.99,-220.57 364.97,-227.5"/>
</g>
<!-- Node5 -->
<g id="node5" class="node">
<title>Node5</title>
<g id="a_node5"><a xlink:href="main_8cpp.xhtml" target="_top" xlink:title=" ">
<polygon fill="white" stroke="black" points="373,-0.5 373,-19.5 452,-19.5 452,-0.5 373,-0.5"/>
<text text-anchor="middle" x="412.5" y="-7.5" font-family="Helvetica,sans-Serif" font-size="10.00">src/main.cpp</text>
</a>
</g>
</g>
<!-- Node3&#45;&gt;Node5 -->
<g id="edge4" class="edge">
<title>Node3&#45;&gt;Node5</title>
<path fill="none" stroke="midnightblue" d="M437.04,-216.93C466.02,-184.94 522.6,-111.58 490.5,-56 480.02,-37.86 459.14,-26.38 441.62,-19.56"/>
<polygon fill="midnightblue" stroke="midnightblue" points="434.27,-214.77 430.01,-224.48 439.39,-219.55 434.27,-214.77"/>
</g>
<!-- Node6 -->
<g id="node6" class="node">
<title>Node6</title>
<g id="a_node6"><a xlink:href="EurorackClock_8h.xhtml" target="_top" xlink:title=" ">
<polygon fill="white" stroke="black" points="259.5,-168.5 259.5,-187.5 393.5,-187.5 393.5,-168.5 259.5,-168.5"/>
<text text-anchor="middle" x="326.5" y="-175.5" font-family="Helvetica,sans-Serif" font-size="10.00">include/EurorackClock.h</text>
</a>
</g>
</g>
<!-- Node3&#45;&gt;Node6 -->
<g id="edge5" class="edge">
<title>Node3&#45;&gt;Node6</title>
<path fill="none" stroke="midnightblue" d="M397.18,-219.18C379.7,-209.24 356.67,-196.15 341.73,-187.65"/>
<polygon fill="midnightblue" stroke="midnightblue" points="395.81,-222.43 406.24,-224.32 399.27,-216.34 395.81,-222.43"/>
</g>
<!-- Node8 -->
<g id="node8" class="node">
<title>Node8</title>
<g id="a_node8"><a xlink:href="MIDIHandler_8h.xhtml" target="_top" xlink:title=" ">
<polygon fill="white" stroke="black" points="357.5,-112.5 357.5,-131.5 481.5,-131.5 481.5,-112.5 357.5,-112.5"/>
<text text-anchor="middle" x="419.5" y="-119.5" font-family="Helvetica,sans-Serif" font-size="10.00">include/MIDIHandler.h</text>
</a>
</g>
</g>
<!-- Node3&#45;&gt;Node8 -->
<g id="edge21" class="edge">
<title>Node3&#45;&gt;Node8</title>
<path fill="none" stroke="midnightblue" d="M421.16,-214.35C420.72,-190.25 419.98,-149.31 419.66,-131.59"/>
<polygon fill="midnightblue" stroke="midnightblue" points="417.66,-214.43 421.34,-224.37 424.66,-214.31 417.66,-214.43"/>
</g>
<!-- Node10 -->
<g id="node10" class="node">
<title>Node10</title>
<g id="a_node10"><a xlink:href="Mode0_8h.xhtml" target="_top" xlink:title=" ">
<polygon fill="white" stroke="black" points="139,-56.5 139,-75.5 236,-75.5 236,-56.5 139,-56.5"/>
<text text-anchor="middle" x="187.5" y="-63.5" font-family="Helvetica,sans-Serif" font-size="10.00">include/Mode0.h</text>
</a>
</g>
</g>
<!-- Node3&#45;&gt;Node10 -->
<g id="edge22" class="edge">
<title>Node3&#45;&gt;Node10</title>
<path fill="none" stroke="midnightblue" d="M365.47,-222.69C331.38,-215.34 287.45,-203.93 250.5,-188 207.24,-169.35 183.38,-173.18 160.5,-132 149.82,-112.77 167.51,-88.45 178.95,-75.7"/>
<polygon fill="midnightblue" stroke="midnightblue" points="364.75,-226.11 375.26,-224.74 366.19,-219.26 364.75,-226.11"/>
</g>
<!-- Node12 -->
<g id="node12" class="node">
<title>Node12</title>
<g id="a_node12"><a xlink:href="Mode1_8h.xhtml" target="_top" xlink:title=" ">
<polygon fill="white" stroke="black" points="538,-56.5 538,-75.5 635,-75.5 635,-56.5 538,-56.5"/>
<text text-anchor="middle" x="586.5" y="-63.5" font-family="Helvetica,sans-Serif" font-size="10.00">include/Mode1.h</text>
</a>
</g>
</g>
<!-- Node3&#45;&gt;Node12 -->
<g id="edge23" class="edge">
<title>Node3&#45;&gt;Node12</title>
<path fill="none" stroke="midnightblue" d="M464.78,-221.19C484.51,-214.1 507.07,-203.4 523.5,-188 558.92,-154.79 578.01,-97.18 584.21,-75.54"/>
<polygon fill="midnightblue" stroke="midnightblue" points="463.42,-217.95 455.07,-224.47 465.66,-224.58 463.42,-217.95"/>
</g>
<!-- Node14 -->
<g id="node14" class="node">
<title>Node14</title>
<g id="a_node14"><a xlink:href="Mode2_8h.xhtml" target="_top" xlink:title=" ">
<polygon fill="white" stroke="black" points="653,-56.5 653,-75.5 750,-75.5 750,-56.5 653,-56.5"/>
<text text-anchor="middle" x="701.5" y="-63.5" font-family="Helvetica,sans-Serif" font-size="10.00">include/Mode2.h</text>
</a>
</g>
</g>
<!-- Node3&#45;&gt;Node14 -->
<g id="edge24" class="edge">
<title>Node3&#45;&gt;Node14</title>
<path fill="none" stroke="midnightblue" d="M463.66,-221.49C488.6,-213.8 520.32,-202.45 546.5,-188 607.48,-154.36 669.7,-97.5 692.46,-75.78"/>
<polygon fill="midnightblue" stroke="midnightblue" points="462.35,-218.23 453.78,-224.46 464.36,-224.94 462.35,-218.23"/>
</g>
<!-- Node6&#45;&gt;Node5 -->
<g id="edge7" class="edge">
<title>Node6&#45;&gt;Node5</title>
<path fill="none" stroke="midnightblue" d="M326.56,-158.28C327.47,-133.12 332.11,-87.86 352.5,-56 362.89,-39.77 381.32,-27.27 395.02,-19.6"/>
<polygon fill="midnightblue" stroke="midnightblue" points="323.06,-158.24 326.36,-168.31 330.05,-158.38 323.06,-158.24"/>
</g>
<!-- Node7 -->
<g id="node7" class="node">
<title>Node7</title>
<g id="a_node7"><a xlink:href="EurorackClock_8cpp.xhtml" target="_top" xlink:title=" ">
<polygon fill="white" stroke="black" points="177.5,-112.5 177.5,-131.5 301.5,-131.5 301.5,-112.5 177.5,-112.5"/>
<text text-anchor="middle" x="239.5" y="-119.5" font-family="Helvetica,sans-Serif" font-size="10.00">src/EurorackClock.cpp</text>
</a>
</g>
</g>
<!-- Node6&#45;&gt;Node7 -->
<g id="edge6" class="edge">
<title>Node6&#45;&gt;Node7</title>
<path fill="none" stroke="midnightblue" d="M303.78,-162.9C287.83,-153 267,-140.07 253.44,-131.65"/>
<polygon fill="midnightblue" stroke="midnightblue" points="302.18,-166.02 312.52,-168.32 305.87,-160.08 302.18,-166.02"/>
</g>
<!-- Node6&#45;&gt;Node8 -->
<g id="edge8" class="edge">
<title>Node6&#45;&gt;Node8</title>
<path fill="none" stroke="midnightblue" d="M350.31,-163.18C367.42,-153.24 389.97,-140.15 404.6,-131.65"/>
<polygon fill="midnightblue" stroke="midnightblue" points="348.33,-160.28 341.44,-168.32 351.85,-166.33 348.33,-160.28"/>
</g>
<!-- Node6&#45;&gt;Node10 -->
<g id="edge20" class="edge">
<title>Node6&#45;&gt;Node10</title>
<path fill="none" stroke="midnightblue" d="M261.31,-166.55C223.07,-158.95 180.06,-147.31 168.5,-132 155.61,-114.92 170.65,-89.27 180.42,-75.87"/>
<polygon fill="midnightblue" stroke="midnightblue" points="260.94,-170.05 271.42,-168.5 262.26,-163.17 260.94,-170.05"/>
</g>
<!-- Node8&#45;&gt;Node5 -->
<g id="edge9" class="edge">
<title>Node8&#45;&gt;Node5</title>
<path fill="none" stroke="midnightblue" d="M390.5,-107.33C378.27,-99.92 365.31,-89.48 358.5,-76 346.93,-53.08 376.41,-31.12 396.23,-19.52"/>
<polygon fill="midnightblue" stroke="midnightblue" points="389.16,-110.59 399.59,-112.41 392.57,-104.48 389.16,-110.59"/>
</g>
<!-- Node9 -->
<g id="node9" class="node">
<title>Node9</title>
<g id="a_node9"><a xlink:href="MIDIHandler_8cpp.xhtml" target="_top" xlink:title=" ">
<polygon fill="white" stroke="black" points="367.5,-56.5 367.5,-75.5 481.5,-75.5 481.5,-56.5 367.5,-56.5"/>
<text text-anchor="middle" x="424.5" y="-63.5" font-family="Helvetica,sans-Serif" font-size="10.00">src/MIDIHandler.cpp</text>
</a>
</g>
</g>
<!-- Node8&#45;&gt;Node9 -->
<g id="edge10" class="edge">
<title>Node8&#45;&gt;Node9</title>
<path fill="none" stroke="midnightblue" d="M421.25,-102.1C422.08,-93.14 423.03,-82.86 423.69,-75.75"/>
<polygon fill="midnightblue" stroke="midnightblue" points="417.76,-101.8 420.33,-112.08 424.73,-102.45 417.76,-101.8"/>
</g>
<!-- Node8&#45;&gt;Node10 -->
<g id="edge11" class="edge">
<title>Node8&#45;&gt;Node10</title>
<path fill="none" stroke="midnightblue" d="M372.9,-110.15C329.06,-99.95 264.32,-84.88 224.09,-75.52"/>
<polygon fill="midnightblue" stroke="midnightblue" points="372.21,-113.59 382.74,-112.44 373.79,-106.77 372.21,-113.59"/>
</g>
<!-- Node8&#45;&gt;Node12 -->
<g id="edge14" class="edge">
<title>Node8&#45;&gt;Node12</title>
<path fill="none" stroke="midnightblue" d="M455.67,-109.3C487.14,-99.13 531.99,-84.62 560.16,-75.52"/>
<polygon fill="midnightblue" stroke="midnightblue" points="454.4,-106.04 445.96,-112.44 456.55,-112.7 454.4,-106.04"/>
</g>
<!-- Node8&#45;&gt;Node14 -->
<g id="edge17" class="edge">
<title>Node8&#45;&gt;Node14</title>
<path fill="none" stroke="midnightblue" d="M474.14,-110.54C527.44,-100.33 607.5,-85 657.03,-75.52"/>
<polygon fill="midnightblue" stroke="midnightblue" points="473.35,-107.13 464.18,-112.44 474.66,-114 473.35,-107.13"/>
</g>
<!-- Node10&#45;&gt;Node5 -->
<g id="edge12" class="edge">
<title>Node10&#45;&gt;Node5</title>
<path fill="none" stroke="midnightblue" d="M232.97,-54.09C275.47,-43.89 338.08,-28.86 377.01,-19.52"/>
<polygon fill="midnightblue" stroke="midnightblue" points="232.06,-50.71 223.15,-56.44 233.69,-57.51 232.06,-50.71"/>
</g>
<!-- Node11 -->
<g id="node11" class="node">
<title>Node11</title>
<g id="a_node11"><a xlink:href="Mode0_8cpp.xhtml" target="_top" xlink:title=" ">
<polygon fill="white" stroke="black" points="144,-0.5 144,-19.5 231,-19.5 231,-0.5 144,-0.5"/>
<text text-anchor="middle" x="187.5" y="-7.5" font-family="Helvetica,sans-Serif" font-size="10.00">src/Mode0.cpp</text>
</a>
</g>
</g>
<!-- Node10&#45;&gt;Node11 -->
<g id="edge13" class="edge">
<title>Node10&#45;&gt;Node11</title>
<path fill="none" stroke="midnightblue" d="M187.5,-45.8C187.5,-36.91 187.5,-26.78 187.5,-19.75"/>
<polygon fill="midnightblue" stroke="midnightblue" points="184,-46.08 187.5,-56.08 191,-46.08 184,-46.08"/>
</g>
<!-- Node12&#45;&gt;Node5 -->
<g id="edge15" class="edge">
<title>Node12&#45;&gt;Node5</title>
<path fill="none" stroke="midnightblue" d="M549.24,-53.44C516.43,-43.26 469.42,-28.66 439.94,-19.52"/>
<polygon fill="midnightblue" stroke="midnightblue" points="548.34,-56.82 558.93,-56.44 550.42,-50.14 548.34,-56.82"/>
</g>
<!-- Node13 -->
<g id="node13" class="node">
<title>Node13</title>
<g id="a_node13"><a xlink:href="Mode1_8cpp.xhtml" target="_top" xlink:title=" ">
<polygon fill="white" stroke="black" points="543,-0.5 543,-19.5 630,-19.5 630,-0.5 543,-0.5"/>
<text text-anchor="middle" x="586.5" y="-7.5" font-family="Helvetica,sans-Serif" font-size="10.00">src/Mode1.cpp</text>
</a>
</g>
</g>
<!-- Node12&#45;&gt;Node13 -->
<g id="edge16" class="edge">
<title>Node12&#45;&gt;Node13</title>
<path fill="none" stroke="midnightblue" d="M586.5,-45.8C586.5,-36.91 586.5,-26.78 586.5,-19.75"/>
<polygon fill="midnightblue" stroke="midnightblue" points="583,-46.08 586.5,-56.08 590,-46.08 583,-46.08"/>
</g>
<!-- Node14&#45;&gt;Node5 -->
<g id="edge18" class="edge">
<title>Node14&#45;&gt;Node5</title>
<path fill="none" stroke="midnightblue" d="M645.81,-54.59C588.97,-43.97 502.19,-27.76 452.04,-18.39"/>
<polygon fill="midnightblue" stroke="midnightblue" points="645.23,-58.05 655.71,-56.44 646.52,-51.17 645.23,-58.05"/>
</g>
<!-- Node15 -->
<g id="node15" class="node">
<title>Node15</title>
<g id="a_node15"><a xlink:href="Mode2_8cpp.xhtml" target="_top" xlink:title=" ">
<polygon fill="white" stroke="black" points="658,-0.5 658,-19.5 745,-19.5 745,-0.5 658,-0.5"/>
<text text-anchor="middle" x="701.5" y="-7.5" font-family="Helvetica,sans-Serif" font-size="10.00">src/Mode2.cpp</text>
</a>
</g>
</g>
<!-- Node14&#45;&gt;Node15 -->
<g id="edge19" class="edge">
<title>Node14&#45;&gt;Node15</title>
<path fill="none" stroke="midnightblue" d="M701.5,-45.8C701.5,-36.91 701.5,-26.78 701.5,-19.75"/>
<polygon fill="midnightblue" stroke="midnightblue" points="698,-46.08 701.5,-56.08 705,-46.08 698,-46.08"/>
</g>
</g>
</svg>
        <g id="navigator" transform="translate(0 0)" fill="#404254">
                <rect fill="#f2f5e9" fill-opacity="0.5" stroke="#606060" stroke-width=".5" x="0" y="0" width="60" height="60"/>
                <use id="zoomplus" xlink:href="#zoomPlus" x="17" y="9" onmousedown="handleZoom(evt,'in')"/>
                <use id="zoomminus" xlink:href="#zoomMin" x="42" y="9" onmousedown="handleZoom(evt,'out')"/>
                <use id="reset" xlink:href="#resetDef" x="30" y="36" onmousedown="handleReset()"/>
                <g id="arrowUp" xlink:href="#dirArrow" transform="translate(30 24)" onmousedown="handlePan(0,-1)">
                  <use xlink:href="#rim" fill="#404040">
                        <set attributeName="fill" to="#808080" begin="arrowUp.mouseover" end="arrowUp.mouseout"/>
                  </use>
                  <path fill="none" stroke="white" stroke-width="1.5" d="M0,-3.0v7 M-2.5,-0.5L0,-3.0L2.5,-0.5"/>
                </g>
                <g id="arrowRight" xlink:href="#dirArrow" transform="rotate(90) translate(36 -43)" onmousedown="handlePan(1,0)">
                  <use xlink:href="#rim" fill="#404040">
                        <set attributeName="fill" to="#808080" begin="arrowRight.mouseover" end="arrowRight.mouseout"/>
                  </use>
                  <path fill="none" stroke="white" stroke-width="1.5" d="M0,-3.0v7 M-2.5,-0.5L0,-3.0L2.5,-0.5"/>
                </g>
                <g id="arrowDown" xlink:href="#dirArrow" transform="rotate(180) translate(-30 -48)" onmousedown="handlePan(0,1)">
                  <use xlink:href="#rim" fill="#404040">
                        <set attributeName="fill" to="#808080" begin="arrowDown.mouseover" end="arrowDown.mouseout"/>
                  </use>
                  <path fill="none" stroke="white" stroke-width="1.5" d="M0,-3.0v7 M-2.5,-0.5L0,-3.0L2.5,-0.5"/>
                </g>
                <g id="arrowLeft" xlink:href="#dirArrow" transform="rotate(270) translate(-36 17)" onmousedown="handlePan(-1,0)">
                  <use xlink:href="#rim" fill="#404040">
                        <set attributeName="fill" to="#808080" begin="arrowLeft.mouseover" end="arrowLeft.mouseout"/>
                  </use>
                  <path fill="none" stroke="white" stroke-width="1.5" d="M0,-3.0v7 M-2.5,-0.5L0,-3.0L2.5,-0.5"/>
                </g>
        </g>
        <svg viewBox="0 0 15 15" width="100%" height="30px" preserveAspectRatio="xMaxYMin meet">
         <g id="arrow_out" transform="scale(0.3 0.3)">
          <a xlink:href="Gate_8h__dep__incl_org.svg" target="_base">
           <rect id="button" ry="5" rx="5" y="6" x="6" height="38" width="38"
                fill="#f2f5e9" fill-opacity="0.5" stroke="#606060" stroke-width="1.0"/>
           <path id="arrow"
             d="M 11.500037,31.436501 C 11.940474,20.09759 22.043105,11.32322 32.158766,21.979434 L 37.068811,17.246167 C 37.068811,17.246167 37.088388,32 37.088388,32 L 22.160133,31.978069 C 22.160133,31.978069 26.997745,27.140456 26.997745,27.140456 C 18.528582,18.264221 13.291696,25.230495 11.500037,31.436501 z"
             style="fill:#404040;"/>
          </a>
         </g>
        </svg>
</svg>
