<?xml version="1.0" encoding="UTF-8" standalone="no"?>
<!DOCTYPE svg PUBLIC "-//W3C//DTD SVG 1.1//EN"
 "http://www.w3.org/Graphics/SVG/1.1/DTD/svg11.dtd">
<!-- Generated by graphviz version 2.43.0 (0)
 -->
<!-- Title: include/Gates.h Pages: 1 -->
<svg width="758pt" height="252pt"
 viewBox="0.00 0.00 758.00 252.00" xmlns="http://www.w3.org/2000/svg" xmlns:xlink="http://www.w3.org/1999/xlink">
<g id="graph0" class="graph" transform="scale(1 1) rotate(0) translate(4 248)">
<title>include/Gates.h</title>
<polygon fill="white" stroke="transparent" points="-4,4 -4,-248 754,-248 754,4 -4,4"/>
<!-- Node1 -->
<g id="node1" class="node">
<title>Node1</title>
<g id="a_node1"><a xlink:title=" ">
<polygon fill="#bfbfbf" stroke="black" points="375.5,-224.5 375.5,-243.5 467.5,-243.5 467.5,-224.5 375.5,-224.5"/>
<text text-anchor="middle" x="421.5" y="-231.5" font-family="Helvetica,sans-Serif" font-size="10.00">include/Gates.h</text>
</a>
</g>
</g>
<!-- Node2 -->
<g id="node2" class="node">
<title>Node2</title>
<g id="a_node2"><a xlink:href="Gates_8cpp.xhtml" target="_top" xlink:title=" ">
<polygon fill="white" stroke="black" points="0,-168.5 0,-187.5 83,-187.5 83,-168.5 0,-168.5"/>
<text text-anchor="middle" x="41.5" y="-175.5" font-family="Helvetica,sans-Serif" font-size="10.00">src/Gates.cpp</text>
</a>
</g>
</g>
<!-- Node1&#45;&gt;Node2 -->
<g id="edge1" class="edge">
<title>Node1&#45;&gt;Node2</title>
<path fill="none" stroke="midnightblue" d="M365.33,-225.57C300.68,-216.93 191.33,-202.05 97.5,-188 92.83,-187.3 87.94,-186.55 83.07,-185.78"/>
<polygon fill="midnightblue" stroke="midnightblue" points="364.94,-229.05 375.31,-226.9 365.86,-222.11 364.94,-229.05"/>
</g>
<!-- Node3 -->
<g id="node3" class="node">
<title>Node3</title>
<g id="a_node3"><a xlink:href="main_8cpp.xhtml" target="_top" xlink:title=" ">
<polygon fill="white" stroke="black" points="373,-0.5 373,-19.5 452,-19.5 452,-0.5 373,-0.5"/>
<text text-anchor="middle" x="412.5" y="-7.5" font-family="Helvetica,sans-Serif" font-size="10.00">src/main.cpp</text>
</a>
</g>
</g>
<!-- Node1&#45;&gt;Node3 -->
<g id="edge2" class="edge">
<title>Node1&#45;&gt;Node3</title>
<path fill="none" stroke="midnightblue" d="M437.04,-216.93C466.02,-184.94 522.6,-111.58 490.5,-56 480.02,-37.86 459.14,-26.38 441.62,-19.56"/>
<polygon fill="midnightblue" stroke="midnightblue" points="434.27,-214.77 430.01,-224.48 439.39,-219.55 434.27,-214.77"/>
</g>
<!-- Node4 -->
<g id="node4" class="node">
<title>Node4</title>
<g id="a_node4"><a xlink:href="EurorackClock_8h.xhtml" target="_top" xlink:title=" ">
<polygon fill="white" stroke="black" points="259.5,-168.5 259.5,-187.5 393.5,-187.5 393.5,-168.5 259.5,-168.5"/>
<text text-anchor="middle" x="326.5" y="-175.5" font-family="Helvetica,sans-Serif" font-size="10.00">include/EurorackClock.h</text>
</a>
</g>
</g>
<!-- Node1&#45;&gt;Node4 -->
<g id="edge3" class="edge">
<title>Node1&#45;&gt;Node4</title>
<path fill="none" stroke="midnightblue" d="M397.18,-219.18C379.7,-209.24 356.67,-196.15 341.73,-187.65"/>
<polygon fill="midnightblue" stroke="midnightblue" points="395.81,-222.43 406.24,-224.32 399.27,-216.34 395.81,-222.43"/>
</g>
<!-- Node6 -->
<g id="node6" class="node">
<title>Node6</title>
<g id="a_node6"><a xlink:href="MIDIHandler_8h.xhtml" target="_top" xlink:title=" ">
<polygon fill="white" stroke="black" points="357.5,-112.5 357.5,-131.5 481.5,-131.5 481.5,-112.5 357.5,-112.5"/>
<text text-anchor="middle" x="419.5" y="-119.5" font-family="Helvetica,sans-Serif" font-size="10.00">include/MIDIHandler.h</text>
</a>
</g>
</g>
<!-- Node1&#45;&gt;Node6 -->
<g id="edge19" class="edge">
<title>Node1&#45;&gt;Node6</title>
<path fill="none" stroke="midnightblue" d="M421.16,-214.35C420.72,-190.25 419.98,-149.31 419.66,-131.59"/>
<polygon fill="midnightblue" stroke="midnightblue" points="417.66,-214.43 421.34,-224.37 424.66,-214.31 417.66,-214.43"/>
</g>
<!-- Node8 -->
<g id="node8" class="node">
<title>Node8</title>
<g id="a_node8"><a xlink:href="Mode0_8h.xhtml" target="_top" xlink:title=" ">
<polygon fill="white" stroke="black" points="139,-56.5 139,-75.5 236,-75.5 236,-56.5 139,-56.5"/>
<text text-anchor="middle" x="187.5" y="-63.5" font-family="Helvetica,sans-Serif" font-size="10.00">include/Mode0.h</text>
</a>
</g>
</g>
<!-- Node1&#45;&gt;Node8 -->
<g id="edge20" class="edge">
<title>Node1&#45;&gt;Node8</title>
<path fill="none" stroke="midnightblue" d="M364.93,-230.76C300.89,-224.71 200.29,-203.61 160.5,-132 149.82,-112.77 167.51,-88.45 178.95,-75.7"/>
<polygon fill="midnightblue" stroke="midnightblue" points="365.01,-234.28 375.27,-231.64 365.6,-227.31 365.01,-234.28"/>
</g>
<!-- Node10 -->
<g id="node10" class="node">
<title>Node10</title>
<g id="a_node10"><a xlink:href="Mode1_8h.xhtml" target="_top" xlink:title=" ">
<polygon fill="white" stroke="black" points="538,-56.5 538,-75.5 635,-75.5 635,-56.5 538,-56.5"/>
<text text-anchor="middle" x="586.5" y="-63.5" font-family="Helvetica,sans-Serif" font-size="10.00">include/Mode1.h</text>
</a>
</g>
</g>
<!-- Node1&#45;&gt;Node10 -->
<g id="edge21" class="edge">
<title>Node1&#45;&gt;Node10</title>
<path fill="none" stroke="midnightblue" d="M464.78,-221.19C484.51,-214.1 507.07,-203.4 523.5,-188 558.92,-154.79 578.01,-97.18 584.21,-75.54"/>
<polygon fill="midnightblue" stroke="midnightblue" points="463.42,-217.95 455.07,-224.47 465.66,-224.58 463.42,-217.95"/>
</g>
<!-- Node12 -->
<g id="node12" class="node">
<title>Node12</title>
<g id="a_node12"><a xlink:href="Mode2_8h.xhtml" target="_top" xlink:title=" ">
<polygon fill="white" stroke="black" points="653,-56.5 653,-75.5 750,-75.5 750,-56.5 653,-56.5"/>
<text text-anchor="middle" x="701.5" y="-63.5" font-family="Helvetica,sans-Serif" font-size="10.00">include/Mode2.h</text>
</a>
</g>
</g>
<!-- Node1&#45;&gt;Node12 -->
<g id="edge22" class="edge">
<title>Node1&#45;&gt;Node12</title>
<path fill="none" stroke="midnightblue" d="M463.66,-221.49C488.6,-213.8 520.32,-202.45 546.5,-188 607.48,-154.36 669.7,-97.5 692.46,-75.78"/>
<polygon fill="midnightblue" stroke="midnightblue" points="462.35,-218.23 453.78,-224.46 464.36,-224.94 462.35,-218.23"/>
</g>
<!-- Node4&#45;&gt;Node3 -->
<g id="edge5" class="edge">
<title>Node4&#45;&gt;Node3</title>
<path fill="none" stroke="midnightblue" d="M326.56,-158.28C327.47,-133.12 332.11,-87.86 352.5,-56 362.89,-39.77 381.32,-27.27 395.02,-19.6"/>
<polygon fill="midnightblue" stroke="midnightblue" points="323.06,-158.24 326.36,-168.31 330.05,-158.38 323.06,-158.24"/>
</g>
<!-- Node5 -->
<g id="node5" class="node">
<title>Node5</title>
<g id="a_node5"><a xlink:href="EurorackClock_8cpp.xhtml" target="_top" xlink:title=" ">
<polygon fill="white" stroke="black" points="177.5,-112.5 177.5,-131.5 301.5,-131.5 301.5,-112.5 177.5,-112.5"/>
<text text-anchor="middle" x="239.5" y="-119.5" font-family="Helvetica,sans-Serif" font-size="10.00">src/EurorackClock.cpp</text>
</a>
</g>
</g>
<!-- Node4&#45;&gt;Node5 -->
<g id="edge4" class="edge">
<title>Node4&#45;&gt;Node5</title>
<path fill="none" stroke="midnightblue" d="M303.78,-162.9C287.83,-153 267,-140.07 253.44,-131.65"/>
<polygon fill="midnightblue" stroke="midnightblue" points="302.18,-166.02 312.52,-168.32 305.87,-160.08 302.18,-166.02"/>
</g>
<!-- Node4&#45;&gt;Node6 -->
<g id="edge6" class="edge">
<title>Node4&#45;&gt;Node6</title>
<path fill="none" stroke="midnightblue" d="M350.31,-163.18C367.42,-153.24 389.97,-140.15 404.6,-131.65"/>
<polygon fill="midnightblue" stroke="midnightblue" points="348.33,-160.28 341.44,-168.32 351.85,-166.33 348.33,-160.28"/>
</g>
<!-- Node4&#45;&gt;Node8 -->
<g id="edge18" class="edge">
<title>Node4&#45;&gt;Node8</title>
<path fill="none" stroke="midnightblue" d="M261.31,-166.55C223.07,-158.95 180.06,-147.31 168.5,-132 155.61,-114.92 170.65,-89.27 180.42,-75.87"/>
<polygon fill="midnightblue" stroke="midnightblue" points="260.94,-170.05 271.42,-168.5 262.26,-163.17 260.94,-170.05"/>
</g>
<!-- Node6&#45;&gt;Node3 -->
<g id="edge7" class="edge">
<title>Node6&#45;&gt;Node3</title>
<path fill="none" stroke="midnightblue" d="M390.5,-107.33C378.27,-99.92 365.31,-89.48 358.5,-76 346.93,-53.08 376.41,-31.12 396.23,-19.52"/>
<polygon fill="midnightblue" stroke="midnightblue" points="389.16,-110.59 399.59,-112.41 392.57,-104.48 389.16,-110.59"/>
</g>
<!-- Node7 -->
<g id="node7" class="node">
<title>Node7</title>
<g id="a_node7"><a xlink:href="MIDIHandler_8cpp.xhtml" target="_top" xlink:title=" ">
<polygon fill="white" stroke="black" points="367.5,-56.5 367.5,-75.5 481.5,-75.5 481.5,-56.5 367.5,-56.5"/>
<text text-anchor="middle" x="424.5" y="-63.5" font-family="Helvetica,sans-Serif" font-size="10.00">src/MIDIHandler.cpp</text>
</a>
</g>
</g>
<!-- Node6&#45;&gt;Node7 -->
<g id="edge8" class="edge">
<title>Node6&#45;&gt;Node7</title>
<path fill="none" stroke="midnightblue" d="M421.25,-102.1C422.08,-93.14 423.03,-82.86 423.69,-75.75"/>
<polygon fill="midnightblue" stroke="midnightblue" points="417.76,-101.8 420.33,-112.08 424.73,-102.45 417.76,-101.8"/>
</g>
<!-- Node6&#45;&gt;Node8 -->
<g id="edge9" class="edge">
<title>Node6&#45;&gt;Node8</title>
<path fill="none" stroke="midnightblue" d="M372.9,-110.15C329.06,-99.95 264.32,-84.88 224.09,-75.52"/>
<polygon fill="midnightblue" stroke="midnightblue" points="372.21,-113.59 382.74,-112.44 373.79,-106.77 372.21,-113.59"/>
</g>
<!-- Node6&#45;&gt;Node10 -->
<g id="edge12" class="edge">
<title>Node6&#45;&gt;Node10</title>
<path fill="none" stroke="midnightblue" d="M455.67,-109.3C487.14,-99.13 531.99,-84.62 560.16,-75.52"/>
<polygon fill="midnightblue" stroke="midnightblue" points="454.4,-106.04 445.96,-112.44 456.55,-112.7 454.4,-106.04"/>
</g>
<!-- Node6&#45;&gt;Node12 -->
<g id="edge15" class="edge">
<title>Node6&#45;&gt;Node12</title>
<path fill="none" stroke="midnightblue" d="M474.14,-110.54C527.44,-100.33 607.5,-85 657.03,-75.52"/>
<polygon fill="midnightblue" stroke="midnightblue" points="473.35,-107.13 464.18,-112.44 474.66,-114 473.35,-107.13"/>
</g>
<!-- Node8&#45;&gt;Node3 -->
<g id="edge10" class="edge">
<title>Node8&#45;&gt;Node3</title>
<path fill="none" stroke="midnightblue" d="M232.97,-54.09C275.47,-43.89 338.08,-28.86 377.01,-19.52"/>
<polygon fill="midnightblue" stroke="midnightblue" points="232.06,-50.71 223.15,-56.44 233.69,-57.51 232.06,-50.71"/>
</g>
<!-- Node9 -->
<g id="node9" class="node">
<title>Node9</title>
<g id="a_node9"><a xlink:href="Mode0_8cpp.xhtml" target="_top" xlink:title=" ">
<polygon fill="white" stroke="black" points="144,-0.5 144,-19.5 231,-19.5 231,-0.5 144,-0.5"/>
<text text-anchor="middle" x="187.5" y="-7.5" font-family="Helvetica,sans-Serif" font-size="10.00">src/Mode0.cpp</text>
</a>
</g>
</g>
<!-- Node8&#45;&gt;Node9 -->
<g id="edge11" class="edge">
<title>Node8&#45;&gt;Node9</title>
<path fill="none" stroke="midnightblue" d="M187.5,-45.8C187.5,-36.91 187.5,-26.78 187.5,-19.75"/>
<polygon fill="midnightblue" stroke="midnightblue" points="184,-46.08 187.5,-56.08 191,-46.08 184,-46.08"/>
</g>
<!-- Node10&#45;&gt;Node3 -->
<g id="edge13" class="edge">
<title>Node10&#45;&gt;Node3</title>
<path fill="none" stroke="midnightblue" d="M549.24,-53.44C516.43,-43.26 469.42,-28.66 439.94,-19.52"/>
<polygon fill="midnightblue" stroke="midnightblue" points="548.34,-56.82 558.93,-56.44 550.42,-50.14 548.34,-56.82"/>
</g>
<!-- Node11 -->
<g id="node11" class="node">
<title>Node11</title>
<g id="a_node11"><a xlink:href="Mode1_8cpp.xhtml" target="_top" xlink:title=" ">
<polygon fill="white" stroke="black" points="543,-0.5 543,-19.5 630,-19.5 630,-0.5 543,-0.5"/>
<text text-anchor="middle" x="586.5" y="-7.5" font-family="Helvetica,sans-Serif" font-size="10.00">src/Mode1.cpp</text>
</a>
</g>
</g>
<!-- Node10&#45;&gt;Node11 -->
<g id="edge14" class="edge">
<title>Node10&#45;&gt;Node11</title>
<path fill="none" stroke="midnightblue" d="M586.5,-45.8C586.5,-36.91 586.5,-26.78 586.5,-19.75"/>
<polygon fill="midnightblue" stroke="midnightblue" points="583,-46.08 586.5,-56.08 590,-46.08 583,-46.08"/>
</g>
<!-- Node12&#45;&gt;Node3 -->
<g id="edge16" class="edge">
<title>Node12&#45;&gt;Node3</title>
<path fill="none" stroke="midnightblue" d="M645.81,-54.59C588.97,-43.97 502.19,-27.76 452.04,-18.39"/>
<polygon fill="midnightblue" stroke="midnightblue" points="645.23,-58.05 655.71,-56.44 646.52,-51.17 645.23,-58.05"/>
</g>
<!-- Node13 -->
<g id="node13" class="node">
<title>Node13</title>
<g id="a_node13"><a xlink:href="Mode2_8cpp.xhtml" target="_top" xlink:title=" ">
<polygon fill="white" stroke="black" points="658,-0.5 658,-19.5 745,-19.5 745,-0.5 658,-0.5"/>
<text text-anchor="middle" x="701.5" y="-7.5" font-family="Helvetica,sans-Serif" font-size="10.00">src/Mode2.cpp</text>
</a>
</g>
</g>
<!-- Node12&#45;&gt;Node13 -->
<g id="edge17" class="edge">
<title>Node12&#45;&gt;Node13</title>
<path fill="none" stroke="midnightblue" d="M701.5,-45.8C701.5,-36.91 701.5,-26.78 701.5,-19.75"/>
<polygon fill="midnightblue" stroke="midnightblue" points="698,-46.08 701.5,-56.08 705,-46.08 698,-46.08"/>
</g>
</g>
</svg>
