<?xml version="1.0" encoding="UTF-8" standalone="no"?>
<!DOCTYPE svg PUBLIC "-//W3C//DTD SVG 1.1//EN"
 "http://www.w3.org/Graphics/SVG/1.1/DTD/svg11.dtd">
<!-- Generated by graphviz version 2.43.0 (0)
 -->
<!-- Title: Graphical Class Hierarchy Pages: 1 -->
<svg width="258pt" height="142pt"
 viewBox="0.00 0.00 258.00 142.00" xmlns="http://www.w3.org/2000/svg" xmlns:xlink="http://www.w3.org/1999/xlink">
<g id="graph0" class="graph" transform="scale(1 1) rotate(0) translate(4 138)">
<title>Graphical Class Hierarchy</title>
<polygon fill="white" stroke="transparent" points="-4,4 -4,-138 254,-138 254,4 -4,4"/>
<!-- Node0 -->
<g id="node1" class="node">
<title>Node0</title>
<g id="a_node1"><a xlink:href="classPin.html" target="_top" xlink:title=" ">
<polygon fill="white" stroke="black" points="0,-76.5 0,-95.5 32,-95.5 32,-76.5 0,-76.5"/>
<text text-anchor="middle" x="16" y="-83.5" font-family="Helvetica,sans-Serif" font-size="10.00">Pin</text>
</a>
</g>
</g>
<!-- Node1 -->
<g id="node2" class="node">
<title>Node1</title>
<g id="a_node2"><a xlink:href="classAnalogInputPin.html" target="_top" xlink:title=" ">
<polygon fill="white" stroke="black" points="68,-114.5 68,-133.5 158,-133.5 158,-114.5 68,-114.5"/>
<text text-anchor="middle" x="113" y="-121.5" font-family="Helvetica,sans-Serif" font-size="10.00">AnalogInputPin</text>
</a>
</g>
</g>
<!-- Node0&#45;&gt;Node1 -->
<g id="edge1" class="edge">
<title>Node0&#45;&gt;Node1</title>
<path fill="none" stroke="midnightblue" d="M41.95,-95.98C56.26,-101.71 74.13,-108.85 88.24,-114.5"/>
<polygon fill="midnightblue" stroke="midnightblue" points="42.85,-92.57 32.26,-92.11 40.25,-99.07 42.85,-92.57"/>
</g>
<!-- Node2 -->
<g id="node3" class="node">
<title>Node2</title>
<g id="a_node3"><a xlink:href="classInputPin.html" target="_top" xlink:title=" ">
<polygon fill="white" stroke="black" points="85,-76.5 85,-95.5 141,-95.5 141,-76.5 85,-76.5"/>
<text text-anchor="middle" x="113" y="-83.5" font-family="Helvetica,sans-Serif" font-size="10.00">InputPin</text>
</a>
</g>
</g>
<!-- Node0&#45;&gt;Node2 -->
<g id="edge2" class="edge">
<title>Node0&#45;&gt;Node2</title>
<path fill="none" stroke="midnightblue" d="M42.47,-86C55.58,-86 71.56,-86 84.89,-86"/>
<polygon fill="midnightblue" stroke="midnightblue" points="42.26,-82.5 32.26,-86 42.26,-89.5 42.26,-82.5"/>
</g>
<!-- Node3 -->
<g id="node4" class="node">
<title>Node3</title>
<g id="a_node4"><a xlink:href="classOutputPin.html" target="_top" xlink:title=" ">
<polygon fill="white" stroke="black" points="80.5,-38.5 80.5,-57.5 145.5,-57.5 145.5,-38.5 80.5,-38.5"/>
<text text-anchor="middle" x="113" y="-45.5" font-family="Helvetica,sans-Serif" font-size="10.00">OutputPin</text>
</a>
</g>
</g>
<!-- Node0&#45;&gt;Node3 -->
<g id="edge3" class="edge">
<title>Node0&#45;&gt;Node3</title>
<path fill="none" stroke="midnightblue" d="M41.95,-76.02C56.26,-70.29 74.13,-63.15 88.24,-57.5"/>
<polygon fill="midnightblue" stroke="midnightblue" points="40.25,-72.93 32.26,-79.89 42.85,-79.43 40.25,-72.93"/>
</g>
<!-- Node4 -->
<g id="node5" class="node">
<title>Node4</title>
<g id="a_node5"><a xlink:href="classGate.html" target="_top" xlink:title=" ">
<polygon fill="white" stroke="black" points="202,-76.5 202,-95.5 242,-95.5 242,-76.5 202,-76.5"/>
<text text-anchor="middle" x="222" y="-83.5" font-family="Helvetica,sans-Serif" font-size="10.00">Gate</text>
</a>
</g>
</g>
<!-- Node3&#45;&gt;Node4 -->
<g id="edge4" class="edge">
<title>Node3&#45;&gt;Node4</title>
<path fill="none" stroke="midnightblue" d="M150.74,-61.05C167.89,-67.14 187.6,-74.14 201.77,-79.17"/>
<polygon fill="midnightblue" stroke="midnightblue" points="151.6,-57.64 141,-57.59 149.25,-64.23 151.6,-57.64"/>
</g>
<!-- Node5 -->
<g id="node6" class="node">
<title>Node5</title>
<g id="a_node6"><a xlink:href="classLED.html" target="_top" xlink:title=" ">
<polygon fill="white" stroke="black" points="204.5,-38.5 204.5,-57.5 239.5,-57.5 239.5,-38.5 204.5,-38.5"/>
<text text-anchor="middle" x="222" y="-45.5" font-family="Helvetica,sans-Serif" font-size="10.00">LED</text>
</a>
</g>
</g>
<!-- Node3&#45;&gt;Node5 -->
<g id="edge5" class="edge">
<title>Node3&#45;&gt;Node5</title>
<path fill="none" stroke="midnightblue" d="M155.78,-48C172.71,-48 191.27,-48 204.25,-48"/>
<polygon fill="midnightblue" stroke="midnightblue" points="155.52,-44.5 145.52,-48 155.52,-51.5 155.52,-44.5"/>
</g>
<!-- Node6 -->
<g id="node7" class="node">
<title>Node6</title>
<g id="a_node7"><a xlink:href="classPWMPin.html" target="_top" xlink:title=" ">
<polygon fill="white" stroke="black" points="194,-0.5 194,-19.5 250,-19.5 250,-0.5 194,-0.5"/>
<text text-anchor="middle" x="222" y="-7.5" font-family="Helvetica,sans-Serif" font-size="10.00">PWMPin</text>
</a>
</g>
</g>
<!-- Node3&#45;&gt;Node6 -->
<g id="edge6" class="edge">
<title>Node3&#45;&gt;Node6</title>
<path fill="none" stroke="midnightblue" d="M150.53,-35.03C164.78,-29.97 180.83,-24.27 194.01,-19.59"/>
<polygon fill="midnightblue" stroke="midnightblue" points="149.25,-31.77 141,-38.41 151.6,-38.36 149.25,-31.77"/>
</g>
</g>
</svg>
