<?xml version="1.0" encoding="UTF-8" standalone="no"?>
<!DOCTYPE svg PUBLIC "-//W3C//DTD SVG 1.1//EN"
 "http://www.w3.org/Graphics/SVG/1.1/DTD/svg11.dtd">
<!-- Generated by graphviz version 2.43.0 (0)
 -->
<!-- Title: include/InputHandler.h Pages: 1 -->
<svg width="518pt" height="140pt"
 viewBox="0.00 0.00 517.50 140.00" xmlns="http://www.w3.org/2000/svg" xmlns:xlink="http://www.w3.org/1999/xlink">
<g id="graph0" class="graph" transform="scale(1 1) rotate(0) translate(4 136)">
<title>include/InputHandler.h</title>
<polygon fill="white" stroke="transparent" points="-4,4 -4,-136 513.5,-136 513.5,4 -4,4"/>
<!-- Node1 -->
<g id="node1" class="node">
<title>Node1</title>
<g id="a_node1"><a xlink:title=" ">
<polygon fill="#bfbfbf" stroke="black" points="197,-112.5 197,-131.5 323,-131.5 323,-112.5 197,-112.5"/>
<text text-anchor="middle" x="260" y="-119.5" font-family="Helvetica,sans-Serif" font-size="10.00">include/InputHandler.h</text>
</a>
</g>
</g>
<!-- Node2 -->
<g id="node2" class="node">
<title>Node2</title>
<g id="a_node2"><a xlink:href="InputHandler_8cpp.html" target="_top" xlink:title=" ">
<polygon fill="white" stroke="black" points="0,-56.5 0,-75.5 116,-75.5 116,-56.5 0,-56.5"/>
<text text-anchor="middle" x="58" y="-63.5" font-family="Helvetica,sans-Serif" font-size="10.00">src/InputHandler.cpp</text>
</a>
</g>
</g>
<!-- Node1&#45;&gt;Node2 -->
<g id="edge1" class="edge">
<title>Node1&#45;&gt;Node2</title>
<path fill="none" stroke="midnightblue" d="M218.21,-109.83C180.07,-99.63 124.52,-84.78 89.86,-75.52"/>
<polygon fill="midnightblue" stroke="midnightblue" points="217.43,-113.24 227.99,-112.44 219.24,-106.48 217.43,-113.24"/>
</g>
<!-- Node3 -->
<g id="node3" class="node">
<title>Node3</title>
<g id="a_node3"><a xlink:href="main_8cpp.html" target="_top" xlink:title=" ">
<polygon fill="white" stroke="black" points="220.5,-0.5 220.5,-19.5 299.5,-19.5 299.5,-0.5 220.5,-0.5"/>
<text text-anchor="middle" x="260" y="-7.5" font-family="Helvetica,sans-Serif" font-size="10.00">src/main.cpp</text>
</a>
</g>
</g>
<!-- Node1&#45;&gt;Node3 -->
<g id="edge2" class="edge">
<title>Node1&#45;&gt;Node3</title>
<path fill="none" stroke="midnightblue" d="M260,-102.35C260,-78.25 260,-37.31 260,-19.59"/>
<polygon fill="midnightblue" stroke="midnightblue" points="256.5,-102.37 260,-112.37 263.5,-102.37 256.5,-102.37"/>
</g>
<!-- Node4 -->
<g id="node4" class="node">
<title>Node4</title>
<g id="a_node4"><a xlink:href="Mode0_8h.html" target="_top" xlink:title=" ">
<polygon fill="white" stroke="black" points="134.5,-56.5 134.5,-75.5 231.5,-75.5 231.5,-56.5 134.5,-56.5"/>
<text text-anchor="middle" x="183" y="-63.5" font-family="Helvetica,sans-Serif" font-size="10.00">include/Mode0.h</text>
</a>
</g>
</g>
<!-- Node1&#45;&gt;Node4 -->
<g id="edge3" class="edge">
<title>Node1&#45;&gt;Node4</title>
<path fill="none" stroke="midnightblue" d="M239.1,-106.34C225.09,-96.52 207.12,-83.91 195.34,-75.65"/>
<polygon fill="midnightblue" stroke="midnightblue" points="237.43,-109.45 247.63,-112.32 241.45,-103.72 237.43,-109.45"/>
</g>
<!-- Node6 -->
<g id="node6" class="node">
<title>Node6</title>
<g id="a_node6"><a xlink:href="Mode1_8h.html" target="_top" xlink:title=" ">
<polygon fill="white" stroke="black" points="288.5,-56.5 288.5,-75.5 385.5,-75.5 385.5,-56.5 288.5,-56.5"/>
<text text-anchor="middle" x="337" y="-63.5" font-family="Helvetica,sans-Serif" font-size="10.00">include/Mode1.h</text>
</a>
</g>
</g>
<!-- Node1&#45;&gt;Node6 -->
<g id="edge6" class="edge">
<title>Node1&#45;&gt;Node6</title>
<path fill="none" stroke="midnightblue" d="M280.9,-106.34C294.91,-96.52 312.88,-83.91 324.66,-75.65"/>
<polygon fill="midnightblue" stroke="midnightblue" points="278.55,-103.72 272.37,-112.32 282.57,-109.45 278.55,-103.72"/>
</g>
<!-- Node8 -->
<g id="node8" class="node">
<title>Node8</title>
<g id="a_node8"><a xlink:href="Mode2_8h.html" target="_top" xlink:title=" ">
<polygon fill="white" stroke="black" points="403.5,-56.5 403.5,-75.5 500.5,-75.5 500.5,-56.5 403.5,-56.5"/>
<text text-anchor="middle" x="452" y="-63.5" font-family="Helvetica,sans-Serif" font-size="10.00">include/Mode2.h</text>
</a>
</g>
</g>
<!-- Node1&#45;&gt;Node8 -->
<g id="edge9" class="edge">
<title>Node1&#45;&gt;Node8</title>
<path fill="none" stroke="midnightblue" d="M300.18,-109.7C336.42,-99.51 388.91,-84.74 421.72,-75.52"/>
<polygon fill="midnightblue" stroke="midnightblue" points="299.1,-106.37 290.42,-112.44 301,-113.11 299.1,-106.37"/>
</g>
<!-- Node4&#45;&gt;Node3 -->
<g id="edge4" class="edge">
<title>Node4&#45;&gt;Node3</title>
<path fill="none" stroke="midnightblue" d="M203.9,-50.34C217.91,-40.52 235.88,-27.91 247.66,-19.65"/>
<polygon fill="midnightblue" stroke="midnightblue" points="201.55,-47.72 195.37,-56.32 205.57,-53.45 201.55,-47.72"/>
</g>
<!-- Node5 -->
<g id="node5" class="node">
<title>Node5</title>
<g id="a_node5"><a xlink:href="Mode0_8cpp.html" target="_top" xlink:title=" ">
<polygon fill="white" stroke="black" points="115.5,-0.5 115.5,-19.5 202.5,-19.5 202.5,-0.5 115.5,-0.5"/>
<text text-anchor="middle" x="159" y="-7.5" font-family="Helvetica,sans-Serif" font-size="10.00">src/Mode0.cpp</text>
</a>
</g>
</g>
<!-- Node4&#45;&gt;Node5 -->
<g id="edge5" class="edge">
<title>Node4&#45;&gt;Node5</title>
<path fill="none" stroke="midnightblue" d="M174.86,-46.69C170.82,-37.59 166.12,-27.01 162.89,-19.75"/>
<polygon fill="midnightblue" stroke="midnightblue" points="171.78,-48.37 179.04,-56.08 178.17,-45.52 171.78,-48.37"/>
</g>
<!-- Node6&#45;&gt;Node3 -->
<g id="edge7" class="edge">
<title>Node6&#45;&gt;Node3</title>
<path fill="none" stroke="midnightblue" d="M316.1,-50.34C302.09,-40.52 284.12,-27.91 272.34,-19.65"/>
<polygon fill="midnightblue" stroke="midnightblue" points="314.43,-53.45 324.63,-56.32 318.45,-47.72 314.43,-53.45"/>
</g>
<!-- Node7 -->
<g id="node7" class="node">
<title>Node7</title>
<g id="a_node7"><a xlink:href="Mode1_8cpp.html" target="_top" xlink:title=" ">
<polygon fill="white" stroke="black" points="317.5,-0.5 317.5,-19.5 404.5,-19.5 404.5,-0.5 317.5,-0.5"/>
<text text-anchor="middle" x="361" y="-7.5" font-family="Helvetica,sans-Serif" font-size="10.00">src/Mode1.cpp</text>
</a>
</g>
</g>
<!-- Node6&#45;&gt;Node7 -->
<g id="edge8" class="edge">
<title>Node6&#45;&gt;Node7</title>
<path fill="none" stroke="midnightblue" d="M345.14,-46.69C349.18,-37.59 353.88,-27.01 357.11,-19.75"/>
<polygon fill="midnightblue" stroke="midnightblue" points="341.83,-45.52 340.96,-56.08 348.22,-48.37 341.83,-45.52"/>
</g>
<!-- Node8&#45;&gt;Node3 -->
<g id="edge10" class="edge">
<title>Node8&#45;&gt;Node3</title>
<path fill="none" stroke="midnightblue" d="M411.82,-53.7C375.58,-43.51 323.09,-28.74 290.28,-19.52"/>
<polygon fill="midnightblue" stroke="midnightblue" points="411,-57.11 421.58,-56.44 412.9,-50.37 411,-57.11"/>
</g>
<!-- Node9 -->
<g id="node9" class="node">
<title>Node9</title>
<g id="a_node9"><a xlink:href="Mode2_8cpp.html" target="_top" xlink:title=" ">
<polygon fill="white" stroke="black" points="422.5,-0.5 422.5,-19.5 509.5,-19.5 509.5,-0.5 422.5,-0.5"/>
<text text-anchor="middle" x="466" y="-7.5" font-family="Helvetica,sans-Serif" font-size="10.00">src/Mode2.cpp</text>
</a>
</g>
</g>
<!-- Node8&#45;&gt;Node9 -->
<g id="edge11" class="edge">
<title>Node8&#45;&gt;Node9</title>
<path fill="none" stroke="midnightblue" d="M456.82,-46.4C459.17,-37.36 461.87,-26.94 463.73,-19.75"/>
<polygon fill="midnightblue" stroke="midnightblue" points="453.43,-45.52 454.31,-56.08 460.21,-47.28 453.43,-45.52"/>
</g>
</g>
</svg>
