<?xml version="1.0" encoding="UTF-8" standalone="no"?>
<!DOCTYPE svg PUBLIC "-//W3C//DTD SVG 1.1//EN"
 "http://www.w3.org/Graphics/SVG/1.1/DTD/svg11.dtd">
<!-- Generated by graphviz version 2.43.0 (0)
 -->
<!-- Title: src/LED.cpp Pages: 1 -->
<svg width="160pt" height="140pt"
 viewBox="0.00 0.00 159.50 140.00" xmlns="http://www.w3.org/2000/svg" xmlns:xlink="http://www.w3.org/1999/xlink">
<g id="graph0" class="graph" transform="scale(1 1) rotate(0) translate(4 136)">
<title>src/LED.cpp</title>
<polygon fill="white" stroke="transparent" points="-4,4 -4,-136 155.5,-136 155.5,4 -4,4"/>
<!-- Node1 -->
<g id="node1" class="node">
<title>Node1</title>
<g id="a_node1"><a xlink:title=" ">
<polygon fill="#bfbfbf" stroke="black" points="54.5,-112.5 54.5,-131.5 127.5,-131.5 127.5,-112.5 54.5,-112.5"/>
<text text-anchor="middle" x="91" y="-119.5" font-family="Helvetica,sans-Serif" font-size="10.00">src/LED.cpp</text>
</a>
</g>
</g>
<!-- Node2 -->
<g id="node2" class="node">
<title>Node2</title>
<g id="a_node2"><a xlink:href="LED_8h.xhtml" target="_top" xlink:title=" ">
<polygon fill="white" stroke="black" points="0,-56.5 0,-75.5 44,-75.5 44,-56.5 0,-56.5"/>
<text text-anchor="middle" x="22" y="-63.5" font-family="Helvetica,sans-Serif" font-size="10.00">LED.h</text>
</a>
</g>
</g>
<!-- Node1&#45;&gt;Node2 -->
<g id="edge1" class="edge">
<title>Node1&#45;&gt;Node2</title>
<path fill="none" stroke="midnightblue" d="M79.91,-112.32C69.51,-104.18 53.74,-91.84 41.28,-82.09"/>
<polygon fill="midnightblue" stroke="midnightblue" points="43.32,-79.24 33.29,-75.83 39.01,-84.75 43.32,-79.24"/>
</g>
<!-- Node4 -->
<g id="node4" class="node">
<title>Node4</title>
<g id="a_node4"><a xlink:href="Debug_8h.xhtml" target="_top" xlink:title=" ">
<polygon fill="white" stroke="black" points="62.5,-56.5 62.5,-75.5 119.5,-75.5 119.5,-56.5 62.5,-56.5"/>
<text text-anchor="middle" x="91" y="-63.5" font-family="Helvetica,sans-Serif" font-size="10.00">Debug.h</text>
</a>
</g>
</g>
<!-- Node1&#45;&gt;Node4 -->
<g id="edge3" class="edge">
<title>Node1&#45;&gt;Node4</title>
<path fill="none" stroke="midnightblue" d="M91,-112.08C91,-105.01 91,-94.86 91,-85.99"/>
<polygon fill="midnightblue" stroke="midnightblue" points="94.5,-85.75 91,-75.75 87.5,-85.75 94.5,-85.75"/>
</g>
<!-- Node5 -->
<g id="node5" class="node">
<title>Node5</title>
<g id="a_node5"><a xlink:title=" ">
<polygon fill="white" stroke="#bfbfbf" points="88.5,-0.5 88.5,-19.5 151.5,-19.5 151.5,-0.5 88.5,-0.5"/>
<text text-anchor="middle" x="120" y="-7.5" font-family="Helvetica,sans-Serif" font-size="10.00">Arduino.h</text>
</a>
</g>
</g>
<!-- Node1&#45;&gt;Node5 -->
<g id="edge5" class="edge">
<title>Node1&#45;&gt;Node5</title>
<path fill="none" stroke="midnightblue" d="M101.71,-112.3C110.94,-104.07 123.59,-90.79 129,-76 134.56,-60.8 131.18,-42.46 127.07,-29.14"/>
<polygon fill="midnightblue" stroke="midnightblue" points="130.37,-27.98 123.77,-19.69 123.76,-30.29 130.37,-27.98"/>
</g>
<!-- Node3 -->
<g id="node3" class="node">
<title>Node3</title>
<g id="a_node3"><a xlink:href="Pin_8h.xhtml" target="_top" xlink:title=" ">
<polygon fill="white" stroke="black" points="1.5,-0.5 1.5,-19.5 42.5,-19.5 42.5,-0.5 1.5,-0.5"/>
<text text-anchor="middle" x="22" y="-7.5" font-family="Helvetica,sans-Serif" font-size="10.00">Pin.h</text>
</a>
</g>
</g>
<!-- Node2&#45;&gt;Node3 -->
<g id="edge2" class="edge">
<title>Node2&#45;&gt;Node3</title>
<path fill="none" stroke="midnightblue" d="M22,-56.08C22,-49.01 22,-38.86 22,-29.99"/>
<polygon fill="midnightblue" stroke="midnightblue" points="25.5,-29.75 22,-19.75 18.5,-29.75 25.5,-29.75"/>
</g>
<!-- Node4&#45;&gt;Node5 -->
<g id="edge4" class="edge">
<title>Node4&#45;&gt;Node5</title>
<path fill="none" stroke="midnightblue" d="M95.79,-56.08C99.76,-48.69 105.53,-37.95 110.43,-28.81"/>
<polygon fill="midnightblue" stroke="midnightblue" points="113.65,-30.22 115.3,-19.75 107.49,-26.91 113.65,-30.22"/>
</g>
</g>
</svg>
