<?xml version="1.0" encoding="UTF-8" standalone="no"?>
<!DOCTYPE svg PUBLIC "-//W3C//DTD SVG 1.1//EN"
 "http://www.w3.org/Graphics/SVG/1.1/DTD/svg11.dtd">
<!-- Generated by graphviz version 2.43.0 (0)
 -->
<!-- Title: include/LED.h Pages: 1 -->
<!--zoomable 364 -->
<svg id="main" version="1.1" xmlns="http://www.w3.org/2000/svg" xmlns:xlink="http://www.w3.org/1999/xlink" xml:space="preserve" onload="init(evt)">
<style type="text/css"><![CDATA[
.edge:hover path { stroke: red; }
.edge:hover polygon { stroke: red; fill: red; }
]]></style>
<script type="text/javascript"><![CDATA[
var edges = document.getElementsByTagName('g');
if (edges && edges.length) {
  for (var i=0;i<edges.length;i++) {
    if (edges[i].id.substr(0,4)=='edge') {
      edges[i].setAttribute('class','edge');
    }
  }
}
]]></script>
        <defs>
                <circle id="rim" cx="0" cy="0" r="7"/>
                <circle id="rim2" cx="0" cy="0" r="3.5"/>
                <g id="zoomPlus">
                        <use xlink:href="#rim" fill="#404040">
                                <set attributeName="fill" to="#808080" begin="zoomplus.mouseover" end="zoomplus.mouseout"/>
                        </use>
                        <path d="M-4,0h8M0,-4v8" fill="none" stroke="white" stroke-width="1.5" pointer-events="none"/>
                </g>
                <g id="zoomMin">
                        <use xlink:href="#rim" fill="#404040">
                                <set attributeName="fill" to="#808080" begin="zoomminus.mouseover" end="zoomminus.mouseout"/>
                        </use>
                        <path d="M-4,0h8" fill="none" stroke="white" stroke-width="1.5" pointer-events="none"/>
                </g>
                <g id="dirArrow">
                        <path fill="none" stroke="white" stroke-width="1.5" d="M0,-3.0v7 M-2.5,-0.5L0,-3.0L2.5,-0.5"/>
                </g>
               <g id="resetDef">
                       <use xlink:href="#rim2" fill="#404040">
                               <set attributeName="fill" to="#808080" begin="reset.mouseover" end="reset.mouseout"/>
                       </use>
               </g>
        </defs>

<script type="text/javascript">
var viewWidth = 979;
var viewHeight = 364;
var sectionId = 'dynsection-1';
</script>
<script xlink:href="svgpan.js"/>
<svg id="graph" class="graph">
<g id="viewport">
<title>include/LED.h</title>
<polygon fill="white" stroke="transparent" points="-4,4 -4,-360 975,-360 975,4 -4,4"/>
<!-- Node1 -->
<g id="node1" class="node">
<title>Node1</title>
<g id="a_node1"><a xlink:title=" ">
<polygon fill="#bfbfbf" stroke="black" points="490.5,-336.5 490.5,-355.5 573.5,-355.5 573.5,-336.5 490.5,-336.5"/>
<text text-anchor="middle" x="532" y="-343.5" font-family="Helvetica,sans-Serif" font-size="10.00">include/LED.h</text>
</a>
</g>
</g>
<!-- Node2 -->
<g id="node2" class="node">
<title>Node2</title>
<g id="a_node2"><a xlink:href="LED_8cpp.xhtml" target="_top" xlink:title=" ">
<polygon fill="white" stroke="black" points="430.5,-280.5 430.5,-299.5 503.5,-299.5 503.5,-280.5 430.5,-280.5"/>
<text text-anchor="middle" x="467" y="-287.5" font-family="Helvetica,sans-Serif" font-size="10.00">src/LED.cpp</text>
</a>
</g>
</g>
<!-- Node1&#45;&gt;Node2 -->
<g id="edge1" class="edge">
<title>Node1&#45;&gt;Node2</title>
<path fill="none" stroke="midnightblue" d="M513.73,-329.82C502.08,-320.15 487.4,-307.95 477.63,-299.83"/>
<polygon fill="midnightblue" stroke="midnightblue" points="511.63,-332.63 521.56,-336.32 516.1,-327.24 511.63,-332.63"/>
</g>
<!-- Node3 -->
<g id="node3" class="node">
<title>Node3</title>
<g id="a_node3"><a xlink:href="EurorackClock_8h.xhtml" target="_top" xlink:title=" ">
<polygon fill="white" stroke="black" points="517,-168.5 517,-187.5 651,-187.5 651,-168.5 517,-168.5"/>
<text text-anchor="middle" x="584" y="-175.5" font-family="Helvetica,sans-Serif" font-size="10.00">include/EurorackClock.h</text>
</a>
</g>
</g>
<!-- Node1&#45;&gt;Node3 -->
<g id="edge2" class="edge">
<title>Node1&#45;&gt;Node3</title>
<path fill="none" stroke="midnightblue" d="M532.22,-326.39C533.1,-301.98 536.76,-258.24 551,-224 556.88,-209.87 568.07,-196.04 575.78,-187.52"/>
<polygon fill="midnightblue" stroke="midnightblue" points="528.72,-326.33 531.98,-336.41 535.72,-326.5 528.72,-326.33"/>
</g>
<!-- Node14 -->
<g id="node14" class="node">
<title>Node14</title>
<g id="a_node14"><a xlink:href="LEDs_8h.xhtml" target="_top" xlink:title=" ">
<polygon fill="white" stroke="black" points="560,-280.5 560,-299.5 648,-299.5 648,-280.5 560,-280.5"/>
<text text-anchor="middle" x="604" y="-287.5" font-family="Helvetica,sans-Serif" font-size="10.00">include/LEDs.h</text>
</a>
</g>
</g>
<!-- Node1&#45;&gt;Node14 -->
<g id="edge18" class="edge">
<title>Node1&#45;&gt;Node14</title>
<path fill="none" stroke="midnightblue" d="M551.87,-330.1C564.82,-320.38 581.3,-308.03 592.22,-299.83"/>
<polygon fill="midnightblue" stroke="midnightblue" points="549.47,-327.52 543.57,-336.32 553.67,-333.12 549.47,-327.52"/>
</g>
<!-- Node4 -->
<g id="node4" class="node">
<title>Node4</title>
<g id="a_node4"><a xlink:href="EurorackClock_8cpp.xhtml" target="_top" xlink:title=" ">
<polygon fill="white" stroke="black" points="0,-0.5 0,-19.5 124,-19.5 124,-0.5 0,-0.5"/>
<text text-anchor="middle" x="62" y="-7.5" font-family="Helvetica,sans-Serif" font-size="10.00">src/EurorackClock.cpp</text>
</a>
</g>
</g>
<!-- Node3&#45;&gt;Node4 -->
<g id="edge3" class="edge">
<title>Node3&#45;&gt;Node4</title>
<path fill="none" stroke="midnightblue" d="M506.94,-173.82C374.87,-166.59 114.07,-143.86 58,-76 44.75,-59.96 52.61,-33.4 58.08,-19.73"/>
<polygon fill="midnightblue" stroke="midnightblue" points="506.82,-177.32 516.99,-174.36 507.19,-170.33 506.82,-177.32"/>
</g>
<!-- Node5 -->
<g id="node5" class="node">
<title>Node5</title>
<g id="a_node5"><a xlink:href="main_8cpp.xhtml" target="_top" xlink:title=" ">
<polygon fill="white" stroke="black" points="644.5,-0.5 644.5,-19.5 723.5,-19.5 723.5,-0.5 644.5,-0.5"/>
<text text-anchor="middle" x="684" y="-7.5" font-family="Helvetica,sans-Serif" font-size="10.00">src/main.cpp</text>
</a>
</g>
</g>
<!-- Node3&#45;&gt;Node5 -->
<g id="edge4" class="edge">
<title>Node3&#45;&gt;Node5</title>
<path fill="none" stroke="midnightblue" d="M651.19,-166.29C703.09,-154.1 771.52,-128.56 805,-76 809.77,-68.5 810.07,-63.3 805,-56 794.96,-41.55 751.72,-27.9 719.79,-19.5"/>
<polygon fill="midnightblue" stroke="midnightblue" points="650.37,-162.89 641.38,-168.49 651.9,-169.72 650.37,-162.89"/>
</g>
<!-- Node6 -->
<g id="node6" class="node">
<title>Node6</title>
<g id="a_node6"><a xlink:href="MIDIHandler_8h.xhtml" target="_top" xlink:title=" ">
<polygon fill="white" stroke="black" points="525,-112.5 525,-131.5 649,-131.5 649,-112.5 525,-112.5"/>
<text text-anchor="middle" x="587" y="-119.5" font-family="Helvetica,sans-Serif" font-size="10.00">include/MIDIHandler.h</text>
</a>
</g>
</g>
<!-- Node3&#45;&gt;Node6 -->
<g id="edge5" class="edge">
<title>Node3&#45;&gt;Node6</title>
<path fill="none" stroke="midnightblue" d="M585.07,-157.8C585.56,-148.91 586.12,-138.78 586.51,-131.75"/>
<polygon fill="midnightblue" stroke="midnightblue" points="581.56,-157.9 584.5,-168.08 588.54,-158.29 581.56,-157.9"/>
</g>
<!-- Node8 -->
<g id="node8" class="node">
<title>Node8</title>
<g id="a_node8"><a xlink:href="Mode0_8h.xhtml" target="_top" xlink:title=" ">
<polygon fill="white" stroke="black" points="698.5,-56.5 698.5,-75.5 795.5,-75.5 795.5,-56.5 698.5,-56.5"/>
<text text-anchor="middle" x="747" y="-63.5" font-family="Helvetica,sans-Serif" font-size="10.00">include/Mode0.h</text>
</a>
</g>
</g>
<!-- Node3&#45;&gt;Node8 -->
<g id="edge17" class="edge">
<title>Node3&#45;&gt;Node8</title>
<path fill="none" stroke="midnightblue" d="M607.9,-163.16C622.55,-154.51 641.59,-142.96 658,-132 686.8,-112.77 719.37,-88.24 735.98,-75.52"/>
<polygon fill="midnightblue" stroke="midnightblue" points="605.83,-160.32 598.97,-168.4 609.37,-166.36 605.83,-160.32"/>
</g>
<!-- Node6&#45;&gt;Node5 -->
<g id="edge6" class="edge">
<title>Node6&#45;&gt;Node5</title>
<path fill="none" stroke="midnightblue" d="M612.23,-107.27C625.03,-99.39 640.12,-88.56 651,-76 666.08,-58.59 676.4,-33.08 681.1,-19.79"/>
<polygon fill="midnightblue" stroke="midnightblue" points="610.25,-104.38 603.41,-112.48 613.8,-110.41 610.25,-104.38"/>
</g>
<!-- Node7 -->
<g id="node7" class="node">
<title>Node7</title>
<g id="a_node7"><a xlink:href="MIDIHandler_8cpp.xhtml" target="_top" xlink:title=" ">
<polygon fill="white" stroke="black" points="302,-0.5 302,-19.5 416,-19.5 416,-0.5 302,-0.5"/>
<text text-anchor="middle" x="359" y="-7.5" font-family="Helvetica,sans-Serif" font-size="10.00">src/MIDIHandler.cpp</text>
</a>
</g>
</g>
<!-- Node6&#45;&gt;Node7 -->
<g id="edge7" class="edge">
<title>Node6&#45;&gt;Node7</title>
<path fill="none" stroke="midnightblue" d="M514.84,-110.62C484.06,-103.96 448.7,-93.21 420,-76 395.31,-61.2 374.3,-33.59 364.65,-19.6"/>
<polygon fill="midnightblue" stroke="midnightblue" points="514.16,-114.05 524.66,-112.64 515.57,-107.2 514.16,-114.05"/>
</g>
<!-- Node6&#45;&gt;Node8 -->
<g id="edge8" class="edge">
<title>Node6&#45;&gt;Node8</title>
<path fill="none" stroke="midnightblue" d="M622.05,-109.17C652.17,-99 694.9,-84.59 721.77,-75.52"/>
<polygon fill="midnightblue" stroke="midnightblue" points="620.71,-105.93 612.35,-112.44 622.95,-112.56 620.71,-105.93"/>
</g>
<!-- Node10 -->
<g id="node10" class="node">
<title>Node10</title>
<g id="a_node10"><a xlink:href="Mode1_8h.xhtml" target="_top" xlink:title=" ">
<polygon fill="white" stroke="black" points="429.5,-56.5 429.5,-75.5 526.5,-75.5 526.5,-56.5 429.5,-56.5"/>
<text text-anchor="middle" x="478" y="-63.5" font-family="Helvetica,sans-Serif" font-size="10.00">include/Mode1.h</text>
</a>
</g>
</g>
<!-- Node6&#45;&gt;Node10 -->
<g id="edge11" class="edge">
<title>Node6&#45;&gt;Node10</title>
<path fill="none" stroke="midnightblue" d="M560.48,-107.86C540.27,-97.85 513.01,-84.35 495.47,-75.65"/>
<polygon fill="midnightblue" stroke="midnightblue" points="558.97,-111.02 569.49,-112.32 562.08,-104.75 558.97,-111.02"/>
</g>
<!-- Node12 -->
<g id="node12" class="node">
<title>Node12</title>
<g id="a_node12"><a xlink:href="Mode2_8h.xhtml" target="_top" xlink:title=" ">
<polygon fill="white" stroke="black" points="544.5,-56.5 544.5,-75.5 641.5,-75.5 641.5,-56.5 544.5,-56.5"/>
<text text-anchor="middle" x="593" y="-63.5" font-family="Helvetica,sans-Serif" font-size="10.00">include/Mode2.h</text>
</a>
</g>
</g>
<!-- Node6&#45;&gt;Node12 -->
<g id="edge14" class="edge">
<title>Node6&#45;&gt;Node12</title>
<path fill="none" stroke="midnightblue" d="M589.1,-102.1C590.1,-93.14 591.24,-82.86 592.03,-75.75"/>
<polygon fill="midnightblue" stroke="midnightblue" points="585.62,-101.76 587.99,-112.08 592.57,-102.53 585.62,-101.76"/>
</g>
<!-- Node8&#45;&gt;Node5 -->
<g id="edge9" class="edge">
<title>Node8&#45;&gt;Node5</title>
<path fill="none" stroke="midnightblue" d="M728.96,-49.54C717.73,-39.91 703.68,-27.87 694.31,-19.83"/>
<polygon fill="midnightblue" stroke="midnightblue" points="727.01,-52.47 736.88,-56.32 731.56,-47.16 727.01,-52.47"/>
</g>
<!-- Node9 -->
<g id="node9" class="node">
<title>Node9</title>
<g id="a_node9"><a xlink:href="Mode0_8cpp.xhtml" target="_top" xlink:title=" ">
<polygon fill="white" stroke="black" points="741.5,-0.5 741.5,-19.5 828.5,-19.5 828.5,-0.5 741.5,-0.5"/>
<text text-anchor="middle" x="785" y="-7.5" font-family="Helvetica,sans-Serif" font-size="10.00">src/Mode0.cpp</text>
</a>
</g>
</g>
<!-- Node8&#45;&gt;Node9 -->
<g id="edge10" class="edge">
<title>Node8&#45;&gt;Node9</title>
<path fill="none" stroke="midnightblue" d="M759.06,-47.86C765.64,-38.5 773.51,-27.33 778.84,-19.75"/>
<polygon fill="midnightblue" stroke="midnightblue" points="756.17,-45.89 753.27,-56.08 761.89,-49.92 756.17,-45.89"/>
</g>
<!-- Node10&#45;&gt;Node5 -->
<g id="edge12" class="edge">
<title>Node10&#45;&gt;Node5</title>
<path fill="none" stroke="midnightblue" d="M520.62,-53.83C559.51,-43.63 616.16,-28.78 651.51,-19.52"/>
<polygon fill="midnightblue" stroke="midnightblue" points="519.43,-50.52 510.64,-56.44 521.2,-57.29 519.43,-50.52"/>
</g>
<!-- Node11 -->
<g id="node11" class="node">
<title>Node11</title>
<g id="a_node11"><a xlink:href="Mode1_8cpp.xhtml" target="_top" xlink:title=" ">
<polygon fill="white" stroke="black" points="434.5,-0.5 434.5,-19.5 521.5,-19.5 521.5,-0.5 434.5,-0.5"/>
<text text-anchor="middle" x="478" y="-7.5" font-family="Helvetica,sans-Serif" font-size="10.00">src/Mode1.cpp</text>
</a>
</g>
</g>
<!-- Node10&#45;&gt;Node11 -->
<g id="edge13" class="edge">
<title>Node10&#45;&gt;Node11</title>
<path fill="none" stroke="midnightblue" d="M478,-45.8C478,-36.91 478,-26.78 478,-19.75"/>
<polygon fill="midnightblue" stroke="midnightblue" points="474.5,-46.08 478,-56.08 481.5,-46.08 474.5,-46.08"/>
</g>
<!-- Node12&#45;&gt;Node5 -->
<g id="edge15" class="edge">
<title>Node12&#45;&gt;Node5</title>
<path fill="none" stroke="midnightblue" d="M616.29,-51.18C633.04,-41.24 655.1,-28.15 669.42,-19.65"/>
<polygon fill="midnightblue" stroke="midnightblue" points="614.43,-48.21 607.62,-56.32 618.01,-54.23 614.43,-48.21"/>
</g>
<!-- Node13 -->
<g id="node13" class="node">
<title>Node13</title>
<g id="a_node13"><a xlink:href="Mode2_8cpp.xhtml" target="_top" xlink:title=" ">
<polygon fill="white" stroke="black" points="539.5,-0.5 539.5,-19.5 626.5,-19.5 626.5,-0.5 539.5,-0.5"/>
<text text-anchor="middle" x="583" y="-7.5" font-family="Helvetica,sans-Serif" font-size="10.00">src/Mode2.cpp</text>
</a>
</g>
</g>
<!-- Node12&#45;&gt;Node13 -->
<g id="edge16" class="edge">
<title>Node12&#45;&gt;Node13</title>
<path fill="none" stroke="midnightblue" d="M589.5,-46.1C587.84,-37.14 585.94,-26.86 584.62,-19.75"/>
<polygon fill="midnightblue" stroke="midnightblue" points="586.09,-46.89 591.35,-56.08 592.97,-45.61 586.09,-46.89"/>
</g>
<!-- Node14&#45;&gt;Node3 -->
<g id="edge21" class="edge">
<title>Node14&#45;&gt;Node3</title>
<path fill="none" stroke="midnightblue" d="M624.99,-273.91C640.07,-261.09 656.25,-241.97 647,-224 638.2,-206.91 619.58,-194.87 604.85,-187.57"/>
<polygon fill="midnightblue" stroke="midnightblue" points="622.55,-271.38 616.89,-280.33 626.9,-276.86 622.55,-271.38"/>
</g>
<!-- Node14&#45;&gt;Node5 -->
<g id="edge20" class="edge">
<title>Node14&#45;&gt;Node5</title>
<path fill="none" stroke="midnightblue" d="M658.4,-284.1C760.58,-273.37 971,-243.47 971,-179 971,-179 971,-179 971,-121 971,-55.21 899.35,-79.76 838,-56 798.26,-40.61 751.01,-27.54 719.43,-19.52"/>
<polygon fill="midnightblue" stroke="midnightblue" points="657.86,-280.63 648.27,-285.13 658.57,-287.6 657.86,-280.63"/>
</g>
<!-- Node14&#45;&gt;Node6 -->
<g id="edge41" class="edge">
<title>Node14&#45;&gt;Node6</title>
<path fill="none" stroke="midnightblue" d="M581.77,-274.6C557.69,-257.41 520.96,-226.15 508,-188 505.14,-179.58 503.53,-175.69 508,-168 518.55,-149.85 539.46,-138.41 557.12,-131.61"/>
<polygon fill="midnightblue" stroke="midnightblue" points="579.79,-277.48 590.01,-280.28 583.77,-271.72 579.79,-277.48"/>
</g>
<!-- Node15 -->
<g id="node15" class="node">
<title>Node15</title>
<g id="a_node15"><a xlink:href="LEDs_8cpp.xhtml" target="_top" xlink:title=" ">
<polygon fill="white" stroke="black" points="560,-224.5 560,-243.5 638,-243.5 638,-224.5 560,-224.5"/>
<text text-anchor="middle" x="599" y="-231.5" font-family="Helvetica,sans-Serif" font-size="10.00">src/LEDs.cpp</text>
</a>
</g>
</g>
<!-- Node14&#45;&gt;Node15 -->
<g id="edge19" class="edge">
<title>Node14&#45;&gt;Node15</title>
<path fill="none" stroke="midnightblue" d="M602.25,-270.1C601.42,-261.14 600.47,-250.86 599.81,-243.75"/>
<polygon fill="midnightblue" stroke="midnightblue" points="598.77,-270.45 603.17,-280.08 605.74,-269.8 598.77,-270.45"/>
</g>
<!-- Node16 -->
<g id="node16" class="node">
<title>Node16</title>
<g id="a_node16"><a xlink:href="Gates_8h.xhtml" target="_top" xlink:title=" ">
<polygon fill="white" stroke="black" points="699,-224.5 699,-243.5 791,-243.5 791,-224.5 699,-224.5"/>
<text text-anchor="middle" x="745" y="-231.5" font-family="Helvetica,sans-Serif" font-size="10.00">include/Gates.h</text>
</a>
</g>
</g>
<!-- Node14&#45;&gt;Node16 -->
<g id="edge22" class="edge">
<title>Node14&#45;&gt;Node16</title>
<path fill="none" stroke="midnightblue" d="M635.93,-276.77C662.41,-266.63 699.39,-252.47 722.76,-243.52"/>
<polygon fill="midnightblue" stroke="midnightblue" points="634.43,-273.6 626.34,-280.44 636.93,-280.14 634.43,-273.6"/>
</g>
<!-- Node18 -->
<g id="node18" class="node">
<title>Node18</title>
<g id="a_node18"><a xlink:href="LEDController_8h.xhtml" target="_top" xlink:title=" ">
<polygon fill="white" stroke="black" points="377,-112.5 377,-131.5 507,-131.5 507,-112.5 377,-112.5"/>
<text text-anchor="middle" x="442" y="-119.5" font-family="Helvetica,sans-Serif" font-size="10.00">include/LEDController.h</text>
</a>
</g>
</g>
<!-- Node14&#45;&gt;Node18 -->
<g id="edge30" class="edge">
<title>Node14&#45;&gt;Node18</title>
<path fill="none" stroke="midnightblue" d="M573.49,-276C557.58,-268.25 538.47,-257.31 524,-244 485.9,-208.95 456.45,-152.92 446.06,-131.61"/>
<polygon fill="midnightblue" stroke="midnightblue" points="572.37,-279.34 582.91,-280.41 575.34,-273 572.37,-279.34"/>
</g>
<!-- Node16&#45;&gt;Node3 -->
<g id="edge25" class="edge">
<title>Node16&#45;&gt;Node3</title>
<path fill="none" stroke="midnightblue" d="M709.74,-221.17C679.42,-211 636.43,-196.59 609.39,-187.52"/>
<polygon fill="midnightblue" stroke="midnightblue" points="708.9,-224.58 719.49,-224.44 711.12,-217.95 708.9,-224.58"/>
</g>
<!-- Node16&#45;&gt;Node5 -->
<g id="edge24" class="edge">
<title>Node16&#45;&gt;Node5</title>
<path fill="none" stroke="midnightblue" d="M762.02,-216.85C794.36,-184.18 858.2,-108.87 820,-56 808.53,-40.12 759.7,-26.75 723.81,-18.81"/>
<polygon fill="midnightblue" stroke="midnightblue" points="759.23,-214.68 754.56,-224.19 764.14,-219.67 759.23,-214.68"/>
</g>
<!-- Node16&#45;&gt;Node6 -->
<g id="edge26" class="edge">
<title>Node16&#45;&gt;Node6</title>
<path fill="none" stroke="midnightblue" d="M726.54,-218.02C709.59,-204.48 683.59,-184.23 660,-168 640.38,-154.5 616.77,-140.3 601.82,-131.54"/>
<polygon fill="midnightblue" stroke="midnightblue" points="724.53,-220.9 734.52,-224.44 728.92,-215.45 724.53,-220.9"/>
</g>
<!-- Node16&#45;&gt;Node8 -->
<g id="edge27" class="edge">
<title>Node16&#45;&gt;Node8</title>
<path fill="none" stroke="midnightblue" d="M801.35,-225.44C844.96,-218.3 900.18,-205.98 914,-188 956,-133.35 840.41,-92.47 780.48,-75.55"/>
<polygon fill="midnightblue" stroke="midnightblue" points="800.72,-221.99 791.39,-227.01 801.82,-228.91 800.72,-221.99"/>
</g>
<!-- Node16&#45;&gt;Node10 -->
<g id="edge28" class="edge">
<title>Node16&#45;&gt;Node10</title>
<path fill="none" stroke="midnightblue" d="M737.13,-215.08C724.46,-188.37 696.94,-138.42 658,-112 636.81,-97.62 572.51,-83.74 526.82,-75.29"/>
<polygon fill="midnightblue" stroke="midnightblue" points="734.04,-216.74 741.39,-224.38 740.41,-213.83 734.04,-216.74"/>
</g>
<!-- Node16&#45;&gt;Node12 -->
<g id="edge29" class="edge">
<title>Node16&#45;&gt;Node12</title>
<path fill="none" stroke="midnightblue" d="M748.12,-214.49C751.38,-188.51 753.13,-141.15 729,-112 707.75,-86.33 671.49,-75.2 641.75,-70.43"/>
<polygon fill="midnightblue" stroke="midnightblue" points="744.64,-214.09 746.65,-224.49 751.56,-215.11 744.64,-214.09"/>
</g>
<!-- Node17 -->
<g id="node17" class="node">
<title>Node17</title>
<g id="a_node17"><a xlink:href="Gates_8cpp.xhtml" target="_top" xlink:title=" ">
<polygon fill="white" stroke="black" points="821.5,-168.5 821.5,-187.5 904.5,-187.5 904.5,-168.5 821.5,-168.5"/>
<text text-anchor="middle" x="863" y="-175.5" font-family="Helvetica,sans-Serif" font-size="10.00">src/Gates.cpp</text>
</a>
</g>
</g>
<!-- Node16&#45;&gt;Node17 -->
<g id="edge23" class="edge">
<title>Node16&#45;&gt;Node17</title>
<path fill="none" stroke="midnightblue" d="M772.9,-220.23C794.97,-210.13 825.18,-196.31 844.39,-187.52"/>
<polygon fill="midnightblue" stroke="midnightblue" points="771.33,-217.1 763.7,-224.44 774.25,-223.46 771.33,-217.1"/>
</g>
<!-- Node18&#45;&gt;Node5 -->
<g id="edge32" class="edge">
<title>Node18&#45;&gt;Node5</title>
<path fill="none" stroke="midnightblue" d="M428.34,-104.48C418.29,-90.24 408.27,-69.85 420,-56 451.45,-18.87 588.08,-28.48 636,-20 638.76,-19.51 641.6,-19 644.46,-18.48"/>
<polygon fill="midnightblue" stroke="midnightblue" points="425.55,-106.6 434.4,-112.44 431.12,-102.36 425.55,-106.6"/>
</g>
<!-- Node18&#45;&gt;Node8 -->
<g id="edge33" class="edge">
<title>Node18&#45;&gt;Node8</title>
<path fill="none" stroke="midnightblue" d="M500.38,-110.66C558.02,-100.46 645.12,-85.04 698.9,-75.52"/>
<polygon fill="midnightblue" stroke="midnightblue" points="499.56,-107.25 490.33,-112.44 500.79,-114.15 499.56,-107.25"/>
</g>
<!-- Node18&#45;&gt;Node10 -->
<g id="edge34" class="edge">
<title>Node18&#45;&gt;Node10</title>
<path fill="none" stroke="midnightblue" d="M453.62,-103.57C459.82,-94.27 467.17,-83.25 472.17,-75.75"/>
<polygon fill="midnightblue" stroke="midnightblue" points="450.58,-101.82 447.94,-112.08 456.4,-105.7 450.58,-101.82"/>
</g>
<!-- Node18&#45;&gt;Node12 -->
<g id="edge35" class="edge">
<title>Node18&#45;&gt;Node12</title>
<path fill="none" stroke="midnightblue" d="M475.45,-109.04C503.86,-98.88 543.94,-84.55 569.19,-75.52"/>
<polygon fill="midnightblue" stroke="midnightblue" points="474.16,-105.78 465.93,-112.44 476.52,-112.37 474.16,-105.78"/>
</g>
<!-- Node19 -->
<g id="node19" class="node">
<title>Node19</title>
<g id="a_node19"><a xlink:href="LEDController_8cpp.xhtml" target="_top" xlink:title=" ">
<polygon fill="white" stroke="black" points="67,-56.5 67,-75.5 187,-75.5 187,-56.5 67,-56.5"/>
<text text-anchor="middle" x="127" y="-63.5" font-family="Helvetica,sans-Serif" font-size="10.00">src/LEDController.cpp</text>
</a>
</g>
</g>
<!-- Node18&#45;&gt;Node19 -->
<g id="edge31" class="edge">
<title>Node18&#45;&gt;Node19</title>
<path fill="none" stroke="midnightblue" d="M382.08,-110.73C322.55,-100.52 232.34,-85.06 176.68,-75.52"/>
<polygon fill="midnightblue" stroke="midnightblue" points="381.64,-114.2 392.09,-112.44 382.82,-107.3 381.64,-114.2"/>
</g>
<!-- Node20 -->
<g id="node20" class="node">
<title>Node20</title>
<g id="a_node20"><a xlink:href="ModeSelector_8h.xhtml" target="_top" xlink:title=" ">
<polygon fill="white" stroke="black" points="205,-56.5 205,-75.5 335,-75.5 335,-56.5 205,-56.5"/>
<text text-anchor="middle" x="270" y="-63.5" font-family="Helvetica,sans-Serif" font-size="10.00">include/ModeSelector.h</text>
</a>
</g>
</g>
<!-- Node18&#45;&gt;Node20 -->
<g id="edge36" class="edge">
<title>Node18&#45;&gt;Node20</title>
<path fill="none" stroke="midnightblue" d="M405.17,-109.44C372.74,-99.26 326.26,-84.66 297.13,-75.52"/>
<polygon fill="midnightblue" stroke="midnightblue" points="404.16,-112.79 414.75,-112.44 406.25,-106.11 404.16,-112.79"/>
</g>
<!-- Node20&#45;&gt;Node4 -->
<g id="edge37" class="edge">
<title>Node20&#45;&gt;Node4</title>
<path fill="none" stroke="midnightblue" d="M227.22,-53.89C187.94,-43.7 130.57,-28.8 94.8,-19.52"/>
<polygon fill="midnightblue" stroke="midnightblue" points="226.48,-57.32 237.04,-56.44 228.24,-50.54 226.48,-57.32"/>
</g>
<!-- Node20&#45;&gt;Node5 -->
<g id="edge38" class="edge">
<title>Node20&#45;&gt;Node5</title>
<path fill="none" stroke="midnightblue" d="M345.47,-57.13C419.61,-49.06 535.85,-35.53 636,-20 638.76,-19.57 641.61,-19.1 644.48,-18.61"/>
<polygon fill="midnightblue" stroke="midnightblue" points="344.86,-53.67 335.29,-58.23 345.61,-60.63 344.86,-53.67"/>
</g>
<!-- Node20&#45;&gt;Node7 -->
<g id="edge39" class="edge">
<title>Node20&#45;&gt;Node7</title>
<path fill="none" stroke="midnightblue" d="M293.24,-50.9C309.56,-41 330.87,-28.07 344.74,-19.65"/>
<polygon fill="midnightblue" stroke="midnightblue" points="291.03,-48.14 284.3,-56.32 294.66,-54.13 291.03,-48.14"/>
</g>
<!-- Node21 -->
<g id="node21" class="node">
<title>Node21</title>
<g id="a_node21"><a xlink:href="ModeSelector_8cpp.xhtml" target="_top" xlink:title=" ">
<polygon fill="white" stroke="black" points="164,-0.5 164,-19.5 284,-19.5 284,-0.5 164,-0.5"/>
<text text-anchor="middle" x="224" y="-7.5" font-family="Helvetica,sans-Serif" font-size="10.00">src/ModeSelector.cpp</text>
</a>
</g>
</g>
<!-- Node20&#45;&gt;Node21 -->
<g id="edge40" class="edge">
<title>Node20&#45;&gt;Node21</title>
<path fill="none" stroke="midnightblue" d="M255.89,-48.43C247.82,-38.97 238.04,-27.48 231.45,-19.75"/>
<polygon fill="midnightblue" stroke="midnightblue" points="253.25,-50.74 262.4,-56.08 258.58,-46.2 253.25,-50.74"/>
</g>
</g>
</svg>
        <g id="navigator" transform="translate(0 0)" fill="#404254">
                <rect fill="#f2f5e9" fill-opacity="0.5" stroke="#606060" stroke-width=".5" x="0" y="0" width="60" height="60"/>
                <use id="zoomplus" xlink:href="#zoomPlus" x="17" y="9" onmousedown="handleZoom(evt,'in')"/>
                <use id="zoomminus" xlink:href="#zoomMin" x="42" y="9" onmousedown="handleZoom(evt,'out')"/>
                <use id="reset" xlink:href="#resetDef" x="30" y="36" onmousedown="handleReset()"/>
                <g id="arrowUp" xlink:href="#dirArrow" transform="translate(30 24)" onmousedown="handlePan(0,-1)">
                  <use xlink:href="#rim" fill="#404040">
                        <set attributeName="fill" to="#808080" begin="arrowUp.mouseover" end="arrowUp.mouseout"/>
                  </use>
                  <path fill="none" stroke="white" stroke-width="1.5" d="M0,-3.0v7 M-2.5,-0.5L0,-3.0L2.5,-0.5"/>
                </g>
                <g id="arrowRight" xlink:href="#dirArrow" transform="rotate(90) translate(36 -43)" onmousedown="handlePan(1,0)">
                  <use xlink:href="#rim" fill="#404040">
                        <set attributeName="fill" to="#808080" begin="arrowRight.mouseover" end="arrowRight.mouseout"/>
                  </use>
                  <path fill="none" stroke="white" stroke-width="1.5" d="M0,-3.0v7 M-2.5,-0.5L0,-3.0L2.5,-0.5"/>
                </g>
                <g id="arrowDown" xlink:href="#dirArrow" transform="rotate(180) translate(-30 -48)" onmousedown="handlePan(0,1)">
                  <use xlink:href="#rim" fill="#404040">
                        <set attributeName="fill" to="#808080" begin="arrowDown.mouseover" end="arrowDown.mouseout"/>
                  </use>
                  <path fill="none" stroke="white" stroke-width="1.5" d="M0,-3.0v7 M-2.5,-0.5L0,-3.0L2.5,-0.5"/>
                </g>
                <g id="arrowLeft" xlink:href="#dirArrow" transform="rotate(270) translate(-36 17)" onmousedown="handlePan(-1,0)">
                  <use xlink:href="#rim" fill="#404040">
                        <set attributeName="fill" to="#808080" begin="arrowLeft.mouseover" end="arrowLeft.mouseout"/>
                  </use>
                  <path fill="none" stroke="white" stroke-width="1.5" d="M0,-3.0v7 M-2.5,-0.5L0,-3.0L2.5,-0.5"/>
                </g>
        </g>
        <svg viewBox="0 0 15 15" width="100%" height="30px" preserveAspectRatio="xMaxYMin meet">
         <g id="arrow_out" transform="scale(0.3 0.3)">
          <a xlink:href="LED_8h__dep__incl_org.svg" target="_base">
           <rect id="button" ry="5" rx="5" y="6" x="6" height="38" width="38"
                fill="#f2f5e9" fill-opacity="0.5" stroke="#606060" stroke-width="1.0"/>
           <path id="arrow"
             d="M 11.500037,31.436501 C 11.940474,20.09759 22.043105,11.32322 32.158766,21.979434 L 37.068811,17.246167 C 37.068811,17.246167 37.088388,32 37.088388,32 L 22.160133,31.978069 C 22.160133,31.978069 26.997745,27.140456 26.997745,27.140456 C 18.528582,18.264221 13.291696,25.230495 11.500037,31.436501 z"
             style="fill:#404040;"/>
          </a>
         </g>
        </svg>
</svg>
