<?xml version="1.0" encoding="UTF-8" standalone="no"?>
<!DOCTYPE svg PUBLIC "-//W3C//DTD SVG 1.1//EN"
 "http://www.w3.org/Graphics/SVG/1.1/DTD/svg11.dtd">
<!-- Generated by graphviz version 2.43.0 (0)
 -->
<!-- Title: include/LEDController.h Pages: 1 -->
<svg width="936pt" height="140pt"
 viewBox="0.00 0.00 936.00 140.00" xmlns="http://www.w3.org/2000/svg" xmlns:xlink="http://www.w3.org/1999/xlink">
<g id="graph0" class="graph" transform="scale(1 1) rotate(0) translate(4 136)">
<title>include/LEDController.h</title>
<polygon fill="white" stroke="transparent" points="-4,4 -4,-136 932,-136 932,4 -4,4"/>
<!-- Node1 -->
<g id="node1" class="node">
<title>Node1</title>
<g id="a_node1"><a xlink:title=" ">
<polygon fill="#bfbfbf" stroke="black" points="275,-112.5 275,-131.5 405,-131.5 405,-112.5 275,-112.5"/>
<text text-anchor="middle" x="340" y="-119.5" font-family="Helvetica,sans-Serif" font-size="10.00">include/LEDController.h</text>
</a>
</g>
</g>
<!-- Node2 -->
<g id="node2" class="node">
<title>Node2</title>
<g id="a_node2"><a xlink:href="LEDController_8cpp.xhtml" target="_top" xlink:title=" ">
<polygon fill="white" stroke="black" points="0,-56.5 0,-75.5 120,-75.5 120,-56.5 0,-56.5"/>
<text text-anchor="middle" x="60" y="-63.5" font-family="Helvetica,sans-Serif" font-size="10.00">src/LEDController.cpp</text>
</a>
</g>
</g>
<!-- Node1&#45;&gt;Node2 -->
<g id="edge1" class="edge">
<title>Node1&#45;&gt;Node2</title>
<path fill="none" stroke="midnightblue" d="M285.75,-110.54C232.83,-100.33 153.33,-85 104.16,-75.52"/>
<polygon fill="midnightblue" stroke="midnightblue" points="285.15,-113.99 295.63,-112.44 286.48,-107.11 285.15,-113.99"/>
</g>
<!-- Node3 -->
<g id="node3" class="node">
<title>Node3</title>
<g id="a_node3"><a xlink:href="main_8cpp.xhtml" target="_top" xlink:title=" ">
<polygon fill="white" stroke="black" points="331.5,-0.5 331.5,-19.5 410.5,-19.5 410.5,-0.5 331.5,-0.5"/>
<text text-anchor="middle" x="371" y="-7.5" font-family="Helvetica,sans-Serif" font-size="10.00">src/main.cpp</text>
</a>
</g>
</g>
<!-- Node1&#45;&gt;Node3 -->
<g id="edge2" class="edge">
<title>Node1&#45;&gt;Node3</title>
<path fill="none" stroke="midnightblue" d="M348.64,-103.05C352.26,-94.94 356.26,-85.14 359,-76 364.93,-56.21 368.45,-32.12 370.02,-19.55"/>
<polygon fill="midnightblue" stroke="midnightblue" points="345.4,-101.7 344.37,-112.25 351.75,-104.65 345.4,-101.7"/>
</g>
<!-- Node4 -->
<g id="node4" class="node">
<title>Node4</title>
<g id="a_node4"><a xlink:href="Mode0_8h.xhtml" target="_top" xlink:title=" ">
<polygon fill="white" stroke="black" points="138.5,-56.5 138.5,-75.5 235.5,-75.5 235.5,-56.5 138.5,-56.5"/>
<text text-anchor="middle" x="187" y="-63.5" font-family="Helvetica,sans-Serif" font-size="10.00">include/Mode0.h</text>
</a>
</g>
</g>
<!-- Node1&#45;&gt;Node4 -->
<g id="edge3" class="edge">
<title>Node1&#45;&gt;Node4</title>
<path fill="none" stroke="midnightblue" d="M306.11,-109.04C277.32,-98.88 236.71,-84.55 211.13,-75.52"/>
<polygon fill="midnightblue" stroke="midnightblue" points="305.16,-112.42 315.76,-112.44 307.49,-105.81 305.16,-112.42"/>
</g>
<!-- Node6 -->
<g id="node6" class="node">
<title>Node6</title>
<g id="a_node6"><a xlink:href="Mode1_8h.xhtml" target="_top" xlink:title=" ">
<polygon fill="white" stroke="black" points="253.5,-56.5 253.5,-75.5 350.5,-75.5 350.5,-56.5 253.5,-56.5"/>
<text text-anchor="middle" x="302" y="-63.5" font-family="Helvetica,sans-Serif" font-size="10.00">include/Mode1.h</text>
</a>
</g>
</g>
<!-- Node1&#45;&gt;Node6 -->
<g id="edge6" class="edge">
<title>Node1&#45;&gt;Node6</title>
<path fill="none" stroke="midnightblue" d="M327.94,-103.86C321.36,-94.5 313.49,-83.33 308.16,-75.75"/>
<polygon fill="midnightblue" stroke="midnightblue" points="325.11,-105.92 333.73,-112.08 330.83,-101.89 325.11,-105.92"/>
</g>
<!-- Node8 -->
<g id="node8" class="node">
<title>Node8</title>
<g id="a_node8"><a xlink:href="Mode2_8h.xhtml" target="_top" xlink:title=" ">
<polygon fill="white" stroke="black" points="407.5,-56.5 407.5,-75.5 504.5,-75.5 504.5,-56.5 407.5,-56.5"/>
<text text-anchor="middle" x="456" y="-63.5" font-family="Helvetica,sans-Serif" font-size="10.00">include/Mode2.h</text>
</a>
</g>
</g>
<!-- Node1&#45;&gt;Node8 -->
<g id="edge9" class="edge">
<title>Node1&#45;&gt;Node8</title>
<path fill="none" stroke="midnightblue" d="M367.72,-108.1C389.39,-98.01 418.9,-84.27 437.71,-75.52"/>
<polygon fill="midnightblue" stroke="midnightblue" points="365.97,-105.05 358.38,-112.44 368.92,-111.4 365.97,-105.05"/>
</g>
<!-- Node10 -->
<g id="node10" class="node">
<title>Node10</title>
<g id="a_node10"><a xlink:href="ModeSelector_8h.xhtml" target="_top" xlink:title=" ">
<polygon fill="white" stroke="black" points="531,-56.5 531,-75.5 661,-75.5 661,-56.5 531,-56.5"/>
<text text-anchor="middle" x="596" y="-63.5" font-family="Helvetica,sans-Serif" font-size="10.00">include/ModeSelector.h</text>
</a>
</g>
</g>
<!-- Node1&#45;&gt;Node10 -->
<g id="edge12" class="edge">
<title>Node1&#45;&gt;Node10</title>
<path fill="none" stroke="midnightblue" d="M390.51,-110.35C438.89,-100.14 510.95,-84.94 555.63,-75.52"/>
<polygon fill="midnightblue" stroke="midnightblue" points="389.63,-106.95 380.56,-112.44 391.07,-113.8 389.63,-106.95"/>
</g>
<!-- Node4&#45;&gt;Node3 -->
<g id="edge4" class="edge">
<title>Node4&#45;&gt;Node3</title>
<path fill="none" stroke="midnightblue" d="M225.95,-53.57C260.66,-43.38 310.68,-28.7 341.98,-19.52"/>
<polygon fill="midnightblue" stroke="midnightblue" points="224.77,-50.27 216.16,-56.44 226.74,-56.99 224.77,-50.27"/>
</g>
<!-- Node5 -->
<g id="node5" class="node">
<title>Node5</title>
<g id="a_node5"><a xlink:href="Mode0_8cpp.xhtml" target="_top" xlink:title=" ">
<polygon fill="white" stroke="black" points="121.5,-0.5 121.5,-19.5 208.5,-19.5 208.5,-0.5 121.5,-0.5"/>
<text text-anchor="middle" x="165" y="-7.5" font-family="Helvetica,sans-Serif" font-size="10.00">src/Mode0.cpp</text>
</a>
</g>
</g>
<!-- Node4&#45;&gt;Node5 -->
<g id="edge5" class="edge">
<title>Node4&#45;&gt;Node5</title>
<path fill="none" stroke="midnightblue" d="M179.54,-46.69C175.83,-37.59 171.52,-27.01 168.57,-19.75"/>
<polygon fill="midnightblue" stroke="midnightblue" points="176.35,-48.14 183.37,-56.08 182.84,-45.5 176.35,-48.14"/>
</g>
<!-- Node6&#45;&gt;Node3 -->
<g id="edge7" class="edge">
<title>Node6&#45;&gt;Node3</title>
<path fill="none" stroke="midnightblue" d="M321.04,-50.1C333.46,-40.38 349.24,-28.03 359.71,-19.83"/>
<polygon fill="midnightblue" stroke="midnightblue" points="318.8,-47.4 313.09,-56.32 323.12,-52.92 318.8,-47.4"/>
</g>
<!-- Node7 -->
<g id="node7" class="node">
<title>Node7</title>
<g id="a_node7"><a xlink:href="Mode1_8cpp.xhtml" target="_top" xlink:title=" ">
<polygon fill="white" stroke="black" points="226.5,-0.5 226.5,-19.5 313.5,-19.5 313.5,-0.5 226.5,-0.5"/>
<text text-anchor="middle" x="270" y="-7.5" font-family="Helvetica,sans-Serif" font-size="10.00">src/Mode1.cpp</text>
</a>
</g>
</g>
<!-- Node6&#45;&gt;Node7 -->
<g id="edge8" class="edge">
<title>Node6&#45;&gt;Node7</title>
<path fill="none" stroke="midnightblue" d="M291.5,-47.27C286.03,-38.05 279.58,-27.17 275.19,-19.75"/>
<polygon fill="midnightblue" stroke="midnightblue" points="288.61,-49.26 296.72,-56.08 294.63,-45.7 288.61,-49.26"/>
</g>
<!-- Node8&#45;&gt;Node3 -->
<g id="edge10" class="edge">
<title>Node8&#45;&gt;Node3</title>
<path fill="none" stroke="midnightblue" d="M433.81,-50.9C418.22,-41 397.87,-28.07 384.62,-19.65"/>
<polygon fill="midnightblue" stroke="midnightblue" points="432.03,-53.92 442.34,-56.32 435.78,-48.01 432.03,-53.92"/>
</g>
<!-- Node9 -->
<g id="node9" class="node">
<title>Node9</title>
<g id="a_node9"><a xlink:href="Mode2_8cpp.xhtml" target="_top" xlink:title=" ">
<polygon fill="white" stroke="black" points="428.5,-0.5 428.5,-19.5 515.5,-19.5 515.5,-0.5 428.5,-0.5"/>
<text text-anchor="middle" x="472" y="-7.5" font-family="Helvetica,sans-Serif" font-size="10.00">src/Mode2.cpp</text>
</a>
</g>
</g>
<!-- Node8&#45;&gt;Node9 -->
<g id="edge11" class="edge">
<title>Node8&#45;&gt;Node9</title>
<path fill="none" stroke="midnightblue" d="M461.51,-46.4C464.19,-37.36 467.28,-26.94 469.41,-19.75"/>
<polygon fill="midnightblue" stroke="midnightblue" points="458.13,-45.5 458.64,-56.08 464.84,-47.49 458.13,-45.5"/>
</g>
<!-- Node10&#45;&gt;Node3 -->
<g id="edge14" class="edge">
<title>Node10&#45;&gt;Node3</title>
<path fill="none" stroke="midnightblue" d="M550.53,-54.09C508.03,-43.89 445.42,-28.86 406.49,-19.52"/>
<polygon fill="midnightblue" stroke="midnightblue" points="549.81,-57.51 560.35,-56.44 551.44,-50.71 549.81,-57.51"/>
</g>
<!-- Node11 -->
<g id="node11" class="node">
<title>Node11</title>
<g id="a_node11"><a xlink:href="EurorackClock_8cpp.xhtml" target="_top" xlink:title=" ">
<polygon fill="white" stroke="black" points="534,-0.5 534,-19.5 658,-19.5 658,-0.5 534,-0.5"/>
<text text-anchor="middle" x="596" y="-7.5" font-family="Helvetica,sans-Serif" font-size="10.00">src/EurorackClock.cpp</text>
</a>
</g>
</g>
<!-- Node10&#45;&gt;Node11 -->
<g id="edge13" class="edge">
<title>Node10&#45;&gt;Node11</title>
<path fill="none" stroke="midnightblue" d="M596,-45.8C596,-36.91 596,-26.78 596,-19.75"/>
<polygon fill="midnightblue" stroke="midnightblue" points="592.5,-46.08 596,-56.08 599.5,-46.08 592.5,-46.08"/>
</g>
<!-- Node12 -->
<g id="node12" class="node">
<title>Node12</title>
<g id="a_node12"><a xlink:href="MIDIHandler_8cpp.xhtml" target="_top" xlink:title=" ">
<polygon fill="white" stroke="black" points="676,-0.5 676,-19.5 790,-19.5 790,-0.5 676,-0.5"/>
<text text-anchor="middle" x="733" y="-7.5" font-family="Helvetica,sans-Serif" font-size="10.00">src/MIDIHandler.cpp</text>
</a>
</g>
</g>
<!-- Node10&#45;&gt;Node12 -->
<g id="edge15" class="edge">
<title>Node10&#45;&gt;Node12</title>
<path fill="none" stroke="midnightblue" d="M627.02,-52.77C652.76,-42.63 688.69,-28.47 711.39,-19.52"/>
<polygon fill="midnightblue" stroke="midnightblue" points="625.73,-49.52 617.71,-56.44 628.29,-56.03 625.73,-49.52"/>
</g>
<!-- Node13 -->
<g id="node13" class="node">
<title>Node13</title>
<g id="a_node13"><a xlink:href="ModeSelector_8cpp.xhtml" target="_top" xlink:title=" ">
<polygon fill="white" stroke="black" points="808,-0.5 808,-19.5 928,-19.5 928,-0.5 808,-0.5"/>
<text text-anchor="middle" x="868" y="-7.5" font-family="Helvetica,sans-Serif" font-size="10.00">src/ModeSelector.cpp</text>
</a>
</g>
</g>
<!-- Node10&#45;&gt;Node13 -->
<g id="edge16" class="edge">
<title>Node10&#45;&gt;Node13</title>
<path fill="none" stroke="midnightblue" d="M649.02,-54.47C700.43,-44.27 777.44,-28.98 825.1,-19.52"/>
<polygon fill="midnightblue" stroke="midnightblue" points="648.23,-51.06 639.1,-56.44 649.59,-57.93 648.23,-51.06"/>
</g>
</g>
</svg>
