<?xml version="1.0" encoding="UTF-8" standalone="no"?>
<!DOCTYPE svg PUBLIC "-//W3C//DTD SVG 1.1//EN"
 "http://www.w3.org/Graphics/SVG/1.1/DTD/svg11.dtd">
<!-- Generated by graphviz version 2.43.0 (0)
 -->
<!-- Title: src/LEDController.cpp Pages: 1 -->
<svg width="128pt" height="252pt"
 viewBox="0.00 0.00 128.00 252.00" xmlns="http://www.w3.org/2000/svg" xmlns:xlink="http://www.w3.org/1999/xlink">
<g id="graph0" class="graph" transform="scale(1 1) rotate(0) translate(4 248)">
<title>src/LEDController.cpp</title>
<polygon fill="white" stroke="transparent" points="-4,4 -4,-248 124,-248 124,4 -4,4"/>
<!-- Node1 -->
<g id="node1" class="node">
<title>Node1</title>
<g id="a_node1"><a xlink:title=" ">
<polygon fill="#bfbfbf" stroke="black" points="0,-224.5 0,-243.5 120,-243.5 120,-224.5 0,-224.5"/>
<text text-anchor="middle" x="60" y="-231.5" font-family="Helvetica,sans-Serif" font-size="10.00">src/LEDController.cpp</text>
</a>
</g>
</g>
<!-- Node2 -->
<g id="node2" class="node">
<title>Node2</title>
<g id="a_node2"><a xlink:href="LEDController_8h.xhtml" target="_top" xlink:title=" ">
<polygon fill="white" stroke="black" points="14,-168.5 14,-187.5 106,-187.5 106,-168.5 14,-168.5"/>
<text text-anchor="middle" x="60" y="-175.5" font-family="Helvetica,sans-Serif" font-size="10.00">LEDController.h</text>
</a>
</g>
</g>
<!-- Node1&#45;&gt;Node2 -->
<g id="edge1" class="edge">
<title>Node1&#45;&gt;Node2</title>
<path fill="none" stroke="midnightblue" d="M60,-224.08C60,-217.01 60,-206.86 60,-197.99"/>
<polygon fill="midnightblue" stroke="midnightblue" points="63.5,-197.75 60,-187.75 56.5,-197.75 63.5,-197.75"/>
</g>
<!-- Node3 -->
<g id="node3" class="node">
<title>Node3</title>
<g id="a_node3"><a xlink:href="LEDs_8h.xhtml" target="_top" xlink:title=" ">
<polygon fill="white" stroke="black" points="35,-112.5 35,-131.5 85,-131.5 85,-112.5 35,-112.5"/>
<text text-anchor="middle" x="60" y="-119.5" font-family="Helvetica,sans-Serif" font-size="10.00">LEDs.h</text>
</a>
</g>
</g>
<!-- Node2&#45;&gt;Node3 -->
<g id="edge2" class="edge">
<title>Node2&#45;&gt;Node3</title>
<path fill="none" stroke="midnightblue" d="M60,-168.08C60,-161.01 60,-150.86 60,-141.99"/>
<polygon fill="midnightblue" stroke="midnightblue" points="63.5,-141.75 60,-131.75 56.5,-141.75 63.5,-141.75"/>
</g>
<!-- Node4 -->
<g id="node4" class="node">
<title>Node4</title>
<g id="a_node4"><a xlink:href="LED_8h.xhtml" target="_top" xlink:title=" ">
<polygon fill="white" stroke="black" points="6,-56.5 6,-75.5 50,-75.5 50,-56.5 6,-56.5"/>
<text text-anchor="middle" x="28" y="-63.5" font-family="Helvetica,sans-Serif" font-size="10.00">LED.h</text>
</a>
</g>
</g>
<!-- Node3&#45;&gt;Node4 -->
<g id="edge3" class="edge">
<title>Node3&#45;&gt;Node4</title>
<path fill="none" stroke="midnightblue" d="M54.72,-112.08C50.29,-104.61 43.84,-93.72 38.38,-84.52"/>
<polygon fill="midnightblue" stroke="midnightblue" points="41.29,-82.57 33.19,-75.75 35.27,-86.14 41.29,-82.57"/>
</g>
<!-- Node6 -->
<g id="node6" class="node">
<title>Node6</title>
<g id="a_node6"><a xlink:title=" ">
<polygon fill="white" stroke="#bfbfbf" points="68.5,-56.5 68.5,-75.5 115.5,-75.5 115.5,-56.5 68.5,-56.5"/>
<text text-anchor="middle" x="92" y="-63.5" font-family="Helvetica,sans-Serif" font-size="10.00">vector</text>
</a>
</g>
</g>
<!-- Node3&#45;&gt;Node6 -->
<g id="edge5" class="edge">
<title>Node3&#45;&gt;Node6</title>
<path fill="none" stroke="midnightblue" d="M65.28,-112.08C69.71,-104.61 76.16,-93.72 81.62,-84.52"/>
<polygon fill="midnightblue" stroke="midnightblue" points="84.73,-86.14 86.81,-75.75 78.71,-82.57 84.73,-86.14"/>
</g>
<!-- Node5 -->
<g id="node5" class="node">
<title>Node5</title>
<g id="a_node5"><a xlink:href="Pin_8h.xhtml" target="_top" xlink:title=" ">
<polygon fill="white" stroke="black" points="7.5,-0.5 7.5,-19.5 48.5,-19.5 48.5,-0.5 7.5,-0.5"/>
<text text-anchor="middle" x="28" y="-7.5" font-family="Helvetica,sans-Serif" font-size="10.00">Pin.h</text>
</a>
</g>
</g>
<!-- Node4&#45;&gt;Node5 -->
<g id="edge4" class="edge">
<title>Node4&#45;&gt;Node5</title>
<path fill="none" stroke="midnightblue" d="M28,-56.08C28,-49.01 28,-38.86 28,-29.99"/>
<polygon fill="midnightblue" stroke="midnightblue" points="31.5,-29.75 28,-19.75 24.5,-29.75 31.5,-29.75"/>
</g>
</g>
</svg>
