<?xml version="1.0" encoding="UTF-8" standalone="no"?>
<!DOCTYPE svg PUBLIC "-//W3C//DTD SVG 1.1//EN"
 "http://www.w3.org/Graphics/SVG/1.1/DTD/svg11.dtd">
<!-- Generated by graphviz version 2.43.0 (0)
 -->
<!-- Title: include/LEDs.h Pages: 1 -->
<!--zoomable 308 -->
<svg id="main" version="1.1" xmlns="http://www.w3.org/2000/svg" xmlns:xlink="http://www.w3.org/1999/xlink" xml:space="preserve" onload="init(evt)">
<style type="text/css"><![CDATA[
.edge:hover path { stroke: red; }
.edge:hover polygon { stroke: red; fill: red; }
]]></style>
<script type="text/javascript"><![CDATA[
var edges = document.getElementsByTagName('g');
if (edges && edges.length) {
  for (var i=0;i<edges.length;i++) {
    if (edges[i].id.substr(0,4)=='edge') {
      edges[i].setAttribute('class','edge');
    }
  }
}
]]></script>
        <defs>
                <circle id="rim" cx="0" cy="0" r="7"/>
                <circle id="rim2" cx="0" cy="0" r="3.5"/>
                <g id="zoomPlus">
                        <use xlink:href="#rim" fill="#404040">
                                <set attributeName="fill" to="#808080" begin="zoomplus.mouseover" end="zoomplus.mouseout"/>
                        </use>
                        <path d="M-4,0h8M0,-4v8" fill="none" stroke="white" stroke-width="1.5" pointer-events="none"/>
                </g>
                <g id="zoomMin">
                        <use xlink:href="#rim" fill="#404040">
                                <set attributeName="fill" to="#808080" begin="zoomminus.mouseover" end="zoomminus.mouseout"/>
                        </use>
                        <path d="M-4,0h8" fill="none" stroke="white" stroke-width="1.5" pointer-events="none"/>
                </g>
                <g id="dirArrow">
                        <path fill="none" stroke="white" stroke-width="1.5" d="M0,-3.0v7 M-2.5,-0.5L0,-3.0L2.5,-0.5"/>
                </g>
               <g id="resetDef">
                       <use xlink:href="#rim2" fill="#404040">
                               <set attributeName="fill" to="#808080" begin="reset.mouseover" end="reset.mouseout"/>
                       </use>
               </g>
        </defs>

<script type="text/javascript">
var viewWidth = 1028;
var viewHeight = 308;
var sectionId = 'dynsection-1';
</script>
<script xlink:href="svgpan.js"/>
<svg id="graph" class="graph">
<g id="viewport">
<title>include/LEDs.h</title>
<polygon fill="white" stroke="transparent" points="-4,4 -4,-304 1024,-304 1024,4 -4,4"/>
<!-- Node1 -->
<g id="node1" class="node">
<title>Node1</title>
<g id="a_node1"><a xlink:title=" ">
<polygon fill="#bfbfbf" stroke="black" points="252,-280.5 252,-299.5 340,-299.5 340,-280.5 252,-280.5"/>
<text text-anchor="middle" x="296" y="-287.5" font-family="Helvetica,sans-Serif" font-size="10.00">include/LEDs.h</text>
</a>
</g>
</g>
<!-- Node2 -->
<g id="node2" class="node">
<title>Node2</title>
<g id="a_node2"><a xlink:href="LEDs_8cpp.xhtml" target="_top" xlink:title=" ">
<polygon fill="white" stroke="black" points="0,-224.5 0,-243.5 78,-243.5 78,-224.5 0,-224.5"/>
<text text-anchor="middle" x="39" y="-231.5" font-family="Helvetica,sans-Serif" font-size="10.00">src/LEDs.cpp</text>
</a>
</g>
</g>
<!-- Node1&#45;&gt;Node2 -->
<g id="edge1" class="edge">
<title>Node1&#45;&gt;Node2</title>
<path fill="none" stroke="midnightblue" d="M245.2,-278.33C196.17,-268.02 122.98,-252.65 78.27,-243.25"/>
<polygon fill="midnightblue" stroke="midnightblue" points="244.77,-281.81 255.28,-280.44 246.21,-274.96 244.77,-281.81"/>
</g>
<!-- Node3 -->
<g id="node3" class="node">
<title>Node3</title>
<g id="a_node3"><a xlink:href="main_8cpp.xhtml" target="_top" xlink:title=" ">
<polygon fill="white" stroke="black" points="283.5,-0.5 283.5,-19.5 362.5,-19.5 362.5,-0.5 283.5,-0.5"/>
<text text-anchor="middle" x="323" y="-7.5" font-family="Helvetica,sans-Serif" font-size="10.00">src/main.cpp</text>
</a>
</g>
</g>
<!-- Node1&#45;&gt;Node3 -->
<g id="edge2" class="edge">
<title>Node1&#45;&gt;Node3</title>
<path fill="none" stroke="midnightblue" d="M242.09,-281.24C185.92,-269.75 106,-242.28 106,-179 106,-179 106,-179 106,-121 106,-87.76 116.52,-76.09 143,-56 164.88,-39.4 237.46,-24.95 283.5,-17.15"/>
<polygon fill="midnightblue" stroke="midnightblue" points="241.45,-284.68 251.93,-283.14 242.78,-277.81 241.45,-284.68"/>
</g>
<!-- Node4 -->
<g id="node4" class="node">
<title>Node4</title>
<g id="a_node4"><a xlink:href="EurorackClock_8h.xhtml" target="_top" xlink:title=" ">
<polygon fill="white" stroke="black" points="172,-168.5 172,-187.5 306,-187.5 306,-168.5 172,-168.5"/>
<text text-anchor="middle" x="239" y="-175.5" font-family="Helvetica,sans-Serif" font-size="10.00">include/EurorackClock.h</text>
</a>
</g>
</g>
<!-- Node1&#45;&gt;Node4 -->
<g id="edge3" class="edge">
<title>Node1&#45;&gt;Node4</title>
<path fill="none" stroke="midnightblue" d="M286.84,-271.32C274.43,-247.37 252.76,-205.55 243.45,-187.59"/>
<polygon fill="midnightblue" stroke="midnightblue" points="283.82,-273.1 291.53,-280.37 290.03,-269.88 283.82,-273.1"/>
</g>
<!-- Node6 -->
<g id="node6" class="node">
<title>Node6</title>
<g id="a_node6"><a xlink:href="MIDIHandler_8h.xhtml" target="_top" xlink:title=" ">
<polygon fill="white" stroke="black" points="400,-112.5 400,-131.5 524,-131.5 524,-112.5 400,-112.5"/>
<text text-anchor="middle" x="462" y="-119.5" font-family="Helvetica,sans-Serif" font-size="10.00">include/MIDIHandler.h</text>
</a>
</g>
</g>
<!-- Node1&#45;&gt;Node6 -->
<g id="edge38" class="edge">
<title>Node1&#45;&gt;Node6</title>
<path fill="none" stroke="midnightblue" d="M349.98,-280.72C401.46,-269.57 475.9,-244.2 509,-188 521.51,-166.76 494.25,-143.82 476.24,-131.68"/>
<polygon fill="midnightblue" stroke="midnightblue" points="349.1,-277.32 340.01,-282.76 350.51,-284.18 349.1,-277.32"/>
</g>
<!-- Node14 -->
<g id="node14" class="node">
<title>Node14</title>
<g id="a_node14"><a xlink:href="Gates_8h.xhtml" target="_top" xlink:title=" ">
<polygon fill="white" stroke="black" points="307,-224.5 307,-243.5 399,-243.5 399,-224.5 307,-224.5"/>
<text text-anchor="middle" x="353" y="-231.5" font-family="Helvetica,sans-Serif" font-size="10.00">include/Gates.h</text>
</a>
</g>
</g>
<!-- Node1&#45;&gt;Node14 -->
<g id="edge19" class="edge">
<title>Node1&#45;&gt;Node14</title>
<path fill="none" stroke="midnightblue" d="M312.62,-273.25C322.73,-263.67 335.28,-251.79 343.68,-243.83"/>
<polygon fill="midnightblue" stroke="midnightblue" points="310.01,-270.91 305.16,-280.32 314.82,-275.99 310.01,-270.91"/>
</g>
<!-- Node16 -->
<g id="node16" class="node">
<title>Node16</title>
<g id="a_node16"><a xlink:href="LEDController_8h.xhtml" target="_top" xlink:title=" ">
<polygon fill="white" stroke="black" points="580,-112.5 580,-131.5 710,-131.5 710,-112.5 580,-112.5"/>
<text text-anchor="middle" x="645" y="-119.5" font-family="Helvetica,sans-Serif" font-size="10.00">include/LEDController.h</text>
</a>
</g>
</g>
<!-- Node1&#45;&gt;Node16 -->
<g id="edge27" class="edge">
<title>Node1&#45;&gt;Node16</title>
<path fill="none" stroke="midnightblue" d="M350.37,-281.19C387.54,-274.52 437.25,-262.92 478,-244 544.57,-213.09 611.61,-154.09 635.68,-131.81"/>
<polygon fill="midnightblue" stroke="midnightblue" points="349.5,-277.79 340.24,-282.95 350.69,-284.69 349.5,-277.79"/>
</g>
<!-- Node4&#45;&gt;Node3 -->
<g id="edge5" class="edge">
<title>Node4&#45;&gt;Node3</title>
<path fill="none" stroke="midnightblue" d="M248.18,-158.86C266.2,-123.25 305.57,-45.45 318.66,-19.57"/>
<polygon fill="midnightblue" stroke="midnightblue" points="244.91,-157.57 243.52,-168.08 251.15,-160.73 244.91,-157.57"/>
</g>
<!-- Node5 -->
<g id="node5" class="node">
<title>Node5</title>
<g id="a_node5"><a xlink:href="EurorackClock_8cpp.xhtml" target="_top" xlink:title=" ">
<polygon fill="white" stroke="black" points="896,-0.5 896,-19.5 1020,-19.5 1020,-0.5 896,-0.5"/>
<text text-anchor="middle" x="958" y="-7.5" font-family="Helvetica,sans-Serif" font-size="10.00">src/EurorackClock.cpp</text>
</a>
</g>
</g>
<!-- Node4&#45;&gt;Node5 -->
<g id="edge4" class="edge">
<title>Node4&#45;&gt;Node5</title>
<path fill="none" stroke="midnightblue" d="M316.28,-172.19C495.39,-160.23 926.7,-126.41 967,-76 980.09,-59.63 969.71,-33.21 962.84,-19.65"/>
<polygon fill="midnightblue" stroke="midnightblue" points="315.89,-168.71 306.14,-172.86 316.35,-175.69 315.89,-168.71"/>
</g>
<!-- Node4&#45;&gt;Node6 -->
<g id="edge6" class="edge">
<title>Node4&#45;&gt;Node6</title>
<path fill="none" stroke="midnightblue" d="M284.06,-166.09C326.19,-155.89 388.24,-140.86 426.83,-131.52"/>
<polygon fill="midnightblue" stroke="midnightblue" points="283.23,-162.69 274.34,-168.44 284.88,-169.49 283.23,-162.69"/>
</g>
<!-- Node8 -->
<g id="node8" class="node">
<title>Node8</title>
<g id="a_node8"><a xlink:href="Mode0_8h.xhtml" target="_top" xlink:title=" ">
<polygon fill="white" stroke="black" points="152.5,-56.5 152.5,-75.5 249.5,-75.5 249.5,-56.5 152.5,-56.5"/>
<text text-anchor="middle" x="201" y="-63.5" font-family="Helvetica,sans-Serif" font-size="10.00">include/Mode0.h</text>
</a>
</g>
</g>
<!-- Node4&#45;&gt;Node8 -->
<g id="edge18" class="edge">
<title>Node4&#45;&gt;Node8</title>
<path fill="none" stroke="midnightblue" d="M232.67,-158.67C224.36,-134.62 210.12,-93.39 203.97,-75.59"/>
<polygon fill="midnightblue" stroke="midnightblue" points="229.44,-160.06 236.02,-168.37 236.06,-157.77 229.44,-160.06"/>
</g>
<!-- Node6&#45;&gt;Node3 -->
<g id="edge7" class="edge">
<title>Node6&#45;&gt;Node3</title>
<path fill="none" stroke="midnightblue" d="M429.41,-108.4C411.88,-100.66 390.54,-89.62 374,-76 353.63,-59.22 336.2,-32.98 328,-19.55"/>
<polygon fill="midnightblue" stroke="midnightblue" points="428.12,-111.66 438.69,-112.35 430.86,-105.22 428.12,-111.66"/>
</g>
<!-- Node7 -->
<g id="node7" class="node">
<title>Node7</title>
<g id="a_node7"><a xlink:href="MIDIHandler_8cpp.xhtml" target="_top" xlink:title=" ">
<polygon fill="white" stroke="black" points="486,-0.5 486,-19.5 600,-19.5 600,-0.5 486,-0.5"/>
<text text-anchor="middle" x="543" y="-7.5" font-family="Helvetica,sans-Serif" font-size="10.00">src/MIDIHandler.cpp</text>
</a>
</g>
</g>
<!-- Node6&#45;&gt;Node7 -->
<g id="edge8" class="edge">
<title>Node6&#45;&gt;Node7</title>
<path fill="none" stroke="midnightblue" d="M474.32,-104.27C491.83,-80.49 523.27,-37.79 536.67,-19.59"/>
<polygon fill="midnightblue" stroke="midnightblue" points="471.47,-102.24 468.36,-112.37 477.1,-106.39 471.47,-102.24"/>
</g>
<!-- Node6&#45;&gt;Node8 -->
<g id="edge9" class="edge">
<title>Node6&#45;&gt;Node8</title>
<path fill="none" stroke="midnightblue" d="M410.81,-110.41C361.49,-100.2 287.81,-84.96 242.16,-75.52"/>
<polygon fill="midnightblue" stroke="midnightblue" points="410.14,-113.84 420.64,-112.44 411.56,-106.99 410.14,-113.84"/>
</g>
<!-- Node10 -->
<g id="node10" class="node">
<title>Node10</title>
<g id="a_node10"><a xlink:href="Mode1_8h.xhtml" target="_top" xlink:title=" ">
<polygon fill="white" stroke="black" points="536.5,-56.5 536.5,-75.5 633.5,-75.5 633.5,-56.5 536.5,-56.5"/>
<text text-anchor="middle" x="585" y="-63.5" font-family="Helvetica,sans-Serif" font-size="10.00">include/Mode1.h</text>
</a>
</g>
</g>
<!-- Node6&#45;&gt;Node10 -->
<g id="edge12" class="edge">
<title>Node6&#45;&gt;Node10</title>
<path fill="none" stroke="midnightblue" d="M490.77,-108.37C513.81,-98.26 545.48,-84.35 565.6,-75.52"/>
<polygon fill="midnightblue" stroke="midnightblue" points="489.24,-105.22 481.49,-112.44 492.05,-111.63 489.24,-105.22"/>
</g>
<!-- Node12 -->
<g id="node12" class="node">
<title>Node12</title>
<g id="a_node12"><a xlink:href="Mode2_8h.xhtml" target="_top" xlink:title=" ">
<polygon fill="white" stroke="black" points="382.5,-56.5 382.5,-75.5 479.5,-75.5 479.5,-56.5 382.5,-56.5"/>
<text text-anchor="middle" x="431" y="-63.5" font-family="Helvetica,sans-Serif" font-size="10.00">include/Mode2.h</text>
</a>
</g>
</g>
<!-- Node6&#45;&gt;Node12 -->
<g id="edge15" class="edge">
<title>Node6&#45;&gt;Node12</title>
<path fill="none" stroke="midnightblue" d="M451.82,-103.27C446.53,-94.05 440.28,-83.17 436.02,-75.75"/>
<polygon fill="midnightblue" stroke="midnightblue" points="448.87,-105.15 456.88,-112.08 454.94,-101.67 448.87,-105.15"/>
</g>
<!-- Node8&#45;&gt;Node3 -->
<g id="edge10" class="edge">
<title>Node8&#45;&gt;Node3</title>
<path fill="none" stroke="midnightblue" d="M229.54,-52.37C252.39,-42.26 283.81,-28.35 303.76,-19.52"/>
<polygon fill="midnightblue" stroke="midnightblue" points="228.06,-49.2 220.33,-56.44 230.89,-55.6 228.06,-49.2"/>
</g>
<!-- Node9 -->
<g id="node9" class="node">
<title>Node9</title>
<g id="a_node9"><a xlink:href="Mode0_8cpp.xhtml" target="_top" xlink:title=" ">
<polygon fill="white" stroke="black" points="157.5,-0.5 157.5,-19.5 244.5,-19.5 244.5,-0.5 157.5,-0.5"/>
<text text-anchor="middle" x="201" y="-7.5" font-family="Helvetica,sans-Serif" font-size="10.00">src/Mode0.cpp</text>
</a>
</g>
</g>
<!-- Node8&#45;&gt;Node9 -->
<g id="edge11" class="edge">
<title>Node8&#45;&gt;Node9</title>
<path fill="none" stroke="midnightblue" d="M201,-45.8C201,-36.91 201,-26.78 201,-19.75"/>
<polygon fill="midnightblue" stroke="midnightblue" points="197.5,-46.08 201,-56.08 204.5,-46.08 197.5,-46.08"/>
</g>
<!-- Node10&#45;&gt;Node3 -->
<g id="edge13" class="edge">
<title>Node10&#45;&gt;Node3</title>
<path fill="none" stroke="midnightblue" d="M533.5,-54.38C483.36,-44.05 408.24,-28.57 362.61,-19.16"/>
<polygon fill="midnightblue" stroke="midnightblue" points="532.98,-57.85 543.49,-56.44 534.4,-51 532.98,-57.85"/>
</g>
<!-- Node11 -->
<g id="node11" class="node">
<title>Node11</title>
<g id="a_node11"><a xlink:href="Mode1_8cpp.xhtml" target="_top" xlink:title=" ">
<polygon fill="white" stroke="black" points="618.5,-0.5 618.5,-19.5 705.5,-19.5 705.5,-0.5 618.5,-0.5"/>
<text text-anchor="middle" x="662" y="-7.5" font-family="Helvetica,sans-Serif" font-size="10.00">src/Mode1.cpp</text>
</a>
</g>
</g>
<!-- Node10&#45;&gt;Node11 -->
<g id="edge14" class="edge">
<title>Node10&#45;&gt;Node11</title>
<path fill="none" stroke="midnightblue" d="M605.9,-50.34C619.91,-40.52 637.88,-27.91 649.66,-19.65"/>
<polygon fill="midnightblue" stroke="midnightblue" points="603.55,-47.72 597.37,-56.32 607.57,-53.45 603.55,-47.72"/>
</g>
<!-- Node12&#45;&gt;Node3 -->
<g id="edge16" class="edge">
<title>Node12&#45;&gt;Node3</title>
<path fill="none" stroke="midnightblue" d="M404.45,-51.73C384.45,-41.73 357.61,-28.31 340.31,-19.65"/>
<polygon fill="midnightblue" stroke="midnightblue" points="403.14,-54.98 413.65,-56.32 406.27,-48.72 403.14,-54.98"/>
</g>
<!-- Node13 -->
<g id="node13" class="node">
<title>Node13</title>
<g id="a_node13"><a xlink:href="Mode2_8cpp.xhtml" target="_top" xlink:title=" ">
<polygon fill="white" stroke="black" points="380.5,-0.5 380.5,-19.5 467.5,-19.5 467.5,-0.5 380.5,-0.5"/>
<text text-anchor="middle" x="424" y="-7.5" font-family="Helvetica,sans-Serif" font-size="10.00">src/Mode2.cpp</text>
</a>
</g>
</g>
<!-- Node12&#45;&gt;Node13 -->
<g id="edge17" class="edge">
<title>Node12&#45;&gt;Node13</title>
<path fill="none" stroke="midnightblue" d="M428.55,-46.1C427.39,-37.14 426.06,-26.86 425.13,-19.75"/>
<polygon fill="midnightblue" stroke="midnightblue" points="425.09,-46.62 429.84,-56.08 432.03,-45.72 425.09,-46.62"/>
</g>
<!-- Node14&#45;&gt;Node3 -->
<g id="edge21" class="edge">
<title>Node14&#45;&gt;Node3</title>
<path fill="none" stroke="midnightblue" d="M350.47,-214.3C344.3,-168.64 328.66,-52.85 324.2,-19.88"/>
<polygon fill="midnightblue" stroke="midnightblue" points="347.02,-214.86 351.82,-224.3 353.95,-213.92 347.02,-214.86"/>
</g>
<!-- Node14&#45;&gt;Node4 -->
<g id="edge22" class="edge">
<title>Node14&#45;&gt;Node4</title>
<path fill="none" stroke="midnightblue" d="M325.76,-220.1C304.46,-210.01 275.46,-196.27 256.98,-187.52"/>
<polygon fill="midnightblue" stroke="midnightblue" points="324.4,-223.33 334.94,-224.44 327.4,-217 324.4,-223.33"/>
</g>
<!-- Node14&#45;&gt;Node6 -->
<g id="edge23" class="edge">
<title>Node14&#45;&gt;Node6</title>
<path fill="none" stroke="midnightblue" d="M409.18,-230.21C439.23,-225.5 473.88,-214.23 493,-188 506.4,-169.61 485.08,-144.52 471.63,-131.54"/>
<polygon fill="midnightblue" stroke="midnightblue" points="408.63,-226.75 399.2,-231.57 409.58,-233.69 408.63,-226.75"/>
</g>
<!-- Node14&#45;&gt;Node8 -->
<g id="edge24" class="edge">
<title>Node14&#45;&gt;Node8</title>
<path fill="none" stroke="midnightblue" d="M296.86,-227.34C246.97,-221.02 179.48,-208.83 163,-188 135.14,-152.77 175.81,-96.85 193.48,-75.59"/>
<polygon fill="midnightblue" stroke="midnightblue" points="296.54,-230.83 306.89,-228.57 297.39,-223.88 296.54,-230.83"/>
</g>
<!-- Node14&#45;&gt;Node10 -->
<g id="edge25" class="edge">
<title>Node14&#45;&gt;Node10</title>
<path fill="none" stroke="midnightblue" d="M409.28,-226.8C441.1,-220.98 480.15,-209.73 509,-188 549.82,-157.26 574.16,-97.64 582.11,-75.53"/>
<polygon fill="midnightblue" stroke="midnightblue" points="408.51,-223.38 399.23,-228.5 409.68,-230.28 408.51,-223.38"/>
</g>
<!-- Node14&#45;&gt;Node12 -->
<g id="edge26" class="edge">
<title>Node14&#45;&gt;Node12</title>
<path fill="none" stroke="midnightblue" d="M356.35,-214.13C361.3,-189.45 372.07,-145.41 391,-112 399.04,-97.81 412.13,-84.21 421.14,-75.74"/>
<polygon fill="midnightblue" stroke="midnightblue" points="352.85,-213.81 354.43,-224.29 359.73,-215.11 352.85,-213.81"/>
</g>
<!-- Node15 -->
<g id="node15" class="node">
<title>Node15</title>
<g id="a_node15"><a xlink:href="Gates_8cpp.xhtml" target="_top" xlink:title=" ">
<polygon fill="white" stroke="black" points="400.5,-168.5 400.5,-187.5 483.5,-187.5 483.5,-168.5 400.5,-168.5"/>
<text text-anchor="middle" x="442" y="-175.5" font-family="Helvetica,sans-Serif" font-size="10.00">src/Gates.cpp</text>
</a>
</g>
</g>
<!-- Node14&#45;&gt;Node15 -->
<g id="edge20" class="edge">
<title>Node14&#45;&gt;Node15</title>
<path fill="none" stroke="midnightblue" d="M376.24,-218.9C392.56,-209 413.87,-196.07 427.74,-187.65"/>
<polygon fill="midnightblue" stroke="midnightblue" points="374.03,-216.14 367.3,-224.32 377.66,-222.13 374.03,-216.14"/>
</g>
<!-- Node16&#45;&gt;Node3 -->
<g id="edge29" class="edge">
<title>Node16&#45;&gt;Node3</title>
<path fill="none" stroke="midnightblue" d="M650.3,-102.27C653.14,-87.82 654.1,-68.28 643,-56 602.11,-10.77 431.21,-29.62 371,-20 368.24,-19.56 365.39,-19.08 362.52,-18.58"/>
<polygon fill="midnightblue" stroke="midnightblue" points="646.86,-101.58 647.92,-112.12 653.67,-103.22 646.86,-101.58"/>
</g>
<!-- Node16&#45;&gt;Node8 -->
<g id="edge30" class="edge">
<title>Node16&#45;&gt;Node8</title>
<path fill="none" stroke="midnightblue" d="M569.96,-111.87C478.66,-100.77 327.15,-82.34 249.76,-72.93"/>
<polygon fill="midnightblue" stroke="midnightblue" points="569.61,-115.36 579.96,-113.09 570.46,-108.41 569.61,-115.36"/>
</g>
<!-- Node16&#45;&gt;Node10 -->
<g id="edge31" class="edge">
<title>Node16&#45;&gt;Node10</title>
<path fill="none" stroke="midnightblue" d="M627.82,-105.54C617.12,-95.91 603.74,-83.87 594.82,-75.83"/>
<polygon fill="midnightblue" stroke="midnightblue" points="625.59,-108.24 635.36,-112.32 630.27,-103.03 625.59,-108.24"/>
</g>
<!-- Node16&#45;&gt;Node12 -->
<g id="edge32" class="edge">
<title>Node16&#45;&gt;Node12</title>
<path fill="none" stroke="midnightblue" d="M601.24,-109.96C560.83,-99.76 501.63,-84.82 464.75,-75.52"/>
<polygon fill="midnightblue" stroke="midnightblue" points="600.54,-113.39 611.09,-112.44 602.25,-106.6 600.54,-113.39"/>
</g>
<!-- Node17 -->
<g id="node17" class="node">
<title>Node17</title>
<g id="a_node17"><a xlink:href="LEDController_8cpp.xhtml" target="_top" xlink:title=" ">
<polygon fill="white" stroke="black" points="838,-56.5 838,-75.5 958,-75.5 958,-56.5 838,-56.5"/>
<text text-anchor="middle" x="898" y="-63.5" font-family="Helvetica,sans-Serif" font-size="10.00">src/LEDController.cpp</text>
</a>
</g>
</g>
<!-- Node16&#45;&gt;Node17 -->
<g id="edge28" class="edge">
<title>Node16&#45;&gt;Node17</title>
<path fill="none" stroke="midnightblue" d="M694.92,-110.35C742.73,-100.14 813.95,-84.94 858.1,-75.52"/>
<polygon fill="midnightblue" stroke="midnightblue" points="694.14,-106.93 685.09,-112.44 695.6,-113.78 694.14,-106.93"/>
</g>
<!-- Node18 -->
<g id="node18" class="node">
<title>Node18</title>
<g id="a_node18"><a xlink:href="ModeSelector_8h.xhtml" target="_top" xlink:title=" ">
<polygon fill="white" stroke="black" points="690,-56.5 690,-75.5 820,-75.5 820,-56.5 690,-56.5"/>
<text text-anchor="middle" x="755" y="-63.5" font-family="Helvetica,sans-Serif" font-size="10.00">include/ModeSelector.h</text>
</a>
</g>
</g>
<!-- Node16&#45;&gt;Node18 -->
<g id="edge33" class="edge">
<title>Node16&#45;&gt;Node18</title>
<path fill="none" stroke="midnightblue" d="M671.76,-107.86C692.16,-97.85 719.67,-84.35 737.37,-75.65"/>
<polygon fill="midnightblue" stroke="midnightblue" points="670.11,-104.78 662.67,-112.32 673.19,-111.06 670.11,-104.78"/>
</g>
<!-- Node18&#45;&gt;Node3 -->
<g id="edge35" class="edge">
<title>Node18&#45;&gt;Node3</title>
<path fill="none" stroke="midnightblue" d="M679.58,-56.3C572.08,-43.87 386.03,-22.29 371,-20 368.23,-19.58 365.38,-19.12 362.52,-18.63"/>
<polygon fill="midnightblue" stroke="midnightblue" points="679.39,-59.8 689.73,-57.47 680.2,-52.84 679.39,-59.8"/>
</g>
<!-- Node18&#45;&gt;Node5 -->
<g id="edge34" class="edge">
<title>Node18&#45;&gt;Node5</title>
<path fill="none" stroke="midnightblue" d="M796.99,-53.83C835.32,-43.63 891.15,-28.78 925.98,-19.52"/>
<polygon fill="midnightblue" stroke="midnightblue" points="795.93,-50.49 787.17,-56.44 797.73,-57.26 795.93,-50.49"/>
</g>
<!-- Node18&#45;&gt;Node7 -->
<g id="edge36" class="edge">
<title>Node18&#45;&gt;Node7</title>
<path fill="none" stroke="midnightblue" d="M711.65,-53.96C671.61,-43.76 612.97,-28.82 576.43,-19.52"/>
<polygon fill="midnightblue" stroke="midnightblue" points="710.85,-57.37 721.41,-56.44 712.58,-50.58 710.85,-57.37"/>
</g>
<!-- Node19 -->
<g id="node19" class="node">
<title>Node19</title>
<g id="a_node19"><a xlink:href="ModeSelector_8cpp.xhtml" target="_top" xlink:title=" ">
<polygon fill="white" stroke="black" points="724,-0.5 724,-19.5 844,-19.5 844,-0.5 724,-0.5"/>
<text text-anchor="middle" x="784" y="-7.5" font-family="Helvetica,sans-Serif" font-size="10.00">src/ModeSelector.cpp</text>
</a>
</g>
</g>
<!-- Node18&#45;&gt;Node19 -->
<g id="edge37" class="edge">
<title>Node18&#45;&gt;Node19</title>
<path fill="none" stroke="midnightblue" d="M764.68,-46.98C769.6,-37.82 775.36,-27.09 779.3,-19.75"/>
<polygon fill="midnightblue" stroke="midnightblue" points="761.44,-45.62 759.79,-56.08 767.6,-48.93 761.44,-45.62"/>
</g>
</g>
</svg>
        <g id="navigator" transform="translate(0 0)" fill="#404254">
                <rect fill="#f2f5e9" fill-opacity="0.5" stroke="#606060" stroke-width=".5" x="0" y="0" width="60" height="60"/>
                <use id="zoomplus" xlink:href="#zoomPlus" x="17" y="9" onmousedown="handleZoom(evt,'in')"/>
                <use id="zoomminus" xlink:href="#zoomMin" x="42" y="9" onmousedown="handleZoom(evt,'out')"/>
                <use id="reset" xlink:href="#resetDef" x="30" y="36" onmousedown="handleReset()"/>
                <g id="arrowUp" xlink:href="#dirArrow" transform="translate(30 24)" onmousedown="handlePan(0,-1)">
                  <use xlink:href="#rim" fill="#404040">
                        <set attributeName="fill" to="#808080" begin="arrowUp.mouseover" end="arrowUp.mouseout"/>
                  </use>
                  <path fill="none" stroke="white" stroke-width="1.5" d="M0,-3.0v7 M-2.5,-0.5L0,-3.0L2.5,-0.5"/>
                </g>
                <g id="arrowRight" xlink:href="#dirArrow" transform="rotate(90) translate(36 -43)" onmousedown="handlePan(1,0)">
                  <use xlink:href="#rim" fill="#404040">
                        <set attributeName="fill" to="#808080" begin="arrowRight.mouseover" end="arrowRight.mouseout"/>
                  </use>
                  <path fill="none" stroke="white" stroke-width="1.5" d="M0,-3.0v7 M-2.5,-0.5L0,-3.0L2.5,-0.5"/>
                </g>
                <g id="arrowDown" xlink:href="#dirArrow" transform="rotate(180) translate(-30 -48)" onmousedown="handlePan(0,1)">
                  <use xlink:href="#rim" fill="#404040">
                        <set attributeName="fill" to="#808080" begin="arrowDown.mouseover" end="arrowDown.mouseout"/>
                  </use>
                  <path fill="none" stroke="white" stroke-width="1.5" d="M0,-3.0v7 M-2.5,-0.5L0,-3.0L2.5,-0.5"/>
                </g>
                <g id="arrowLeft" xlink:href="#dirArrow" transform="rotate(270) translate(-36 17)" onmousedown="handlePan(-1,0)">
                  <use xlink:href="#rim" fill="#404040">
                        <set attributeName="fill" to="#808080" begin="arrowLeft.mouseover" end="arrowLeft.mouseout"/>
                  </use>
                  <path fill="none" stroke="white" stroke-width="1.5" d="M0,-3.0v7 M-2.5,-0.5L0,-3.0L2.5,-0.5"/>
                </g>
        </g>
        <svg viewBox="0 0 15 15" width="100%" height="30px" preserveAspectRatio="xMaxYMin meet">
         <g id="arrow_out" transform="scale(0.3 0.3)">
          <a xlink:href="LEDs_8h__dep__incl_org.svg" target="_base">
           <rect id="button" ry="5" rx="5" y="6" x="6" height="38" width="38"
                fill="#f2f5e9" fill-opacity="0.5" stroke="#606060" stroke-width="1.0"/>
           <path id="arrow"
             d="M 11.500037,31.436501 C 11.940474,20.09759 22.043105,11.32322 32.158766,21.979434 L 37.068811,17.246167 C 37.068811,17.246167 37.088388,32 37.088388,32 L 22.160133,31.978069 C 22.160133,31.978069 26.997745,27.140456 26.997745,27.140456 C 18.528582,18.264221 13.291696,25.230495 11.500037,31.436501 z"
             style="fill:#404040;"/>
          </a>
         </g>
        </svg>
</svg>
