<?xml version="1.0" encoding="UTF-8" standalone="no"?>
<!DOCTYPE svg PUBLIC "-//W3C//DTD SVG 1.1//EN"
 "http://www.w3.org/Graphics/SVG/1.1/DTD/svg11.dtd">
<!-- Generated by graphviz version 2.43.0 (0)
 -->
<!-- Title: src/main.cpp Pages: 1 -->
<svg width="1314pt" height="420pt"
 viewBox="0.00 0.00 1314.00 420.00" xmlns="http://www.w3.org/2000/svg" xmlns:xlink="http://www.w3.org/1999/xlink">
<g id="graph0" class="graph" transform="scale(1 1) rotate(0) translate(4 416)">
<title>src/main.cpp</title>
<polygon fill="white" stroke="transparent" points="-4,4 -4,-416 1310,-416 1310,4 -4,4"/>
<!-- Node1 -->
<g id="node1" class="node">
<title>Node1</title>
<g id="a_node1"><a xlink:title=" ">
<polygon fill="#bfbfbf" stroke="black" points="749.5,-392.5 749.5,-411.5 828.5,-411.5 828.5,-392.5 749.5,-392.5"/>
<text text-anchor="middle" x="789" y="-399.5" font-family="Helvetica,sans-Serif" font-size="10.00">src/main.cpp</text>
</a>
</g>
</g>
<!-- Node2 -->
<g id="node2" class="node">
<title>Node2</title>
<g id="a_node2"><a xlink:title=" ">
<polygon fill="white" stroke="#bfbfbf" points="1070.5,-112.5 1070.5,-131.5 1133.5,-131.5 1133.5,-112.5 1070.5,-112.5"/>
<text text-anchor="middle" x="1102" y="-119.5" font-family="Helvetica,sans-Serif" font-size="10.00">Arduino.h</text>
</a>
</g>
</g>
<!-- Node1&#45;&gt;Node2 -->
<g id="edge1" class="edge">
<title>Node1&#45;&gt;Node2</title>
<path fill="none" stroke="midnightblue" d="M828.74,-398.63C930.41,-391.47 1192,-365.79 1192,-291 1192,-291 1192,-291 1192,-233 1192,-190.66 1151.56,-155.66 1124.9,-137.18"/>
<polygon fill="midnightblue" stroke="midnightblue" points="1126.72,-134.19 1116.46,-131.56 1122.84,-140.02 1126.72,-134.19"/>
</g>
<!-- Node3 -->
<g id="node3" class="node">
<title>Node3</title>
<g id="a_node3"><a xlink:title=" ">
<polygon fill="white" stroke="#bfbfbf" points="1002,-224.5 1002,-243.5 1050,-243.5 1050,-224.5 1002,-224.5"/>
<text text-anchor="middle" x="1026" y="-231.5" font-family="Helvetica,sans-Serif" font-size="10.00">MIDI.h</text>
</a>
</g>
</g>
<!-- Node1&#45;&gt;Node3 -->
<g id="edge2" class="edge">
<title>Node1&#45;&gt;Node3</title>
<path fill="none" stroke="midnightblue" d="M828.72,-400.91C892.57,-398.27 1015.3,-382.19 1059,-300 1067.76,-283.53 1055.49,-264.47 1043.5,-251.27"/>
<polygon fill="midnightblue" stroke="midnightblue" points="1045.77,-248.58 1036.27,-243.89 1040.77,-253.48 1045.77,-248.58"/>
</g>
<!-- Node4 -->
<g id="node4" class="node">
<title>Node4</title>
<g id="a_node4"><a xlink:href="Gates_8h.xhtml" target="_top" xlink:title=" ">
<polygon fill="white" stroke="black" points="555,-168.5 555,-187.5 609,-187.5 609,-168.5 555,-168.5"/>
<text text-anchor="middle" x="582" y="-175.5" font-family="Helvetica,sans-Serif" font-size="10.00">Gates.h</text>
</a>
</g>
</g>
<!-- Node1&#45;&gt;Node4 -->
<g id="edge3" class="edge">
<title>Node1&#45;&gt;Node4</title>
<path fill="none" stroke="midnightblue" d="M814.16,-392.38C830.42,-385.34 850.29,-373.65 860,-356 866.09,-344.94 869.59,-310.1 857,-280 844.01,-248.94 835.29,-240.59 806,-224 746.6,-190.37 665.83,-181.62 619.27,-179.49"/>
<polygon fill="midnightblue" stroke="midnightblue" points="619.16,-175.99 609.04,-179.11 618.9,-182.98 619.16,-175.99"/>
</g>
<!-- Node7 -->
<g id="node7" class="node">
<title>Node7</title>
<g id="a_node7"><a xlink:href="Constants_8h.xhtml" target="_top" xlink:title=" ">
<polygon fill="white" stroke="black" points="605,-56.5 605,-75.5 679,-75.5 679,-56.5 605,-56.5"/>
<text text-anchor="middle" x="642" y="-63.5" font-family="Helvetica,sans-Serif" font-size="10.00">Constants.h</text>
</a>
</g>
</g>
<!-- Node1&#45;&gt;Node7 -->
<g id="edge42" class="edge">
<title>Node1&#45;&gt;Node7</title>
<path fill="none" stroke="midnightblue" d="M828.61,-400.33C943.37,-397.33 1268,-380.91 1268,-291 1268,-291 1268,-291 1268,-177 1268,-114.38 1203.1,-129.58 1143,-112 1058.64,-87.33 797.18,-73.63 689.3,-68.91"/>
<polygon fill="midnightblue" stroke="midnightblue" points="689.18,-65.4 679.04,-68.46 688.88,-72.39 689.18,-65.4"/>
</g>
<!-- Node8 -->
<g id="node8" class="node">
<title>Node8</title>
<g id="a_node8"><a xlink:title=" ">
<polygon fill="white" stroke="#bfbfbf" points="578.5,-0.5 578.5,-19.5 625.5,-19.5 625.5,-0.5 578.5,-0.5"/>
<text text-anchor="middle" x="602" y="-7.5" font-family="Helvetica,sans-Serif" font-size="10.00">vector</text>
</a>
</g>
</g>
<!-- Node1&#45;&gt;Node8 -->
<g id="edge76" class="edge">
<title>Node1&#45;&gt;Node8</title>
<path fill="none" stroke="midnightblue" d="M828.71,-401C949.77,-399.93 1306,-388.5 1306,-291 1306,-291 1306,-291 1306,-121 1306,-52.35 776.74,-20.05 636.02,-12.68"/>
<polygon fill="midnightblue" stroke="midnightblue" points="635.99,-9.17 625.83,-12.15 635.63,-16.16 635.99,-9.17"/>
</g>
<!-- Node9 -->
<g id="node9" class="node">
<title>Node9</title>
<g id="a_node9"><a xlink:href="LEDs_8h.xhtml" target="_top" xlink:title=" ">
<polygon fill="white" stroke="black" points="398,-112.5 398,-131.5 448,-131.5 448,-112.5 398,-112.5"/>
<text text-anchor="middle" x="423" y="-119.5" font-family="Helvetica,sans-Serif" font-size="10.00">LEDs.h</text>
</a>
</g>
</g>
<!-- Node1&#45;&gt;Node9 -->
<g id="edge27" class="edge">
<title>Node1&#45;&gt;Node9</title>
<path fill="none" stroke="midnightblue" d="M749.33,-399.7C589.34,-393.93 0,-367.5 0,-291 0,-291 0,-291 0,-233 0,-194.58 23.04,-185.97 57,-168 113.93,-137.88 307.48,-127.31 387.71,-124.16"/>
<polygon fill="midnightblue" stroke="midnightblue" points="387.95,-127.66 397.81,-123.78 387.69,-120.66 387.95,-127.66"/>
</g>
<!-- Node11 -->
<g id="node11" class="node">
<title>Node11</title>
<g id="a_node11"><a xlink:href="ModeSelector_8h.xhtml" target="_top" xlink:title=" ">
<polygon fill="white" stroke="black" points="743,-336.5 743,-355.5 835,-355.5 835,-336.5 743,-336.5"/>
<text text-anchor="middle" x="789" y="-343.5" font-family="Helvetica,sans-Serif" font-size="10.00">ModeSelector.h</text>
</a>
</g>
</g>
<!-- Node1&#45;&gt;Node11 -->
<g id="edge14" class="edge">
<title>Node1&#45;&gt;Node11</title>
<path fill="none" stroke="midnightblue" d="M789,-392.08C789,-385.01 789,-374.86 789,-365.99"/>
<polygon fill="midnightblue" stroke="midnightblue" points="792.5,-365.75 789,-355.75 785.5,-365.75 792.5,-365.75"/>
</g>
<!-- Node12 -->
<g id="node12" class="node">
<title>Node12</title>
<g id="a_node12"><a xlink:href="LEDController_8h.xhtml" target="_top" xlink:title=" ">
<polygon fill="white" stroke="black" points="740,-280.5 740,-299.5 832,-299.5 832,-280.5 740,-280.5"/>
<text text-anchor="middle" x="786" y="-287.5" font-family="Helvetica,sans-Serif" font-size="10.00">LEDController.h</text>
</a>
</g>
</g>
<!-- Node1&#45;&gt;Node12 -->
<g id="edge73" class="edge">
<title>Node1&#45;&gt;Node12</title>
<path fill="none" stroke="midnightblue" d="M805.8,-392.38C825.84,-380.83 855.31,-359.1 844,-336 837.48,-322.68 824.9,-312.18 813.13,-304.68"/>
<polygon fill="midnightblue" stroke="midnightblue" points="814.78,-301.59 804.39,-299.53 811.23,-307.62 814.78,-301.59"/>
</g>
<!-- Node13 -->
<g id="node13" class="node">
<title>Node13</title>
<g id="a_node13"><a xlink:href="Encoder_8h.xhtml" target="_top" xlink:title=" ">
<polygon fill="white" stroke="black" points="510,-280.5 510,-299.5 574,-299.5 574,-280.5 510,-280.5"/>
<text text-anchor="middle" x="542" y="-287.5" font-family="Helvetica,sans-Serif" font-size="10.00">Encoder.h</text>
</a>
</g>
</g>
<!-- Node1&#45;&gt;Node13 -->
<g id="edge29" class="edge">
<title>Node1&#45;&gt;Node13</title>
<path fill="none" stroke="midnightblue" d="M749.12,-401.82C703.74,-400.78 629.38,-392.91 579,-356 563.32,-344.52 553.33,-324.24 547.73,-309.38"/>
<polygon fill="midnightblue" stroke="midnightblue" points="550.97,-308.04 544.42,-299.72 544.35,-310.32 550.97,-308.04"/>
</g>
<!-- Node15 -->
<g id="node15" class="node">
<title>Node15</title>
<g id="a_node15"><a xlink:href="ResetButton_8h.xhtml" target="_top" xlink:title=" ">
<polygon fill="white" stroke="black" points="964,-280.5 964,-299.5 1050,-299.5 1050,-280.5 964,-280.5"/>
<text text-anchor="middle" x="1007" y="-287.5" font-family="Helvetica,sans-Serif" font-size="10.00">ResetButton.h</text>
</a>
</g>
</g>
<!-- Node1&#45;&gt;Node15 -->
<g id="edge74" class="edge">
<title>Node1&#45;&gt;Node15</title>
<path fill="none" stroke="midnightblue" d="M828.64,-396.39C862.91,-390.96 912.66,-379.5 950,-356 969.38,-343.8 985.91,-323.05 996.1,-308.28"/>
<polygon fill="midnightblue" stroke="midnightblue" points="999.25,-309.86 1001.85,-299.59 993.41,-306 999.25,-309.86"/>
</g>
<!-- Node16 -->
<g id="node16" class="node">
<title>Node16</title>
<g id="a_node16"><a xlink:href="Debug_8h.xhtml" target="_top" xlink:title=" ">
<polygon fill="white" stroke="black" points="1106.5,-224.5 1106.5,-243.5 1163.5,-243.5 1163.5,-224.5 1106.5,-224.5"/>
<text text-anchor="middle" x="1135" y="-231.5" font-family="Helvetica,sans-Serif" font-size="10.00">Debug.h</text>
</a>
</g>
</g>
<!-- Node1&#45;&gt;Node16 -->
<g id="edge28" class="edge">
<title>Node1&#45;&gt;Node16</title>
<path fill="none" stroke="midnightblue" d="M828.8,-401.6C879.36,-400.65 967.75,-393.16 1032,-356 1075.81,-330.66 1109.73,-279.49 1125.43,-252.53"/>
<polygon fill="midnightblue" stroke="midnightblue" points="1128.5,-254.22 1130.38,-243.79 1122.41,-250.77 1128.5,-254.22"/>
</g>
<!-- Node17 -->
<g id="node17" class="node">
<title>Node17</title>
<g id="a_node17"><a xlink:href="MIDIHandler_8h.xhtml" target="_top" xlink:title=" ">
<polygon fill="white" stroke="black" points="406,-280.5 406,-299.5 492,-299.5 492,-280.5 406,-280.5"/>
<text text-anchor="middle" x="449" y="-287.5" font-family="Helvetica,sans-Serif" font-size="10.00">MIDIHandler.h</text>
</a>
</g>
</g>
<!-- Node1&#45;&gt;Node17 -->
<g id="edge30" class="edge">
<title>Node1&#45;&gt;Node17</title>
<path fill="none" stroke="midnightblue" d="M749.44,-397.48C702.51,-392.37 622.5,-380.65 558,-356 524.5,-343.2 489.54,-320.4 468.52,-305.49"/>
<polygon fill="midnightblue" stroke="midnightblue" points="470.56,-302.65 460.41,-299.64 466.47,-308.33 470.56,-302.65"/>
</g>
<!-- Node18 -->
<g id="node18" class="node">
<title>Node18</title>
<g id="a_node18"><a xlink:href="EurorackClock_8h.xhtml" target="_top" xlink:title=" ">
<polygon fill="white" stroke="black" points="110.5,-224.5 110.5,-243.5 205.5,-243.5 205.5,-224.5 110.5,-224.5"/>
<text text-anchor="middle" x="158" y="-231.5" font-family="Helvetica,sans-Serif" font-size="10.00">EurorackClock.h</text>
</a>
</g>
</g>
<!-- Node1&#45;&gt;Node18 -->
<g id="edge41" class="edge">
<title>Node1&#45;&gt;Node18</title>
<path fill="none" stroke="midnightblue" d="M749.41,-398.94C674.3,-394.54 506.16,-382.43 367,-356 275.05,-338.54 224.07,-371.77 164,-300 153.44,-287.38 152.93,-268.17 154.46,-253.9"/>
<polygon fill="midnightblue" stroke="midnightblue" points="157.97,-254.15 155.98,-243.74 151.04,-253.11 157.97,-254.15"/>
</g>
<!-- Node20 -->
<g id="node20" class="node">
<title>Node20</title>
<g id="a_node20"><a xlink:href="Mode0_8h.xhtml" target="_top" xlink:title=" ">
<polygon fill="white" stroke="black" points="419.5,-336.5 419.5,-355.5 478.5,-355.5 478.5,-336.5 419.5,-336.5"/>
<text text-anchor="middle" x="449" y="-343.5" font-family="Helvetica,sans-Serif" font-size="10.00">Mode0.h</text>
</a>
</g>
</g>
<!-- Node1&#45;&gt;Node20 -->
<g id="edge43" class="edge">
<title>Node1&#45;&gt;Node20</title>
<path fill="none" stroke="midnightblue" d="M749.26,-395.29C693.01,-387.12 587,-371.37 497,-356 494.31,-355.54 491.54,-355.05 488.75,-354.56"/>
<polygon fill="midnightblue" stroke="midnightblue" points="489.14,-351.07 478.67,-352.72 487.89,-357.96 489.14,-351.07"/>
</g>
<!-- Node21 -->
<g id="node21" class="node">
<title>Node21</title>
<g id="a_node21"><a xlink:href="InputHandler_8h.xhtml" target="_top" xlink:title=" ">
<polygon fill="white" stroke="black" points="262,-280.5 262,-299.5 350,-299.5 350,-280.5 262,-280.5"/>
<text text-anchor="middle" x="306" y="-287.5" font-family="Helvetica,sans-Serif" font-size="10.00">InputHandler.h</text>
</a>
</g>
</g>
<!-- Node1&#45;&gt;Node21 -->
<g id="edge75" class="edge">
<title>Node1&#45;&gt;Node21</title>
<path fill="none" stroke="midnightblue" d="M749.26,-401.91C678.81,-402.3 528.29,-397.63 410,-356 377.11,-344.42 343.74,-321.06 323.96,-305.73"/>
<polygon fill="midnightblue" stroke="midnightblue" points="326.13,-302.98 316.12,-299.51 321.79,-308.46 326.13,-302.98"/>
</g>
<!-- Node22 -->
<g id="node22" class="node">
<title>Node22</title>
<g id="a_node22"><a xlink:href="Mode1_8h.xhtml" target="_top" xlink:title=" ">
<polygon fill="white" stroke="black" points="665.5,-336.5 665.5,-355.5 724.5,-355.5 724.5,-336.5 665.5,-336.5"/>
<text text-anchor="middle" x="695" y="-343.5" font-family="Helvetica,sans-Serif" font-size="10.00">Mode1.h</text>
</a>
</g>
</g>
<!-- Node1&#45;&gt;Node22 -->
<g id="edge55" class="edge">
<title>Node1&#45;&gt;Node22</title>
<path fill="none" stroke="midnightblue" d="M773.9,-392.32C759.1,-383.82 736.31,-370.73 719.02,-360.8"/>
<polygon fill="midnightblue" stroke="midnightblue" points="720.48,-357.6 710.07,-355.65 716.99,-363.67 720.48,-357.6"/>
</g>
<!-- Node23 -->
<g id="node23" class="node">
<title>Node23</title>
<g id="a_node23"><a xlink:href="Mode2_8h.xhtml" target="_top" xlink:title=" ">
<polygon fill="white" stroke="black" points="588.5,-336.5 588.5,-355.5 647.5,-355.5 647.5,-336.5 588.5,-336.5"/>
<text text-anchor="middle" x="618" y="-343.5" font-family="Helvetica,sans-Serif" font-size="10.00">Mode2.h</text>
</a>
</g>
</g>
<!-- Node1&#45;&gt;Node23 -->
<g id="edge64" class="edge">
<title>Node1&#45;&gt;Node23</title>
<path fill="none" stroke="midnightblue" d="M761.9,-392.44C733.01,-383.32 687.08,-368.81 654.89,-358.65"/>
<polygon fill="midnightblue" stroke="midnightblue" points="655.56,-355.19 644.97,-355.52 653.45,-361.87 655.56,-355.19"/>
</g>
<!-- Node4&#45;&gt;Node2 -->
<g id="edge4" class="edge">
<title>Node4&#45;&gt;Node2</title>
<path fill="none" stroke="midnightblue" d="M609.23,-174.17C694.58,-165.31 957.39,-138.02 1060.17,-127.34"/>
<polygon fill="midnightblue" stroke="midnightblue" points="1060.6,-130.82 1070.19,-126.3 1059.88,-123.86 1060.6,-130.82"/>
</g>
<!-- Node5 -->
<g id="node5" class="node">
<title>Node5</title>
<g id="a_node5"><a xlink:href="Gate_8h.xhtml" target="_top" xlink:title=" ">
<polygon fill="white" stroke="black" points="542.5,-112.5 542.5,-131.5 591.5,-131.5 591.5,-112.5 542.5,-112.5"/>
<text text-anchor="middle" x="567" y="-119.5" font-family="Helvetica,sans-Serif" font-size="10.00">Gate.h</text>
</a>
</g>
</g>
<!-- Node4&#45;&gt;Node5 -->
<g id="edge5" class="edge">
<title>Node4&#45;&gt;Node5</title>
<path fill="none" stroke="midnightblue" d="M579.52,-168.08C577.51,-160.85 574.61,-150.41 572.11,-141.4"/>
<polygon fill="midnightblue" stroke="midnightblue" points="575.48,-140.45 569.43,-131.75 568.74,-142.32 575.48,-140.45"/>
</g>
<!-- Node4&#45;&gt;Node8 -->
<g id="edge13" class="edge">
<title>Node4&#45;&gt;Node8</title>
<path fill="none" stroke="midnightblue" d="M567.34,-168.4C555.59,-160.58 539.97,-147.86 533,-132 529.42,-123.86 530.38,-120.49 533,-112 543.43,-78.24 569.45,-45.7 586.39,-27.06"/>
<polygon fill="midnightblue" stroke="midnightblue" points="588.96,-29.43 593.23,-19.73 583.85,-24.65 588.96,-29.43"/>
</g>
<!-- Node4&#45;&gt;Node9 -->
<g id="edge9" class="edge">
<title>Node4&#45;&gt;Node9</title>
<path fill="none" stroke="midnightblue" d="M556.81,-168.44C530.06,-159.36 487.6,-144.94 457.69,-134.78"/>
<polygon fill="midnightblue" stroke="midnightblue" points="458.67,-131.42 448.08,-131.52 456.42,-138.05 458.67,-131.42"/>
</g>
<!-- Node6 -->
<g id="node6" class="node">
<title>Node6</title>
<g id="a_node6"><a xlink:href="Pin_8h.xhtml" target="_top" xlink:title=" ">
<polygon fill="white" stroke="black" points="364.5,-0.5 364.5,-19.5 405.5,-19.5 405.5,-0.5 364.5,-0.5"/>
<text text-anchor="middle" x="385" y="-7.5" font-family="Helvetica,sans-Serif" font-size="10.00">Pin.h</text>
</a>
</g>
</g>
<!-- Node5&#45;&gt;Node6 -->
<g id="edge6" class="edge">
<title>Node5&#45;&gt;Node6</title>
<path fill="none" stroke="midnightblue" d="M552.72,-112.37C521.35,-93.41 446.22,-48 408.07,-24.94"/>
<polygon fill="midnightblue" stroke="midnightblue" points="409.58,-21.77 399.21,-19.59 405.96,-27.76 409.58,-21.77"/>
</g>
<!-- Node5&#45;&gt;Node7 -->
<g id="edge7" class="edge">
<title>Node5&#45;&gt;Node7</title>
<path fill="none" stroke="midnightblue" d="M579.05,-112.32C590.46,-104.11 607.83,-91.6 621.43,-81.81"/>
<polygon fill="midnightblue" stroke="midnightblue" points="623.66,-84.52 629.73,-75.83 619.57,-78.84 623.66,-84.52"/>
</g>
<!-- Node7&#45;&gt;Node8 -->
<g id="edge8" class="edge">
<title>Node7&#45;&gt;Node8</title>
<path fill="none" stroke="midnightblue" d="M635.39,-56.08C629.74,-48.46 621.46,-37.26 614.55,-27.94"/>
<polygon fill="midnightblue" stroke="midnightblue" points="617.25,-25.7 608.48,-19.75 611.62,-29.87 617.25,-25.7"/>
</g>
<!-- Node9&#45;&gt;Node8 -->
<g id="edge12" class="edge">
<title>Node9&#45;&gt;Node8</title>
<path fill="none" stroke="midnightblue" d="M438.15,-112.37C453.75,-103.44 478.72,-88.99 500,-76 527.98,-58.92 559.76,-38.5 580.3,-25.17"/>
<polygon fill="midnightblue" stroke="midnightblue" points="582.42,-27.96 588.9,-19.58 578.61,-22.1 582.42,-27.96"/>
</g>
<!-- Node10 -->
<g id="node10" class="node">
<title>Node10</title>
<g id="a_node10"><a xlink:href="LED_8h.xhtml" target="_top" xlink:title=" ">
<polygon fill="white" stroke="black" points="338,-56.5 338,-75.5 382,-75.5 382,-56.5 338,-56.5"/>
<text text-anchor="middle" x="360" y="-63.5" font-family="Helvetica,sans-Serif" font-size="10.00">LED.h</text>
</a>
</g>
</g>
<!-- Node9&#45;&gt;Node10 -->
<g id="edge10" class="edge">
<title>Node9&#45;&gt;Node10</title>
<path fill="none" stroke="midnightblue" d="M412.88,-112.32C403.47,-104.26 389.26,-92.08 377.93,-82.37"/>
<polygon fill="midnightblue" stroke="midnightblue" points="380.18,-79.68 370.31,-75.83 375.62,-85 380.18,-79.68"/>
</g>
<!-- Node10&#45;&gt;Node6 -->
<g id="edge11" class="edge">
<title>Node10&#45;&gt;Node6</title>
<path fill="none" stroke="midnightblue" d="M364.13,-56.08C367.51,-48.77 372.42,-38.18 376.62,-29.1"/>
<polygon fill="midnightblue" stroke="midnightblue" points="379.92,-30.3 380.95,-19.75 373.57,-27.36 379.92,-30.3"/>
</g>
<!-- Node11&#45;&gt;Node8 -->
<g id="edge15" class="edge">
<title>Node11&#45;&gt;Node8</title>
<path fill="none" stroke="midnightblue" d="M835.04,-344.04C912.52,-340.2 1070.54,-322.5 1173,-244 1203.5,-220.63 1230,-217.42 1230,-179 1230,-179 1230,-179 1230,-121 1230,-60.17 766.96,-22.7 636.08,-13.33"/>
<polygon fill="midnightblue" stroke="midnightblue" points="636.07,-9.82 625.85,-12.6 635.58,-16.8 636.07,-9.82"/>
</g>
<!-- Node11&#45;&gt;Node12 -->
<g id="edge16" class="edge">
<title>Node11&#45;&gt;Node12</title>
<path fill="none" stroke="midnightblue" d="M788.5,-336.08C788.11,-329.01 787.55,-318.86 787.05,-309.99"/>
<polygon fill="midnightblue" stroke="midnightblue" points="790.54,-309.54 786.49,-299.75 783.55,-309.93 790.54,-309.54"/>
</g>
<!-- Node11&#45;&gt;Node13 -->
<g id="edge18" class="edge">
<title>Node11&#45;&gt;Node13</title>
<path fill="none" stroke="midnightblue" d="M749.86,-336.44C704.71,-326.57 630.75,-310.4 584.31,-300.25"/>
<polygon fill="midnightblue" stroke="midnightblue" points="584.78,-296.77 574.26,-298.05 583.29,-303.61 584.78,-296.77"/>
</g>
<!-- Node14 -->
<g id="node14" class="node">
<title>Node14</title>
<g id="a_node14"><a xlink:href="Mode_8h.xhtml" target="_top" xlink:title=" ">
<polygon fill="white" stroke="black" points="668.5,-280.5 668.5,-299.5 721.5,-299.5 721.5,-280.5 668.5,-280.5"/>
<text text-anchor="middle" x="695" y="-287.5" font-family="Helvetica,sans-Serif" font-size="10.00">Mode.h</text>
</a>
</g>
</g>
<!-- Node11&#45;&gt;Node14 -->
<g id="edge20" class="edge">
<title>Node11&#45;&gt;Node14</title>
<path fill="none" stroke="midnightblue" d="M773.9,-336.32C759.1,-327.82 736.31,-314.73 719.02,-304.8"/>
<polygon fill="midnightblue" stroke="midnightblue" points="720.48,-301.6 710.07,-299.65 716.99,-307.67 720.48,-301.6"/>
</g>
<!-- Node11&#45;&gt;Node15 -->
<g id="edge21" class="edge">
<title>Node11&#45;&gt;Node15</title>
<path fill="none" stroke="midnightblue" d="M823.54,-336.44C861.25,-327.1 921.74,-312.12 962.86,-301.93"/>
<polygon fill="midnightblue" stroke="midnightblue" points="963.75,-305.32 972.62,-299.52 962.07,-298.52 963.75,-305.32"/>
</g>
<!-- Node12&#45;&gt;Node9 -->
<g id="edge17" class="edge">
<title>Node12&#45;&gt;Node9</title>
<path fill="none" stroke="midnightblue" d="M763.88,-280.44C721.22,-263.78 624.85,-225.34 546,-188 511.12,-171.48 471.86,-150.26 447.28,-136.64"/>
<polygon fill="midnightblue" stroke="midnightblue" points="448.75,-133.46 438.31,-131.65 445.35,-139.57 448.75,-133.46"/>
</g>
<!-- Node13&#45;&gt;Node6 -->
<g id="edge19" class="edge">
<title>Node13&#45;&gt;Node6</title>
<path fill="none" stroke="midnightblue" d="M538.43,-280.26C527.6,-254.02 493.58,-173.93 457,-112 438.58,-80.81 413.27,-46.99 398.09,-27.47"/>
<polygon fill="midnightblue" stroke="midnightblue" points="400.81,-25.28 391.89,-19.57 395.31,-29.6 400.81,-25.28"/>
</g>
<!-- Node15&#45;&gt;Node2 -->
<g id="edge23" class="edge">
<title>Node15&#45;&gt;Node2</title>
<path fill="none" stroke="midnightblue" d="M1020.25,-280.49C1031.92,-272.38 1048.63,-259.18 1059,-244 1081.14,-211.6 1093.17,-166.54 1098.52,-141.56"/>
<polygon fill="midnightblue" stroke="midnightblue" points="1101.98,-142.1 1100.52,-131.61 1095.11,-140.72 1101.98,-142.1"/>
</g>
<!-- Node15&#45;&gt;Node6 -->
<g id="edge22" class="edge">
<title>Node15&#45;&gt;Node6</title>
<path fill="none" stroke="midnightblue" d="M1002.55,-280.42C993.54,-262.24 974,-218.28 974,-179 974,-179 974,-179 974,-121 974,-63.63 536.66,-23.45 415.69,-13.44"/>
<polygon fill="midnightblue" stroke="midnightblue" points="415.87,-9.94 405.62,-12.61 415.3,-16.92 415.87,-9.94"/>
</g>
<!-- Node15&#45;&gt;Node7 -->
<g id="edge26" class="edge">
<title>Node15&#45;&gt;Node7</title>
<path fill="none" stroke="midnightblue" d="M996.62,-280.31C986.63,-271.66 971.39,-257.74 960,-244 915.31,-190.1 932.09,-151.1 874,-112 844.46,-92.12 748.32,-78.51 689.47,-71.81"/>
<polygon fill="midnightblue" stroke="midnightblue" points="689.63,-68.3 679.3,-70.67 688.85,-75.26 689.63,-68.3"/>
</g>
<!-- Node15&#45;&gt;Node16 -->
<g id="edge24" class="edge">
<title>Node15&#45;&gt;Node16</title>
<path fill="none" stroke="midnightblue" d="M1027.28,-280.44C1048.35,-271.56 1081.52,-257.56 1105.49,-247.45"/>
<polygon fill="midnightblue" stroke="midnightblue" points="1106.96,-250.63 1114.81,-243.52 1104.24,-244.18 1106.96,-250.63"/>
</g>
<!-- Node16&#45;&gt;Node2 -->
<g id="edge25" class="edge">
<title>Node16&#45;&gt;Node2</title>
<path fill="none" stroke="midnightblue" d="M1132.41,-224.37C1127.06,-206.54 1114.69,-165.3 1107.48,-141.27"/>
<polygon fill="midnightblue" stroke="midnightblue" points="1110.8,-140.16 1104.58,-131.59 1104.1,-142.18 1110.8,-140.16"/>
</g>
<!-- Node17&#45;&gt;Node3 -->
<g id="edge31" class="edge">
<title>Node17&#45;&gt;Node3</title>
<path fill="none" stroke="midnightblue" d="M492.09,-281.25C495.1,-280.8 498.09,-280.38 501,-280 685.26,-256.2 907.59,-241.84 991.61,-236.92"/>
<polygon fill="midnightblue" stroke="midnightblue" points="992.07,-240.4 1001.85,-236.33 991.66,-233.41 992.07,-240.4"/>
</g>
<!-- Node17&#45;&gt;Node4 -->
<g id="edge39" class="edge">
<title>Node17&#45;&gt;Node4</title>
<path fill="none" stroke="midnightblue" d="M459.44,-280.37C481.97,-261.73 535.41,-217.53 563.7,-194.13"/>
<polygon fill="midnightblue" stroke="midnightblue" points="566.14,-196.66 571.61,-187.59 561.68,-191.27 566.14,-196.66"/>
</g>
<!-- Node17&#45;&gt;Node9 -->
<g id="edge40" class="edge">
<title>Node17&#45;&gt;Node9</title>
<path fill="none" stroke="midnightblue" d="M447.6,-280.08C443.51,-253.95 431.49,-177.21 425.91,-141.58"/>
<polygon fill="midnightblue" stroke="midnightblue" points="429.35,-140.91 424.34,-131.57 422.43,-141.99 429.35,-140.91"/>
</g>
<!-- Node17&#45;&gt;Node18 -->
<g id="edge32" class="edge">
<title>Node17&#45;&gt;Node18</title>
<path fill="none" stroke="midnightblue" d="M405.75,-280.97C354.77,-271.51 269.94,-255.77 213.99,-245.39"/>
<polygon fill="midnightblue" stroke="midnightblue" points="214.36,-241.9 203.89,-243.52 213.09,-248.78 214.36,-241.9"/>
</g>
<!-- Node18&#45;&gt;Node4 -->
<g id="edge36" class="edge">
<title>Node18&#45;&gt;Node4</title>
<path fill="none" stroke="midnightblue" d="M205.81,-226.91C291.03,-216.06 467.46,-193.59 544.57,-183.77"/>
<polygon fill="midnightblue" stroke="midnightblue" points="545.29,-187.2 554.77,-182.47 544.4,-180.26 545.29,-187.2"/>
</g>
<!-- Node18&#45;&gt;Node6 -->
<g id="edge35" class="edge">
<title>Node18&#45;&gt;Node6</title>
<path fill="none" stroke="midnightblue" d="M162.95,-224.16C178.93,-196.25 231.9,-108.72 296,-56 313.68,-41.46 336.84,-29.93 355.11,-22.19"/>
<polygon fill="midnightblue" stroke="midnightblue" points="356.48,-25.4 364.42,-18.38 353.84,-18.92 356.48,-25.4"/>
</g>
<!-- Node18&#45;&gt;Node7 -->
<g id="edge38" class="edge">
<title>Node18&#45;&gt;Node7</title>
<path fill="none" stroke="midnightblue" d="M170.6,-224.42C189.99,-211.4 228.5,-186.23 263,-168 317.18,-139.36 330.4,-129.94 389,-112 459.04,-90.55 543.31,-78.11 594.74,-71.94"/>
<polygon fill="midnightblue" stroke="midnightblue" points="595.37,-75.39 604.89,-70.75 594.55,-68.44 595.37,-75.39"/>
</g>
<!-- Node18&#45;&gt;Node9 -->
<g id="edge37" class="edge">
<title>Node18&#45;&gt;Node9</title>
<path fill="none" stroke="midnightblue" d="M178.79,-224.37C225.43,-205.01 338.53,-158.06 392.87,-135.51"/>
<polygon fill="midnightblue" stroke="midnightblue" points="394.41,-138.66 402.3,-131.59 391.72,-132.19 394.41,-138.66"/>
</g>
<!-- Node18&#45;&gt;Node10 -->
<g id="edge34" class="edge">
<title>Node18&#45;&gt;Node10</title>
<path fill="none" stroke="midnightblue" d="M119.88,-224.45C83.6,-214.45 37.25,-195.66 57,-168 119.89,-79.9 263.05,-67.43 327.49,-66.48"/>
<polygon fill="midnightblue" stroke="midnightblue" points="327.88,-69.98 337.86,-66.41 327.84,-62.98 327.88,-69.98"/>
</g>
<!-- Node19 -->
<g id="node19" class="node">
<title>Node19</title>
<g id="a_node19"><a xlink:title=" ">
<polygon fill="white" stroke="#bfbfbf" points="66.5,-168.5 66.5,-187.5 167.5,-187.5 167.5,-168.5 66.5,-168.5"/>
<text text-anchor="middle" x="117" y="-175.5" font-family="Helvetica,sans-Serif" font-size="10.00">HardwareTimer.h</text>
</a>
</g>
</g>
<!-- Node18&#45;&gt;Node19 -->
<g id="edge33" class="edge">
<title>Node18&#45;&gt;Node19</title>
<path fill="none" stroke="midnightblue" d="M151.23,-224.08C145.44,-216.46 136.94,-205.26 129.86,-195.94"/>
<polygon fill="midnightblue" stroke="midnightblue" points="132.48,-193.6 123.64,-187.75 126.9,-197.83 132.48,-193.6"/>
</g>
<!-- Node20&#45;&gt;Node4 -->
<g id="edge46" class="edge">
<title>Node20&#45;&gt;Node4</title>
<path fill="none" stroke="midnightblue" d="M433.14,-336.33C413.47,-324.39 384.02,-301.87 397,-280 428.96,-226.13 500.89,-199.15 545.05,-187.18"/>
<polygon fill="midnightblue" stroke="midnightblue" points="546.02,-190.54 554.83,-184.65 544.27,-183.76 546.02,-190.54"/>
</g>
<!-- Node20&#45;&gt;Node7 -->
<g id="edge50" class="edge">
<title>Node20&#45;&gt;Node7</title>
<path fill="none" stroke="midnightblue" d="M419.19,-342.6C369.57,-337.91 273.45,-325.67 253,-300 247.46,-293.05 248.1,-287.42 253,-280 345.42,-140.11 471.78,-240.03 600,-132 615.21,-119.18 626.88,-99.45 634.01,-85.09"/>
<polygon fill="midnightblue" stroke="midnightblue" points="637.31,-86.29 638.39,-75.75 630.97,-83.32 637.31,-86.29"/>
</g>
<!-- Node20&#45;&gt;Node8 -->
<g id="edge54" class="edge">
<title>Node20&#45;&gt;Node8</title>
<path fill="none" stroke="midnightblue" d="M419.36,-342.87C368.36,-338.52 267.41,-326.67 246,-300 240.44,-293.07 243.55,-288.54 246,-280 289.47,-128.43 488.87,-47.83 568.76,-21.16"/>
<polygon fill="midnightblue" stroke="midnightblue" points="569.91,-24.47 578.33,-18.04 567.74,-17.81 569.91,-24.47"/>
</g>
<!-- Node20&#45;&gt;Node12 -->
<g id="edge47" class="edge">
<title>Node20&#45;&gt;Node12</title>
<path fill="none" stroke="midnightblue" d="M478.53,-340.28C528.03,-332.36 631.14,-315.86 729.72,-300.04"/>
<polygon fill="midnightblue" stroke="midnightblue" points="730.54,-303.46 739.86,-298.42 729.43,-296.55 730.54,-303.46"/>
</g>
<!-- Node20&#45;&gt;Node13 -->
<g id="edge45" class="edge">
<title>Node20&#45;&gt;Node13</title>
<path fill="none" stroke="midnightblue" d="M463.94,-336.32C478.59,-327.82 501.13,-314.73 518.24,-304.8"/>
<polygon fill="midnightblue" stroke="midnightblue" points="520.2,-307.7 527.1,-299.65 516.69,-301.65 520.2,-307.7"/>
</g>
<!-- Node20&#45;&gt;Node14 -->
<g id="edge44" class="edge">
<title>Node20&#45;&gt;Node14</title>
<path fill="none" stroke="midnightblue" d="M478.67,-338.49C523.77,-328.59 609.47,-309.77 658.38,-299.04"/>
<polygon fill="midnightblue" stroke="midnightblue" points="659.21,-302.44 668.23,-296.88 657.71,-295.6 659.21,-302.44"/>
</g>
<!-- Node20&#45;&gt;Node15 -->
<g id="edge51" class="edge">
<title>Node20&#45;&gt;Node15</title>
<path fill="none" stroke="midnightblue" d="M478.61,-342.13C568.39,-333.45 838.47,-307.31 953.83,-296.15"/>
<polygon fill="midnightblue" stroke="midnightblue" points="954.22,-299.62 963.84,-295.18 953.55,-292.66 954.22,-299.62"/>
</g>
<!-- Node20&#45;&gt;Node17 -->
<g id="edge49" class="edge">
<title>Node20&#45;&gt;Node17</title>
<path fill="none" stroke="midnightblue" d="M449,-336.08C449,-329.01 449,-318.86 449,-309.99"/>
<polygon fill="midnightblue" stroke="midnightblue" points="452.5,-309.75 449,-299.75 445.5,-309.75 452.5,-309.75"/>
</g>
<!-- Node20&#45;&gt;Node18 -->
<g id="edge48" class="edge">
<title>Node20&#45;&gt;Node18</title>
<path fill="none" stroke="midnightblue" d="M419.14,-343.66C357.25,-340.32 217.74,-329.62 182,-300 168.27,-288.62 162.4,-268.63 159.88,-253.81"/>
<polygon fill="midnightblue" stroke="midnightblue" points="163.33,-253.17 158.54,-243.72 156.39,-254.09 163.33,-253.17"/>
</g>
<!-- Node20&#45;&gt;Node21 -->
<g id="edge52" class="edge">
<title>Node20&#45;&gt;Node21</title>
<path fill="none" stroke="midnightblue" d="M426.34,-336.44C402.6,-327.48 365.09,-313.31 338.26,-303.18"/>
<polygon fill="midnightblue" stroke="midnightblue" points="339.14,-299.77 328.55,-299.52 336.67,-306.32 339.14,-299.77"/>
</g>
<!-- Node21&#45;&gt;Node6 -->
<g id="edge53" class="edge">
<title>Node21&#45;&gt;Node6</title>
<path fill="none" stroke="midnightblue" d="M306.52,-280.45C307.61,-261.95 310,-216.84 310,-179 310,-179 310,-179 310,-121 310,-90.9 312.28,-81.02 329,-56 337.26,-43.64 349.96,-33.04 361.18,-25.24"/>
<polygon fill="midnightblue" stroke="midnightblue" points="363.32,-28.02 369.75,-19.6 359.47,-22.17 363.32,-28.02"/>
</g>
<!-- Node22&#45;&gt;Node4 -->
<g id="edge58" class="edge">
<title>Node22&#45;&gt;Node4</title>
<path fill="none" stroke="midnightblue" d="M724.77,-337.83C765.38,-327.75 833.95,-309.55 841,-300 846.28,-292.85 846.02,-287.34 841,-280 790.65,-206.32 677.92,-186.39 619.19,-181"/>
<polygon fill="midnightblue" stroke="midnightblue" points="619.47,-177.51 609.22,-180.17 618.9,-184.48 619.47,-177.51"/>
</g>
<!-- Node22&#45;&gt;Node7 -->
<g id="edge61" class="edge">
<title>Node22&#45;&gt;Node7</title>
<path fill="none" stroke="midnightblue" d="M724.53,-337.78C770.13,-326.48 852.92,-305.37 857,-300 862.38,-292.92 860.21,-288.29 857,-280 819.83,-183.99 713.61,-110.17 665.81,-80.82"/>
<polygon fill="midnightblue" stroke="midnightblue" points="667.44,-77.71 657.07,-75.55 663.83,-83.71 667.44,-77.71"/>
</g>
<!-- Node22&#45;&gt;Node12 -->
<g id="edge59" class="edge">
<title>Node22&#45;&gt;Node12</title>
<path fill="none" stroke="midnightblue" d="M709.62,-336.32C723.95,-327.82 746.01,-314.73 762.75,-304.8"/>
<polygon fill="midnightblue" stroke="midnightblue" points="764.6,-307.77 771.42,-299.65 761.03,-301.75 764.6,-307.77"/>
</g>
<!-- Node22&#45;&gt;Node13 -->
<g id="edge57" class="edge">
<title>Node22&#45;&gt;Node13</title>
<path fill="none" stroke="midnightblue" d="M670.76,-336.44C645.13,-327.4 604.51,-313.06 575.76,-302.92"/>
<polygon fill="midnightblue" stroke="midnightblue" points="576.72,-299.54 566.13,-299.52 574.39,-306.15 576.72,-299.54"/>
</g>
<!-- Node22&#45;&gt;Node14 -->
<g id="edge56" class="edge">
<title>Node22&#45;&gt;Node14</title>
<path fill="none" stroke="midnightblue" d="M695,-336.08C695,-329.01 695,-318.86 695,-309.99"/>
<polygon fill="midnightblue" stroke="midnightblue" points="698.5,-309.75 695,-299.75 691.5,-309.75 698.5,-309.75"/>
</g>
<!-- Node22&#45;&gt;Node15 -->
<g id="edge62" class="edge">
<title>Node22&#45;&gt;Node15</title>
<path fill="none" stroke="midnightblue" d="M724.77,-337.93C727.88,-337.25 731,-336.59 734,-336 810.08,-320.97 898.78,-307 953.92,-298.73"/>
<polygon fill="midnightblue" stroke="midnightblue" points="954.45,-302.19 963.82,-297.25 953.41,-295.27 954.45,-302.19"/>
</g>
<!-- Node22&#45;&gt;Node17 -->
<g id="edge60" class="edge">
<title>Node22&#45;&gt;Node17</title>
<path fill="none" stroke="midnightblue" d="M665.2,-338.08C662.09,-337.37 658.98,-336.67 656,-336 602.46,-324 541.01,-310.7 499.07,-301.7"/>
<polygon fill="midnightblue" stroke="midnightblue" points="499.61,-298.24 489.1,-299.56 498.15,-305.08 499.61,-298.24"/>
</g>
<!-- Node22&#45;&gt;Node21 -->
<g id="edge63" class="edge">
<title>Node22&#45;&gt;Node21</title>
<path fill="none" stroke="midnightblue" d="M665.25,-337.82C662.14,-337.16 659.01,-336.54 656,-336 552.04,-317.37 429.37,-303.42 360.34,-296.3"/>
<polygon fill="midnightblue" stroke="midnightblue" points="360.44,-292.79 350.14,-295.26 359.73,-299.76 360.44,-292.79"/>
</g>
<!-- Node23&#45;&gt;Node4 -->
<g id="edge68" class="edge">
<title>Node23&#45;&gt;Node4</title>
<path fill="none" stroke="midnightblue" d="M616.06,-336.08C610.4,-309.95 593.76,-233.21 586.03,-197.58"/>
<polygon fill="midnightblue" stroke="midnightblue" points="589.4,-196.6 583.86,-187.57 582.56,-198.08 589.4,-196.6"/>
</g>
<!-- Node23&#45;&gt;Node7 -->
<g id="edge70" class="edge">
<title>Node23&#45;&gt;Node7</title>
<path fill="none" stroke="midnightblue" d="M618.74,-336.38C622.08,-297.78 635.66,-140.45 640.38,-85.81"/>
<polygon fill="midnightblue" stroke="midnightblue" points="643.89,-85.79 641.26,-75.52 636.92,-85.19 643.89,-85.79"/>
</g>
<!-- Node23&#45;&gt;Node12 -->
<g id="edge66" class="edge">
<title>Node23&#45;&gt;Node12</title>
<path fill="none" stroke="midnightblue" d="M644.62,-336.44C673.01,-327.32 718.14,-312.81 749.75,-302.65"/>
<polygon fill="midnightblue" stroke="midnightblue" points="751.06,-305.91 759.5,-299.52 748.91,-299.24 751.06,-305.91"/>
</g>
<!-- Node23&#45;&gt;Node13 -->
<g id="edge67" class="edge">
<title>Node23&#45;&gt;Node13</title>
<path fill="none" stroke="midnightblue" d="M605.79,-336.32C594.22,-328.11 576.62,-315.6 562.84,-305.81"/>
<polygon fill="midnightblue" stroke="midnightblue" points="564.61,-302.77 554.43,-299.83 560.56,-308.48 564.61,-302.77"/>
</g>
<!-- Node23&#45;&gt;Node14 -->
<g id="edge65" class="edge">
<title>Node23&#45;&gt;Node14</title>
<path fill="none" stroke="midnightblue" d="M630.37,-336.32C642.16,-328.06 660.13,-315.45 674.14,-305.63"/>
<polygon fill="midnightblue" stroke="midnightblue" points="676.48,-308.26 682.66,-299.65 672.46,-302.53 676.48,-308.26"/>
</g>
<!-- Node23&#45;&gt;Node15 -->
<g id="edge72" class="edge">
<title>Node23&#45;&gt;Node15</title>
<path fill="none" stroke="midnightblue" d="M647.81,-337.63C650.57,-337.04 653.33,-336.49 656,-336 760.78,-316.93 884.6,-303.05 953.63,-296.08"/>
<polygon fill="midnightblue" stroke="midnightblue" points="954.22,-299.54 963.82,-295.06 953.52,-292.57 954.22,-299.54"/>
</g>
<!-- Node23&#45;&gt;Node17 -->
<g id="edge69" class="edge">
<title>Node23&#45;&gt;Node17</title>
<path fill="none" stroke="midnightblue" d="M591.22,-336.44C562.67,-327.32 517.27,-312.81 485.46,-302.65"/>
<polygon fill="midnightblue" stroke="midnightblue" points="486.24,-299.23 475.65,-299.52 484.11,-305.89 486.24,-299.23"/>
</g>
<!-- Node23&#45;&gt;Node21 -->
<g id="edge71" class="edge">
<title>Node23&#45;&gt;Node21</title>
<path fill="none" stroke="midnightblue" d="M588.37,-339.87C536.03,-330.81 426.5,-311.86 360.3,-300.4"/>
<polygon fill="midnightblue" stroke="midnightblue" points="360.51,-296.88 350.06,-298.63 359.32,-303.78 360.51,-296.88"/>
</g>
</g>
</svg>
