<?xml version="1.0" encoding="UTF-8" standalone="no"?>
<!DOCTYPE svg PUBLIC "-//W3C//DTD SVG 1.1//EN"
 "http://www.w3.org/Graphics/SVG/1.1/DTD/svg11.dtd">
<!-- Generated by graphviz version 2.43.0 (0)
 -->
<!-- Title: src/MIDIHandler.cpp Pages: 1 -->
<!--zoomable 364 -->
<svg id="main" version="1.1" xmlns="http://www.w3.org/2000/svg" xmlns:xlink="http://www.w3.org/1999/xlink" xml:space="preserve" onload="init(evt)">
<style type="text/css"><![CDATA[
.edge:hover path { stroke: red; }
.edge:hover polygon { stroke: red; fill: red; }
]]></style>
<script type="text/javascript"><![CDATA[
var edges = document.getElementsByTagName('g');
if (edges && edges.length) {
  for (var i=0;i<edges.length;i++) {
    if (edges[i].id.substr(0,4)=='edge') {
      edges[i].setAttribute('class','edge');
    }
  }
}
]]></script>
        <defs>
                <circle id="rim" cx="0" cy="0" r="7"/>
                <circle id="rim2" cx="0" cy="0" r="3.5"/>
                <g id="zoomPlus">
                        <use xlink:href="#rim" fill="#404040">
                                <set attributeName="fill" to="#808080" begin="zoomplus.mouseover" end="zoomplus.mouseout"/>
                        </use>
                        <path d="M-4,0h8M0,-4v8" fill="none" stroke="white" stroke-width="1.5" pointer-events="none"/>
                </g>
                <g id="zoomMin">
                        <use xlink:href="#rim" fill="#404040">
                                <set attributeName="fill" to="#808080" begin="zoomminus.mouseover" end="zoomminus.mouseout"/>
                        </use>
                        <path d="M-4,0h8" fill="none" stroke="white" stroke-width="1.5" pointer-events="none"/>
                </g>
                <g id="dirArrow">
                        <path fill="none" stroke="white" stroke-width="1.5" d="M0,-3.0v7 M-2.5,-0.5L0,-3.0L2.5,-0.5"/>
                </g>
               <g id="resetDef">
                       <use xlink:href="#rim2" fill="#404040">
                               <set attributeName="fill" to="#808080" begin="reset.mouseover" end="reset.mouseout"/>
                       </use>
               </g>
        </defs>

<script type="text/javascript">
var viewWidth = 771;
var viewHeight = 364;
var sectionId = 'dynsection-0';
</script>
<script xlink:href="svgpan.js"/>
<svg id="graph" class="graph">
<g id="viewport">
<title>src/MIDIHandler.cpp</title>
<polygon fill="white" stroke="transparent" points="-4,4 -4,-360 767.34,-360 767.34,4 -4,4"/>
<!-- Node1 -->
<g id="node1" class="node">
<title>Node1</title>
<g id="a_node1"><a xlink:title=" ">
<polygon fill="#bfbfbf" stroke="black" points="649.34,-336.5 649.34,-355.5 763.34,-355.5 763.34,-336.5 649.34,-336.5"/>
<text text-anchor="middle" x="706.34" y="-343.5" font-family="Helvetica,sans-Serif" font-size="10.00">src/MIDIHandler.cpp</text>
</a>
</g>
</g>
<!-- Node2 -->
<g id="node2" class="node">
<title>Node2</title>
<g id="a_node2"><a xlink:href="MIDIHandler_8h.html" target="_top" xlink:title=" ">
<polygon fill="white" stroke="black" points="233.34,-280.5 233.34,-299.5 319.34,-299.5 319.34,-280.5 233.34,-280.5"/>
<text text-anchor="middle" x="276.34" y="-287.5" font-family="Helvetica,sans-Serif" font-size="10.00">MIDIHandler.h</text>
</a>
</g>
</g>
<!-- Node1&#45;&gt;Node2 -->
<g id="edge1" class="edge">
<title>Node1&#45;&gt;Node2</title>
<path fill="none" stroke="midnightblue" d="M649.24,-337.83C565.55,-327.32 410.72,-307.88 329.4,-297.66"/>
<polygon fill="midnightblue" stroke="midnightblue" points="329.74,-294.18 319.38,-296.4 328.86,-301.12 329.74,-294.18"/>
</g>
<!-- Node9 -->
<g id="node9" class="node">
<title>Node9</title>
<g id="a_node9"><a xlink:title=" ">
<polygon fill="white" stroke="#bfbfbf" points="596.84,-56.5 596.84,-75.5 659.84,-75.5 659.84,-56.5 596.84,-56.5"/>
<text text-anchor="middle" x="628.34" y="-63.5" font-family="Helvetica,sans-Serif" font-size="10.00">Arduino.h</text>
</a>
</g>
</g>
<!-- Node1&#45;&gt;Node9 -->
<g id="edge24" class="edge">
<title>Node1&#45;&gt;Node9</title>
<path fill="none" stroke="midnightblue" d="M709.94,-336.22C713.4,-327.28 718.38,-312.94 720.34,-300 721.68,-291.21 720.82,-288.88 720.34,-280 716.27,-203.65 725.35,-175.88 683.34,-112 675.27,-99.72 662.79,-89.12 651.77,-81.3"/>
<polygon fill="midnightblue" stroke="midnightblue" points="653.6,-78.31 643.35,-75.65 649.7,-84.13 653.6,-78.31"/>
</g>
<!-- Node14 -->
<g id="node14" class="node">
<title>Node14</title>
<g id="a_node14"><a xlink:href="Debug_8h.html" target="_top" xlink:title=" ">
<polygon fill="white" stroke="black" points="616.84,-112.5 616.84,-131.5 673.84,-131.5 673.84,-112.5 616.84,-112.5"/>
<text text-anchor="middle" x="645.34" y="-119.5" font-family="Helvetica,sans-Serif" font-size="10.00">Debug.h</text>
</a>
</g>
</g>
<!-- Node1&#45;&gt;Node14 -->
<g id="edge22" class="edge">
<title>Node1&#45;&gt;Node14</title>
<path fill="none" stroke="midnightblue" d="M706.79,-336.45C707.84,-310.1 708.64,-228.26 682.34,-168 677.61,-157.15 669.48,-146.82 662.04,-138.8"/>
<polygon fill="midnightblue" stroke="midnightblue" points="664.49,-136.3 654.98,-131.62 659.49,-141.2 664.49,-136.3"/>
</g>
<!-- Node15 -->
<g id="node15" class="node">
<title>Node15</title>
<g id="a_node15"><a xlink:href="ModeSelector_8h.html" target="_top" xlink:title=" ">
<polygon fill="white" stroke="black" points="530.34,-224.5 530.34,-243.5 622.34,-243.5 622.34,-224.5 530.34,-224.5"/>
<text text-anchor="middle" x="576.34" y="-231.5" font-family="Helvetica,sans-Serif" font-size="10.00">ModeSelector.h</text>
</a>
</g>
</g>
<!-- Node1&#45;&gt;Node15 -->
<g id="edge25" class="edge">
<title>Node1&#45;&gt;Node15</title>
<path fill="none" stroke="midnightblue" d="M696.14,-336.37C674.12,-317.73 621.88,-273.53 594.23,-250.13"/>
<polygon fill="midnightblue" stroke="midnightblue" points="596.39,-247.38 586.5,-243.59 591.87,-252.72 596.39,-247.38"/>
</g>
<!-- Node3 -->
<g id="node3" class="node">
<title>Node3</title>
<g id="a_node3"><a xlink:title=" ">
<polygon fill="white" stroke="#bfbfbf" points="200.34,-224.5 200.34,-243.5 248.34,-243.5 248.34,-224.5 200.34,-224.5"/>
<text text-anchor="middle" x="224.34" y="-231.5" font-family="Helvetica,sans-Serif" font-size="10.00">MIDI.h</text>
</a>
</g>
</g>
<!-- Node2&#45;&gt;Node3 -->
<g id="edge2" class="edge">
<title>Node2&#45;&gt;Node3</title>
<path fill="none" stroke="midnightblue" d="M267.76,-280.08C260.19,-272.22 248.97,-260.57 239.83,-251.08"/>
<polygon fill="midnightblue" stroke="midnightblue" points="242.23,-248.53 232.77,-243.75 237.19,-253.38 242.23,-248.53"/>
</g>
<!-- Node4 -->
<g id="node4" class="node">
<title>Node4</title>
<g id="a_node4"><a xlink:href="EurorackClock_8h.html" target="_top" xlink:title=" ">
<polygon fill="white" stroke="black" points="86.84,-224.5 86.84,-243.5 181.84,-243.5 181.84,-224.5 86.84,-224.5"/>
<text text-anchor="middle" x="134.34" y="-231.5" font-family="Helvetica,sans-Serif" font-size="10.00">EurorackClock.h</text>
</a>
</g>
</g>
<!-- Node2&#45;&gt;Node4 -->
<g id="edge3" class="edge">
<title>Node2&#45;&gt;Node4</title>
<path fill="none" stroke="midnightblue" d="M253.84,-280.44C230.27,-271.48 193.02,-257.31 166.38,-247.18"/>
<polygon fill="midnightblue" stroke="midnightblue" points="167.33,-243.8 156.74,-243.52 164.84,-250.34 167.33,-243.8"/>
</g>
<!-- Node8 -->
<g id="node8" class="node">
<title>Node8</title>
<g id="a_node8"><a xlink:href="Gates_8h.html" target="_top" xlink:title=" ">
<polygon fill="white" stroke="black" points="443.34,-168.5 443.34,-187.5 497.34,-187.5 497.34,-168.5 443.34,-168.5"/>
<text text-anchor="middle" x="470.34" y="-175.5" font-family="Helvetica,sans-Serif" font-size="10.00">Gates.h</text>
</a>
</g>
</g>
<!-- Node2&#45;&gt;Node8 -->
<g id="edge20" class="edge">
<title>Node2&#45;&gt;Node8</title>
<path fill="none" stroke="midnightblue" d="M291.57,-280.37C325.14,-261.33 405.77,-215.62 446.27,-192.65"/>
<polygon fill="midnightblue" stroke="midnightblue" points="448.22,-195.57 455.19,-187.59 444.77,-189.48 448.22,-195.57"/>
</g>
<!-- Node13 -->
<g id="node13" class="node">
<title>Node13</title>
<g id="a_node13"><a xlink:href="LEDs_8h.html" target="_top" xlink:title=" ">
<polygon fill="white" stroke="black" points="252.34,-112.5 252.34,-131.5 302.34,-131.5 302.34,-112.5 252.34,-112.5"/>
<text text-anchor="middle" x="277.34" y="-119.5" font-family="Helvetica,sans-Serif" font-size="10.00">LEDs.h</text>
</a>
</g>
</g>
<!-- Node2&#45;&gt;Node13 -->
<g id="edge21" class="edge">
<title>Node2&#45;&gt;Node13</title>
<path fill="none" stroke="midnightblue" d="M276.4,-280.08C276.56,-253.95 277.02,-177.21 277.23,-141.58"/>
<polygon fill="midnightblue" stroke="midnightblue" points="280.73,-141.59 277.29,-131.57 273.73,-141.55 280.73,-141.59"/>
</g>
<!-- Node5 -->
<g id="node5" class="node">
<title>Node5</title>
<g id="a_node5"><a xlink:title=" ">
<polygon fill="white" stroke="#bfbfbf" points="12.84,-168.5 12.84,-187.5 113.84,-187.5 113.84,-168.5 12.84,-168.5"/>
<text text-anchor="middle" x="63.34" y="-175.5" font-family="Helvetica,sans-Serif" font-size="10.00">HardwareTimer.h</text>
</a>
</g>
</g>
<!-- Node4&#45;&gt;Node5 -->
<g id="edge4" class="edge">
<title>Node4&#45;&gt;Node5</title>
<path fill="none" stroke="midnightblue" d="M122.94,-224.32C112.24,-216.18 96,-203.84 83.18,-194.09"/>
<polygon fill="midnightblue" stroke="midnightblue" points="85.04,-191.1 74.96,-187.83 80.8,-196.67 85.04,-191.1"/>
</g>
<!-- Node6 -->
<g id="node6" class="node">
<title>Node6</title>
<g id="a_node6"><a xlink:href="LED_8h.html" target="_top" xlink:title=" ">
<polygon fill="white" stroke="black" points="150.34,-56.5 150.34,-75.5 194.34,-75.5 194.34,-56.5 150.34,-56.5"/>
<text text-anchor="middle" x="172.34" y="-63.5" font-family="Helvetica,sans-Serif" font-size="10.00">LED.h</text>
</a>
</g>
</g>
<!-- Node4&#45;&gt;Node6 -->
<g id="edge5" class="edge">
<title>Node4&#45;&gt;Node6</title>
<path fill="none" stroke="midnightblue" d="M136.18,-224.48C140.47,-204.69 151.5,-154.13 161.34,-112 163.38,-103.28 165.73,-93.63 167.73,-85.51"/>
<polygon fill="midnightblue" stroke="midnightblue" points="171.17,-86.16 170.18,-75.61 164.38,-84.48 171.17,-86.16"/>
</g>
<!-- Node7 -->
<g id="node7" class="node">
<title>Node7</title>
<g id="a_node7"><a xlink:href="Pin_8h.html" target="_top" xlink:title=" ">
<polygon fill="white" stroke="black" points="201.84,-0.5 201.84,-19.5 242.84,-19.5 242.84,-0.5 201.84,-0.5"/>
<text text-anchor="middle" x="222.34" y="-7.5" font-family="Helvetica,sans-Serif" font-size="10.00">Pin.h</text>
</a>
</g>
</g>
<!-- Node4&#45;&gt;Node7 -->
<g id="edge7" class="edge">
<title>Node4&#45;&gt;Node7</title>
<path fill="none" stroke="midnightblue" d="M86.76,-228.1C42.46,-221.2 -14.29,-205.02 3.34,-168 41.16,-88.61 141.51,-41.16 192.18,-21.55"/>
<polygon fill="midnightblue" stroke="midnightblue" points="193.49,-24.8 201.61,-18 191.02,-18.24 193.49,-24.8"/>
</g>
<!-- Node4&#45;&gt;Node8 -->
<g id="edge8" class="edge">
<title>Node4&#45;&gt;Node8</title>
<path fill="none" stroke="midnightblue" d="M181.92,-225.45C185.11,-224.96 188.27,-224.47 191.34,-224 296.1,-207.97 325.55,-209.18 433.31,-188.04"/>
<polygon fill="midnightblue" stroke="midnightblue" points="434.15,-191.44 443.28,-186.07 432.79,-184.58 434.15,-191.44"/>
</g>
<!-- Node11 -->
<g id="node11" class="node">
<title>Node11</title>
<g id="a_node11"><a xlink:href="Constants_8h.html" target="_top" xlink:title=" ">
<polygon fill="white" stroke="black" points="359.34,-56.5 359.34,-75.5 433.34,-75.5 433.34,-56.5 359.34,-56.5"/>
<text text-anchor="middle" x="396.34" y="-63.5" font-family="Helvetica,sans-Serif" font-size="10.00">Constants.h</text>
</a>
</g>
</g>
<!-- Node4&#45;&gt;Node11 -->
<g id="edge19" class="edge">
<title>Node4&#45;&gt;Node11</title>
<path fill="none" stroke="midnightblue" d="M149.93,-224.47C166.28,-215.49 192.7,-200.89 215.34,-188 258.27,-163.56 270.31,-159.5 311.34,-132 335.13,-116.06 361.09,-95.75 377.98,-82.11"/>
<polygon fill="midnightblue" stroke="midnightblue" points="380.38,-84.67 385.92,-75.65 375.96,-79.24 380.38,-84.67"/>
</g>
<!-- Node4&#45;&gt;Node13 -->
<g id="edge18" class="edge">
<title>Node4&#45;&gt;Node13</title>
<path fill="none" stroke="midnightblue" d="M144.7,-224.42C159.98,-211.83 189.55,-187.69 215.34,-168 228.96,-157.61 244.56,-146.29 256.71,-137.6"/>
<polygon fill="midnightblue" stroke="midnightblue" points="258.75,-140.44 264.86,-131.79 254.69,-134.74 258.75,-140.44"/>
</g>
<!-- Node6&#45;&gt;Node7 -->
<g id="edge6" class="edge">
<title>Node6&#45;&gt;Node7</title>
<path fill="none" stroke="midnightblue" d="M180.6,-56.08C187.81,-48.3 198.45,-36.8 207.19,-27.37"/>
<polygon fill="midnightblue" stroke="midnightblue" points="210.02,-29.47 214.24,-19.75 204.88,-24.71 210.02,-29.47"/>
</g>
<!-- Node8&#45;&gt;Node9 -->
<g id="edge9" class="edge">
<title>Node8&#45;&gt;Node9</title>
<path fill="none" stroke="midnightblue" d="M482.74,-168.37C509.74,-149.57 574.09,-104.77 607.47,-81.53"/>
<polygon fill="midnightblue" stroke="midnightblue" points="609.8,-84.18 616,-75.59 605.8,-78.43 609.8,-84.18"/>
</g>
<!-- Node10 -->
<g id="node10" class="node">
<title>Node10</title>
<g id="a_node10"><a xlink:href="Gate_8h.html" target="_top" xlink:title=" ">
<polygon fill="white" stroke="black" points="358.84,-112.5 358.84,-131.5 407.84,-131.5 407.84,-112.5 358.84,-112.5"/>
<text text-anchor="middle" x="383.34" y="-119.5" font-family="Helvetica,sans-Serif" font-size="10.00">Gate.h</text>
</a>
</g>
</g>
<!-- Node8&#45;&gt;Node10 -->
<g id="edge10" class="edge">
<title>Node8&#45;&gt;Node10</title>
<path fill="none" stroke="midnightblue" d="M456.37,-168.32C442.79,-159.9 421.96,-146.97 406.02,-137.07"/>
<polygon fill="midnightblue" stroke="midnightblue" points="407.63,-133.95 397.29,-131.65 403.94,-139.9 407.63,-133.95"/>
</g>
<!-- Node12 -->
<g id="node12" class="node">
<title>Node12</title>
<g id="a_node12"><a xlink:title=" ">
<polygon fill="white" stroke="#bfbfbf" points="411.84,-0.5 411.84,-19.5 458.84,-19.5 458.84,-0.5 411.84,-0.5"/>
<text text-anchor="middle" x="435.34" y="-7.5" font-family="Helvetica,sans-Serif" font-size="10.00">vector</text>
</a>
</g>
</g>
<!-- Node8&#45;&gt;Node12 -->
<g id="edge17" class="edge">
<title>Node8&#45;&gt;Node12</title>
<path fill="none" stroke="midnightblue" d="M468.46,-168.08C462.95,-141.95 446.77,-65.21 439.26,-29.58"/>
<polygon fill="midnightblue" stroke="midnightblue" points="442.64,-28.63 437.15,-19.57 435.79,-30.08 442.64,-28.63"/>
</g>
<!-- Node8&#45;&gt;Node13 -->
<g id="edge14" class="edge">
<title>Node8&#45;&gt;Node13</title>
<path fill="none" stroke="midnightblue" d="M443.1,-169.38C408.91,-159.81 350.2,-143.38 312.61,-132.87"/>
<polygon fill="midnightblue" stroke="midnightblue" points="313.18,-129.39 302.61,-130.07 311.29,-136.13 313.18,-129.39"/>
</g>
<!-- Node10&#45;&gt;Node7 -->
<g id="edge11" class="edge">
<title>Node10&#45;&gt;Node7</title>
<path fill="none" stroke="midnightblue" d="M370.71,-112.37C343.08,-93.49 277.06,-48.38 243.18,-25.24"/>
<polygon fill="midnightblue" stroke="midnightblue" points="245.15,-22.34 234.92,-19.59 241.2,-28.12 245.15,-22.34"/>
</g>
<!-- Node10&#45;&gt;Node11 -->
<g id="edge12" class="edge">
<title>Node10&#45;&gt;Node11</title>
<path fill="none" stroke="midnightblue" d="M385.49,-112.08C387.21,-104.93 389.69,-94.64 391.84,-85.69"/>
<polygon fill="midnightblue" stroke="midnightblue" points="395.3,-86.29 394.24,-75.75 388.49,-84.65 395.3,-86.29"/>
</g>
<!-- Node11&#45;&gt;Node12 -->
<g id="edge13" class="edge">
<title>Node11&#45;&gt;Node12</title>
<path fill="none" stroke="midnightblue" d="M402.78,-56.08C408.29,-48.46 416.38,-37.26 423.11,-27.94"/>
<polygon fill="midnightblue" stroke="midnightblue" points="426.01,-29.91 429.02,-19.75 420.33,-25.81 426.01,-29.91"/>
</g>
<!-- Node13&#45;&gt;Node6 -->
<g id="edge15" class="edge">
<title>Node13&#45;&gt;Node6</title>
<path fill="none" stroke="midnightblue" d="M260.47,-112.32C243.64,-103.66 217.54,-90.24 198.11,-80.25"/>
<polygon fill="midnightblue" stroke="midnightblue" points="199.67,-77.12 189.17,-75.65 196.46,-83.34 199.67,-77.12"/>
</g>
<!-- Node13&#45;&gt;Node12 -->
<g id="edge16" class="edge">
<title>Node13&#45;&gt;Node12</title>
<path fill="none" stroke="midnightblue" d="M285.76,-112.26C298.78,-99.04 324.98,-73.62 350.34,-56 368.11,-43.66 389.67,-32.28 406.63,-24.05"/>
<polygon fill="midnightblue" stroke="midnightblue" points="408.49,-27.04 416.02,-19.59 405.48,-20.72 408.49,-27.04"/>
</g>
<!-- Node14&#45;&gt;Node9 -->
<g id="edge23" class="edge">
<title>Node14&#45;&gt;Node9</title>
<path fill="none" stroke="midnightblue" d="M642.54,-112.08C640.26,-104.85 636.97,-94.41 634.14,-85.4"/>
<polygon fill="midnightblue" stroke="midnightblue" points="637.44,-84.24 631.1,-75.75 630.76,-86.34 637.44,-84.24"/>
</g>
<!-- Node15&#45;&gt;Node12 -->
<g id="edge26" class="edge">
<title>Node15&#45;&gt;Node12</title>
<path fill="none" stroke="midnightblue" d="M622.4,-225.39C644.39,-219.2 668.81,-208.05 682.34,-188 715.32,-139.13 712.16,-96.52 669.34,-56 640.92,-29.1 526.67,-17.38 469,-13.1"/>
<polygon fill="midnightblue" stroke="midnightblue" points="469.15,-9.6 458.92,-12.38 468.65,-16.58 469.15,-9.6"/>
</g>
<!-- Node16 -->
<g id="node16" class="node">
<title>Node16</title>
<g id="a_node16"><a xlink:href="LEDController_8h.html" target="_top" xlink:title=" ">
<polygon fill="white" stroke="black" points="333.34,-168.5 333.34,-187.5 425.34,-187.5 425.34,-168.5 333.34,-168.5"/>
<text text-anchor="middle" x="379.34" y="-175.5" font-family="Helvetica,sans-Serif" font-size="10.00">LEDController.h</text>
</a>
</g>
</g>
<!-- Node15&#45;&gt;Node16 -->
<g id="edge27" class="edge">
<title>Node15&#45;&gt;Node16</title>
<path fill="none" stroke="midnightblue" d="M545.13,-224.44C511.41,-215.2 457.54,-200.44 420.41,-190.26"/>
<polygon fill="midnightblue" stroke="midnightblue" points="420.98,-186.78 410.41,-187.52 419.13,-193.54 420.98,-186.78"/>
</g>
<!-- Node17 -->
<g id="node17" class="node">
<title>Node17</title>
<g id="a_node17"><a xlink:href="Encoder_8h.html" target="_top" xlink:title=" ">
<polygon fill="white" stroke="black" points="170.34,-112.5 170.34,-131.5 234.34,-131.5 234.34,-112.5 170.34,-112.5"/>
<text text-anchor="middle" x="202.34" y="-119.5" font-family="Helvetica,sans-Serif" font-size="10.00">Encoder.h</text>
</a>
</g>
</g>
<!-- Node15&#45;&gt;Node17 -->
<g id="edge29" class="edge">
<title>Node15&#45;&gt;Node17</title>
<path fill="none" stroke="midnightblue" d="M530.19,-229.12C478.81,-223.81 393.85,-212.05 324.34,-188 287.1,-175.11 247.44,-152.02 223.79,-137.11"/>
<polygon fill="midnightblue" stroke="midnightblue" points="225.57,-134.09 215.26,-131.65 221.79,-139.99 225.57,-134.09"/>
</g>
<!-- Node18 -->
<g id="node18" class="node">
<title>Node18</title>
<g id="a_node18"><a xlink:href="Mode_8h.html" target="_top" xlink:title=" ">
<polygon fill="white" stroke="black" points="515.84,-168.5 515.84,-187.5 568.84,-187.5 568.84,-168.5 515.84,-168.5"/>
<text text-anchor="middle" x="542.34" y="-175.5" font-family="Helvetica,sans-Serif" font-size="10.00">Mode.h</text>
</a>
</g>
</g>
<!-- Node15&#45;&gt;Node18 -->
<g id="edge31" class="edge">
<title>Node15&#45;&gt;Node18</title>
<path fill="none" stroke="midnightblue" d="M570.73,-224.08C565.98,-216.53 559.03,-205.49 553.19,-196.23"/>
<polygon fill="midnightblue" stroke="midnightblue" points="556.14,-194.35 547.85,-187.75 550.22,-198.08 556.14,-194.35"/>
</g>
<!-- Node19 -->
<g id="node19" class="node">
<title>Node19</title>
<g id="a_node19"><a xlink:href="ResetButton_8h.html" target="_top" xlink:title=" ">
<polygon fill="white" stroke="black" points="587.34,-168.5 587.34,-187.5 673.34,-187.5 673.34,-168.5 587.34,-168.5"/>
<text text-anchor="middle" x="630.34" y="-175.5" font-family="Helvetica,sans-Serif" font-size="10.00">ResetButton.h</text>
</a>
</g>
</g>
<!-- Node15&#45;&gt;Node19 -->
<g id="edge32" class="edge">
<title>Node15&#45;&gt;Node19</title>
<path fill="none" stroke="midnightblue" d="M585.26,-224.08C593.12,-216.22 604.78,-204.57 614.26,-195.08"/>
<polygon fill="midnightblue" stroke="midnightblue" points="617,-197.3 621.59,-187.75 612.05,-192.35 617,-197.3"/>
</g>
<!-- Node16&#45;&gt;Node13 -->
<g id="edge28" class="edge">
<title>Node16&#45;&gt;Node13</title>
<path fill="none" stroke="midnightblue" d="M362.96,-168.32C346.67,-159.7 321.48,-146.36 302.63,-136.39"/>
<polygon fill="midnightblue" stroke="midnightblue" points="304.17,-133.24 293.69,-131.65 300.89,-139.43 304.17,-133.24"/>
</g>
<!-- Node17&#45;&gt;Node7 -->
<g id="edge30" class="edge">
<title>Node17&#45;&gt;Node7</title>
<path fill="none" stroke="midnightblue" d="M203.91,-112.37C207.14,-94.62 214.59,-53.67 218.96,-29.6"/>
<polygon fill="midnightblue" stroke="midnightblue" points="222.44,-30.06 220.78,-19.59 215.55,-28.8 222.44,-30.06"/>
</g>
<!-- Node19&#45;&gt;Node7 -->
<g id="edge33" class="edge">
<title>Node19&#45;&gt;Node7</title>
<path fill="none" stroke="midnightblue" d="M620.11,-168.41C593,-146.13 516.39,-86.16 442.34,-56 377.97,-29.78 296.55,-18.25 253.05,-13.67"/>
<polygon fill="midnightblue" stroke="midnightblue" points="253.4,-10.19 243.1,-12.68 252.7,-17.16 253.4,-10.19"/>
</g>
<!-- Node19&#45;&gt;Node9 -->
<g id="edge34" class="edge">
<title>Node19&#45;&gt;Node9</title>
<path fill="none" stroke="midnightblue" d="M624.71,-168.48C619.29,-159.74 611.48,-145.56 608.34,-132 604.57,-115.68 611.12,-97.49 617.71,-84.51"/>
<polygon fill="midnightblue" stroke="midnightblue" points="620.79,-86.17 622.59,-75.72 614.67,-82.77 620.79,-86.17"/>
</g>
<!-- Node19&#45;&gt;Node11 -->
<g id="edge36" class="edge">
<title>Node19&#45;&gt;Node11</title>
<path fill="none" stroke="midnightblue" d="M611.98,-168.37C571.06,-149.13 472.18,-102.65 423.85,-79.93"/>
<polygon fill="midnightblue" stroke="midnightblue" points="425.16,-76.68 414.62,-75.59 422.18,-83.01 425.16,-76.68"/>
</g>
<!-- Node19&#45;&gt;Node14 -->
<g id="edge35" class="edge">
<title>Node19&#45;&gt;Node14</title>
<path fill="none" stroke="midnightblue" d="M632.82,-168.08C634.83,-160.85 637.73,-150.41 640.23,-141.4"/>
<polygon fill="midnightblue" stroke="midnightblue" points="643.61,-142.32 642.91,-131.75 636.86,-140.45 643.61,-142.32"/>
</g>
</g>
</svg>
        <g id="navigator" transform="translate(0 0)" fill="#404254">
                <rect fill="#f2f5e9" fill-opacity="0.5" stroke="#606060" stroke-width=".5" x="0" y="0" width="60" height="60"/>
                <use id="zoomplus" xlink:href="#zoomPlus" x="17" y="9" onmousedown="handleZoom(evt,'in')"/>
                <use id="zoomminus" xlink:href="#zoomMin" x="42" y="9" onmousedown="handleZoom(evt,'out')"/>
                <use id="reset" xlink:href="#resetDef" x="30" y="36" onmousedown="handleReset()"/>
                <g id="arrowUp" xlink:href="#dirArrow" transform="translate(30 24)" onmousedown="handlePan(0,-1)">
                  <use xlink:href="#rim" fill="#404040">
                        <set attributeName="fill" to="#808080" begin="arrowUp.mouseover" end="arrowUp.mouseout"/>
                  </use>
                  <path fill="none" stroke="white" stroke-width="1.5" d="M0,-3.0v7 M-2.5,-0.5L0,-3.0L2.5,-0.5"/>
                </g>
                <g id="arrowRight" xlink:href="#dirArrow" transform="rotate(90) translate(36 -43)" onmousedown="handlePan(1,0)">
                  <use xlink:href="#rim" fill="#404040">
                        <set attributeName="fill" to="#808080" begin="arrowRight.mouseover" end="arrowRight.mouseout"/>
                  </use>
                  <path fill="none" stroke="white" stroke-width="1.5" d="M0,-3.0v7 M-2.5,-0.5L0,-3.0L2.5,-0.5"/>
                </g>
                <g id="arrowDown" xlink:href="#dirArrow" transform="rotate(180) translate(-30 -48)" onmousedown="handlePan(0,1)">
                  <use xlink:href="#rim" fill="#404040">
                        <set attributeName="fill" to="#808080" begin="arrowDown.mouseover" end="arrowDown.mouseout"/>
                  </use>
                  <path fill="none" stroke="white" stroke-width="1.5" d="M0,-3.0v7 M-2.5,-0.5L0,-3.0L2.5,-0.5"/>
                </g>
                <g id="arrowLeft" xlink:href="#dirArrow" transform="rotate(270) translate(-36 17)" onmousedown="handlePan(-1,0)">
                  <use xlink:href="#rim" fill="#404040">
                        <set attributeName="fill" to="#808080" begin="arrowLeft.mouseover" end="arrowLeft.mouseout"/>
                  </use>
                  <path fill="none" stroke="white" stroke-width="1.5" d="M0,-3.0v7 M-2.5,-0.5L0,-3.0L2.5,-0.5"/>
                </g>
        </g>
        <svg viewBox="0 0 15 15" width="100%" height="30px" preserveAspectRatio="xMaxYMin meet">
         <g id="arrow_out" transform="scale(0.3 0.3)">
          <a xlink:href="MIDIHandler_8cpp__incl_org.svg" target="_base">
           <rect id="button" ry="5" rx="5" y="6" x="6" height="38" width="38"
                fill="#f2f5e9" fill-opacity="0.5" stroke="#606060" stroke-width="1.0"/>
           <path id="arrow"
             d="M 11.500037,31.436501 C 11.940474,20.09759 22.043105,11.32322 32.158766,21.979434 L 37.068811,17.246167 C 37.068811,17.246167 37.088388,32 37.088388,32 L 22.160133,31.978069 C 22.160133,31.978069 26.997745,27.140456 26.997745,27.140456 C 18.528582,18.264221 13.291696,25.230495 11.500037,31.436501 z"
             style="fill:#404040;"/>
          </a>
         </g>
        </svg>
</svg>
