<?xml version="1.0" encoding="UTF-8" standalone="no"?>
<!DOCTYPE svg PUBLIC "-//W3C//DTD SVG 1.1//EN"
 "http://www.w3.org/Graphics/SVG/1.1/DTD/svg11.dtd">
<!-- Generated by graphviz version 2.43.0 (0)
 -->
<!-- Title: include/MIDIHandler.h Pages: 1 -->
<svg width="397pt" height="308pt"
 viewBox="0.00 0.00 396.51 308.00" xmlns="http://www.w3.org/2000/svg" xmlns:xlink="http://www.w3.org/1999/xlink">
<g id="graph0" class="graph" transform="scale(1 1) rotate(0) translate(4 304)">
<title>include/MIDIHandler.h</title>
<polygon fill="white" stroke="transparent" points="-4,4 -4,-304 392.51,-304 392.51,4 -4,4"/>
<!-- Node1 -->
<g id="node1" class="node">
<title>Node1</title>
<g id="a_node1"><a xlink:title=" ">
<polygon fill="#bfbfbf" stroke="black" points="128.01,-280.5 128.01,-299.5 252.01,-299.5 252.01,-280.5 128.01,-280.5"/>
<text text-anchor="middle" x="190.01" y="-287.5" font-family="Helvetica,sans-Serif" font-size="10.00">include/MIDIHandler.h</text>
</a>
</g>
</g>
<!-- Node2 -->
<g id="node2" class="node">
<title>Node2</title>
<g id="a_node2"><a xlink:title=" ">
<polygon fill="white" stroke="#bfbfbf" points="18.01,-224.5 18.01,-243.5 66.01,-243.5 66.01,-224.5 18.01,-224.5"/>
<text text-anchor="middle" x="42.01" y="-231.5" font-family="Helvetica,sans-Serif" font-size="10.00">MIDI.h</text>
</a>
</g>
</g>
<!-- Node1&#45;&gt;Node2 -->
<g id="edge1" class="edge">
<title>Node1&#45;&gt;Node2</title>
<path fill="none" stroke="midnightblue" d="M166.56,-280.44C141.88,-271.44 102.82,-257.19 75.03,-247.05"/>
<polygon fill="midnightblue" stroke="midnightblue" points="75.94,-243.66 65.35,-243.52 73.54,-250.23 75.94,-243.66"/>
</g>
<!-- Node3 -->
<g id="node3" class="node">
<title>Node3</title>
<g id="a_node3"><a xlink:href="EurorackClock_8h.xhtml" target="_top" xlink:title=" ">
<polygon fill="white" stroke="black" points="84.51,-224.5 84.51,-243.5 179.51,-243.5 179.51,-224.5 84.51,-224.5"/>
<text text-anchor="middle" x="132.01" y="-231.5" font-family="Helvetica,sans-Serif" font-size="10.00">EurorackClock.h</text>
</a>
</g>
</g>
<!-- Node1&#45;&gt;Node3 -->
<g id="edge2" class="edge">
<title>Node1&#45;&gt;Node3</title>
<path fill="none" stroke="midnightblue" d="M180.69,-280.32C172.12,-272.34 159.2,-260.31 148.82,-250.65"/>
<polygon fill="midnightblue" stroke="midnightblue" points="151.2,-248.09 141.5,-243.83 146.43,-253.21 151.2,-248.09"/>
</g>
<!-- Node7 -->
<g id="node7" class="node">
<title>Node7</title>
<g id="a_node7"><a xlink:href="Gates_8h.xhtml" target="_top" xlink:title=" ">
<polygon fill="white" stroke="black" points="257.01,-168.5 257.01,-187.5 311.01,-187.5 311.01,-168.5 257.01,-168.5"/>
<text text-anchor="middle" x="284.01" y="-175.5" font-family="Helvetica,sans-Serif" font-size="10.00">Gates.h</text>
</a>
</g>
</g>
<!-- Node1&#45;&gt;Node7 -->
<g id="edge19" class="edge">
<title>Node1&#45;&gt;Node7</title>
<path fill="none" stroke="midnightblue" d="M202.3,-280.27C213.68,-271.82 230.67,-258.22 243.01,-244 255.82,-229.24 267.39,-210.1 274.95,-196.41"/>
<polygon fill="midnightblue" stroke="midnightblue" points="278.05,-198.02 279.7,-187.56 271.89,-194.71 278.05,-198.02"/>
</g>
<!-- Node12 -->
<g id="node12" class="node">
<title>Node12</title>
<g id="a_node12"><a xlink:href="LEDs_8h.xhtml" target="_top" xlink:title=" ">
<polygon fill="white" stroke="black" points="101.01,-112.5 101.01,-131.5 151.01,-131.5 151.01,-112.5 101.01,-112.5"/>
<text text-anchor="middle" x="126.01" y="-119.5" font-family="Helvetica,sans-Serif" font-size="10.00">LEDs.h</text>
</a>
</g>
</g>
<!-- Node1&#45;&gt;Node12 -->
<g id="edge20" class="edge">
<title>Node1&#45;&gt;Node12</title>
<path fill="none" stroke="midnightblue" d="M190.76,-280.35C192.15,-259.41 193.2,-205.02 171.01,-168 164.31,-156.83 154.24,-146.4 145.32,-138.4"/>
<polygon fill="midnightblue" stroke="midnightblue" points="147.46,-135.63 137.58,-131.79 142.91,-140.95 147.46,-135.63"/>
</g>
<!-- Node4 -->
<g id="node4" class="node">
<title>Node4</title>
<g id="a_node4"><a xlink:title=" ">
<polygon fill="white" stroke="#bfbfbf" points="61.51,-168.5 61.51,-187.5 162.51,-187.5 162.51,-168.5 61.51,-168.5"/>
<text text-anchor="middle" x="112.01" y="-175.5" font-family="Helvetica,sans-Serif" font-size="10.00">HardwareTimer.h</text>
</a>
</g>
</g>
<!-- Node3&#45;&gt;Node4 -->
<g id="edge3" class="edge">
<title>Node3&#45;&gt;Node4</title>
<path fill="none" stroke="midnightblue" d="M128.71,-224.08C126.03,-216.85 122.16,-206.41 118.82,-197.4"/>
<polygon fill="midnightblue" stroke="midnightblue" points="122,-195.91 115.25,-187.75 115.44,-198.34 122,-195.91"/>
</g>
<!-- Node5 -->
<g id="node5" class="node">
<title>Node5</title>
<g id="a_node5"><a xlink:href="LED_8h.xhtml" target="_top" xlink:title=" ">
<polygon fill="white" stroke="black" points="20.01,-56.5 20.01,-75.5 64.01,-75.5 64.01,-56.5 20.01,-56.5"/>
<text text-anchor="middle" x="42.01" y="-63.5" font-family="Helvetica,sans-Serif" font-size="10.00">LED.h</text>
</a>
</g>
</g>
<!-- Node3&#45;&gt;Node5 -->
<g id="edge4" class="edge">
<title>Node3&#45;&gt;Node5</title>
<path fill="none" stroke="midnightblue" d="M97.61,-224.49C78.64,-217.88 56.64,-206.6 45.01,-188 25.3,-156.5 31.39,-110.78 37.04,-85.52"/>
<polygon fill="midnightblue" stroke="midnightblue" points="40.45,-86.31 39.43,-75.76 33.65,-84.64 40.45,-86.31"/>
</g>
<!-- Node6 -->
<g id="node6" class="node">
<title>Node6</title>
<g id="a_node6"><a xlink:href="Pin_8h.xhtml" target="_top" xlink:title=" ">
<polygon fill="white" stroke="black" points="21.51,-0.5 21.51,-19.5 62.51,-19.5 62.51,-0.5 21.51,-0.5"/>
<text text-anchor="middle" x="42.01" y="-7.5" font-family="Helvetica,sans-Serif" font-size="10.00">Pin.h</text>
</a>
</g>
</g>
<!-- Node3&#45;&gt;Node6 -->
<g id="edge6" class="edge">
<title>Node3&#45;&gt;Node6</title>
<path fill="none" stroke="midnightblue" d="M92.76,-224.41C71.98,-217.85 47.76,-206.66 33.01,-188 -3.88,-141.35 -6.66,-112.79 11.01,-56 14.24,-45.62 20.78,-35.52 27.03,-27.53"/>
<polygon fill="midnightblue" stroke="midnightblue" points="29.79,-29.68 33.53,-19.77 24.42,-25.19 29.79,-29.68"/>
</g>
<!-- Node3&#45;&gt;Node7 -->
<g id="edge7" class="edge">
<title>Node3&#45;&gt;Node7</title>
<path fill="none" stroke="midnightblue" d="M156.09,-224.44C181.55,-215.4 221.9,-201.06 250.47,-190.92"/>
<polygon fill="midnightblue" stroke="midnightblue" points="251.78,-194.16 260.04,-187.52 249.44,-187.57 251.78,-194.16"/>
</g>
<!-- Node10 -->
<g id="node10" class="node">
<title>Node10</title>
<g id="a_node10"><a xlink:href="Constants_8h.xhtml" target="_top" xlink:title=" ">
<polygon fill="white" stroke="black" points="154.01,-56.5 154.01,-75.5 228.01,-75.5 228.01,-56.5 154.01,-56.5"/>
<text text-anchor="middle" x="191.01" y="-63.5" font-family="Helvetica,sans-Serif" font-size="10.00">Constants.h</text>
</a>
</g>
</g>
<!-- Node3&#45;&gt;Node10 -->
<g id="edge18" class="edge">
<title>Node3&#45;&gt;Node10</title>
<path fill="none" stroke="midnightblue" d="M142.07,-224.45C151.17,-216.12 164.15,-202.6 171.01,-188 186.79,-154.39 190.35,-110.42 191.02,-85.81"/>
<polygon fill="midnightblue" stroke="midnightblue" points="194.52,-85.73 191.15,-75.68 187.52,-85.64 194.52,-85.73"/>
</g>
<!-- Node3&#45;&gt;Node12 -->
<g id="edge17" class="edge">
<title>Node3&#45;&gt;Node12</title>
<path fill="none" stroke="midnightblue" d="M101.76,-224.49C83.88,-217.73 62.71,-206.29 52.01,-188 38.99,-165.75 66.96,-147.17 92.17,-135.64"/>
<polygon fill="midnightblue" stroke="midnightblue" points="93.8,-138.75 101.6,-131.58 91.03,-132.32 93.8,-138.75"/>
</g>
<!-- Node5&#45;&gt;Node6 -->
<g id="edge5" class="edge">
<title>Node5&#45;&gt;Node6</title>
<path fill="none" stroke="midnightblue" d="M42.01,-56.08C42.01,-49.01 42.01,-38.86 42.01,-29.99"/>
<polygon fill="midnightblue" stroke="midnightblue" points="45.51,-29.75 42.01,-19.75 38.51,-29.75 45.51,-29.75"/>
</g>
<!-- Node8 -->
<g id="node8" class="node">
<title>Node8</title>
<g id="a_node8"><a xlink:title=" ">
<polygon fill="white" stroke="#bfbfbf" points="325.51,-112.5 325.51,-131.5 388.51,-131.5 388.51,-112.5 325.51,-112.5"/>
<text text-anchor="middle" x="357.01" y="-119.5" font-family="Helvetica,sans-Serif" font-size="10.00">Arduino.h</text>
</a>
</g>
</g>
<!-- Node7&#45;&gt;Node8 -->
<g id="edge8" class="edge">
<title>Node7&#45;&gt;Node8</title>
<path fill="none" stroke="midnightblue" d="M295.74,-168.32C306.85,-160.11 323.75,-147.6 336.99,-137.81"/>
<polygon fill="midnightblue" stroke="midnightblue" points="339.11,-140.59 345.07,-131.83 334.94,-134.97 339.11,-140.59"/>
</g>
<!-- Node9 -->
<g id="node9" class="node">
<title>Node9</title>
<g id="a_node9"><a xlink:href="Gate_8h.xhtml" target="_top" xlink:title=" ">
<polygon fill="white" stroke="black" points="219.51,-112.5 219.51,-131.5 268.51,-131.5 268.51,-112.5 219.51,-112.5"/>
<text text-anchor="middle" x="244.01" y="-119.5" font-family="Helvetica,sans-Serif" font-size="10.00">Gate.h</text>
</a>
</g>
</g>
<!-- Node7&#45;&gt;Node9 -->
<g id="edge9" class="edge">
<title>Node7&#45;&gt;Node9</title>
<path fill="none" stroke="midnightblue" d="M277.4,-168.08C271.75,-160.46 263.46,-149.26 256.56,-139.94"/>
<polygon fill="midnightblue" stroke="midnightblue" points="259.25,-137.7 250.49,-131.75 253.63,-141.87 259.25,-137.7"/>
</g>
<!-- Node11 -->
<g id="node11" class="node">
<title>Node11</title>
<g id="a_node11"><a xlink:title=" ">
<polygon fill="white" stroke="#bfbfbf" points="167.51,-0.5 167.51,-19.5 214.51,-19.5 214.51,-0.5 167.51,-0.5"/>
<text text-anchor="middle" x="191.01" y="-7.5" font-family="Helvetica,sans-Serif" font-size="10.00">vector</text>
</a>
</g>
</g>
<!-- Node7&#45;&gt;Node11 -->
<g id="edge16" class="edge">
<title>Node7&#45;&gt;Node11</title>
<path fill="none" stroke="midnightblue" d="M284.31,-168.31C284.59,-146.83 282.51,-90.44 255.01,-56 244.78,-43.19 229.97,-32.45 217.17,-24.69"/>
<polygon fill="midnightblue" stroke="midnightblue" points="218.71,-21.54 208.3,-19.57 215.21,-27.6 218.71,-21.54"/>
</g>
<!-- Node7&#45;&gt;Node12 -->
<g id="edge13" class="edge">
<title>Node7&#45;&gt;Node12</title>
<path fill="none" stroke="midnightblue" d="M258.97,-168.44C232.39,-159.36 190.2,-144.94 160.48,-134.78"/>
<polygon fill="midnightblue" stroke="midnightblue" points="161.52,-131.44 150.93,-131.52 159.26,-138.06 161.52,-131.44"/>
</g>
<!-- Node9&#45;&gt;Node6 -->
<g id="edge10" class="edge">
<title>Node9&#45;&gt;Node6</title>
<path fill="none" stroke="midnightblue" d="M245.95,-112.17C248.42,-98.37 250.87,-71.62 237.01,-56 215.53,-31.79 122.01,-18.98 72.7,-13.8"/>
<polygon fill="midnightblue" stroke="midnightblue" points="72.91,-10.31 62.61,-12.79 72.21,-17.27 72.91,-10.31"/>
</g>
<!-- Node9&#45;&gt;Node10 -->
<g id="edge11" class="edge">
<title>Node9&#45;&gt;Node10</title>
<path fill="none" stroke="midnightblue" d="M235.26,-112.08C227.54,-104.22 216.1,-92.57 206.79,-83.08"/>
<polygon fill="midnightblue" stroke="midnightblue" points="209.1,-80.44 199.6,-75.75 204.1,-85.34 209.1,-80.44"/>
</g>
<!-- Node10&#45;&gt;Node11 -->
<g id="edge12" class="edge">
<title>Node10&#45;&gt;Node11</title>
<path fill="none" stroke="midnightblue" d="M191.01,-56.08C191.01,-49.01 191.01,-38.86 191.01,-29.99"/>
<polygon fill="midnightblue" stroke="midnightblue" points="194.51,-29.75 191.01,-19.75 187.51,-29.75 194.51,-29.75"/>
</g>
<!-- Node12&#45;&gt;Node5 -->
<g id="edge14" class="edge">
<title>Node12&#45;&gt;Node5</title>
<path fill="none" stroke="midnightblue" d="M112.51,-112.32C99.41,-103.9 79.3,-90.97 63.9,-81.07"/>
<polygon fill="midnightblue" stroke="midnightblue" points="65.77,-78.12 55.47,-75.65 61.99,-84.01 65.77,-78.12"/>
</g>
<!-- Node12&#45;&gt;Node11 -->
<g id="edge15" class="edge">
<title>Node12&#45;&gt;Node11</title>
<path fill="none" stroke="midnightblue" d="M127.09,-112.45C129.04,-99.46 134,-74.35 145.01,-56 151.78,-44.7 162.08,-34.27 171.21,-26.3"/>
<polygon fill="midnightblue" stroke="midnightblue" points="173.68,-28.79 179.13,-19.71 169.21,-23.41 173.68,-28.79"/>
</g>
</g>
</svg>
