<?xml version="1.0" encoding="UTF-8" standalone="no"?>
<!DOCTYPE svg PUBLIC "-//W3C//DTD SVG 1.1//EN"
 "http://www.w3.org/Graphics/SVG/1.1/DTD/svg11.dtd">
<!-- Generated by graphviz version 2.43.0 (0)
 -->
<!-- Title: include/Mode1.h Pages: 1 -->
<!--zoomable 364 -->
<svg id="main" version="1.1" xmlns="http://www.w3.org/2000/svg" xmlns:xlink="http://www.w3.org/1999/xlink" xml:space="preserve" onload="init(evt)">
<style type="text/css"><![CDATA[
.edge:hover path { stroke: red; }
.edge:hover polygon { stroke: red; fill: red; }
]]></style>
<script type="text/javascript"><![CDATA[
var edges = document.getElementsByTagName('g');
if (edges && edges.length) {
  for (var i=0;i<edges.length;i++) {
    if (edges[i].id.substr(0,4)=='edge') {
      edges[i].setAttribute('class','edge');
    }
  }
}
]]></script>
        <defs>
                <circle id="rim" cx="0" cy="0" r="7"/>
                <circle id="rim2" cx="0" cy="0" r="3.5"/>
                <g id="zoomPlus">
                        <use xlink:href="#rim" fill="#404040">
                                <set attributeName="fill" to="#808080" begin="zoomplus.mouseover" end="zoomplus.mouseout"/>
                        </use>
                        <path d="M-4,0h8M0,-4v8" fill="none" stroke="white" stroke-width="1.5" pointer-events="none"/>
                </g>
                <g id="zoomMin">
                        <use xlink:href="#rim" fill="#404040">
                                <set attributeName="fill" to="#808080" begin="zoomminus.mouseover" end="zoomminus.mouseout"/>
                        </use>
                        <path d="M-4,0h8" fill="none" stroke="white" stroke-width="1.5" pointer-events="none"/>
                </g>
                <g id="dirArrow">
                        <path fill="none" stroke="white" stroke-width="1.5" d="M0,-3.0v7 M-2.5,-0.5L0,-3.0L2.5,-0.5"/>
                </g>
               <g id="resetDef">
                       <use xlink:href="#rim2" fill="#404040">
                               <set attributeName="fill" to="#808080" begin="reset.mouseover" end="reset.mouseout"/>
                       </use>
               </g>
        </defs>

<script type="text/javascript">
var viewWidth = 776;
var viewHeight = 364;
var sectionId = 'dynsection-0';
</script>
<script xlink:href="svgpan.js"/>
<svg id="graph" class="graph">
<g id="viewport">
<title>include/Mode1.h</title>
<polygon fill="white" stroke="transparent" points="-4,4 -4,-360 771.5,-360 771.5,4 -4,4"/>
<!-- Node1 -->
<g id="node1" class="node">
<title>Node1</title>
<g id="a_node1"><a xlink:title=" ">
<polygon fill="#bfbfbf" stroke="black" points="299,-336.5 299,-355.5 396,-355.5 396,-336.5 299,-336.5"/>
<text text-anchor="middle" x="347.5" y="-343.5" font-family="Helvetica,sans-Serif" font-size="10.00">include/Mode1.h</text>
</a>
</g>
</g>
<!-- Node2 -->
<g id="node2" class="node">
<title>Node2</title>
<g id="a_node2"><a xlink:href="Mode_8h.xhtml" target="_top" xlink:title=" ">
<polygon fill="white" stroke="black" points="0,-280.5 0,-299.5 53,-299.5 53,-280.5 0,-280.5"/>
<text text-anchor="middle" x="26.5" y="-287.5" font-family="Helvetica,sans-Serif" font-size="10.00">Mode.h</text>
</a>
</g>
</g>
<!-- Node1&#45;&gt;Node2 -->
<g id="edge1" class="edge">
<title>Node1&#45;&gt;Node2</title>
<path fill="none" stroke="midnightblue" d="M298.79,-338.03C242.82,-329.82 148.28,-315.34 67.5,-300 66.21,-299.76 64.9,-299.5 63.58,-299.24"/>
<polygon fill="midnightblue" stroke="midnightblue" points="63.86,-295.72 53.36,-297.12 62.45,-302.58 63.86,-295.72"/>
</g>
<!-- Node3 -->
<g id="node3" class="node">
<title>Node3</title>
<g id="a_node3"><a xlink:href="Encoder_8h.xhtml" target="_top" xlink:title=" ">
<polygon fill="white" stroke="black" points="27.5,-56.5 27.5,-75.5 91.5,-75.5 91.5,-56.5 27.5,-56.5"/>
<text text-anchor="middle" x="59.5" y="-63.5" font-family="Helvetica,sans-Serif" font-size="10.00">Encoder.h</text>
</a>
</g>
</g>
<!-- Node1&#45;&gt;Node3 -->
<g id="edge2" class="edge">
<title>Node1&#45;&gt;Node3</title>
<path fill="none" stroke="midnightblue" d="M298.71,-345.67C221.92,-343.9 81.5,-327.95 81.5,-235 81.5,-235 81.5,-235 81.5,-177 81.5,-144.33 72.05,-107.24 65.54,-85.55"/>
<polygon fill="midnightblue" stroke="midnightblue" points="68.79,-84.22 62.47,-75.72 62.11,-86.31 68.79,-84.22"/>
</g>
<!-- Node5 -->
<g id="node5" class="node">
<title>Node5</title>
<g id="a_node5"><a xlink:href="Gates_8h.xhtml" target="_top" xlink:title=" ">
<polygon fill="white" stroke="black" points="495.5,-168.5 495.5,-187.5 549.5,-187.5 549.5,-168.5 495.5,-168.5"/>
<text text-anchor="middle" x="522.5" y="-175.5" font-family="Helvetica,sans-Serif" font-size="10.00">Gates.h</text>
</a>
</g>
</g>
<!-- Node1&#45;&gt;Node5 -->
<g id="edge4" class="edge">
<title>Node1&#45;&gt;Node5</title>
<path fill="none" stroke="midnightblue" d="M377.53,-336.45C398.79,-329.28 427.05,-317.39 447.5,-300 481.42,-271.15 504.74,-222.97 515.59,-196.96"/>
<polygon fill="midnightblue" stroke="midnightblue" points="518.87,-198.17 519.35,-187.58 512.38,-195.56 518.87,-198.17"/>
</g>
<!-- Node8 -->
<g id="node8" class="node">
<title>Node8</title>
<g id="a_node8"><a xlink:href="Constants_8h.xhtml" target="_top" xlink:title=" ">
<polygon fill="white" stroke="black" points="605.5,-56.5 605.5,-75.5 679.5,-75.5 679.5,-56.5 605.5,-56.5"/>
<text text-anchor="middle" x="642.5" y="-63.5" font-family="Helvetica,sans-Serif" font-size="10.00">Constants.h</text>
</a>
</g>
</g>
<!-- Node1&#45;&gt;Node8 -->
<g id="edge28" class="edge">
<title>Node1&#45;&gt;Node8</title>
<path fill="none" stroke="midnightblue" d="M396.09,-342.52C506.65,-335.54 767.5,-311.04 767.5,-235 767.5,-235 767.5,-235 767.5,-177 767.5,-128.17 713.08,-95.89 676.06,-79.58"/>
<polygon fill="midnightblue" stroke="midnightblue" points="677.18,-76.25 666.6,-75.59 674.45,-82.7 677.18,-76.25"/>
</g>
<!-- Node12 -->
<g id="node12" class="node">
<title>Node12</title>
<g id="a_node12"><a xlink:href="LEDController_8h.xhtml" target="_top" xlink:title=" ">
<polygon fill="white" stroke="black" points="147.5,-224.5 147.5,-243.5 239.5,-243.5 239.5,-224.5 147.5,-224.5"/>
<text text-anchor="middle" x="193.5" y="-231.5" font-family="Helvetica,sans-Serif" font-size="10.00">LEDController.h</text>
</a>
</g>
</g>
<!-- Node1&#45;&gt;Node12 -->
<g id="edge15" class="edge">
<title>Node1&#45;&gt;Node12</title>
<path fill="none" stroke="midnightblue" d="M335.42,-336.37C309.1,-317.57 246.38,-272.77 213.85,-249.53"/>
<polygon fill="midnightblue" stroke="midnightblue" points="215.7,-246.56 205.53,-243.59 211.63,-252.25 215.7,-246.56"/>
</g>
<!-- Node13 -->
<g id="node13" class="node">
<title>Node13</title>
<g id="a_node13"><a xlink:href="MIDIHandler_8h.xhtml" target="_top" xlink:title=" ">
<polygon fill="white" stroke="black" points="352.5,-280.5 352.5,-299.5 438.5,-299.5 438.5,-280.5 352.5,-280.5"/>
<text text-anchor="middle" x="395.5" y="-287.5" font-family="Helvetica,sans-Serif" font-size="10.00">MIDIHandler.h</text>
</a>
</g>
</g>
<!-- Node1&#45;&gt;Node13 -->
<g id="edge17" class="edge">
<title>Node1&#45;&gt;Node13</title>
<path fill="none" stroke="midnightblue" d="M355.43,-336.08C362.35,-328.3 372.57,-316.8 380.95,-307.37"/>
<polygon fill="midnightblue" stroke="midnightblue" points="383.69,-309.55 387.72,-299.75 378.46,-304.9 383.69,-309.55"/>
</g>
<!-- Node17 -->
<g id="node17" class="node">
<title>Node17</title>
<g id="a_node17"><a xlink:href="ResetButton_8h.xhtml" target="_top" xlink:title=" ">
<polygon fill="white" stroke="black" points="591.5,-224.5 591.5,-243.5 677.5,-243.5 677.5,-224.5 591.5,-224.5"/>
<text text-anchor="middle" x="634.5" y="-231.5" font-family="Helvetica,sans-Serif" font-size="10.00">ResetButton.h</text>
</a>
</g>
</g>
<!-- Node1&#45;&gt;Node17 -->
<g id="edge29" class="edge">
<title>Node1&#45;&gt;Node17</title>
<path fill="none" stroke="midnightblue" d="M396.26,-338.38C435.58,-331.89 491.67,-320 537.5,-300 567.33,-286.98 597.9,-264.72 616.55,-249.94"/>
<polygon fill="midnightblue" stroke="midnightblue" points="618.88,-252.55 624.46,-243.54 614.48,-247.11 618.88,-252.55"/>
</g>
<!-- Node19 -->
<g id="node19" class="node">
<title>Node19</title>
<g id="a_node19"><a xlink:href="InputHandler_8h.xhtml" target="_top" xlink:title=" ">
<polygon fill="white" stroke="black" points="158.5,-280.5 158.5,-299.5 246.5,-299.5 246.5,-280.5 158.5,-280.5"/>
<text text-anchor="middle" x="202.5" y="-287.5" font-family="Helvetica,sans-Serif" font-size="10.00">InputHandler.h</text>
</a>
</g>
</g>
<!-- Node1&#45;&gt;Node19 -->
<g id="edge35" class="edge">
<title>Node1&#45;&gt;Node19</title>
<path fill="none" stroke="midnightblue" d="M324.52,-336.44C300.34,-327.44 262.08,-313.19 234.85,-303.05"/>
<polygon fill="midnightblue" stroke="midnightblue" points="235.96,-299.73 225.37,-299.52 233.52,-306.29 235.96,-299.73"/>
</g>
<!-- Node4 -->
<g id="node4" class="node">
<title>Node4</title>
<g id="a_node4"><a xlink:href="Pin_8h.xhtml" target="_top" xlink:title=" ">
<polygon fill="white" stroke="black" points="175,-0.5 175,-19.5 216,-19.5 216,-0.5 175,-0.5"/>
<text text-anchor="middle" x="195.5" y="-7.5" font-family="Helvetica,sans-Serif" font-size="10.00">Pin.h</text>
</a>
</g>
</g>
<!-- Node3&#45;&gt;Node4 -->
<g id="edge3" class="edge">
<title>Node3&#45;&gt;Node4</title>
<path fill="none" stroke="midnightblue" d="M81.05,-56.44C103.8,-47.41 139.82,-33.11 165.38,-22.96"/>
<polygon fill="midnightblue" stroke="midnightblue" points="166.94,-26.11 174.94,-19.16 164.36,-19.6 166.94,-26.11"/>
</g>
<!-- Node6 -->
<g id="node6" class="node">
<title>Node6</title>
<g id="a_node6"><a xlink:title=" ">
<polygon fill="white" stroke="#bfbfbf" points="606,-112.5 606,-131.5 669,-131.5 669,-112.5 606,-112.5"/>
<text text-anchor="middle" x="637.5" y="-119.5" font-family="Helvetica,sans-Serif" font-size="10.00">Arduino.h</text>
</a>
</g>
</g>
<!-- Node5&#45;&gt;Node6 -->
<g id="edge5" class="edge">
<title>Node5&#45;&gt;Node6</title>
<path fill="none" stroke="midnightblue" d="M540.72,-168.44C559.4,-159.68 588.66,-145.94 610.12,-135.86"/>
<polygon fill="midnightblue" stroke="midnightblue" points="611.8,-138.93 619.36,-131.52 608.82,-132.6 611.8,-138.93"/>
</g>
<!-- Node7 -->
<g id="node7" class="node">
<title>Node7</title>
<g id="a_node7"><a xlink:href="Gate_8h.xhtml" target="_top" xlink:title=" ">
<polygon fill="white" stroke="black" points="498,-112.5 498,-131.5 547,-131.5 547,-112.5 498,-112.5"/>
<text text-anchor="middle" x="522.5" y="-119.5" font-family="Helvetica,sans-Serif" font-size="10.00">Gate.h</text>
</a>
</g>
</g>
<!-- Node5&#45;&gt;Node7 -->
<g id="edge6" class="edge">
<title>Node5&#45;&gt;Node7</title>
<path fill="none" stroke="midnightblue" d="M522.5,-168.08C522.5,-161.01 522.5,-150.86 522.5,-141.99"/>
<polygon fill="midnightblue" stroke="midnightblue" points="526,-141.75 522.5,-131.75 519,-141.75 526,-141.75"/>
</g>
<!-- Node9 -->
<g id="node9" class="node">
<title>Node9</title>
<g id="a_node9"><a xlink:title=" ">
<polygon fill="white" stroke="#bfbfbf" points="407,-0.5 407,-19.5 454,-19.5 454,-0.5 407,-0.5"/>
<text text-anchor="middle" x="430.5" y="-7.5" font-family="Helvetica,sans-Serif" font-size="10.00">vector</text>
</a>
</g>
</g>
<!-- Node5&#45;&gt;Node9 -->
<g id="edge14" class="edge">
<title>Node5&#45;&gt;Node9</title>
<path fill="none" stroke="midnightblue" d="M515.44,-168.36C508.4,-159.53 497.51,-145.27 489.5,-132 468.35,-96.97 448.53,-53.26 438.12,-29.12"/>
<polygon fill="midnightblue" stroke="midnightblue" points="441.28,-27.61 434.14,-19.79 434.84,-30.36 441.28,-27.61"/>
</g>
<!-- Node10 -->
<g id="node10" class="node">
<title>Node10</title>
<g id="a_node10"><a xlink:href="LEDs_8h.xhtml" target="_top" xlink:title=" ">
<polygon fill="white" stroke="black" points="352.5,-112.5 352.5,-131.5 402.5,-131.5 402.5,-112.5 352.5,-112.5"/>
<text text-anchor="middle" x="377.5" y="-119.5" font-family="Helvetica,sans-Serif" font-size="10.00">LEDs.h</text>
</a>
</g>
</g>
<!-- Node5&#45;&gt;Node10 -->
<g id="edge10" class="edge">
<title>Node5&#45;&gt;Node10</title>
<path fill="none" stroke="midnightblue" d="M499.52,-168.44C475.34,-159.44 437.08,-145.19 409.85,-135.05"/>
<polygon fill="midnightblue" stroke="midnightblue" points="410.96,-131.73 400.37,-131.52 408.52,-138.29 410.96,-131.73"/>
</g>
<!-- Node7&#45;&gt;Node4 -->
<g id="edge7" class="edge">
<title>Node7&#45;&gt;Node4</title>
<path fill="none" stroke="midnightblue" d="M497.92,-112.73C438.99,-92.91 289.78,-42.71 225.6,-21.13"/>
<polygon fill="midnightblue" stroke="midnightblue" points="226.65,-17.79 216.06,-17.92 224.42,-24.42 226.65,-17.79"/>
</g>
<!-- Node7&#45;&gt;Node8 -->
<g id="edge8" class="edge">
<title>Node7&#45;&gt;Node8</title>
<path fill="none" stroke="midnightblue" d="M541.51,-112.44C561.09,-103.64 591.81,-89.81 614.23,-79.72"/>
<polygon fill="midnightblue" stroke="midnightblue" points="615.89,-82.81 623.57,-75.52 613.02,-76.43 615.89,-82.81"/>
</g>
<!-- Node8&#45;&gt;Node9 -->
<g id="edge9" class="edge">
<title>Node8&#45;&gt;Node9</title>
<path fill="none" stroke="midnightblue" d="M608.91,-56.44C569.17,-46.32 503.42,-29.57 463.81,-19.48"/>
<polygon fill="midnightblue" stroke="midnightblue" points="464.64,-16.09 454.09,-17.01 462.92,-22.87 464.64,-16.09"/>
</g>
<!-- Node10&#45;&gt;Node9 -->
<g id="edge13" class="edge">
<title>Node10&#45;&gt;Node9</title>
<path fill="none" stroke="midnightblue" d="M381.66,-112.37C390.33,-94.38 410.48,-52.55 422.01,-28.63"/>
<polygon fill="midnightblue" stroke="midnightblue" points="425.17,-30.12 426.36,-19.59 418.87,-27.08 425.17,-30.12"/>
</g>
<!-- Node11 -->
<g id="node11" class="node">
<title>Node11</title>
<g id="a_node11"><a xlink:href="LED_8h.xhtml" target="_top" xlink:title=" ">
<polygon fill="white" stroke="black" points="211.5,-56.5 211.5,-75.5 255.5,-75.5 255.5,-56.5 211.5,-56.5"/>
<text text-anchor="middle" x="233.5" y="-63.5" font-family="Helvetica,sans-Serif" font-size="10.00">LED.h</text>
</a>
</g>
</g>
<!-- Node10&#45;&gt;Node11 -->
<g id="edge11" class="edge">
<title>Node10&#45;&gt;Node11</title>
<path fill="none" stroke="midnightblue" d="M354.68,-112.44C330.53,-103.39 292.22,-89.02 265.15,-78.87"/>
<polygon fill="midnightblue" stroke="midnightblue" points="266.33,-75.57 255.74,-75.34 263.87,-82.13 266.33,-75.57"/>
</g>
<!-- Node11&#45;&gt;Node4 -->
<g id="edge12" class="edge">
<title>Node11&#45;&gt;Node4</title>
<path fill="none" stroke="midnightblue" d="M227.23,-56.08C221.86,-48.46 213.98,-37.26 207.42,-27.94"/>
<polygon fill="midnightblue" stroke="midnightblue" points="210.28,-25.91 201.66,-19.75 204.55,-29.94 210.28,-25.91"/>
</g>
<!-- Node12&#45;&gt;Node10 -->
<g id="edge16" class="edge">
<title>Node12&#45;&gt;Node10</title>
<path fill="none" stroke="midnightblue" d="M199.48,-224.18C209.27,-210.38 229.97,-183.65 253.5,-168 280.77,-149.87 316.27,-137.95 342.3,-130.96"/>
<polygon fill="midnightblue" stroke="midnightblue" points="343.31,-134.32 352.12,-128.44 341.56,-127.54 343.31,-134.32"/>
</g>
<!-- Node13&#45;&gt;Node5 -->
<g id="edge26" class="edge">
<title>Node13&#45;&gt;Node5</title>
<path fill="none" stroke="midnightblue" d="M410.05,-280.37C423.88,-271.87 444.96,-258.16 461.5,-244 479.22,-228.84 497.22,-209 509.03,-195.24"/>
<polygon fill="midnightblue" stroke="midnightblue" points="511.74,-197.46 515.52,-187.56 506.39,-192.94 511.74,-197.46"/>
</g>
<!-- Node13&#45;&gt;Node10 -->
<g id="edge27" class="edge">
<title>Node13&#45;&gt;Node10</title>
<path fill="none" stroke="midnightblue" d="M404.52,-280.34C412.57,-271.93 423.8,-258.36 428.5,-244 431.27,-235.55 430.56,-232.65 428.5,-224 420.95,-192.31 401.78,-159.28 389.21,-139.96"/>
<polygon fill="midnightblue" stroke="midnightblue" points="392.12,-138.01 383.65,-131.64 386.29,-141.9 392.12,-138.01"/>
</g>
<!-- Node14 -->
<g id="node14" class="node">
<title>Node14</title>
<g id="a_node14"><a xlink:title=" ">
<polygon fill="white" stroke="#bfbfbf" points="371.5,-224.5 371.5,-243.5 419.5,-243.5 419.5,-224.5 371.5,-224.5"/>
<text text-anchor="middle" x="395.5" y="-231.5" font-family="Helvetica,sans-Serif" font-size="10.00">MIDI.h</text>
</a>
</g>
</g>
<!-- Node13&#45;&gt;Node14 -->
<g id="edge18" class="edge">
<title>Node13&#45;&gt;Node14</title>
<path fill="none" stroke="midnightblue" d="M395.5,-280.08C395.5,-273.01 395.5,-262.86 395.5,-253.99"/>
<polygon fill="midnightblue" stroke="midnightblue" points="399,-253.75 395.5,-243.75 392,-253.75 399,-253.75"/>
</g>
<!-- Node15 -->
<g id="node15" class="node">
<title>Node15</title>
<g id="a_node15"><a xlink:href="EurorackClock_8h.xhtml" target="_top" xlink:title=" ">
<polygon fill="white" stroke="black" points="258,-224.5 258,-243.5 353,-243.5 353,-224.5 258,-224.5"/>
<text text-anchor="middle" x="305.5" y="-231.5" font-family="Helvetica,sans-Serif" font-size="10.00">EurorackClock.h</text>
</a>
</g>
</g>
<!-- Node13&#45;&gt;Node15 -->
<g id="edge19" class="edge">
<title>Node13&#45;&gt;Node15</title>
<path fill="none" stroke="midnightblue" d="M381.04,-280.32C367,-271.9 345.45,-258.97 328.96,-249.07"/>
<polygon fill="midnightblue" stroke="midnightblue" points="330.3,-245.8 319.92,-243.65 326.7,-251.8 330.3,-245.8"/>
</g>
<!-- Node15&#45;&gt;Node4 -->
<g id="edge22" class="edge">
<title>Node15&#45;&gt;Node4</title>
<path fill="none" stroke="midnightblue" d="M287.09,-224.39C272.55,-216.72 252.73,-204.22 240.5,-188 203.96,-139.56 196.91,-64.63 195.67,-29.89"/>
<polygon fill="midnightblue" stroke="midnightblue" points="199.17,-29.66 195.44,-19.74 192.17,-29.82 199.17,-29.66"/>
</g>
<!-- Node15&#45;&gt;Node5 -->
<g id="edge23" class="edge">
<title>Node15&#45;&gt;Node5</title>
<path fill="none" stroke="midnightblue" d="M339.88,-224.44C379.66,-214.55 444.88,-198.32 485.66,-188.17"/>
<polygon fill="midnightblue" stroke="midnightblue" points="486.62,-191.54 495.48,-185.73 484.93,-184.74 486.62,-191.54"/>
</g>
<!-- Node15&#45;&gt;Node8 -->
<g id="edge25" class="edge">
<title>Node15&#45;&gt;Node8</title>
<path fill="none" stroke="midnightblue" d="M323.33,-224.47C340.66,-215.96 367.5,-202.12 389.5,-188 436.47,-157.84 439.68,-137.18 489.5,-112 523.02,-95.06 563.98,-83.43 595.08,-76.25"/>
<polygon fill="midnightblue" stroke="midnightblue" points="596.23,-79.58 605.23,-73.98 594.71,-72.75 596.23,-79.58"/>
</g>
<!-- Node15&#45;&gt;Node10 -->
<g id="edge24" class="edge">
<title>Node15&#45;&gt;Node10</title>
<path fill="none" stroke="midnightblue" d="M327.56,-224.4C342.96,-217.15 362.47,-205.19 372.5,-188 380.61,-174.1 381.25,-155.59 380.22,-141.88"/>
<polygon fill="midnightblue" stroke="midnightblue" points="383.67,-141.25 379.09,-131.69 376.72,-142.02 383.67,-141.25"/>
</g>
<!-- Node15&#45;&gt;Node11 -->
<g id="edge21" class="edge">
<title>Node15&#45;&gt;Node11</title>
<path fill="none" stroke="midnightblue" d="M290.64,-224.28C278.6,-216.39 262.25,-203.62 253.5,-188 235.26,-155.45 232.62,-110.76 232.77,-85.81"/>
<polygon fill="midnightblue" stroke="midnightblue" points="236.28,-85.64 233,-75.56 229.28,-85.48 236.28,-85.64"/>
</g>
<!-- Node16 -->
<g id="node16" class="node">
<title>Node16</title>
<g id="a_node16"><a xlink:title=" ">
<polygon fill="white" stroke="#bfbfbf" points="262,-168.5 262,-187.5 363,-187.5 363,-168.5 262,-168.5"/>
<text text-anchor="middle" x="312.5" y="-175.5" font-family="Helvetica,sans-Serif" font-size="10.00">HardwareTimer.h</text>
</a>
</g>
</g>
<!-- Node15&#45;&gt;Node16 -->
<g id="edge20" class="edge">
<title>Node15&#45;&gt;Node16</title>
<path fill="none" stroke="midnightblue" d="M306.66,-224.08C307.58,-216.93 308.92,-206.64 310.08,-197.69"/>
<polygon fill="midnightblue" stroke="midnightblue" points="313.55,-198.12 311.37,-187.75 306.61,-197.22 313.55,-198.12"/>
</g>
<!-- Node17&#45;&gt;Node4 -->
<g id="edge30" class="edge">
<title>Node17&#45;&gt;Node4</title>
<path fill="none" stroke="midnightblue" d="M626.6,-224.43C618.72,-215.65 606.52,-201.43 597.5,-188 576.1,-156.14 586.2,-136.3 556.5,-112 456.3,-30.02 293.85,-14.46 226.39,-11.6"/>
<polygon fill="midnightblue" stroke="midnightblue" points="226.15,-8.09 216.03,-11.23 225.9,-15.08 226.15,-8.09"/>
</g>
<!-- Node17&#45;&gt;Node6 -->
<g id="edge31" class="edge">
<title>Node17&#45;&gt;Node6</title>
<path fill="none" stroke="midnightblue" d="M645.21,-224.3C654.44,-216.07 667.09,-202.79 672.5,-188 678.92,-170.46 666.68,-151.82 654.95,-139.02"/>
<polygon fill="midnightblue" stroke="midnightblue" points="657.41,-136.52 647.89,-131.87 652.43,-141.44 657.41,-136.52"/>
</g>
<!-- Node17&#45;&gt;Node8 -->
<g id="edge34" class="edge">
<title>Node17&#45;&gt;Node8</title>
<path fill="none" stroke="midnightblue" d="M650.28,-224.47C662.7,-216.77 679.11,-204.18 686.5,-188 693.62,-172.42 686.72,-131 678.5,-112 673.9,-101.37 666.1,-91.15 658.93,-83.14"/>
<polygon fill="midnightblue" stroke="midnightblue" points="661.27,-80.53 651.85,-75.68 656.19,-85.34 661.27,-80.53"/>
</g>
<!-- Node18 -->
<g id="node18" class="node">
<title>Node18</title>
<g id="a_node18"><a xlink:href="Debug_8h.xhtml" target="_top" xlink:title=" ">
<polygon fill="white" stroke="black" points="606,-168.5 606,-187.5 663,-187.5 663,-168.5 606,-168.5"/>
<text text-anchor="middle" x="634.5" y="-175.5" font-family="Helvetica,sans-Serif" font-size="10.00">Debug.h</text>
</a>
</g>
</g>
<!-- Node17&#45;&gt;Node18 -->
<g id="edge32" class="edge">
<title>Node17&#45;&gt;Node18</title>
<path fill="none" stroke="midnightblue" d="M634.5,-224.08C634.5,-217.01 634.5,-206.86 634.5,-197.99"/>
<polygon fill="midnightblue" stroke="midnightblue" points="638,-197.75 634.5,-187.75 631,-197.75 638,-197.75"/>
</g>
<!-- Node18&#45;&gt;Node6 -->
<g id="edge33" class="edge">
<title>Node18&#45;&gt;Node6</title>
<path fill="none" stroke="midnightblue" d="M635,-168.08C635.39,-161.01 635.95,-150.86 636.45,-141.99"/>
<polygon fill="midnightblue" stroke="midnightblue" points="639.95,-141.93 637.01,-131.75 632.96,-141.54 639.95,-141.93"/>
</g>
<!-- Node19&#45;&gt;Node4 -->
<g id="edge36" class="edge">
<title>Node19&#45;&gt;Node4</title>
<path fill="none" stroke="midnightblue" d="M184.19,-280.46C169.76,-272.83 150.2,-260.35 138.5,-244 120.98,-219.52 119.5,-209.1 119.5,-179 119.5,-179 119.5,-179 119.5,-121 119.5,-81.28 153.46,-45.5 175.98,-26.15"/>
<polygon fill="midnightblue" stroke="midnightblue" points="178.48,-28.63 183.96,-19.57 174.02,-23.24 178.48,-28.63"/>
</g>
</g>
</svg>
        <g id="navigator" transform="translate(0 0)" fill="#404254">
                <rect fill="#f2f5e9" fill-opacity="0.5" stroke="#606060" stroke-width=".5" x="0" y="0" width="60" height="60"/>
                <use id="zoomplus" xlink:href="#zoomPlus" x="17" y="9" onmousedown="handleZoom(evt,'in')"/>
                <use id="zoomminus" xlink:href="#zoomMin" x="42" y="9" onmousedown="handleZoom(evt,'out')"/>
                <use id="reset" xlink:href="#resetDef" x="30" y="36" onmousedown="handleReset()"/>
                <g id="arrowUp" xlink:href="#dirArrow" transform="translate(30 24)" onmousedown="handlePan(0,-1)">
                  <use xlink:href="#rim" fill="#404040">
                        <set attributeName="fill" to="#808080" begin="arrowUp.mouseover" end="arrowUp.mouseout"/>
                  </use>
                  <path fill="none" stroke="white" stroke-width="1.5" d="M0,-3.0v7 M-2.5,-0.5L0,-3.0L2.5,-0.5"/>
                </g>
                <g id="arrowRight" xlink:href="#dirArrow" transform="rotate(90) translate(36 -43)" onmousedown="handlePan(1,0)">
                  <use xlink:href="#rim" fill="#404040">
                        <set attributeName="fill" to="#808080" begin="arrowRight.mouseover" end="arrowRight.mouseout"/>
                  </use>
                  <path fill="none" stroke="white" stroke-width="1.5" d="M0,-3.0v7 M-2.5,-0.5L0,-3.0L2.5,-0.5"/>
                </g>
                <g id="arrowDown" xlink:href="#dirArrow" transform="rotate(180) translate(-30 -48)" onmousedown="handlePan(0,1)">
                  <use xlink:href="#rim" fill="#404040">
                        <set attributeName="fill" to="#808080" begin="arrowDown.mouseover" end="arrowDown.mouseout"/>
                  </use>
                  <path fill="none" stroke="white" stroke-width="1.5" d="M0,-3.0v7 M-2.5,-0.5L0,-3.0L2.5,-0.5"/>
                </g>
                <g id="arrowLeft" xlink:href="#dirArrow" transform="rotate(270) translate(-36 17)" onmousedown="handlePan(-1,0)">
                  <use xlink:href="#rim" fill="#404040">
                        <set attributeName="fill" to="#808080" begin="arrowLeft.mouseover" end="arrowLeft.mouseout"/>
                  </use>
                  <path fill="none" stroke="white" stroke-width="1.5" d="M0,-3.0v7 M-2.5,-0.5L0,-3.0L2.5,-0.5"/>
                </g>
        </g>
        <svg viewBox="0 0 15 15" width="100%" height="30px" preserveAspectRatio="xMaxYMin meet">
         <g id="arrow_out" transform="scale(0.3 0.3)">
          <a xlink:href="Mode1_8h__incl_org.svg" target="_base">
           <rect id="button" ry="5" rx="5" y="6" x="6" height="38" width="38"
                fill="#f2f5e9" fill-opacity="0.5" stroke="#606060" stroke-width="1.0"/>
           <path id="arrow"
             d="M 11.500037,31.436501 C 11.940474,20.09759 22.043105,11.32322 32.158766,21.979434 L 37.068811,17.246167 C 37.068811,17.246167 37.088388,32 37.088388,32 L 22.160133,31.978069 C 22.160133,31.978069 26.997745,27.140456 26.997745,27.140456 C 18.528582,18.264221 13.291696,25.230495 11.500037,31.436501 z"
             style="fill:#404040;"/>
          </a>
         </g>
        </svg>
</svg>
