<?xml version="1.0" encoding="UTF-8" standalone="no"?>
<!DOCTYPE svg PUBLIC "-//W3C//DTD SVG 1.1//EN"
 "http://www.w3.org/Graphics/SVG/1.1/DTD/svg11.dtd">
<!-- Generated by graphviz version 2.43.0 (0)
 -->
<!-- Title: include/ModeSelector.h Pages: 1 -->
<svg width="536pt" height="252pt"
 viewBox="0.00 0.00 535.50 252.00" xmlns="http://www.w3.org/2000/svg" xmlns:xlink="http://www.w3.org/1999/xlink">
<g id="graph0" class="graph" transform="scale(1 1) rotate(0) translate(4 248)">
<title>include/ModeSelector.h</title>
<polygon fill="white" stroke="transparent" points="-4,4 -4,-248 531.5,-248 531.5,4 -4,4"/>
<!-- Node1 -->
<g id="node1" class="node">
<title>Node1</title>
<g id="a_node1"><a xlink:title=" ">
<polygon fill="#bfbfbf" stroke="black" points="271,-224.5 271,-243.5 401,-243.5 401,-224.5 271,-224.5"/>
<text text-anchor="middle" x="336" y="-231.5" font-family="Helvetica,sans-Serif" font-size="10.00">include/ModeSelector.h</text>
</a>
</g>
</g>
<!-- Node2 -->
<g id="node2" class="node">
<title>Node2</title>
<g id="a_node2"><a xlink:title=" ">
<polygon fill="white" stroke="#bfbfbf" points="306.5,-56.5 306.5,-75.5 353.5,-75.5 353.5,-56.5 306.5,-56.5"/>
<text text-anchor="middle" x="330" y="-63.5" font-family="Helvetica,sans-Serif" font-size="10.00">vector</text>
</a>
</g>
</g>
<!-- Node1&#45;&gt;Node2 -->
<g id="edge1" class="edge">
<title>Node1&#45;&gt;Node2</title>
<path fill="none" stroke="midnightblue" d="M335.68,-224.08C334.73,-197.95 331.96,-121.21 330.67,-85.58"/>
<polygon fill="midnightblue" stroke="midnightblue" points="334.17,-85.44 330.31,-75.57 327.17,-85.69 334.17,-85.44"/>
</g>
<!-- Node3 -->
<g id="node3" class="node">
<title>Node3</title>
<g id="a_node3"><a xlink:href="LEDController_8h.html" target="_top" xlink:title=" ">
<polygon fill="white" stroke="black" points="364,-168.5 364,-187.5 456,-187.5 456,-168.5 364,-168.5"/>
<text text-anchor="middle" x="410" y="-175.5" font-family="Helvetica,sans-Serif" font-size="10.00">LEDController.h</text>
</a>
</g>
</g>
<!-- Node1&#45;&gt;Node3 -->
<g id="edge2" class="edge">
<title>Node1&#45;&gt;Node3</title>
<path fill="none" stroke="midnightblue" d="M347.89,-224.32C359.15,-216.11 376.29,-203.6 389.71,-193.81"/>
<polygon fill="midnightblue" stroke="midnightblue" points="391.88,-196.56 397.89,-187.83 387.75,-190.9 391.88,-196.56"/>
</g>
<!-- Node7 -->
<g id="node7" class="node">
<title>Node7</title>
<g id="a_node7"><a xlink:href="Encoder_8h.html" target="_top" xlink:title=" ">
<polygon fill="white" stroke="black" points="0,-112.5 0,-131.5 64,-131.5 64,-112.5 0,-112.5"/>
<text text-anchor="middle" x="32" y="-119.5" font-family="Helvetica,sans-Serif" font-size="10.00">Encoder.h</text>
</a>
</g>
</g>
<!-- Node1&#45;&gt;Node7 -->
<g id="edge7" class="edge">
<title>Node1&#45;&gt;Node7</title>
<path fill="none" stroke="midnightblue" d="M287.88,-224.48C250.61,-217.08 198.07,-204.89 154,-188 117.4,-173.97 77.84,-151.39 54,-136.87"/>
<polygon fill="midnightblue" stroke="midnightblue" points="55.73,-133.83 45.38,-131.56 52.06,-139.79 55.73,-133.83"/>
</g>
<!-- Node8 -->
<g id="node8" class="node">
<title>Node8</title>
<g id="a_node8"><a xlink:href="Mode_8h.html" target="_top" xlink:title=" ">
<polygon fill="white" stroke="black" points="474.5,-168.5 474.5,-187.5 527.5,-187.5 527.5,-168.5 474.5,-168.5"/>
<text text-anchor="middle" x="501" y="-175.5" font-family="Helvetica,sans-Serif" font-size="10.00">Mode.h</text>
</a>
</g>
</g>
<!-- Node1&#45;&gt;Node8 -->
<g id="edge9" class="edge">
<title>Node1&#45;&gt;Node8</title>
<path fill="none" stroke="midnightblue" d="M362.14,-224.44C390.02,-215.32 434.35,-200.81 465.4,-190.65"/>
<polygon fill="midnightblue" stroke="midnightblue" points="466.56,-193.95 474.98,-187.52 464.38,-187.3 466.56,-193.95"/>
</g>
<!-- Node9 -->
<g id="node9" class="node">
<title>Node9</title>
<g id="a_node9"><a xlink:href="ResetButton_8h.html" target="_top" xlink:title=" ">
<polygon fill="white" stroke="black" points="163,-168.5 163,-187.5 249,-187.5 249,-168.5 163,-168.5"/>
<text text-anchor="middle" x="206" y="-175.5" font-family="Helvetica,sans-Serif" font-size="10.00">ResetButton.h</text>
</a>
</g>
</g>
<!-- Node1&#45;&gt;Node9 -->
<g id="edge10" class="edge">
<title>Node1&#45;&gt;Node9</title>
<path fill="none" stroke="midnightblue" d="M315.4,-224.44C294.01,-215.56 260.32,-201.56 235.98,-191.45"/>
<polygon fill="midnightblue" stroke="midnightblue" points="237.08,-188.12 226.5,-187.52 234.39,-194.58 237.08,-188.12"/>
</g>
<!-- Node4 -->
<g id="node4" class="node">
<title>Node4</title>
<g id="a_node4"><a xlink:href="LEDs_8h.html" target="_top" xlink:title=" ">
<polygon fill="white" stroke="black" points="369,-112.5 369,-131.5 419,-131.5 419,-112.5 369,-112.5"/>
<text text-anchor="middle" x="394" y="-119.5" font-family="Helvetica,sans-Serif" font-size="10.00">LEDs.h</text>
</a>
</g>
</g>
<!-- Node3&#45;&gt;Node4 -->
<g id="edge3" class="edge">
<title>Node3&#45;&gt;Node4</title>
<path fill="none" stroke="midnightblue" d="M407.36,-168.08C405.21,-160.85 402.12,-150.41 399.45,-141.4"/>
<polygon fill="midnightblue" stroke="midnightblue" points="402.79,-140.34 396.59,-131.75 396.08,-142.33 402.79,-140.34"/>
</g>
<!-- Node4&#45;&gt;Node2 -->
<g id="edge6" class="edge">
<title>Node4&#45;&gt;Node2</title>
<path fill="none" stroke="midnightblue" d="M383.72,-112.32C374.16,-104.26 359.72,-92.08 348.22,-82.37"/>
<polygon fill="midnightblue" stroke="midnightblue" points="350.37,-79.61 340.47,-75.83 345.86,-84.96 350.37,-79.61"/>
</g>
<!-- Node5 -->
<g id="node5" class="node">
<title>Node5</title>
<g id="a_node5"><a xlink:href="LED_8h.html" target="_top" xlink:title=" ">
<polygon fill="white" stroke="black" points="372,-56.5 372,-75.5 416,-75.5 416,-56.5 372,-56.5"/>
<text text-anchor="middle" x="394" y="-63.5" font-family="Helvetica,sans-Serif" font-size="10.00">LED.h</text>
</a>
</g>
</g>
<!-- Node4&#45;&gt;Node5 -->
<g id="edge4" class="edge">
<title>Node4&#45;&gt;Node5</title>
<path fill="none" stroke="midnightblue" d="M394,-112.08C394,-105.01 394,-94.86 394,-85.99"/>
<polygon fill="midnightblue" stroke="midnightblue" points="397.5,-85.75 394,-75.75 390.5,-85.75 397.5,-85.75"/>
</g>
<!-- Node6 -->
<g id="node6" class="node">
<title>Node6</title>
<g id="a_node6"><a xlink:href="Pin_8h.html" target="_top" xlink:title=" ">
<polygon fill="white" stroke="black" points="185.5,-0.5 185.5,-19.5 226.5,-19.5 226.5,-0.5 185.5,-0.5"/>
<text text-anchor="middle" x="206" y="-7.5" font-family="Helvetica,sans-Serif" font-size="10.00">Pin.h</text>
</a>
</g>
</g>
<!-- Node5&#45;&gt;Node6 -->
<g id="edge5" class="edge">
<title>Node5&#45;&gt;Node6</title>
<path fill="none" stroke="midnightblue" d="M371.99,-58.6C368.97,-57.72 365.91,-56.84 363,-56 319.06,-43.33 268.18,-28.76 236.54,-19.72"/>
<polygon fill="midnightblue" stroke="midnightblue" points="237.16,-16.26 226.58,-16.87 235.23,-22.99 237.16,-16.26"/>
</g>
<!-- Node7&#45;&gt;Node6 -->
<g id="edge8" class="edge">
<title>Node7&#45;&gt;Node6</title>
<path fill="none" stroke="midnightblue" d="M38.04,-112.26C47.89,-98.56 68.69,-71.97 92,-56 117.8,-38.32 151.56,-26.11 175.63,-18.91"/>
<polygon fill="midnightblue" stroke="midnightblue" points="176.66,-22.26 185.3,-16.13 174.73,-15.53 176.66,-22.26"/>
</g>
<!-- Node9&#45;&gt;Node6 -->
<g id="edge11" class="edge">
<title>Node9&#45;&gt;Node6</title>
<path fill="none" stroke="midnightblue" d="M206,-168.08C206,-141.95 206,-65.21 206,-29.58"/>
<polygon fill="midnightblue" stroke="midnightblue" points="209.5,-29.57 206,-19.57 202.5,-29.57 209.5,-29.57"/>
</g>
<!-- Node10 -->
<g id="node10" class="node">
<title>Node10</title>
<g id="a_node10"><a xlink:title=" ">
<polygon fill="white" stroke="#bfbfbf" points="101.5,-56.5 101.5,-75.5 164.5,-75.5 164.5,-56.5 101.5,-56.5"/>
<text text-anchor="middle" x="133" y="-63.5" font-family="Helvetica,sans-Serif" font-size="10.00">Arduino.h</text>
</a>
</g>
</g>
<!-- Node9&#45;&gt;Node10 -->
<g id="edge12" class="edge">
<title>Node9&#45;&gt;Node10</title>
<path fill="none" stroke="midnightblue" d="M200.27,-168.37C188.22,-150.22 160.08,-107.8 144.28,-83.99"/>
<polygon fill="midnightblue" stroke="midnightblue" points="147.15,-81.99 138.7,-75.59 141.31,-85.86 147.15,-81.99"/>
</g>
<!-- Node11 -->
<g id="node11" class="node">
<title>Node11</title>
<g id="a_node11"><a xlink:href="Debug_8h.html" target="_top" xlink:title=" ">
<polygon fill="white" stroke="black" points="82.5,-112.5 82.5,-131.5 139.5,-131.5 139.5,-112.5 82.5,-112.5"/>
<text text-anchor="middle" x="111" y="-119.5" font-family="Helvetica,sans-Serif" font-size="10.00">Debug.h</text>
</a>
</g>
</g>
<!-- Node9&#45;&gt;Node11 -->
<g id="edge13" class="edge">
<title>Node9&#45;&gt;Node11</title>
<path fill="none" stroke="midnightblue" d="M190.74,-168.32C175.78,-159.82 152.75,-146.73 135.27,-136.8"/>
<polygon fill="midnightblue" stroke="midnightblue" points="136.65,-133.55 126.23,-131.65 133.19,-139.64 136.65,-133.55"/>
</g>
<!-- Node12 -->
<g id="node12" class="node">
<title>Node12</title>
<g id="a_node12"><a xlink:href="Constants_8h.html" target="_top" xlink:title=" ">
<polygon fill="white" stroke="black" points="234,-112.5 234,-131.5 308,-131.5 308,-112.5 234,-112.5"/>
<text text-anchor="middle" x="271" y="-119.5" font-family="Helvetica,sans-Serif" font-size="10.00">Constants.h</text>
</a>
</g>
</g>
<!-- Node9&#45;&gt;Node12 -->
<g id="edge15" class="edge">
<title>Node9&#45;&gt;Node12</title>
<path fill="none" stroke="midnightblue" d="M216.44,-168.32C226.15,-160.26 240.82,-148.08 252.5,-138.37"/>
<polygon fill="midnightblue" stroke="midnightblue" points="254.91,-140.92 260.37,-131.83 250.44,-135.53 254.91,-140.92"/>
</g>
<!-- Node11&#45;&gt;Node10 -->
<g id="edge14" class="edge">
<title>Node11&#45;&gt;Node10</title>
<path fill="none" stroke="midnightblue" d="M114.63,-112.08C117.61,-104.77 121.93,-94.18 125.62,-85.1"/>
<polygon fill="midnightblue" stroke="midnightblue" points="128.9,-86.33 129.43,-75.75 122.42,-83.69 128.9,-86.33"/>
</g>
<!-- Node12&#45;&gt;Node2 -->
<g id="edge16" class="edge">
<title>Node12&#45;&gt;Node2</title>
<path fill="none" stroke="midnightblue" d="M280.48,-112.32C289.2,-104.34 302.34,-92.31 312.9,-82.65"/>
<polygon fill="midnightblue" stroke="midnightblue" points="315.33,-85.17 320.35,-75.83 310.61,-80 315.33,-85.17"/>
</g>
</g>
</svg>
