<?xml version="1.0" encoding="UTF-8" standalone="no"?>
<!DOCTYPE svg PUBLIC "-//W3C//DTD SVG 1.1//EN"
 "http://www.w3.org/Graphics/SVG/1.1/DTD/svg11.dtd">
<!-- Generated by graphviz version 2.43.0 (0)
 -->
<!-- Title: include/Mode.h Pages: 1 -->
<svg width="815pt" height="140pt"
 viewBox="0.00 0.00 814.50 140.00" xmlns="http://www.w3.org/2000/svg" xmlns:xlink="http://www.w3.org/1999/xlink">
<g id="graph0" class="graph" transform="scale(1 1) rotate(0) translate(4 136)">
<title>include/Mode.h</title>
<polygon fill="white" stroke="transparent" points="-4,4 -4,-136 810.5,-136 810.5,4 -4,4"/>
<!-- Node1 -->
<g id="node1" class="node">
<title>Node1</title>
<g id="a_node1"><a xlink:title=" ">
<polygon fill="#bfbfbf" stroke="black" points="243,-112.5 243,-131.5 334,-131.5 334,-112.5 243,-112.5"/>
<text text-anchor="middle" x="288.5" y="-119.5" font-family="Helvetica,sans-Serif" font-size="10.00">include/Mode.h</text>
</a>
</g>
</g>
<!-- Node2 -->
<g id="node2" class="node">
<title>Node2</title>
<g id="a_node2"><a xlink:href="Mode0_8h.xhtml" target="_top" xlink:title=" ">
<polygon fill="white" stroke="black" points="68,-56.5 68,-75.5 165,-75.5 165,-56.5 68,-56.5"/>
<text text-anchor="middle" x="116.5" y="-63.5" font-family="Helvetica,sans-Serif" font-size="10.00">include/Mode0.h</text>
</a>
</g>
</g>
<!-- Node1&#45;&gt;Node2 -->
<g id="edge1" class="edge">
<title>Node1&#45;&gt;Node2</title>
<path fill="none" stroke="midnightblue" d="M251.67,-109.44C219.24,-99.26 172.76,-84.66 143.63,-75.52"/>
<polygon fill="midnightblue" stroke="midnightblue" points="250.66,-112.79 261.25,-112.44 252.75,-106.11 250.66,-112.79"/>
</g>
<!-- Node5 -->
<g id="node5" class="node">
<title>Node5</title>
<g id="a_node5"><a xlink:href="Mode1_8h.xhtml" target="_top" xlink:title=" ">
<polygon fill="white" stroke="black" points="183,-56.5 183,-75.5 280,-75.5 280,-56.5 183,-56.5"/>
<text text-anchor="middle" x="231.5" y="-63.5" font-family="Helvetica,sans-Serif" font-size="10.00">include/Mode1.h</text>
</a>
</g>
</g>
<!-- Node1&#45;&gt;Node5 -->
<g id="edge4" class="edge">
<title>Node1&#45;&gt;Node5</title>
<path fill="none" stroke="midnightblue" d="M271.88,-105.25C261.77,-95.67 249.22,-83.79 240.82,-75.83"/>
<polygon fill="midnightblue" stroke="midnightblue" points="269.68,-107.99 279.34,-112.32 274.49,-102.91 269.68,-107.99"/>
</g>
<!-- Node7 -->
<g id="node7" class="node">
<title>Node7</title>
<g id="a_node7"><a xlink:href="Mode2_8h.xhtml" target="_top" xlink:title=" ">
<polygon fill="white" stroke="black" points="298,-56.5 298,-75.5 395,-75.5 395,-56.5 298,-56.5"/>
<text text-anchor="middle" x="346.5" y="-63.5" font-family="Helvetica,sans-Serif" font-size="10.00">include/Mode2.h</text>
</a>
</g>
</g>
<!-- Node1&#45;&gt;Node7 -->
<g id="edge7" class="edge">
<title>Node1&#45;&gt;Node7</title>
<path fill="none" stroke="midnightblue" d="M305.41,-105.25C315.7,-95.67 328.47,-83.79 337.01,-75.83"/>
<polygon fill="midnightblue" stroke="midnightblue" points="302.75,-102.95 297.82,-112.32 307.52,-108.07 302.75,-102.95"/>
</g>
<!-- Node9 -->
<g id="node9" class="node">
<title>Node9</title>
<g id="a_node9"><a xlink:href="ModeSelector_8h.xhtml" target="_top" xlink:title=" ">
<polygon fill="white" stroke="black" points="413.5,-56.5 413.5,-75.5 543.5,-75.5 543.5,-56.5 413.5,-56.5"/>
<text text-anchor="middle" x="478.5" y="-63.5" font-family="Helvetica,sans-Serif" font-size="10.00">include/ModeSelector.h</text>
</a>
</g>
</g>
<!-- Node1&#45;&gt;Node9 -->
<g id="edge10" class="edge">
<title>Node1&#45;&gt;Node9</title>
<path fill="none" stroke="midnightblue" d="M328.26,-109.7C364.12,-99.51 416.07,-84.74 448.53,-75.52"/>
<polygon fill="midnightblue" stroke="midnightblue" points="327.27,-106.34 318.61,-112.44 329.18,-113.08 327.27,-106.34"/>
</g>
<!-- Node3 -->
<g id="node3" class="node">
<title>Node3</title>
<g id="a_node3"><a xlink:href="main_8cpp.xhtml" target="_top" xlink:title=" ">
<polygon fill="white" stroke="black" points="210,-0.5 210,-19.5 289,-19.5 289,-0.5 210,-0.5"/>
<text text-anchor="middle" x="249.5" y="-7.5" font-family="Helvetica,sans-Serif" font-size="10.00">src/main.cpp</text>
</a>
</g>
</g>
<!-- Node2&#45;&gt;Node3 -->
<g id="edge2" class="edge">
<title>Node2&#45;&gt;Node3</title>
<path fill="none" stroke="midnightblue" d="M146.95,-52.64C171.91,-42.5 206.58,-28.43 228.52,-19.52"/>
<polygon fill="midnightblue" stroke="midnightblue" points="145.52,-49.44 137.57,-56.44 148.16,-55.92 145.52,-49.44"/>
</g>
<!-- Node4 -->
<g id="node4" class="node">
<title>Node4</title>
<g id="a_node4"><a xlink:href="Mode0_8cpp.xhtml" target="_top" xlink:title=" ">
<polygon fill="white" stroke="black" points="0,-0.5 0,-19.5 87,-19.5 87,-0.5 0,-0.5"/>
<text text-anchor="middle" x="43.5" y="-7.5" font-family="Helvetica,sans-Serif" font-size="10.00">src/Mode0.cpp</text>
</a>
</g>
</g>
<!-- Node2&#45;&gt;Node4 -->
<g id="edge3" class="edge">
<title>Node2&#45;&gt;Node4</title>
<path fill="none" stroke="midnightblue" d="M96.36,-50.1C83.22,-40.38 66.52,-28.03 55.44,-19.83"/>
<polygon fill="midnightblue" stroke="midnightblue" points="94.65,-53.19 104.77,-56.32 98.81,-47.56 94.65,-53.19"/>
</g>
<!-- Node5&#45;&gt;Node3 -->
<g id="edge5" class="edge">
<title>Node5&#45;&gt;Node3</title>
<path fill="none" stroke="midnightblue" d="M237.7,-46.4C240.71,-37.36 244.19,-26.94 246.58,-19.75"/>
<polygon fill="midnightblue" stroke="midnightblue" points="234.31,-45.49 234.47,-56.08 240.96,-47.7 234.31,-45.49"/>
</g>
<!-- Node6 -->
<g id="node6" class="node">
<title>Node6</title>
<g id="a_node6"><a xlink:href="Mode1_8cpp.xhtml" target="_top" xlink:title=" ">
<polygon fill="white" stroke="black" points="105,-0.5 105,-19.5 192,-19.5 192,-0.5 105,-0.5"/>
<text text-anchor="middle" x="148.5" y="-7.5" font-family="Helvetica,sans-Serif" font-size="10.00">src/Mode1.cpp</text>
</a>
</g>
</g>
<!-- Node5&#45;&gt;Node6 -->
<g id="edge6" class="edge">
<title>Node5&#45;&gt;Node6</title>
<path fill="none" stroke="midnightblue" d="M209.4,-50.62C194.24,-40.76 174.62,-27.99 161.8,-19.65"/>
<polygon fill="midnightblue" stroke="midnightblue" points="207.87,-53.8 218.16,-56.32 211.69,-47.94 207.87,-53.8"/>
</g>
<!-- Node7&#45;&gt;Node3 -->
<g id="edge8" class="edge">
<title>Node7&#45;&gt;Node3</title>
<path fill="none" stroke="midnightblue" d="M322.16,-51.45C304.26,-41.48 280.45,-28.23 265.05,-19.65"/>
<polygon fill="midnightblue" stroke="midnightblue" points="320.48,-54.52 330.92,-56.32 323.88,-48.4 320.48,-54.52"/>
</g>
<!-- Node8 -->
<g id="node8" class="node">
<title>Node8</title>
<g id="a_node8"><a xlink:href="Mode2_8cpp.xhtml" target="_top" xlink:title=" ">
<polygon fill="white" stroke="black" points="307,-0.5 307,-19.5 394,-19.5 394,-0.5 307,-0.5"/>
<text text-anchor="middle" x="350.5" y="-7.5" font-family="Helvetica,sans-Serif" font-size="10.00">src/Mode2.cpp</text>
</a>
</g>
</g>
<!-- Node7&#45;&gt;Node8 -->
<g id="edge9" class="edge">
<title>Node7&#45;&gt;Node8</title>
<path fill="none" stroke="midnightblue" d="M347.9,-46.1C348.56,-37.14 349.33,-26.86 349.85,-19.75"/>
<polygon fill="midnightblue" stroke="midnightblue" points="344.41,-45.85 347.16,-56.08 351.39,-46.37 344.41,-45.85"/>
</g>
<!-- Node9&#45;&gt;Node3 -->
<g id="edge12" class="edge">
<title>Node9&#45;&gt;Node3</title>
<path fill="none" stroke="midnightblue" d="M432.23,-54.09C388.96,-43.89 325.24,-28.86 285.62,-19.52"/>
<polygon fill="midnightblue" stroke="midnightblue" points="431.68,-57.55 442.21,-56.44 433.28,-50.74 431.68,-57.55"/>
</g>
<!-- Node10 -->
<g id="node10" class="node">
<title>Node10</title>
<g id="a_node10"><a xlink:href="EurorackClock_8cpp.xhtml" target="_top" xlink:title=" ">
<polygon fill="white" stroke="black" points="412.5,-0.5 412.5,-19.5 536.5,-19.5 536.5,-0.5 412.5,-0.5"/>
<text text-anchor="middle" x="474.5" y="-7.5" font-family="Helvetica,sans-Serif" font-size="10.00">src/EurorackClock.cpp</text>
</a>
</g>
</g>
<!-- Node9&#45;&gt;Node10 -->
<g id="edge11" class="edge">
<title>Node9&#45;&gt;Node10</title>
<path fill="none" stroke="midnightblue" d="M477.1,-46.1C476.44,-37.14 475.67,-26.86 475.15,-19.75"/>
<polygon fill="midnightblue" stroke="midnightblue" points="473.61,-46.37 477.84,-56.08 480.59,-45.85 473.61,-46.37"/>
</g>
<!-- Node11 -->
<g id="node11" class="node">
<title>Node11</title>
<g id="a_node11"><a xlink:href="MIDIHandler_8cpp.xhtml" target="_top" xlink:title=" ">
<polygon fill="white" stroke="black" points="554.5,-0.5 554.5,-19.5 668.5,-19.5 668.5,-0.5 554.5,-0.5"/>
<text text-anchor="middle" x="611.5" y="-7.5" font-family="Helvetica,sans-Serif" font-size="10.00">src/MIDIHandler.cpp</text>
</a>
</g>
</g>
<!-- Node9&#45;&gt;Node11 -->
<g id="edge13" class="edge">
<title>Node9&#45;&gt;Node11</title>
<path fill="none" stroke="midnightblue" d="M508.95,-52.64C533.91,-42.5 568.58,-28.43 590.52,-19.52"/>
<polygon fill="midnightblue" stroke="midnightblue" points="507.52,-49.44 499.57,-56.44 510.16,-55.92 507.52,-49.44"/>
</g>
<!-- Node12 -->
<g id="node12" class="node">
<title>Node12</title>
<g id="a_node12"><a xlink:href="ModeSelector_8cpp.xhtml" target="_top" xlink:title=" ">
<polygon fill="white" stroke="black" points="686.5,-0.5 686.5,-19.5 806.5,-19.5 806.5,-0.5 686.5,-0.5"/>
<text text-anchor="middle" x="746.5" y="-7.5" font-family="Helvetica,sans-Serif" font-size="10.00">src/ModeSelector.cpp</text>
</a>
</g>
</g>
<!-- Node9&#45;&gt;Node12 -->
<g id="edge14" class="edge">
<title>Node9&#45;&gt;Node12</title>
<path fill="none" stroke="midnightblue" d="M531.06,-54.41C581.71,-44.2 657.37,-28.96 704.23,-19.52"/>
<polygon fill="midnightblue" stroke="midnightblue" points="530.08,-51.04 520.97,-56.44 531.46,-57.9 530.08,-51.04"/>
</g>
</g>
</svg>
