<?xml version="1.0" encoding="UTF-8" standalone="no"?>
<!DOCTYPE svg PUBLIC "-//W3C//DTD SVG 1.1//EN"
 "http://www.w3.org/Graphics/SVG/1.1/DTD/svg11.dtd">
<!-- Generated by graphviz version 2.43.0 (0)
 -->
<!-- Title: src/ModeSelector.cpp Pages: 1 -->
<!--zoomable 308 -->
<svg id="main" version="1.1" xmlns="http://www.w3.org/2000/svg" xmlns:xlink="http://www.w3.org/1999/xlink" xml:space="preserve" onload="init(evt)">
<style type="text/css"><![CDATA[
.edge:hover path { stroke: red; }
.edge:hover polygon { stroke: red; fill: red; }
]]></style>
<script type="text/javascript"><![CDATA[
var edges = document.getElementsByTagName('g');
if (edges && edges.length) {
  for (var i=0;i<edges.length;i++) {
    if (edges[i].id.substr(0,4)=='edge') {
      edges[i].setAttribute('class','edge');
    }
  }
}
]]></script>
        <defs>
                <circle id="rim" cx="0" cy="0" r="7"/>
                <circle id="rim2" cx="0" cy="0" r="3.5"/>
                <g id="zoomPlus">
                        <use xlink:href="#rim" fill="#404040">
                                <set attributeName="fill" to="#808080" begin="zoomplus.mouseover" end="zoomplus.mouseout"/>
                        </use>
                        <path d="M-4,0h8M0,-4v8" fill="none" stroke="white" stroke-width="1.5" pointer-events="none"/>
                </g>
                <g id="zoomMin">
                        <use xlink:href="#rim" fill="#404040">
                                <set attributeName="fill" to="#808080" begin="zoomminus.mouseover" end="zoomminus.mouseout"/>
                        </use>
                        <path d="M-4,0h8" fill="none" stroke="white" stroke-width="1.5" pointer-events="none"/>
                </g>
                <g id="dirArrow">
                        <path fill="none" stroke="white" stroke-width="1.5" d="M0,-3.0v7 M-2.5,-0.5L0,-3.0L2.5,-0.5"/>
                </g>
               <g id="resetDef">
                       <use xlink:href="#rim2" fill="#404040">
                               <set attributeName="fill" to="#808080" begin="reset.mouseover" end="reset.mouseout"/>
                       </use>
               </g>
        </defs>

<script type="text/javascript">
var viewWidth = 504;
var viewHeight = 308;
var sectionId = 'dynsection-0';
</script>
<script xlink:href="svgpan.js"/>
<svg id="graph" class="graph">
<g id="viewport">
<title>src/ModeSelector.cpp</title>
<polygon fill="white" stroke="transparent" points="-4,4 -4,-304 500,-304 500,4 -4,4"/>
<!-- Node1 -->
<g id="node1" class="node">
<title>Node1</title>
<g id="a_node1"><a xlink:title=" ">
<polygon fill="#bfbfbf" stroke="black" points="376,-280.5 376,-299.5 496,-299.5 496,-280.5 376,-280.5"/>
<text text-anchor="middle" x="436" y="-287.5" font-family="Helvetica,sans-Serif" font-size="10.00">src/ModeSelector.cpp</text>
</a>
</g>
</g>
<!-- Node2 -->
<g id="node2" class="node">
<title>Node2</title>
<g id="a_node2"><a xlink:href="ModeSelector_8h.html" target="_top" xlink:title=" ">
<polygon fill="white" stroke="black" points="131,-224.5 131,-243.5 223,-243.5 223,-224.5 131,-224.5"/>
<text text-anchor="middle" x="177" y="-231.5" font-family="Helvetica,sans-Serif" font-size="10.00">ModeSelector.h</text>
</a>
</g>
</g>
<!-- Node1&#45;&gt;Node2 -->
<g id="edge1" class="edge">
<title>Node1&#45;&gt;Node2</title>
<path fill="none" stroke="midnightblue" d="M394.96,-280.44C349.68,-271 276.77,-255.8 227.89,-245.61"/>
<polygon fill="midnightblue" stroke="midnightblue" points="228.35,-242.13 217.85,-243.52 226.92,-248.98 228.35,-242.13"/>
</g>
<!-- Node11 -->
<g id="node11" class="node">
<title>Node11</title>
<g id="a_node11"><a xlink:title=" ">
<polygon fill="white" stroke="#bfbfbf" points="404.5,-56.5 404.5,-75.5 467.5,-75.5 467.5,-56.5 404.5,-56.5"/>
<text text-anchor="middle" x="436" y="-63.5" font-family="Helvetica,sans-Serif" font-size="10.00">Arduino.h</text>
</a>
</g>
</g>
<!-- Node1&#45;&gt;Node11 -->
<g id="edge18" class="edge">
<title>Node1&#45;&gt;Node11</title>
<path fill="none" stroke="midnightblue" d="M441.22,-280.29C456.19,-254.14 496.78,-174.28 474,-112 469.94,-100.91 461.81,-90.67 454.11,-82.76"/>
<polygon fill="midnightblue" stroke="midnightblue" points="456.36,-80.07 446.71,-75.7 451.53,-85.14 456.36,-80.07"/>
</g>
<!-- Node12 -->
<g id="node12" class="node">
<title>Node12</title>
<g id="a_node12"><a xlink:href="Debug_8h.html" target="_top" xlink:title=" ">
<polygon fill="white" stroke="black" points="407.5,-112.5 407.5,-131.5 464.5,-131.5 464.5,-112.5 407.5,-112.5"/>
<text text-anchor="middle" x="436" y="-119.5" font-family="Helvetica,sans-Serif" font-size="10.00">Debug.h</text>
</a>
</g>
</g>
<!-- Node1&#45;&gt;Node12 -->
<g id="edge19" class="edge">
<title>Node1&#45;&gt;Node12</title>
<path fill="none" stroke="midnightblue" d="M436,-280.08C436,-253.95 436,-177.21 436,-141.58"/>
<polygon fill="midnightblue" stroke="midnightblue" points="439.5,-141.57 436,-131.57 432.5,-141.57 439.5,-141.57"/>
</g>
<!-- Node3 -->
<g id="node3" class="node">
<title>Node3</title>
<g id="a_node3"><a xlink:title=" ">
<polygon fill="white" stroke="#bfbfbf" points="187.5,-56.5 187.5,-75.5 234.5,-75.5 234.5,-56.5 187.5,-56.5"/>
<text text-anchor="middle" x="211" y="-63.5" font-family="Helvetica,sans-Serif" font-size="10.00">vector</text>
</a>
</g>
</g>
<!-- Node2&#45;&gt;Node3 -->
<g id="edge2" class="edge">
<title>Node2&#45;&gt;Node3</title>
<path fill="none" stroke="midnightblue" d="M181.26,-224.26C185.41,-215.35 191.59,-201.02 195,-188 204.27,-152.59 208.31,-109.88 209.96,-85.84"/>
<polygon fill="midnightblue" stroke="midnightblue" points="213.47,-85.85 210.6,-75.65 206.48,-85.41 213.47,-85.85"/>
</g>
<!-- Node4 -->
<g id="node4" class="node">
<title>Node4</title>
<g id="a_node4"><a xlink:href="LEDController_8h.html" target="_top" xlink:title=" ">
<polygon fill="white" stroke="black" points="94,-168.5 94,-187.5 186,-187.5 186,-168.5 94,-168.5"/>
<text text-anchor="middle" x="140" y="-175.5" font-family="Helvetica,sans-Serif" font-size="10.00">LEDController.h</text>
</a>
</g>
</g>
<!-- Node2&#45;&gt;Node4 -->
<g id="edge3" class="edge">
<title>Node2&#45;&gt;Node4</title>
<path fill="none" stroke="midnightblue" d="M170.89,-224.08C165.72,-216.53 158.15,-205.49 151.81,-196.23"/>
<polygon fill="midnightblue" stroke="midnightblue" points="154.54,-194.02 146,-187.75 148.76,-197.98 154.54,-194.02"/>
</g>
<!-- Node8 -->
<g id="node8" class="node">
<title>Node8</title>
<g id="a_node8"><a xlink:href="Encoder_8h.html" target="_top" xlink:title=" ">
<polygon fill="white" stroke="black" points="0,-112.5 0,-131.5 64,-131.5 64,-112.5 0,-112.5"/>
<text text-anchor="middle" x="32" y="-119.5" font-family="Helvetica,sans-Serif" font-size="10.00">Encoder.h</text>
</a>
</g>
</g>
<!-- Node2&#45;&gt;Node8 -->
<g id="edge8" class="edge">
<title>Node2&#45;&gt;Node8</title>
<path fill="none" stroke="midnightblue" d="M130.74,-226.62C87.43,-219.58 27.28,-206.72 13,-188 2.36,-174.04 10.59,-154.26 19.3,-140.19"/>
<polygon fill="midnightblue" stroke="midnightblue" points="22.21,-142.14 24.9,-131.89 16.41,-138.22 22.21,-142.14"/>
</g>
<!-- Node9 -->
<g id="node9" class="node">
<title>Node9</title>
<g id="a_node9"><a xlink:href="Mode_8h.html" target="_top" xlink:title=" ">
<polygon fill="white" stroke="black" points="22.5,-168.5 22.5,-187.5 75.5,-187.5 75.5,-168.5 22.5,-168.5"/>
<text text-anchor="middle" x="49" y="-175.5" font-family="Helvetica,sans-Serif" font-size="10.00">Mode.h</text>
</a>
</g>
</g>
<!-- Node2&#45;&gt;Node9 -->
<g id="edge10" class="edge">
<title>Node2&#45;&gt;Node9</title>
<path fill="none" stroke="midnightblue" d="M156.72,-224.44C135.65,-215.56 102.48,-201.56 78.51,-191.45"/>
<polygon fill="midnightblue" stroke="midnightblue" points="79.76,-188.18 69.19,-187.52 77.04,-194.63 79.76,-188.18"/>
</g>
<!-- Node10 -->
<g id="node10" class="node">
<title>Node10</title>
<g id="a_node10"><a xlink:href="ResetButton_8h.html" target="_top" xlink:title=" ">
<polygon fill="white" stroke="black" points="298,-168.5 298,-187.5 384,-187.5 384,-168.5 298,-168.5"/>
<text text-anchor="middle" x="341" y="-175.5" font-family="Helvetica,sans-Serif" font-size="10.00">ResetButton.h</text>
</a>
</g>
</g>
<!-- Node2&#45;&gt;Node10 -->
<g id="edge11" class="edge">
<title>Node2&#45;&gt;Node10</title>
<path fill="none" stroke="midnightblue" d="M202.99,-224.44C230.7,-215.32 274.75,-200.81 305.62,-190.65"/>
<polygon fill="midnightblue" stroke="midnightblue" points="306.73,-193.97 315.14,-187.52 304.54,-187.32 306.73,-193.97"/>
</g>
<!-- Node5 -->
<g id="node5" class="node">
<title>Node5</title>
<g id="a_node5"><a xlink:href="LEDs_8h.html" target="_top" xlink:title=" ">
<polygon fill="white" stroke="black" points="117,-112.5 117,-131.5 167,-131.5 167,-112.5 117,-112.5"/>
<text text-anchor="middle" x="142" y="-119.5" font-family="Helvetica,sans-Serif" font-size="10.00">LEDs.h</text>
</a>
</g>
</g>
<!-- Node4&#45;&gt;Node5 -->
<g id="edge4" class="edge">
<title>Node4&#45;&gt;Node5</title>
<path fill="none" stroke="midnightblue" d="M140.33,-168.08C140.59,-161.01 140.97,-150.86 141.3,-141.99"/>
<polygon fill="midnightblue" stroke="midnightblue" points="144.8,-141.87 141.68,-131.75 137.81,-141.61 144.8,-141.87"/>
</g>
<!-- Node5&#45;&gt;Node3 -->
<g id="edge7" class="edge">
<title>Node5&#45;&gt;Node3</title>
<path fill="none" stroke="midnightblue" d="M153.09,-112.32C163.49,-104.18 179.26,-91.84 191.72,-82.09"/>
<polygon fill="midnightblue" stroke="midnightblue" points="193.99,-84.75 199.71,-75.83 189.68,-79.24 193.99,-84.75"/>
</g>
<!-- Node6 -->
<g id="node6" class="node">
<title>Node6</title>
<g id="a_node6"><a xlink:href="LED_8h.html" target="_top" xlink:title=" ">
<polygon fill="white" stroke="black" points="120,-56.5 120,-75.5 164,-75.5 164,-56.5 120,-56.5"/>
<text text-anchor="middle" x="142" y="-63.5" font-family="Helvetica,sans-Serif" font-size="10.00">LED.h</text>
</a>
</g>
</g>
<!-- Node5&#45;&gt;Node6 -->
<g id="edge5" class="edge">
<title>Node5&#45;&gt;Node6</title>
<path fill="none" stroke="midnightblue" d="M142,-112.08C142,-105.01 142,-94.86 142,-85.99"/>
<polygon fill="midnightblue" stroke="midnightblue" points="145.5,-85.75 142,-75.75 138.5,-85.75 145.5,-85.75"/>
</g>
<!-- Node7 -->
<g id="node7" class="node">
<title>Node7</title>
<g id="a_node7"><a xlink:href="Pin_8h.html" target="_top" xlink:title=" ">
<polygon fill="white" stroke="black" points="121.5,-0.5 121.5,-19.5 162.5,-19.5 162.5,-0.5 121.5,-0.5"/>
<text text-anchor="middle" x="142" y="-7.5" font-family="Helvetica,sans-Serif" font-size="10.00">Pin.h</text>
</a>
</g>
</g>
<!-- Node6&#45;&gt;Node7 -->
<g id="edge6" class="edge">
<title>Node6&#45;&gt;Node7</title>
<path fill="none" stroke="midnightblue" d="M142,-56.08C142,-49.01 142,-38.86 142,-29.99"/>
<polygon fill="midnightblue" stroke="midnightblue" points="145.5,-29.75 142,-19.75 138.5,-29.75 145.5,-29.75"/>
</g>
<!-- Node8&#45;&gt;Node7 -->
<g id="edge9" class="edge">
<title>Node8&#45;&gt;Node7</title>
<path fill="none" stroke="midnightblue" d="M40.63,-112.37C59.11,-93.89 102.71,-50.29 126.26,-26.74"/>
<polygon fill="midnightblue" stroke="midnightblue" points="128.81,-29.14 133.41,-19.59 123.86,-24.19 128.81,-29.14"/>
</g>
<!-- Node10&#45;&gt;Node7 -->
<g id="edge12" class="edge">
<title>Node10&#45;&gt;Node7</title>
<path fill="none" stroke="midnightblue" d="M340.26,-168.22C338.75,-154.95 334.37,-129.46 322,-112 285.34,-60.24 213.33,-31.77 172.37,-19.13"/>
<polygon fill="midnightblue" stroke="midnightblue" points="173.25,-15.74 162.67,-16.25 171.26,-22.45 173.25,-15.74"/>
</g>
<!-- Node10&#45;&gt;Node11 -->
<g id="edge13" class="edge">
<title>Node10&#45;&gt;Node11</title>
<path fill="none" stroke="midnightblue" d="M348.45,-168.37C364.27,-150.05 401.41,-107.05 421.87,-83.36"/>
<polygon fill="midnightblue" stroke="midnightblue" points="424.69,-85.45 428.58,-75.59 419.4,-80.87 424.69,-85.45"/>
</g>
<!-- Node10&#45;&gt;Node12 -->
<g id="edge14" class="edge">
<title>Node10&#45;&gt;Node12</title>
<path fill="none" stroke="midnightblue" d="M356.26,-168.32C371.22,-159.82 394.25,-146.73 411.73,-136.8"/>
<polygon fill="midnightblue" stroke="midnightblue" points="413.81,-139.64 420.77,-131.65 410.35,-133.55 413.81,-139.64"/>
</g>
<!-- Node13 -->
<g id="node13" class="node">
<title>Node13</title>
<g id="a_node13"><a xlink:href="Constants_8h.html" target="_top" xlink:title=" ">
<polygon fill="white" stroke="black" points="239,-112.5 239,-131.5 313,-131.5 313,-112.5 239,-112.5"/>
<text text-anchor="middle" x="276" y="-119.5" font-family="Helvetica,sans-Serif" font-size="10.00">Constants.h</text>
</a>
</g>
</g>
<!-- Node10&#45;&gt;Node13 -->
<g id="edge16" class="edge">
<title>Node10&#45;&gt;Node13</title>
<path fill="none" stroke="midnightblue" d="M330.56,-168.32C320.85,-160.26 306.18,-148.08 294.5,-138.37"/>
<polygon fill="midnightblue" stroke="midnightblue" points="296.56,-135.53 286.63,-131.83 292.09,-140.92 296.56,-135.53"/>
</g>
<!-- Node12&#45;&gt;Node11 -->
<g id="edge15" class="edge">
<title>Node12&#45;&gt;Node11</title>
<path fill="none" stroke="midnightblue" d="M436,-112.08C436,-105.01 436,-94.86 436,-85.99"/>
<polygon fill="midnightblue" stroke="midnightblue" points="439.5,-85.75 436,-75.75 432.5,-85.75 439.5,-85.75"/>
</g>
<!-- Node13&#45;&gt;Node3 -->
<g id="edge17" class="edge">
<title>Node13&#45;&gt;Node3</title>
<path fill="none" stroke="midnightblue" d="M265.56,-112.32C255.85,-104.26 241.18,-92.08 229.5,-82.37"/>
<polygon fill="midnightblue" stroke="midnightblue" points="231.56,-79.53 221.63,-75.83 227.09,-84.92 231.56,-79.53"/>
</g>
</g>
</svg>
        <g id="navigator" transform="translate(0 0)" fill="#404254">
                <rect fill="#f2f5e9" fill-opacity="0.5" stroke="#606060" stroke-width=".5" x="0" y="0" width="60" height="60"/>
                <use id="zoomplus" xlink:href="#zoomPlus" x="17" y="9" onmousedown="handleZoom(evt,'in')"/>
                <use id="zoomminus" xlink:href="#zoomMin" x="42" y="9" onmousedown="handleZoom(evt,'out')"/>
                <use id="reset" xlink:href="#resetDef" x="30" y="36" onmousedown="handleReset()"/>
                <g id="arrowUp" xlink:href="#dirArrow" transform="translate(30 24)" onmousedown="handlePan(0,-1)">
                  <use xlink:href="#rim" fill="#404040">
                        <set attributeName="fill" to="#808080" begin="arrowUp.mouseover" end="arrowUp.mouseout"/>
                  </use>
                  <path fill="none" stroke="white" stroke-width="1.5" d="M0,-3.0v7 M-2.5,-0.5L0,-3.0L2.5,-0.5"/>
                </g>
                <g id="arrowRight" xlink:href="#dirArrow" transform="rotate(90) translate(36 -43)" onmousedown="handlePan(1,0)">
                  <use xlink:href="#rim" fill="#404040">
                        <set attributeName="fill" to="#808080" begin="arrowRight.mouseover" end="arrowRight.mouseout"/>
                  </use>
                  <path fill="none" stroke="white" stroke-width="1.5" d="M0,-3.0v7 M-2.5,-0.5L0,-3.0L2.5,-0.5"/>
                </g>
                <g id="arrowDown" xlink:href="#dirArrow" transform="rotate(180) translate(-30 -48)" onmousedown="handlePan(0,1)">
                  <use xlink:href="#rim" fill="#404040">
                        <set attributeName="fill" to="#808080" begin="arrowDown.mouseover" end="arrowDown.mouseout"/>
                  </use>
                  <path fill="none" stroke="white" stroke-width="1.5" d="M0,-3.0v7 M-2.5,-0.5L0,-3.0L2.5,-0.5"/>
                </g>
                <g id="arrowLeft" xlink:href="#dirArrow" transform="rotate(270) translate(-36 17)" onmousedown="handlePan(-1,0)">
                  <use xlink:href="#rim" fill="#404040">
                        <set attributeName="fill" to="#808080" begin="arrowLeft.mouseover" end="arrowLeft.mouseout"/>
                  </use>
                  <path fill="none" stroke="white" stroke-width="1.5" d="M0,-3.0v7 M-2.5,-0.5L0,-3.0L2.5,-0.5"/>
                </g>
        </g>
        <svg viewBox="0 0 15 15" width="100%" height="30px" preserveAspectRatio="xMaxYMin meet">
         <g id="arrow_out" transform="scale(0.3 0.3)">
          <a xlink:href="ModeSelector_8cpp__incl_org.svg" target="_base">
           <rect id="button" ry="5" rx="5" y="6" x="6" height="38" width="38"
                fill="#f2f5e9" fill-opacity="0.5" stroke="#606060" stroke-width="1.0"/>
           <path id="arrow"
             d="M 11.500037,31.436501 C 11.940474,20.09759 22.043105,11.32322 32.158766,21.979434 L 37.068811,17.246167 C 37.068811,17.246167 37.088388,32 37.088388,32 L 22.160133,31.978069 C 22.160133,31.978069 26.997745,27.140456 26.997745,27.140456 C 18.528582,18.264221 13.291696,25.230495 11.500037,31.436501 z"
             style="fill:#404040;"/>
          </a>
         </g>
        </svg>
</svg>
