<?xml version="1.0" encoding="UTF-8" standalone="no"?>
<!DOCTYPE svg PUBLIC "-//W3C//DTD SVG 1.1//EN"
 "http://www.w3.org/Graphics/SVG/1.1/DTD/svg11.dtd">
<!-- Generated by graphviz version 2.43.0 (0)
 -->
<!-- Title: src/Mode0.cpp Pages: 1 -->
<!--zoomable 420 -->
<svg id="main" version="1.1" xmlns="http://www.w3.org/2000/svg" xmlns:xlink="http://www.w3.org/1999/xlink" xml:space="preserve" onload="init(evt)">
<style type="text/css"><![CDATA[
.edge:hover path { stroke: red; }
.edge:hover polygon { stroke: red; fill: red; }
]]></style>
<script type="text/javascript"><![CDATA[
var edges = document.getElementsByTagName('g');
if (edges && edges.length) {
  for (var i=0;i<edges.length;i++) {
    if (edges[i].id.substr(0,4)=='edge') {
      edges[i].setAttribute('class','edge');
    }
  }
}
]]></script>
        <defs>
                <circle id="rim" cx="0" cy="0" r="7"/>
                <circle id="rim2" cx="0" cy="0" r="3.5"/>
                <g id="zoomPlus">
                        <use xlink:href="#rim" fill="#404040">
                                <set attributeName="fill" to="#808080" begin="zoomplus.mouseover" end="zoomplus.mouseout"/>
                        </use>
                        <path d="M-4,0h8M0,-4v8" fill="none" stroke="white" stroke-width="1.5" pointer-events="none"/>
                </g>
                <g id="zoomMin">
                        <use xlink:href="#rim" fill="#404040">
                                <set attributeName="fill" to="#808080" begin="zoomminus.mouseover" end="zoomminus.mouseout"/>
                        </use>
                        <path d="M-4,0h8" fill="none" stroke="white" stroke-width="1.5" pointer-events="none"/>
                </g>
                <g id="dirArrow">
                        <path fill="none" stroke="white" stroke-width="1.5" d="M0,-3.0v7 M-2.5,-0.5L0,-3.0L2.5,-0.5"/>
                </g>
               <g id="resetDef">
                       <use xlink:href="#rim2" fill="#404040">
                               <set attributeName="fill" to="#808080" begin="reset.mouseover" end="reset.mouseout"/>
                       </use>
               </g>
        </defs>

<script type="text/javascript">
var viewWidth = 776;
var viewHeight = 420;
var sectionId = 'dynsection-0';
</script>
<script xlink:href="svgpan.js"/>
<svg id="graph" class="graph">
<g id="viewport">
<title>src/Mode0.cpp</title>
<polygon fill="white" stroke="transparent" points="-4,4 -4,-416 772,-416 772,4 -4,4"/>
<!-- Node1 -->
<g id="node1" class="node">
<title>Node1</title>
<g id="a_node1"><a xlink:title=" ">
<polygon fill="#bfbfbf" stroke="black" points="648.5,-392.5 648.5,-411.5 735.5,-411.5 735.5,-392.5 648.5,-392.5"/>
<text text-anchor="middle" x="692" y="-399.5" font-family="Helvetica,sans-Serif" font-size="10.00">src/Mode0.cpp</text>
</a>
</g>
</g>
<!-- Node2 -->
<g id="node2" class="node">
<title>Node2</title>
<g id="a_node2"><a xlink:href="Mode0_8h.xhtml" target="_top" xlink:title=" ">
<polygon fill="white" stroke="black" points="334.5,-336.5 334.5,-355.5 393.5,-355.5 393.5,-336.5 334.5,-336.5"/>
<text text-anchor="middle" x="364" y="-343.5" font-family="Helvetica,sans-Serif" font-size="10.00">Mode0.h</text>
</a>
</g>
</g>
<!-- Node1&#45;&gt;Node2 -->
<g id="edge1" class="edge">
<title>Node1&#45;&gt;Node2</title>
<path fill="none" stroke="midnightblue" d="M648.44,-393.83C584.36,-383.28 465.6,-363.73 403.76,-353.55"/>
<polygon fill="midnightblue" stroke="midnightblue" points="404.06,-350.05 393.62,-351.88 402.92,-356.96 404.06,-350.05"/>
</g>
<!-- Node7 -->
<g id="node7" class="node">
<title>Node7</title>
<g id="a_node7"><a xlink:title=" ">
<polygon fill="white" stroke="#bfbfbf" points="624.5,-112.5 624.5,-131.5 687.5,-131.5 687.5,-112.5 624.5,-112.5"/>
<text text-anchor="middle" x="656" y="-119.5" font-family="Helvetica,sans-Serif" font-size="10.00">Arduino.h</text>
</a>
</g>
</g>
<!-- Node1&#45;&gt;Node7 -->
<g id="edge41" class="edge">
<title>Node1&#45;&gt;Node7</title>
<path fill="none" stroke="midnightblue" d="M697.28,-392.23C707.73,-374.04 730,-330.6 730,-291 730,-291 730,-291 730,-233 730,-202.77 726.75,-193.16 710,-168 701.89,-155.82 689.53,-145.17 678.67,-137.3"/>
<polygon fill="midnightblue" stroke="midnightblue" points="680.63,-134.39 670.41,-131.6 676.66,-140.16 680.63,-134.39"/>
</g>
<!-- Node19 -->
<g id="node19" class="node">
<title>Node19</title>
<g id="a_node19"><a xlink:href="Debug_8h.xhtml" target="_top" xlink:title=" ">
<polygon fill="white" stroke="black" points="644.5,-168.5 644.5,-187.5 701.5,-187.5 701.5,-168.5 644.5,-168.5"/>
<text text-anchor="middle" x="673" y="-175.5" font-family="Helvetica,sans-Serif" font-size="10.00">Debug.h</text>
</a>
</g>
</g>
<!-- Node1&#45;&gt;Node19 -->
<g id="edge40" class="edge">
<title>Node1&#45;&gt;Node19</title>
<path fill="none" stroke="midnightblue" d="M691.26,-392.3C688.46,-359.63 678.55,-243.87 674.62,-197.96"/>
<polygon fill="midnightblue" stroke="midnightblue" points="678.1,-197.55 673.76,-187.88 671.13,-198.15 678.1,-197.55"/>
</g>
<!-- Node3 -->
<g id="node3" class="node">
<title>Node3</title>
<g id="a_node3"><a xlink:href="Mode_8h.xhtml" target="_top" xlink:title=" ">
<polygon fill="white" stroke="black" points="282.5,-280.5 282.5,-299.5 335.5,-299.5 335.5,-280.5 282.5,-280.5"/>
<text text-anchor="middle" x="309" y="-287.5" font-family="Helvetica,sans-Serif" font-size="10.00">Mode.h</text>
</a>
</g>
</g>
<!-- Node2&#45;&gt;Node3 -->
<g id="edge2" class="edge">
<title>Node2&#45;&gt;Node3</title>
<path fill="none" stroke="midnightblue" d="M354.92,-336.08C346.83,-328.14 334.8,-316.34 325.09,-306.8"/>
<polygon fill="midnightblue" stroke="midnightblue" points="327.5,-304.26 317.91,-299.75 322.6,-309.25 327.5,-304.26"/>
</g>
<!-- Node4 -->
<g id="node4" class="node">
<title>Node4</title>
<g id="a_node4"><a xlink:href="Encoder_8h.xhtml" target="_top" xlink:title=" ">
<polygon fill="white" stroke="black" points="486,-56.5 486,-75.5 550,-75.5 550,-56.5 486,-56.5"/>
<text text-anchor="middle" x="518" y="-63.5" font-family="Helvetica,sans-Serif" font-size="10.00">Encoder.h</text>
</a>
</g>
</g>
<!-- Node2&#45;&gt;Node4 -->
<g id="edge3" class="edge">
<title>Node2&#45;&gt;Node4</title>
<path fill="none" stroke="midnightblue" d="M376.93,-336.35C399.36,-320.66 445.42,-285.28 470,-244 500.9,-192.12 512.36,-119.98 516.22,-86.06"/>
<polygon fill="midnightblue" stroke="midnightblue" points="519.74,-86.06 517.29,-75.75 512.78,-85.33 519.74,-86.06"/>
</g>
<!-- Node6 -->
<g id="node6" class="node">
<title>Node6</title>
<g id="a_node6"><a xlink:href="Gates_8h.xhtml" target="_top" xlink:title=" ">
<polygon fill="white" stroke="black" points="104,-168.5 104,-187.5 158,-187.5 158,-168.5 104,-168.5"/>
<text text-anchor="middle" x="131" y="-175.5" font-family="Helvetica,sans-Serif" font-size="10.00">Gates.h</text>
</a>
</g>
</g>
<!-- Node2&#45;&gt;Node6 -->
<g id="edge5" class="edge">
<title>Node2&#45;&gt;Node6</title>
<path fill="none" stroke="midnightblue" d="M334.48,-342.4C294.58,-337.98 221.98,-326.74 166,-300 129.74,-282.68 112.53,-280.16 95,-244 86.63,-226.73 100.15,-207.58 112.94,-194.56"/>
<polygon fill="midnightblue" stroke="midnightblue" points="115.37,-197.09 120.22,-187.67 110.55,-192.01 115.37,-197.09"/>
</g>
<!-- Node9 -->
<g id="node9" class="node">
<title>Node9</title>
<g id="a_node9"><a xlink:href="Constants_8h.xhtml" target="_top" xlink:title=" ">
<polygon fill="white" stroke="black" points="81,-56.5 81,-75.5 155,-75.5 155,-56.5 81,-56.5"/>
<text text-anchor="middle" x="118" y="-63.5" font-family="Helvetica,sans-Serif" font-size="10.00">Constants.h</text>
</a>
</g>
</g>
<!-- Node2&#45;&gt;Node9 -->
<g id="edge30" class="edge">
<title>Node2&#45;&gt;Node9</title>
<path fill="none" stroke="midnightblue" d="M334.37,-343.95C287.38,-341.33 193.76,-332.15 122,-300 78.92,-280.7 38,-282.21 38,-235 38,-235 38,-235 38,-177 38,-136.62 73.69,-101.11 97.4,-81.97"/>
<polygon fill="midnightblue" stroke="midnightblue" points="99.74,-84.58 105.5,-75.69 95.45,-79.05 99.74,-84.58"/>
</g>
<!-- Node10 -->
<g id="node10" class="node">
<title>Node10</title>
<g id="a_node10"><a xlink:title=" ">
<polygon fill="white" stroke="#bfbfbf" points="126.5,-0.5 126.5,-19.5 173.5,-19.5 173.5,-0.5 126.5,-0.5"/>
<text text-anchor="middle" x="150" y="-7.5" font-family="Helvetica,sans-Serif" font-size="10.00">vector</text>
</a>
</g>
</g>
<!-- Node2&#45;&gt;Node10 -->
<g id="edge39" class="edge">
<title>Node2&#45;&gt;Node10</title>
<path fill="none" stroke="midnightblue" d="M334.18,-342.84C268.36,-337.71 112.79,-323.41 66,-300 29.18,-281.58 0,-276.17 0,-235 0,-235 0,-235 0,-121 0,-63.63 72.24,-32.91 116.46,-19.48"/>
<polygon fill="midnightblue" stroke="midnightblue" points="117.6,-22.79 126.23,-16.65 115.65,-16.07 117.6,-22.79"/>
</g>
<!-- Node13 -->
<g id="node13" class="node">
<title>Node13</title>
<g id="a_node13"><a xlink:href="LEDController_8h.xhtml" target="_top" xlink:title=" ">
<polygon fill="white" stroke="black" points="369,-224.5 369,-243.5 461,-243.5 461,-224.5 369,-224.5"/>
<text text-anchor="middle" x="415" y="-231.5" font-family="Helvetica,sans-Serif" font-size="10.00">LEDController.h</text>
</a>
</g>
</g>
<!-- Node2&#45;&gt;Node13 -->
<g id="edge16" class="edge">
<title>Node2&#45;&gt;Node13</title>
<path fill="none" stroke="midnightblue" d="M368,-336.37C376.31,-318.46 395.56,-276.92 406.68,-252.95"/>
<polygon fill="midnightblue" stroke="midnightblue" points="409.99,-254.14 411.02,-243.59 403.64,-251.19 409.99,-254.14"/>
</g>
<!-- Node14 -->
<g id="node14" class="node">
<title>Node14</title>
<g id="a_node14"><a xlink:href="EurorackClock_8h.xhtml" target="_top" xlink:title=" ">
<polygon fill="white" stroke="black" points="251.5,-224.5 251.5,-243.5 346.5,-243.5 346.5,-224.5 251.5,-224.5"/>
<text text-anchor="middle" x="299" y="-231.5" font-family="Helvetica,sans-Serif" font-size="10.00">EurorackClock.h</text>
</a>
</g>
</g>
<!-- Node2&#45;&gt;Node14 -->
<g id="edge18" class="edge">
<title>Node2&#45;&gt;Node14</title>
<path fill="none" stroke="midnightblue" d="M362.73,-336.46C360.52,-323.5 355.08,-298.41 344,-280 337.28,-268.84 327.21,-258.41 318.29,-250.41"/>
<polygon fill="midnightblue" stroke="midnightblue" points="320.43,-247.64 310.56,-243.8 315.88,-252.96 320.43,-247.64"/>
</g>
<!-- Node16 -->
<g id="node16" class="node">
<title>Node16</title>
<g id="a_node16"><a xlink:href="MIDIHandler_8h.xhtml" target="_top" xlink:title=" ">
<polygon fill="white" stroke="black" points="175,-280.5 175,-299.5 261,-299.5 261,-280.5 175,-280.5"/>
<text text-anchor="middle" x="218" y="-287.5" font-family="Helvetica,sans-Serif" font-size="10.00">MIDIHandler.h</text>
</a>
</g>
</g>
<!-- Node2&#45;&gt;Node16 -->
<g id="edge25" class="edge">
<title>Node2&#45;&gt;Node16</title>
<path fill="none" stroke="midnightblue" d="M340.87,-336.44C316.52,-327.44 277.99,-313.19 250.58,-303.05"/>
<polygon fill="midnightblue" stroke="midnightblue" points="251.62,-299.7 241.03,-299.52 249.19,-306.27 251.62,-299.7"/>
</g>
<!-- Node18 -->
<g id="node18" class="node">
<title>Node18</title>
<g id="a_node18"><a xlink:href="ResetButton_8h.xhtml" target="_top" xlink:title=" ">
<polygon fill="white" stroke="black" points="538,-224.5 538,-243.5 624,-243.5 624,-224.5 538,-224.5"/>
<text text-anchor="middle" x="581" y="-231.5" font-family="Helvetica,sans-Serif" font-size="10.00">ResetButton.h</text>
</a>
</g>
</g>
<!-- Node2&#45;&gt;Node18 -->
<g id="edge31" class="edge">
<title>Node2&#45;&gt;Node18</title>
<path fill="none" stroke="midnightblue" d="M393.79,-341.78C427.57,-337.02 483.24,-325.7 524,-300 543.37,-287.79 559.9,-267.04 570.09,-252.27"/>
<polygon fill="midnightblue" stroke="midnightblue" points="573.24,-253.85 575.84,-243.58 567.41,-249.99 573.24,-253.85"/>
</g>
<!-- Node20 -->
<g id="node20" class="node">
<title>Node20</title>
<g id="a_node20"><a xlink:href="InputHandler_8h.xhtml" target="_top" xlink:title=" ">
<polygon fill="white" stroke="black" points="576,-280.5 576,-299.5 664,-299.5 664,-280.5 576,-280.5"/>
<text text-anchor="middle" x="620" y="-287.5" font-family="Helvetica,sans-Serif" font-size="10.00">InputHandler.h</text>
</a>
</g>
</g>
<!-- Node2&#45;&gt;Node20 -->
<g id="edge37" class="edge">
<title>Node2&#45;&gt;Node20</title>
<path fill="none" stroke="midnightblue" d="M393.62,-338.75C436.56,-329.7 516.69,-312.79 569.19,-301.72"/>
<polygon fill="midnightblue" stroke="midnightblue" points="570.23,-305.07 579.3,-299.59 568.79,-298.23 570.23,-305.07"/>
</g>
<!-- Node5 -->
<g id="node5" class="node">
<title>Node5</title>
<g id="a_node5"><a xlink:href="Pin_8h.xhtml" target="_top" xlink:title=" ">
<polygon fill="white" stroke="black" points="467.5,-0.5 467.5,-19.5 508.5,-19.5 508.5,-0.5 467.5,-0.5"/>
<text text-anchor="middle" x="488" y="-7.5" font-family="Helvetica,sans-Serif" font-size="10.00">Pin.h</text>
</a>
</g>
</g>
<!-- Node4&#45;&gt;Node5 -->
<g id="edge4" class="edge">
<title>Node4&#45;&gt;Node5</title>
<path fill="none" stroke="midnightblue" d="M513.05,-56.08C508.9,-48.61 502.85,-37.72 497.73,-28.52"/>
<polygon fill="midnightblue" stroke="midnightblue" points="500.78,-26.79 492.86,-19.75 494.66,-30.19 500.78,-26.79"/>
</g>
<!-- Node6&#45;&gt;Node7 -->
<g id="edge6" class="edge">
<title>Node6&#45;&gt;Node7</title>
<path fill="none" stroke="midnightblue" d="M158.05,-173.57C172.05,-171.83 189.44,-169.72 205,-168 355.45,-151.35 534.44,-134.31 614.14,-126.87"/>
<polygon fill="midnightblue" stroke="midnightblue" points="614.63,-130.34 624.26,-125.93 613.98,-123.37 614.63,-130.34"/>
</g>
<!-- Node8 -->
<g id="node8" class="node">
<title>Node8</title>
<g id="a_node8"><a xlink:href="Gate_8h.xhtml" target="_top" xlink:title=" ">
<polygon fill="white" stroke="black" points="105.5,-112.5 105.5,-131.5 154.5,-131.5 154.5,-112.5 105.5,-112.5"/>
<text text-anchor="middle" x="130" y="-119.5" font-family="Helvetica,sans-Serif" font-size="10.00">Gate.h</text>
</a>
</g>
</g>
<!-- Node6&#45;&gt;Node8 -->
<g id="edge7" class="edge">
<title>Node6&#45;&gt;Node8</title>
<path fill="none" stroke="midnightblue" d="M130.83,-168.08C130.7,-161.01 130.52,-150.86 130.35,-141.99"/>
<polygon fill="midnightblue" stroke="midnightblue" points="133.85,-141.68 130.16,-131.75 126.85,-141.81 133.85,-141.68"/>
</g>
<!-- Node6&#45;&gt;Node10 -->
<g id="edge15" class="edge">
<title>Node6&#45;&gt;Node10</title>
<path fill="none" stroke="midnightblue" d="M139.69,-168.27C147.46,-159.81 158.32,-146.21 163,-132 173.56,-99.91 169.08,-89.4 164,-56 162.63,-47 159.81,-37.33 157.05,-29.26"/>
<polygon fill="midnightblue" stroke="midnightblue" points="160.31,-27.98 153.6,-19.78 153.73,-30.37 160.31,-27.98"/>
</g>
<!-- Node11 -->
<g id="node11" class="node">
<title>Node11</title>
<g id="a_node11"><a xlink:href="LEDs_8h.xhtml" target="_top" xlink:title=" ">
<polygon fill="white" stroke="black" points="287,-112.5 287,-131.5 337,-131.5 337,-112.5 287,-112.5"/>
<text text-anchor="middle" x="312" y="-119.5" font-family="Helvetica,sans-Serif" font-size="10.00">LEDs.h</text>
</a>
</g>
</g>
<!-- Node6&#45;&gt;Node11 -->
<g id="edge11" class="edge">
<title>Node6&#45;&gt;Node11</title>
<path fill="none" stroke="midnightblue" d="M158.1,-168.92C189.78,-159.46 242.3,-143.79 277.04,-133.43"/>
<polygon fill="midnightblue" stroke="midnightblue" points="278.18,-136.74 286.76,-130.53 276.18,-130.03 278.18,-136.74"/>
</g>
<!-- Node8&#45;&gt;Node5 -->
<g id="edge8" class="edge">
<title>Node8&#45;&gt;Node5</title>
<path fill="none" stroke="midnightblue" d="M154.61,-113.44C218.17,-93.91 387.71,-41.81 457.42,-20.4"/>
<polygon fill="midnightblue" stroke="midnightblue" points="458.81,-23.63 467.34,-17.35 456.75,-16.94 458.81,-23.63"/>
</g>
<!-- Node8&#45;&gt;Node9 -->
<g id="edge9" class="edge">
<title>Node8&#45;&gt;Node9</title>
<path fill="none" stroke="midnightblue" d="M128.02,-112.08C126.43,-104.93 124.14,-94.64 122.15,-85.69"/>
<polygon fill="midnightblue" stroke="midnightblue" points="125.53,-84.75 119.94,-75.75 118.7,-86.27 125.53,-84.75"/>
</g>
<!-- Node9&#45;&gt;Node10 -->
<g id="edge10" class="edge">
<title>Node9&#45;&gt;Node10</title>
<path fill="none" stroke="midnightblue" d="M123.28,-56.08C127.71,-48.61 134.16,-37.72 139.62,-28.52"/>
<polygon fill="midnightblue" stroke="midnightblue" points="142.73,-30.14 144.81,-19.75 136.71,-26.57 142.73,-30.14"/>
</g>
<!-- Node11&#45;&gt;Node10 -->
<g id="edge14" class="edge">
<title>Node11&#45;&gt;Node10</title>
<path fill="none" stroke="midnightblue" d="M299.29,-112.37C271.49,-93.49 205.06,-48.38 170.97,-25.24"/>
<polygon fill="midnightblue" stroke="midnightblue" points="172.89,-22.31 162.65,-19.59 168.96,-28.1 172.89,-22.31"/>
</g>
<!-- Node12 -->
<g id="node12" class="node">
<title>Node12</title>
<g id="a_node12"><a xlink:href="LED_8h.xhtml" target="_top" xlink:title=" ">
<polygon fill="white" stroke="black" points="360,-56.5 360,-75.5 404,-75.5 404,-56.5 360,-56.5"/>
<text text-anchor="middle" x="382" y="-63.5" font-family="Helvetica,sans-Serif" font-size="10.00">LED.h</text>
</a>
</g>
</g>
<!-- Node11&#45;&gt;Node12 -->
<g id="edge12" class="edge">
<title>Node11&#45;&gt;Node12</title>
<path fill="none" stroke="midnightblue" d="M323.25,-112.32C333.8,-104.18 349.8,-91.84 362.44,-82.09"/>
<polygon fill="midnightblue" stroke="midnightblue" points="364.77,-84.71 370.55,-75.83 360.49,-79.17 364.77,-84.71"/>
</g>
<!-- Node12&#45;&gt;Node5 -->
<g id="edge13" class="edge">
<title>Node12&#45;&gt;Node5</title>
<path fill="none" stroke="midnightblue" d="M399.03,-56.32C416.03,-47.66 442.38,-34.24 461.99,-24.25"/>
<polygon fill="midnightblue" stroke="midnightblue" points="463.69,-27.31 471.01,-19.65 460.51,-21.08 463.69,-27.31"/>
</g>
<!-- Node13&#45;&gt;Node11 -->
<g id="edge17" class="edge">
<title>Node13&#45;&gt;Node11</title>
<path fill="none" stroke="midnightblue" d="M406.92,-224.37C389.69,-205.97 349.15,-162.67 327.03,-139.05"/>
<polygon fill="midnightblue" stroke="midnightblue" points="329.43,-136.5 320.04,-131.59 324.32,-141.28 329.43,-136.5"/>
</g>
<!-- Node14&#45;&gt;Node5 -->
<g id="edge21" class="edge">
<title>Node14&#45;&gt;Node5</title>
<path fill="none" stroke="midnightblue" d="M312.78,-224.38C325.58,-216.01 344.74,-202.46 359,-188 410.52,-135.77 457.66,-61.72 477.76,-28.41"/>
<polygon fill="midnightblue" stroke="midnightblue" points="480.78,-30.18 482.89,-19.8 474.76,-26.6 480.78,-30.18"/>
</g>
<!-- Node14&#45;&gt;Node6 -->
<g id="edge22" class="edge">
<title>Node14&#45;&gt;Node6</title>
<path fill="none" stroke="midnightblue" d="M272.38,-224.44C243.99,-215.32 198.86,-200.81 167.25,-190.65"/>
<polygon fill="midnightblue" stroke="midnightblue" points="168.09,-187.24 157.5,-187.52 165.94,-193.91 168.09,-187.24"/>
</g>
<!-- Node14&#45;&gt;Node9 -->
<g id="edge24" class="edge">
<title>Node14&#45;&gt;Node9</title>
<path fill="none" stroke="midnightblue" d="M251.46,-229.27C197.44,-223.92 114.25,-211.96 95,-188 70.77,-157.85 92.27,-109.89 106.97,-84.35"/>
<polygon fill="midnightblue" stroke="midnightblue" points="109.99,-86.11 112.16,-75.74 104,-82.5 109.99,-86.11"/>
</g>
<!-- Node14&#45;&gt;Node11 -->
<g id="edge23" class="edge">
<title>Node14&#45;&gt;Node11</title>
<path fill="none" stroke="midnightblue" d="M305.63,-224.27C311.77,-215.61 320.46,-201.67 324,-188 328,-172.55 324.12,-154.71 319.73,-141.63"/>
<polygon fill="midnightblue" stroke="midnightblue" points="322.88,-140.05 316.09,-131.92 316.32,-142.51 322.88,-140.05"/>
</g>
<!-- Node14&#45;&gt;Node12 -->
<g id="edge20" class="edge">
<title>Node14&#45;&gt;Node12</title>
<path fill="none" stroke="midnightblue" d="M308.74,-224.19C317.66,-215.68 330.7,-202.04 339,-188 358.88,-154.39 371.69,-110.12 377.79,-85.52"/>
<polygon fill="midnightblue" stroke="midnightblue" points="381.22,-86.24 380.13,-75.71 374.41,-84.62 381.22,-86.24"/>
</g>
<!-- Node15 -->
<g id="node15" class="node">
<title>Node15</title>
<g id="a_node15"><a xlink:title=" ">
<polygon fill="white" stroke="#bfbfbf" points="214.5,-168.5 214.5,-187.5 315.5,-187.5 315.5,-168.5 214.5,-168.5"/>
<text text-anchor="middle" x="265" y="-175.5" font-family="Helvetica,sans-Serif" font-size="10.00">HardwareTimer.h</text>
</a>
</g>
</g>
<!-- Node14&#45;&gt;Node15 -->
<g id="edge19" class="edge">
<title>Node14&#45;&gt;Node15</title>
<path fill="none" stroke="midnightblue" d="M293.39,-224.08C288.63,-216.53 281.68,-205.49 275.85,-196.23"/>
<polygon fill="midnightblue" stroke="midnightblue" points="278.8,-194.35 270.51,-187.75 272.88,-198.08 278.8,-194.35"/>
</g>
<!-- Node16&#45;&gt;Node6 -->
<g id="edge28" class="edge">
<title>Node16&#45;&gt;Node6</title>
<path fill="none" stroke="midnightblue" d="M211.17,-280.37C196.75,-262.14 162.97,-219.43 144.19,-195.68"/>
<polygon fill="midnightblue" stroke="midnightblue" points="146.74,-193.26 137.8,-187.59 141.25,-197.61 146.74,-193.26"/>
</g>
<!-- Node16&#45;&gt;Node11 -->
<g id="edge29" class="edge">
<title>Node16&#45;&gt;Node11</title>
<path fill="none" stroke="midnightblue" d="M213.66,-280.49C203.57,-259.42 181.15,-203.9 205,-168 220.81,-144.21 251.91,-132.96 276.53,-127.67"/>
<polygon fill="midnightblue" stroke="midnightblue" points="277.45,-131.06 286.62,-125.75 276.14,-124.18 277.45,-131.06"/>
</g>
<!-- Node16&#45;&gt;Node14 -->
<g id="edge27" class="edge">
<title>Node16&#45;&gt;Node14</title>
<path fill="none" stroke="midnightblue" d="M231.01,-280.32C243.53,-271.98 262.68,-259.21 277.47,-249.35"/>
<polygon fill="midnightblue" stroke="midnightblue" points="279.64,-252.11 286.02,-243.65 275.76,-246.29 279.64,-252.11"/>
</g>
<!-- Node17 -->
<g id="node17" class="node">
<title>Node17</title>
<g id="a_node17"><a xlink:title=" ">
<polygon fill="white" stroke="#bfbfbf" points="104,-224.5 104,-243.5 152,-243.5 152,-224.5 104,-224.5"/>
<text text-anchor="middle" x="128" y="-231.5" font-family="Helvetica,sans-Serif" font-size="10.00">MIDI.h</text>
</a>
</g>
</g>
<!-- Node16&#45;&gt;Node17 -->
<g id="edge26" class="edge">
<title>Node16&#45;&gt;Node17</title>
<path fill="none" stroke="midnightblue" d="M203.54,-280.32C189.5,-271.9 167.95,-258.97 151.46,-249.07"/>
<polygon fill="midnightblue" stroke="midnightblue" points="152.8,-245.8 142.42,-243.65 149.2,-251.8 152.8,-245.8"/>
</g>
<!-- Node18&#45;&gt;Node5 -->
<g id="edge32" class="edge">
<title>Node18&#45;&gt;Node5</title>
<path fill="none" stroke="midnightblue" d="M582.33,-224.41C586.09,-197.25 594.3,-111.71 559,-56 549.45,-40.93 532.84,-30 518.08,-22.68"/>
<polygon fill="midnightblue" stroke="midnightblue" points="519.29,-19.38 508.74,-18.39 516.37,-25.74 519.29,-19.38"/>
</g>
<!-- Node18&#45;&gt;Node7 -->
<g id="edge33" class="edge">
<title>Node18&#45;&gt;Node7</title>
<path fill="none" stroke="midnightblue" d="M586.89,-224.37C599.26,-206.22 628.18,-163.8 644.42,-139.99"/>
<polygon fill="midnightblue" stroke="midnightblue" points="647.4,-141.83 650.14,-131.59 641.62,-137.88 647.4,-141.83"/>
</g>
<!-- Node18&#45;&gt;Node9 -->
<g id="edge36" class="edge">
<title>Node18&#45;&gt;Node9</title>
<path fill="none" stroke="midnightblue" d="M567.57,-224.35C532.56,-202.21 435.05,-143.02 346,-112 285.43,-90.9 212.16,-78.65 165.32,-72.4"/>
<polygon fill="midnightblue" stroke="midnightblue" points="165.53,-68.9 155.17,-71.08 164.63,-75.84 165.53,-68.9"/>
</g>
<!-- Node18&#45;&gt;Node19 -->
<g id="edge34" class="edge">
<title>Node18&#45;&gt;Node19</title>
<path fill="none" stroke="midnightblue" d="M595.78,-224.32C610.27,-215.82 632.57,-202.73 649.49,-192.8"/>
<polygon fill="midnightblue" stroke="midnightblue" points="651.4,-195.74 658.26,-187.65 647.86,-189.7 651.4,-195.74"/>
</g>
<!-- Node19&#45;&gt;Node7 -->
<g id="edge35" class="edge">
<title>Node19&#45;&gt;Node7</title>
<path fill="none" stroke="midnightblue" d="M670.19,-168.08C667.92,-160.85 664.63,-150.41 661.79,-141.4"/>
<polygon fill="midnightblue" stroke="midnightblue" points="665.1,-140.24 658.75,-131.75 658.42,-142.34 665.1,-140.24"/>
</g>
<!-- Node20&#45;&gt;Node5 -->
<g id="edge38" class="edge">
<title>Node20&#45;&gt;Node5</title>
<path fill="none" stroke="midnightblue" d="M652.85,-280.46C696.45,-266.91 768,-235.99 768,-179 768,-179 768,-179 768,-121 768,-67.86 591.08,-29.7 518.51,-16.28"/>
<polygon fill="midnightblue" stroke="midnightblue" points="519.05,-12.82 508.59,-14.48 517.8,-19.71 519.05,-12.82"/>
</g>
</g>
</svg>
        <g id="navigator" transform="translate(0 0)" fill="#404254">
                <rect fill="#f2f5e9" fill-opacity="0.5" stroke="#606060" stroke-width=".5" x="0" y="0" width="60" height="60"/>
                <use id="zoomplus" xlink:href="#zoomPlus" x="17" y="9" onmousedown="handleZoom(evt,'in')"/>
                <use id="zoomminus" xlink:href="#zoomMin" x="42" y="9" onmousedown="handleZoom(evt,'out')"/>
                <use id="reset" xlink:href="#resetDef" x="30" y="36" onmousedown="handleReset()"/>
                <g id="arrowUp" xlink:href="#dirArrow" transform="translate(30 24)" onmousedown="handlePan(0,-1)">
                  <use xlink:href="#rim" fill="#404040">
                        <set attributeName="fill" to="#808080" begin="arrowUp.mouseover" end="arrowUp.mouseout"/>
                  </use>
                  <path fill="none" stroke="white" stroke-width="1.5" d="M0,-3.0v7 M-2.5,-0.5L0,-3.0L2.5,-0.5"/>
                </g>
                <g id="arrowRight" xlink:href="#dirArrow" transform="rotate(90) translate(36 -43)" onmousedown="handlePan(1,0)">
                  <use xlink:href="#rim" fill="#404040">
                        <set attributeName="fill" to="#808080" begin="arrowRight.mouseover" end="arrowRight.mouseout"/>
                  </use>
                  <path fill="none" stroke="white" stroke-width="1.5" d="M0,-3.0v7 M-2.5,-0.5L0,-3.0L2.5,-0.5"/>
                </g>
                <g id="arrowDown" xlink:href="#dirArrow" transform="rotate(180) translate(-30 -48)" onmousedown="handlePan(0,1)">
                  <use xlink:href="#rim" fill="#404040">
                        <set attributeName="fill" to="#808080" begin="arrowDown.mouseover" end="arrowDown.mouseout"/>
                  </use>
                  <path fill="none" stroke="white" stroke-width="1.5" d="M0,-3.0v7 M-2.5,-0.5L0,-3.0L2.5,-0.5"/>
                </g>
                <g id="arrowLeft" xlink:href="#dirArrow" transform="rotate(270) translate(-36 17)" onmousedown="handlePan(-1,0)">
                  <use xlink:href="#rim" fill="#404040">
                        <set attributeName="fill" to="#808080" begin="arrowLeft.mouseover" end="arrowLeft.mouseout"/>
                  </use>
                  <path fill="none" stroke="white" stroke-width="1.5" d="M0,-3.0v7 M-2.5,-0.5L0,-3.0L2.5,-0.5"/>
                </g>
        </g>
        <svg viewBox="0 0 15 15" width="100%" height="30px" preserveAspectRatio="xMaxYMin meet">
         <g id="arrow_out" transform="scale(0.3 0.3)">
          <a xlink:href="Mode0_8cpp__incl_org.svg" target="_base">
           <rect id="button" ry="5" rx="5" y="6" x="6" height="38" width="38"
                fill="#f2f5e9" fill-opacity="0.5" stroke="#606060" stroke-width="1.0"/>
           <path id="arrow"
             d="M 11.500037,31.436501 C 11.940474,20.09759 22.043105,11.32322 32.158766,21.979434 L 37.068811,17.246167 C 37.068811,17.246167 37.088388,32 37.088388,32 L 22.160133,31.978069 C 22.160133,31.978069 26.997745,27.140456 26.997745,27.140456 C 18.528582,18.264221 13.291696,25.230495 11.500037,31.436501 z"
             style="fill:#404040;"/>
          </a>
         </g>
        </svg>
</svg>
