<?xml version="1.0" encoding="UTF-8" standalone="no"?>
<!DOCTYPE svg PUBLIC "-//W3C//DTD SVG 1.1//EN"
 "http://www.w3.org/Graphics/SVG/1.1/DTD/svg11.dtd">
<!-- Generated by graphviz version 2.43.0 (0)
 -->
<!-- Title: include/Mode0.h Pages: 1 -->
<!--zoomable 364 -->
<svg id="main" version="1.1" xmlns="http://www.w3.org/2000/svg" xmlns:xlink="http://www.w3.org/1999/xlink" xml:space="preserve" onload="init(evt)">
<style type="text/css"><![CDATA[
.edge:hover path { stroke: red; }
.edge:hover polygon { stroke: red; fill: red; }
]]></style>
<script type="text/javascript"><![CDATA[
var edges = document.getElementsByTagName('g');
if (edges && edges.length) {
  for (var i=0;i<edges.length;i++) {
    if (edges[i].id.substr(0,4)=='edge') {
      edges[i].setAttribute('class','edge');
    }
  }
}
]]></script>
        <defs>
                <circle id="rim" cx="0" cy="0" r="7"/>
                <circle id="rim2" cx="0" cy="0" r="3.5"/>
                <g id="zoomPlus">
                        <use xlink:href="#rim" fill="#404040">
                                <set attributeName="fill" to="#808080" begin="zoomplus.mouseover" end="zoomplus.mouseout"/>
                        </use>
                        <path d="M-4,0h8M0,-4v8" fill="none" stroke="white" stroke-width="1.5" pointer-events="none"/>
                </g>
                <g id="zoomMin">
                        <use xlink:href="#rim" fill="#404040">
                                <set attributeName="fill" to="#808080" begin="zoomminus.mouseover" end="zoomminus.mouseout"/>
                        </use>
                        <path d="M-4,0h8" fill="none" stroke="white" stroke-width="1.5" pointer-events="none"/>
                </g>
                <g id="dirArrow">
                        <path fill="none" stroke="white" stroke-width="1.5" d="M0,-3.0v7 M-2.5,-0.5L0,-3.0L2.5,-0.5"/>
                </g>
               <g id="resetDef">
                       <use xlink:href="#rim2" fill="#404040">
                               <set attributeName="fill" to="#808080" begin="reset.mouseover" end="reset.mouseout"/>
                       </use>
               </g>
        </defs>

<script type="text/javascript">
var viewWidth = 814;
var viewHeight = 364;
var sectionId = 'dynsection-0';
</script>
<script xlink:href="svgpan.js"/>
<svg id="graph" class="graph">
<g id="viewport">
<title>include/Mode0.h</title>
<polygon fill="white" stroke="transparent" points="-4,4 -4,-360 809.5,-360 809.5,4 -4,4"/>
<!-- Node1 -->
<g id="node1" class="node">
<title>Node1</title>
<g id="a_node1"><a xlink:title=" ">
<polygon fill="#bfbfbf" stroke="black" points="352,-336.5 352,-355.5 449,-355.5 449,-336.5 352,-336.5"/>
<text text-anchor="middle" x="400.5" y="-343.5" font-family="Helvetica,sans-Serif" font-size="10.00">include/Mode0.h</text>
</a>
</g>
</g>
<!-- Node2 -->
<g id="node2" class="node">
<title>Node2</title>
<g id="a_node2"><a xlink:href="Mode_8h.xhtml" target="_top" xlink:title=" ">
<polygon fill="white" stroke="black" points="0,-280.5 0,-299.5 53,-299.5 53,-280.5 0,-280.5"/>
<text text-anchor="middle" x="26.5" y="-287.5" font-family="Helvetica,sans-Serif" font-size="10.00">Mode.h</text>
</a>
</g>
</g>
<!-- Node1&#45;&gt;Node2 -->
<g id="edge1" class="edge">
<title>Node1&#45;&gt;Node2</title>
<path fill="none" stroke="midnightblue" d="M351.78,-339.68C286.73,-332.29 168.03,-317.8 67.5,-300 66.21,-299.77 64.9,-299.53 63.57,-299.28"/>
<polygon fill="midnightblue" stroke="midnightblue" points="63.84,-295.76 53.34,-297.22 62.46,-302.63 63.84,-295.76"/>
</g>
<!-- Node3 -->
<g id="node3" class="node">
<title>Node3</title>
<g id="a_node3"><a xlink:href="Encoder_8h.xhtml" target="_top" xlink:title=" ">
<polygon fill="white" stroke="black" points="27.5,-56.5 27.5,-75.5 91.5,-75.5 91.5,-56.5 27.5,-56.5"/>
<text text-anchor="middle" x="59.5" y="-63.5" font-family="Helvetica,sans-Serif" font-size="10.00">Encoder.h</text>
</a>
</g>
</g>
<!-- Node1&#45;&gt;Node3 -->
<g id="edge2" class="edge">
<title>Node1&#45;&gt;Node3</title>
<path fill="none" stroke="midnightblue" d="M351.73,-342.44C280.76,-337.88 153.45,-326.21 116.5,-300 89.74,-281.02 81.5,-267.81 81.5,-235 81.5,-235 81.5,-235 81.5,-177 81.5,-144.33 72.05,-107.24 65.54,-85.55"/>
<polygon fill="midnightblue" stroke="midnightblue" points="68.79,-84.22 62.47,-75.72 62.11,-86.31 68.79,-84.22"/>
</g>
<!-- Node5 -->
<g id="node5" class="node">
<title>Node5</title>
<g id="a_node5"><a xlink:href="Gates_8h.xhtml" target="_top" xlink:title=" ">
<polygon fill="white" stroke="black" points="495.5,-168.5 495.5,-187.5 549.5,-187.5 549.5,-168.5 495.5,-168.5"/>
<text text-anchor="middle" x="522.5" y="-175.5" font-family="Helvetica,sans-Serif" font-size="10.00">Gates.h</text>
</a>
</g>
</g>
<!-- Node1&#45;&gt;Node5 -->
<g id="edge4" class="edge">
<title>Node1&#45;&gt;Node5</title>
<path fill="none" stroke="midnightblue" d="M418.91,-336.39C447.36,-321.93 500.97,-289.78 522.5,-244 529.25,-229.64 528.59,-211.44 526.62,-197.96"/>
<polygon fill="midnightblue" stroke="midnightblue" points="530.02,-197.13 524.79,-187.92 523.14,-198.39 530.02,-197.13"/>
</g>
<!-- Node8 -->
<g id="node8" class="node">
<title>Node8</title>
<g id="a_node8"><a xlink:href="Constants_8h.xhtml" target="_top" xlink:title=" ">
<polygon fill="white" stroke="black" points="491.5,-56.5 491.5,-75.5 565.5,-75.5 565.5,-56.5 491.5,-56.5"/>
<text text-anchor="middle" x="528.5" y="-63.5" font-family="Helvetica,sans-Serif" font-size="10.00">Constants.h</text>
</a>
</g>
</g>
<!-- Node1&#45;&gt;Node8 -->
<g id="edge29" class="edge">
<title>Node1&#45;&gt;Node8</title>
<path fill="none" stroke="midnightblue" d="M429.66,-336.38C450.69,-329.13 478.9,-317.16 499.5,-300 522.8,-280.59 524.61,-270.96 538.5,-244 565.61,-191.36 573.78,-168.63 556.5,-112 553.42,-101.9 547.47,-91.81 541.84,-83.75"/>
<polygon fill="midnightblue" stroke="midnightblue" points="544.58,-81.56 535.8,-75.62 538.96,-85.73 544.58,-81.56"/>
</g>
<!-- Node9 -->
<g id="node9" class="node">
<title>Node9</title>
<g id="a_node9"><a xlink:title=" ">
<polygon fill="white" stroke="#bfbfbf" points="453,-0.5 453,-19.5 500,-19.5 500,-0.5 453,-0.5"/>
<text text-anchor="middle" x="476.5" y="-7.5" font-family="Helvetica,sans-Serif" font-size="10.00">vector</text>
</a>
</g>
</g>
<!-- Node1&#45;&gt;Node9 -->
<g id="edge38" class="edge">
<title>Node1&#45;&gt;Node9</title>
<path fill="none" stroke="midnightblue" d="M449.35,-342.03C557.07,-334.15 805.5,-308.04 805.5,-235 805.5,-235 805.5,-235 805.5,-121 805.5,-59.2 594.07,-25.79 510.2,-14.97"/>
<polygon fill="midnightblue" stroke="midnightblue" points="510.52,-11.49 500.16,-13.71 509.64,-18.43 510.52,-11.49"/>
</g>
<!-- Node12 -->
<g id="node12" class="node">
<title>Node12</title>
<g id="a_node12"><a xlink:href="LEDController_8h.xhtml" target="_top" xlink:title=" ">
<polygon fill="white" stroke="black" points="402.5,-224.5 402.5,-243.5 494.5,-243.5 494.5,-224.5 402.5,-224.5"/>
<text text-anchor="middle" x="448.5" y="-231.5" font-family="Helvetica,sans-Serif" font-size="10.00">LEDController.h</text>
</a>
</g>
</g>
<!-- Node1&#45;&gt;Node12 -->
<g id="edge15" class="edge">
<title>Node1&#45;&gt;Node12</title>
<path fill="none" stroke="midnightblue" d="M404.27,-336.37C412.08,-318.46 430.21,-276.92 440.67,-252.95"/>
<polygon fill="midnightblue" stroke="midnightblue" points="443.96,-254.16 444.75,-243.59 437.54,-251.36 443.96,-254.16"/>
</g>
<!-- Node13 -->
<g id="node13" class="node">
<title>Node13</title>
<g id="a_node13"><a xlink:href="EurorackClock_8h.xhtml" target="_top" xlink:title=" ">
<polygon fill="white" stroke="black" points="185,-224.5 185,-243.5 280,-243.5 280,-224.5 185,-224.5"/>
<text text-anchor="middle" x="232.5" y="-231.5" font-family="Helvetica,sans-Serif" font-size="10.00">EurorackClock.h</text>
</a>
</g>
</g>
<!-- Node1&#45;&gt;Node13 -->
<g id="edge17" class="edge">
<title>Node1&#45;&gt;Node13</title>
<path fill="none" stroke="midnightblue" d="M379.22,-336.42C360.03,-328.26 331.39,-315.03 308.5,-300 286.22,-285.36 263.32,-264.9 248.56,-250.86"/>
<polygon fill="midnightblue" stroke="midnightblue" points="250.88,-248.24 241.26,-243.8 246.02,-253.27 250.88,-248.24"/>
</g>
<!-- Node15 -->
<g id="node15" class="node">
<title>Node15</title>
<g id="a_node15"><a xlink:href="MIDIHandler_8h.xhtml" target="_top" xlink:title=" ">
<polygon fill="white" stroke="black" points="317.5,-280.5 317.5,-299.5 403.5,-299.5 403.5,-280.5 317.5,-280.5"/>
<text text-anchor="middle" x="360.5" y="-287.5" font-family="Helvetica,sans-Serif" font-size="10.00">MIDIHandler.h</text>
</a>
</g>
</g>
<!-- Node1&#45;&gt;Node15 -->
<g id="edge24" class="edge">
<title>Node1&#45;&gt;Node15</title>
<path fill="none" stroke="midnightblue" d="M393.89,-336.08C388.24,-328.46 379.96,-317.26 373.05,-307.94"/>
<polygon fill="midnightblue" stroke="midnightblue" points="375.75,-305.7 366.98,-299.75 370.12,-309.87 375.75,-305.7"/>
</g>
<!-- Node17 -->
<g id="node17" class="node">
<title>Node17</title>
<g id="a_node17"><a xlink:href="ResetButton_8h.xhtml" target="_top" xlink:title=" ">
<polygon fill="white" stroke="black" points="626.5,-224.5 626.5,-243.5 712.5,-243.5 712.5,-224.5 626.5,-224.5"/>
<text text-anchor="middle" x="669.5" y="-231.5" font-family="Helvetica,sans-Serif" font-size="10.00">ResetButton.h</text>
</a>
</g>
</g>
<!-- Node1&#45;&gt;Node17 -->
<g id="edge30" class="edge">
<title>Node1&#45;&gt;Node17</title>
<path fill="none" stroke="midnightblue" d="M449.09,-343.35C494.21,-339.89 561.86,-329.67 612.5,-300 632.26,-288.42 648.71,-267.56 658.78,-252.59"/>
<polygon fill="midnightblue" stroke="midnightblue" points="661.99,-254.06 664.45,-243.76 656.1,-250.28 661.99,-254.06"/>
</g>
<!-- Node19 -->
<g id="node19" class="node">
<title>Node19</title>
<g id="a_node19"><a xlink:href="InputHandler_8h.xhtml" target="_top" xlink:title=" ">
<polygon fill="white" stroke="black" points="125.5,-280.5 125.5,-299.5 213.5,-299.5 213.5,-280.5 125.5,-280.5"/>
<text text-anchor="middle" x="169.5" y="-287.5" font-family="Helvetica,sans-Serif" font-size="10.00">InputHandler.h</text>
</a>
</g>
</g>
<!-- Node1&#45;&gt;Node19 -->
<g id="edge36" class="edge">
<title>Node1&#45;&gt;Node19</title>
<path fill="none" stroke="midnightblue" d="M363.9,-336.44C323.77,-327.06 259.3,-311.99 215.72,-301.8"/>
<polygon fill="midnightblue" stroke="midnightblue" points="216.47,-298.38 205.93,-299.52 214.87,-305.2 216.47,-298.38"/>
</g>
<!-- Node4 -->
<g id="node4" class="node">
<title>Node4</title>
<g id="a_node4"><a xlink:href="Pin_8h.xhtml" target="_top" xlink:title=" ">
<polygon fill="white" stroke="black" points="162,-0.5 162,-19.5 203,-19.5 203,-0.5 162,-0.5"/>
<text text-anchor="middle" x="182.5" y="-7.5" font-family="Helvetica,sans-Serif" font-size="10.00">Pin.h</text>
</a>
</g>
</g>
<!-- Node3&#45;&gt;Node4 -->
<g id="edge3" class="edge">
<title>Node3&#45;&gt;Node4</title>
<path fill="none" stroke="midnightblue" d="M78.99,-56.44C99.14,-47.6 130.82,-33.69 153.83,-23.59"/>
<polygon fill="midnightblue" stroke="midnightblue" points="155.35,-26.74 163.1,-19.52 152.54,-20.33 155.35,-26.74"/>
</g>
<!-- Node6 -->
<g id="node6" class="node">
<title>Node6</title>
<g id="a_node6"><a xlink:title=" ">
<polygon fill="white" stroke="#bfbfbf" points="682,-112.5 682,-131.5 745,-131.5 745,-112.5 682,-112.5"/>
<text text-anchor="middle" x="713.5" y="-119.5" font-family="Helvetica,sans-Serif" font-size="10.00">Arduino.h</text>
</a>
</g>
</g>
<!-- Node5&#45;&gt;Node6 -->
<g id="edge5" class="edge">
<title>Node5&#45;&gt;Node6</title>
<path fill="none" stroke="midnightblue" d="M549.87,-169.26C582.21,-160.12 636.3,-144.83 673.37,-134.34"/>
<polygon fill="midnightblue" stroke="midnightblue" points="674.68,-137.61 683.35,-131.52 672.77,-130.88 674.68,-137.61"/>
</g>
<!-- Node7 -->
<g id="node7" class="node">
<title>Node7</title>
<g id="a_node7"><a xlink:href="Gate_8h.xhtml" target="_top" xlink:title=" ">
<polygon fill="white" stroke="black" points="498,-112.5 498,-131.5 547,-131.5 547,-112.5 498,-112.5"/>
<text text-anchor="middle" x="522.5" y="-119.5" font-family="Helvetica,sans-Serif" font-size="10.00">Gate.h</text>
</a>
</g>
</g>
<!-- Node5&#45;&gt;Node7 -->
<g id="edge6" class="edge">
<title>Node5&#45;&gt;Node7</title>
<path fill="none" stroke="midnightblue" d="M522.5,-168.08C522.5,-161.01 522.5,-150.86 522.5,-141.99"/>
<polygon fill="midnightblue" stroke="midnightblue" points="526,-141.75 522.5,-131.75 519,-141.75 526,-141.75"/>
</g>
<!-- Node5&#45;&gt;Node9 -->
<g id="edge14" class="edge">
<title>Node5&#45;&gt;Node9</title>
<path fill="none" stroke="midnightblue" d="M513.88,-168.19C506.12,-159.68 495.09,-146.04 489.5,-132 475.88,-97.77 474.79,-54.03 475.47,-29.62"/>
<polygon fill="midnightblue" stroke="midnightblue" points="478.97,-29.72 475.89,-19.59 471.97,-29.43 478.97,-29.72"/>
</g>
<!-- Node10 -->
<g id="node10" class="node">
<title>Node10</title>
<g id="a_node10"><a xlink:href="LEDs_8h.xhtml" target="_top" xlink:title=" ">
<polygon fill="white" stroke="black" points="347.5,-112.5 347.5,-131.5 397.5,-131.5 397.5,-112.5 347.5,-112.5"/>
<text text-anchor="middle" x="372.5" y="-119.5" font-family="Helvetica,sans-Serif" font-size="10.00">LEDs.h</text>
</a>
</g>
</g>
<!-- Node5&#45;&gt;Node10 -->
<g id="edge10" class="edge">
<title>Node5&#45;&gt;Node10</title>
<path fill="none" stroke="midnightblue" d="M498.73,-168.44C473.61,-159.4 433.79,-145.06 405.6,-134.92"/>
<polygon fill="midnightblue" stroke="midnightblue" points="406.75,-131.61 396.16,-131.52 404.38,-138.2 406.75,-131.61"/>
</g>
<!-- Node7&#45;&gt;Node4 -->
<g id="edge7" class="edge">
<title>Node7&#45;&gt;Node4</title>
<path fill="none" stroke="midnightblue" d="M497.77,-113C436.85,-93.29 279.65,-42.43 213.05,-20.88"/>
<polygon fill="midnightblue" stroke="midnightblue" points="213.76,-17.43 203.16,-17.69 211.6,-24.09 213.76,-17.43"/>
</g>
<!-- Node7&#45;&gt;Node8 -->
<g id="edge8" class="edge">
<title>Node7&#45;&gt;Node8</title>
<path fill="none" stroke="midnightblue" d="M523.49,-112.08C524.29,-104.93 525.43,-94.64 526.42,-85.69"/>
<polygon fill="midnightblue" stroke="midnightblue" points="529.9,-86.08 527.53,-75.75 522.94,-85.3 529.9,-86.08"/>
</g>
<!-- Node8&#45;&gt;Node9 -->
<g id="edge9" class="edge">
<title>Node8&#45;&gt;Node9</title>
<path fill="none" stroke="midnightblue" d="M519.91,-56.08C512.34,-48.22 501.12,-36.57 491.99,-27.08"/>
<polygon fill="midnightblue" stroke="midnightblue" points="494.38,-24.53 484.93,-19.75 489.34,-29.38 494.38,-24.53"/>
</g>
<!-- Node10&#45;&gt;Node9 -->
<g id="edge13" class="edge">
<title>Node10&#45;&gt;Node9</title>
<path fill="none" stroke="midnightblue" d="M376.29,-112.23C382.32,-98.96 395.12,-73.48 411.5,-56 423.05,-43.67 438.53,-32.79 451.48,-24.82"/>
<polygon fill="midnightblue" stroke="midnightblue" points="453.55,-27.66 460.37,-19.55 449.99,-21.64 453.55,-27.66"/>
</g>
<!-- Node11 -->
<g id="node11" class="node">
<title>Node11</title>
<g id="a_node11"><a xlink:href="LED_8h.xhtml" target="_top" xlink:title=" ">
<polygon fill="white" stroke="black" points="185.5,-56.5 185.5,-75.5 229.5,-75.5 229.5,-56.5 185.5,-56.5"/>
<text text-anchor="middle" x="207.5" y="-63.5" font-family="Helvetica,sans-Serif" font-size="10.00">LED.h</text>
</a>
</g>
</g>
<!-- Node10&#45;&gt;Node11 -->
<g id="edge11" class="edge">
<title>Node10&#45;&gt;Node11</title>
<path fill="none" stroke="midnightblue" d="M347.44,-112.8C318.48,-103.32 270.77,-87.71 239.24,-77.39"/>
<polygon fill="midnightblue" stroke="midnightblue" points="240.21,-74.02 229.62,-74.24 238.03,-80.68 240.21,-74.02"/>
</g>
<!-- Node11&#45;&gt;Node4 -->
<g id="edge12" class="edge">
<title>Node11&#45;&gt;Node4</title>
<path fill="none" stroke="midnightblue" d="M203.37,-56.08C199.99,-48.77 195.08,-38.18 190.88,-29.1"/>
<polygon fill="midnightblue" stroke="midnightblue" points="193.93,-27.36 186.55,-19.75 187.58,-30.3 193.93,-27.36"/>
</g>
<!-- Node12&#45;&gt;Node10 -->
<g id="edge16" class="edge">
<title>Node12&#45;&gt;Node10</title>
<path fill="none" stroke="midnightblue" d="M450.15,-224.27C452.16,-211.06 454.11,-185.65 443.5,-168 434.86,-153.64 419.69,-143.1 405.58,-135.86"/>
<polygon fill="midnightblue" stroke="midnightblue" points="407.07,-132.69 396.54,-131.56 404.07,-139.01 407.07,-132.69"/>
</g>
<!-- Node13&#45;&gt;Node4 -->
<g id="edge20" class="edge">
<title>Node13&#45;&gt;Node4</title>
<path fill="none" stroke="midnightblue" d="M228.25,-224.43C217.02,-201.25 186.71,-135.03 176.5,-76 173.84,-60.63 175.78,-42.99 178.13,-29.97"/>
<polygon fill="midnightblue" stroke="midnightblue" points="181.62,-30.39 180.21,-19.89 174.77,-28.98 181.62,-30.39"/>
</g>
<!-- Node13&#45;&gt;Node5 -->
<g id="edge21" class="edge">
<title>Node13&#45;&gt;Node5</title>
<path fill="none" stroke="midnightblue" d="M278.45,-224.44C335.8,-213.77 432.74,-195.71 485.53,-185.88"/>
<polygon fill="midnightblue" stroke="midnightblue" points="486.29,-189.3 495.48,-184.03 485.01,-182.42 486.29,-189.3"/>
</g>
<!-- Node13&#45;&gt;Node8 -->
<g id="edge23" class="edge">
<title>Node13&#45;&gt;Node8</title>
<path fill="none" stroke="midnightblue" d="M271.07,-224.47C300.03,-217.16 340.1,-205.09 372.5,-188 428.82,-158.29 485.56,-107.98 512.44,-82.61"/>
<polygon fill="midnightblue" stroke="midnightblue" points="514.98,-85.03 519.79,-75.59 510.14,-79.97 514.98,-85.03"/>
</g>
<!-- Node13&#45;&gt;Node10 -->
<g id="edge22" class="edge">
<title>Node13&#45;&gt;Node10</title>
<path fill="none" stroke="midnightblue" d="M232.98,-224.22C234.19,-210.47 238.45,-183.8 253.5,-168 275.55,-144.84 310.72,-133.48 337.12,-127.99"/>
<polygon fill="midnightblue" stroke="midnightblue" points="337.94,-131.39 347.12,-126.09 336.64,-124.52 337.94,-131.39"/>
</g>
<!-- Node13&#45;&gt;Node11 -->
<g id="edge19" class="edge">
<title>Node13&#45;&gt;Node11</title>
<path fill="none" stroke="midnightblue" d="M231.16,-224.08C227.22,-197.95 215.66,-121.21 210.3,-85.58"/>
<polygon fill="midnightblue" stroke="midnightblue" points="213.74,-84.94 208.79,-75.57 206.82,-85.98 213.74,-84.94"/>
</g>
<!-- Node14 -->
<g id="node14" class="node">
<title>Node14</title>
<g id="a_node14"><a xlink:title=" ">
<polygon fill="white" stroke="#bfbfbf" points="262,-168.5 262,-187.5 363,-187.5 363,-168.5 262,-168.5"/>
<text text-anchor="middle" x="312.5" y="-175.5" font-family="Helvetica,sans-Serif" font-size="10.00">HardwareTimer.h</text>
</a>
</g>
</g>
<!-- Node13&#45;&gt;Node14 -->
<g id="edge18" class="edge">
<title>Node13&#45;&gt;Node14</title>
<path fill="none" stroke="midnightblue" d="M245.35,-224.32C257.72,-215.98 276.63,-203.21 291.24,-193.35"/>
<polygon fill="midnightblue" stroke="midnightblue" points="293.35,-196.15 299.68,-187.65 289.43,-190.35 293.35,-196.15"/>
</g>
<!-- Node15&#45;&gt;Node5 -->
<g id="edge27" class="edge">
<title>Node15&#45;&gt;Node5</title>
<path fill="none" stroke="midnightblue" d="M403.6,-286.07C435.3,-281.66 477.27,-270.77 503.5,-244 515.45,-231.81 519.95,-212.54 521.62,-198.14"/>
<polygon fill="midnightblue" stroke="midnightblue" points="525.13,-198.11 522.43,-187.87 518.15,-197.56 525.13,-198.11"/>
</g>
<!-- Node15&#45;&gt;Node10 -->
<g id="edge28" class="edge">
<title>Node15&#45;&gt;Node10</title>
<path fill="none" stroke="midnightblue" d="M350.46,-280.23C337.51,-267.8 317.74,-244.3 327.5,-224 338.6,-200.92 361.4,-211.08 372.5,-188 379.45,-173.54 378.68,-155.09 376.62,-141.54"/>
<polygon fill="midnightblue" stroke="midnightblue" points="380.02,-140.69 374.73,-131.51 373.14,-141.99 380.02,-140.69"/>
</g>
<!-- Node15&#45;&gt;Node13 -->
<g id="edge26" class="edge">
<title>Node15&#45;&gt;Node13</title>
<path fill="none" stroke="midnightblue" d="M340.22,-280.44C319.15,-271.56 285.98,-257.56 262.01,-247.45"/>
<polygon fill="midnightblue" stroke="midnightblue" points="263.26,-244.18 252.69,-243.52 260.54,-250.63 263.26,-244.18"/>
</g>
<!-- Node16 -->
<g id="node16" class="node">
<title>Node16</title>
<g id="a_node16"><a xlink:title=" ">
<polygon fill="white" stroke="#bfbfbf" points="336.5,-224.5 336.5,-243.5 384.5,-243.5 384.5,-224.5 336.5,-224.5"/>
<text text-anchor="middle" x="360.5" y="-231.5" font-family="Helvetica,sans-Serif" font-size="10.00">MIDI.h</text>
</a>
</g>
</g>
<!-- Node15&#45;&gt;Node16 -->
<g id="edge25" class="edge">
<title>Node15&#45;&gt;Node16</title>
<path fill="none" stroke="midnightblue" d="M360.5,-280.08C360.5,-273.01 360.5,-262.86 360.5,-253.99"/>
<polygon fill="midnightblue" stroke="midnightblue" points="364,-253.75 360.5,-243.75 357,-253.75 364,-253.75"/>
</g>
<!-- Node17&#45;&gt;Node4 -->
<g id="edge31" class="edge">
<title>Node17&#45;&gt;Node4</title>
<path fill="none" stroke="midnightblue" d="M668,-224.22C662.34,-194.08 639.17,-94.63 574.5,-56 513.57,-19.61 294.48,-12.65 213.16,-11.32"/>
<polygon fill="midnightblue" stroke="midnightblue" points="213.12,-7.81 203.07,-11.17 213.02,-14.81 213.12,-7.81"/>
</g>
<!-- Node17&#45;&gt;Node6 -->
<g id="edge32" class="edge">
<title>Node17&#45;&gt;Node6</title>
<path fill="none" stroke="midnightblue" d="M672.95,-224.37C680.12,-206.46 696.73,-164.92 706.32,-140.95"/>
<polygon fill="midnightblue" stroke="midnightblue" points="709.6,-142.18 710.06,-131.59 703.1,-139.58 709.6,-142.18"/>
</g>
<!-- Node17&#45;&gt;Node8 -->
<g id="edge35" class="edge">
<title>Node17&#45;&gt;Node8</title>
<path fill="none" stroke="midnightblue" d="M663.69,-224.41C657.59,-215.39 647.78,-200.76 639.5,-188 617.75,-154.49 618.93,-141.04 591.5,-112 580.06,-99.89 564.94,-88.96 552.37,-80.91"/>
<polygon fill="midnightblue" stroke="midnightblue" points="554.11,-77.86 543.76,-75.57 550.42,-83.82 554.11,-77.86"/>
</g>
<!-- Node18 -->
<g id="node18" class="node">
<title>Node18</title>
<g id="a_node18"><a xlink:href="Debug_8h.xhtml" target="_top" xlink:title=" ">
<polygon fill="white" stroke="black" points="720,-168.5 720,-187.5 777,-187.5 777,-168.5 720,-168.5"/>
<text text-anchor="middle" x="748.5" y="-175.5" font-family="Helvetica,sans-Serif" font-size="10.00">Debug.h</text>
</a>
</g>
</g>
<!-- Node17&#45;&gt;Node18 -->
<g id="edge33" class="edge">
<title>Node17&#45;&gt;Node18</title>
<path fill="none" stroke="midnightblue" d="M682.19,-224.32C694.4,-215.98 713.08,-203.21 727.5,-193.35"/>
<polygon fill="midnightblue" stroke="midnightblue" points="729.56,-196.19 735.84,-187.65 725.61,-190.41 729.56,-196.19"/>
</g>
<!-- Node18&#45;&gt;Node6 -->
<g id="edge34" class="edge">
<title>Node18&#45;&gt;Node6</title>
<path fill="none" stroke="midnightblue" d="M742.72,-168.08C737.83,-160.53 730.67,-149.49 724.67,-140.23"/>
<polygon fill="midnightblue" stroke="midnightblue" points="727.55,-138.24 719.17,-131.75 721.67,-142.05 727.55,-138.24"/>
</g>
<!-- Node19&#45;&gt;Node4 -->
<g id="edge37" class="edge">
<title>Node19&#45;&gt;Node4</title>
<path fill="none" stroke="midnightblue" d="M162.55,-280.48C148.81,-262.75 119.5,-220.12 119.5,-179 119.5,-179 119.5,-179 119.5,-121 119.5,-83.48 147.45,-47.14 166.11,-27.05"/>
<polygon fill="midnightblue" stroke="midnightblue" points="168.77,-29.34 173.2,-19.72 163.74,-24.48 168.77,-29.34"/>
</g>
</g>
</svg>
        <g id="navigator" transform="translate(0 0)" fill="#404254">
                <rect fill="#f2f5e9" fill-opacity="0.5" stroke="#606060" stroke-width=".5" x="0" y="0" width="60" height="60"/>
                <use id="zoomplus" xlink:href="#zoomPlus" x="17" y="9" onmousedown="handleZoom(evt,'in')"/>
                <use id="zoomminus" xlink:href="#zoomMin" x="42" y="9" onmousedown="handleZoom(evt,'out')"/>
                <use id="reset" xlink:href="#resetDef" x="30" y="36" onmousedown="handleReset()"/>
                <g id="arrowUp" xlink:href="#dirArrow" transform="translate(30 24)" onmousedown="handlePan(0,-1)">
                  <use xlink:href="#rim" fill="#404040">
                        <set attributeName="fill" to="#808080" begin="arrowUp.mouseover" end="arrowUp.mouseout"/>
                  </use>
                  <path fill="none" stroke="white" stroke-width="1.5" d="M0,-3.0v7 M-2.5,-0.5L0,-3.0L2.5,-0.5"/>
                </g>
                <g id="arrowRight" xlink:href="#dirArrow" transform="rotate(90) translate(36 -43)" onmousedown="handlePan(1,0)">
                  <use xlink:href="#rim" fill="#404040">
                        <set attributeName="fill" to="#808080" begin="arrowRight.mouseover" end="arrowRight.mouseout"/>
                  </use>
                  <path fill="none" stroke="white" stroke-width="1.5" d="M0,-3.0v7 M-2.5,-0.5L0,-3.0L2.5,-0.5"/>
                </g>
                <g id="arrowDown" xlink:href="#dirArrow" transform="rotate(180) translate(-30 -48)" onmousedown="handlePan(0,1)">
                  <use xlink:href="#rim" fill="#404040">
                        <set attributeName="fill" to="#808080" begin="arrowDown.mouseover" end="arrowDown.mouseout"/>
                  </use>
                  <path fill="none" stroke="white" stroke-width="1.5" d="M0,-3.0v7 M-2.5,-0.5L0,-3.0L2.5,-0.5"/>
                </g>
                <g id="arrowLeft" xlink:href="#dirArrow" transform="rotate(270) translate(-36 17)" onmousedown="handlePan(-1,0)">
                  <use xlink:href="#rim" fill="#404040">
                        <set attributeName="fill" to="#808080" begin="arrowLeft.mouseover" end="arrowLeft.mouseout"/>
                  </use>
                  <path fill="none" stroke="white" stroke-width="1.5" d="M0,-3.0v7 M-2.5,-0.5L0,-3.0L2.5,-0.5"/>
                </g>
        </g>
        <svg viewBox="0 0 15 15" width="100%" height="30px" preserveAspectRatio="xMaxYMin meet">
         <g id="arrow_out" transform="scale(0.3 0.3)">
          <a xlink:href="Mode0_8h__incl_org.svg" target="_base">
           <rect id="button" ry="5" rx="5" y="6" x="6" height="38" width="38"
                fill="#f2f5e9" fill-opacity="0.5" stroke="#606060" stroke-width="1.0"/>
           <path id="arrow"
             d="M 11.500037,31.436501 C 11.940474,20.09759 22.043105,11.32322 32.158766,21.979434 L 37.068811,17.246167 C 37.068811,17.246167 37.088388,32 37.088388,32 L 22.160133,31.978069 C 22.160133,31.978069 26.997745,27.140456 26.997745,27.140456 C 18.528582,18.264221 13.291696,25.230495 11.500037,31.436501 z"
             style="fill:#404040;"/>
          </a>
         </g>
        </svg>
</svg>
