<?xml version="1.0" encoding="UTF-8" standalone="no"?>
<!DOCTYPE svg PUBLIC "-//W3C//DTD SVG 1.1//EN"
 "http://www.w3.org/Graphics/SVG/1.1/DTD/svg11.dtd">
<!-- Generated by graphviz version 2.43.0 (0)
 -->
<!-- Title: src/Mode1.cpp Pages: 1 -->
<!--zoomable 420 -->
<svg id="main" version="1.1" xmlns="http://www.w3.org/2000/svg" xmlns:xlink="http://www.w3.org/1999/xlink" xml:space="preserve" onload="init(evt)">
<style type="text/css"><![CDATA[
.edge:hover path { stroke: red; }
.edge:hover polygon { stroke: red; fill: red; }
]]></style>
<script type="text/javascript"><![CDATA[
var edges = document.getElementsByTagName('g');
if (edges && edges.length) {
  for (var i=0;i<edges.length;i++) {
    if (edges[i].id.substr(0,4)=='edge') {
      edges[i].setAttribute('class','edge');
    }
  }
}
]]></script>
        <defs>
                <circle id="rim" cx="0" cy="0" r="7"/>
                <circle id="rim2" cx="0" cy="0" r="3.5"/>
                <g id="zoomPlus">
                        <use xlink:href="#rim" fill="#404040">
                                <set attributeName="fill" to="#808080" begin="zoomplus.mouseover" end="zoomplus.mouseout"/>
                        </use>
                        <path d="M-4,0h8M0,-4v8" fill="none" stroke="white" stroke-width="1.5" pointer-events="none"/>
                </g>
                <g id="zoomMin">
                        <use xlink:href="#rim" fill="#404040">
                                <set attributeName="fill" to="#808080" begin="zoomminus.mouseover" end="zoomminus.mouseout"/>
                        </use>
                        <path d="M-4,0h8" fill="none" stroke="white" stroke-width="1.5" pointer-events="none"/>
                </g>
                <g id="dirArrow">
                        <path fill="none" stroke="white" stroke-width="1.5" d="M0,-3.0v7 M-2.5,-0.5L0,-3.0L2.5,-0.5"/>
                </g>
               <g id="resetDef">
                       <use xlink:href="#rim2" fill="#404040">
                               <set attributeName="fill" to="#808080" begin="reset.mouseover" end="reset.mouseout"/>
                       </use>
               </g>
        </defs>

<script type="text/javascript">
var viewWidth = 814;
var viewHeight = 420;
var sectionId = 'dynsection-0';
</script>
<script xlink:href="svgpan.js"/>
<svg id="graph" class="graph">
<g id="viewport">
<title>src/Mode1.cpp</title>
<polygon fill="white" stroke="transparent" points="-4,4 -4,-416 809.5,-416 809.5,4 -4,4"/>
<!-- Node1 -->
<g id="node1" class="node">
<title>Node1</title>
<g id="a_node1"><a xlink:title=" ">
<polygon fill="#bfbfbf" stroke="black" points="13.5,-392.5 13.5,-411.5 100.5,-411.5 100.5,-392.5 13.5,-392.5"/>
<text text-anchor="middle" x="57" y="-399.5" font-family="Helvetica,sans-Serif" font-size="10.00">src/Mode1.cpp</text>
</a>
</g>
</g>
<!-- Node2 -->
<g id="node2" class="node">
<title>Node2</title>
<g id="a_node2"><a xlink:href="Mode1_8h.html" target="_top" xlink:title=" ">
<polygon fill="white" stroke="black" points="359.5,-336.5 359.5,-355.5 418.5,-355.5 418.5,-336.5 359.5,-336.5"/>
<text text-anchor="middle" x="389" y="-343.5" font-family="Helvetica,sans-Serif" font-size="10.00">Mode1.h</text>
</a>
</g>
</g>
<!-- Node1&#45;&gt;Node2 -->
<g id="edge1" class="edge">
<title>Node1&#45;&gt;Node2</title>
<path fill="none" stroke="midnightblue" d="M100.74,-393.88C165.66,-383.33 286.55,-363.66 349.14,-353.48"/>
<polygon fill="midnightblue" stroke="midnightblue" points="350.09,-356.88 359.4,-351.81 348.96,-349.97 350.09,-356.88"/>
</g>
<!-- Node7 -->
<g id="node7" class="node">
<title>Node7</title>
<g id="a_node7"><a xlink:title=" ">
<polygon fill="white" stroke="#bfbfbf" points="42.5,-112.5 42.5,-131.5 105.5,-131.5 105.5,-112.5 42.5,-112.5"/>
<text text-anchor="middle" x="74" y="-119.5" font-family="Helvetica,sans-Serif" font-size="10.00">Arduino.h</text>
</a>
</g>
</g>
<!-- Node1&#45;&gt;Node7 -->
<g id="edge39" class="edge">
<title>Node1&#45;&gt;Node7</title>
<path fill="none" stroke="midnightblue" d="M48.83,-392.38C33.07,-374.81 0,-332.94 0,-291 0,-291 0,-291 0,-233 0,-202.9 2.39,-193.1 19,-168 27.17,-155.66 39.75,-145.01 50.83,-137.17"/>
<polygon fill="midnightblue" stroke="midnightblue" points="52.91,-139.98 59.27,-131.5 49.01,-134.17 52.91,-139.98"/>
</g>
<!-- Node19 -->
<g id="node19" class="node">
<title>Node19</title>
<g id="a_node19"><a xlink:href="Debug_8h.html" target="_top" xlink:title=" ">
<polygon fill="white" stroke="black" points="28.5,-168.5 28.5,-187.5 85.5,-187.5 85.5,-168.5 28.5,-168.5"/>
<text text-anchor="middle" x="57" y="-175.5" font-family="Helvetica,sans-Serif" font-size="10.00">Debug.h</text>
</a>
</g>
</g>
<!-- Node1&#45;&gt;Node19 -->
<g id="edge38" class="edge">
<title>Node1&#45;&gt;Node19</title>
<path fill="none" stroke="midnightblue" d="M57,-392.3C57,-359.63 57,-243.87 57,-197.96"/>
<polygon fill="midnightblue" stroke="midnightblue" points="60.5,-197.88 57,-187.88 53.5,-197.88 60.5,-197.88"/>
</g>
<!-- Node3 -->
<g id="node3" class="node">
<title>Node3</title>
<g id="a_node3"><a xlink:href="Mode_8h.html" target="_top" xlink:title=" ">
<polygon fill="white" stroke="black" points="752.5,-280.5 752.5,-299.5 805.5,-299.5 805.5,-280.5 752.5,-280.5"/>
<text text-anchor="middle" x="779" y="-287.5" font-family="Helvetica,sans-Serif" font-size="10.00">Mode.h</text>
</a>
</g>
</g>
<!-- Node2&#45;&gt;Node3 -->
<g id="edge2" class="edge">
<title>Node2&#45;&gt;Node3</title>
<path fill="none" stroke="midnightblue" d="M418.55,-342.08C478.85,-335.91 620.33,-320.46 738,-300 739.29,-299.78 740.61,-299.54 741.93,-299.29"/>
<polygon fill="midnightblue" stroke="midnightblue" points="743.04,-302.64 752.16,-297.25 741.67,-295.77 743.04,-302.64"/>
</g>
<!-- Node4 -->
<g id="node4" class="node">
<title>Node4</title>
<g id="a_node4"><a xlink:href="Encoder_8h.html" target="_top" xlink:title=" ">
<polygon fill="white" stroke="black" points="714,-56.5 714,-75.5 778,-75.5 778,-56.5 714,-56.5"/>
<text text-anchor="middle" x="746" y="-63.5" font-family="Helvetica,sans-Serif" font-size="10.00">Encoder.h</text>
</a>
</g>
</g>
<!-- Node2&#45;&gt;Node4 -->
<g id="edge3" class="edge">
<title>Node2&#45;&gt;Node4</title>
<path fill="none" stroke="midnightblue" d="M418.84,-342.93C482.3,-338.09 628.36,-324.56 671,-300 703.3,-281.4 724,-272.28 724,-235 724,-235 724,-235 724,-177 724,-144.33 733.45,-107.24 739.96,-85.55"/>
<polygon fill="midnightblue" stroke="midnightblue" points="743.39,-86.31 743.03,-75.72 736.71,-84.22 743.39,-86.31"/>
</g>
<!-- Node6 -->
<g id="node6" class="node">
<title>Node6</title>
<g id="a_node6"><a xlink:href="Gates_8h.html" target="_top" xlink:title=" ">
<polygon fill="white" stroke="black" points="256,-168.5 256,-187.5 310,-187.5 310,-168.5 256,-168.5"/>
<text text-anchor="middle" x="283" y="-175.5" font-family="Helvetica,sans-Serif" font-size="10.00">Gates.h</text>
</a>
</g>
</g>
<!-- Node2&#45;&gt;Node6 -->
<g id="edge5" class="edge">
<title>Node2&#45;&gt;Node6</title>
<path fill="none" stroke="midnightblue" d="M376.03,-336.29C364.55,-328.05 347.96,-314.76 337,-300 312.75,-267.34 296.24,-222.07 288.34,-197.19"/>
<polygon fill="midnightblue" stroke="midnightblue" points="291.68,-196.13 285.41,-187.59 284.98,-198.18 291.68,-196.13"/>
</g>
<!-- Node9 -->
<g id="node9" class="node">
<title>Node9</title>
<g id="a_node9"><a xlink:href="Constants_8h.html" target="_top" xlink:title=" ">
<polygon fill="white" stroke="black" points="287,-56.5 287,-75.5 361,-75.5 361,-56.5 287,-56.5"/>
<text text-anchor="middle" x="324" y="-63.5" font-family="Helvetica,sans-Serif" font-size="10.00">Constants.h</text>
</a>
</g>
</g>
<!-- Node2&#45;&gt;Node9 -->
<g id="edge29" class="edge">
<title>Node2&#45;&gt;Node9</title>
<path fill="none" stroke="midnightblue" d="M372.27,-336.45C357.61,-328.4 336.31,-315.32 321,-300 278.83,-257.8 264.17,-245.14 247,-188 234.2,-145.4 276.77,-103.32 303.66,-81.79"/>
<polygon fill="midnightblue" stroke="midnightblue" points="305.97,-84.43 311.75,-75.55 301.69,-78.89 305.97,-84.43"/>
</g>
<!-- Node13 -->
<g id="node13" class="node">
<title>Node13</title>
<g id="a_node13"><a xlink:href="LEDController_8h.html" target="_top" xlink:title=" ">
<polygon fill="white" stroke="black" points="566,-224.5 566,-243.5 658,-243.5 658,-224.5 566,-224.5"/>
<text text-anchor="middle" x="612" y="-231.5" font-family="Helvetica,sans-Serif" font-size="10.00">LEDController.h</text>
</a>
</g>
</g>
<!-- Node2&#45;&gt;Node13 -->
<g id="edge16" class="edge">
<title>Node2&#45;&gt;Node13</title>
<path fill="none" stroke="midnightblue" d="M406.5,-336.37C445.42,-317.17 539.34,-270.84 585.5,-248.07"/>
<polygon fill="midnightblue" stroke="midnightblue" points="587.16,-251.15 594.58,-243.59 584.07,-244.88 587.16,-251.15"/>
</g>
<!-- Node14 -->
<g id="node14" class="node">
<title>Node14</title>
<g id="a_node14"><a xlink:href="MIDIHandler_8h.html" target="_top" xlink:title=" ">
<polygon fill="white" stroke="black" points="346,-280.5 346,-299.5 432,-299.5 432,-280.5 346,-280.5"/>
<text text-anchor="middle" x="389" y="-287.5" font-family="Helvetica,sans-Serif" font-size="10.00">MIDIHandler.h</text>
</a>
</g>
</g>
<!-- Node2&#45;&gt;Node14 -->
<g id="edge18" class="edge">
<title>Node2&#45;&gt;Node14</title>
<path fill="none" stroke="midnightblue" d="M389,-336.08C389,-329.01 389,-318.86 389,-309.99"/>
<polygon fill="midnightblue" stroke="midnightblue" points="392.5,-309.75 389,-299.75 385.5,-309.75 392.5,-309.75"/>
</g>
<!-- Node18 -->
<g id="node18" class="node">
<title>Node18</title>
<g id="a_node18"><a xlink:href="ResetButton_8h.html" target="_top" xlink:title=" ">
<polygon fill="white" stroke="black" points="109,-224.5 109,-243.5 195,-243.5 195,-224.5 109,-224.5"/>
<text text-anchor="middle" x="152" y="-231.5" font-family="Helvetica,sans-Serif" font-size="10.00">ResetButton.h</text>
</a>
</g>
</g>
<!-- Node2&#45;&gt;Node18 -->
<g id="edge30" class="edge">
<title>Node2&#45;&gt;Node18</title>
<path fill="none" stroke="midnightblue" d="M359.24,-342.39C322.81,-338.1 260.27,-327.13 214,-300 193.28,-287.85 175.05,-266.79 163.81,-251.94"/>
<polygon fill="midnightblue" stroke="midnightblue" points="166.48,-249.65 157.76,-243.63 160.82,-253.77 166.48,-249.65"/>
</g>
<!-- Node20 -->
<g id="node20" class="node">
<title>Node20</title>
<g id="a_node20"><a xlink:href="InputHandler_8h.html" target="_top" xlink:title=" ">
<polygon fill="white" stroke="black" points="574,-280.5 574,-299.5 662,-299.5 662,-280.5 574,-280.5"/>
<text text-anchor="middle" x="618" y="-287.5" font-family="Helvetica,sans-Serif" font-size="10.00">InputHandler.h</text>
</a>
</g>
</g>
<!-- Node2&#45;&gt;Node20 -->
<g id="edge36" class="edge">
<title>Node2&#45;&gt;Node20</title>
<path fill="none" stroke="midnightblue" d="M418.94,-337.94C457.82,-328.77 526.11,-312.67 571.7,-301.92"/>
<polygon fill="midnightblue" stroke="midnightblue" points="572.7,-305.28 581.63,-299.58 571.09,-298.46 572.7,-305.28"/>
</g>
<!-- Node5 -->
<g id="node5" class="node">
<title>Node5</title>
<g id="a_node5"><a xlink:href="Pin_8h.html" target="_top" xlink:title=" ">
<polygon fill="white" stroke="black" points="519.5,-0.5 519.5,-19.5 560.5,-19.5 560.5,-0.5 519.5,-0.5"/>
<text text-anchor="middle" x="540" y="-7.5" font-family="Helvetica,sans-Serif" font-size="10.00">Pin.h</text>
</a>
</g>
</g>
<!-- Node4&#45;&gt;Node5 -->
<g id="edge4" class="edge">
<title>Node4&#45;&gt;Node5</title>
<path fill="none" stroke="midnightblue" d="M713.81,-56.56C674.71,-46.31 609.23,-29.15 570.78,-19.07"/>
<polygon fill="midnightblue" stroke="midnightblue" points="571.26,-15.58 560.7,-16.42 569.48,-22.35 571.26,-15.58"/>
</g>
<!-- Node6&#45;&gt;Node7 -->
<g id="edge6" class="edge">
<title>Node6&#45;&gt;Node7</title>
<path fill="none" stroke="midnightblue" d="M255.68,-169.94C220,-160.72 157.21,-144.5 115.61,-133.75"/>
<polygon fill="midnightblue" stroke="midnightblue" points="116.33,-130.32 105.77,-131.21 114.58,-137.1 116.33,-130.32"/>
</g>
<!-- Node8 -->
<g id="node8" class="node">
<title>Node8</title>
<g id="a_node8"><a xlink:href="Gate_8h.html" target="_top" xlink:title=" ">
<polygon fill="white" stroke="black" points="366.5,-112.5 366.5,-131.5 415.5,-131.5 415.5,-112.5 366.5,-112.5"/>
<text text-anchor="middle" x="391" y="-119.5" font-family="Helvetica,sans-Serif" font-size="10.00">Gate.h</text>
</a>
</g>
</g>
<!-- Node6&#45;&gt;Node8 -->
<g id="edge7" class="edge">
<title>Node6&#45;&gt;Node8</title>
<path fill="none" stroke="midnightblue" d="M300.35,-168.32C317.67,-159.66 344.52,-146.24 364.5,-136.25"/>
<polygon fill="midnightblue" stroke="midnightblue" points="366.31,-139.26 373.69,-131.65 363.18,-133 366.31,-139.26"/>
</g>
<!-- Node10 -->
<g id="node10" class="node">
<title>Node10</title>
<g id="a_node10"><a xlink:title=" ">
<polygon fill="white" stroke="#bfbfbf" points="300.5,-0.5 300.5,-19.5 347.5,-19.5 347.5,-0.5 300.5,-0.5"/>
<text text-anchor="middle" x="324" y="-7.5" font-family="Helvetica,sans-Serif" font-size="10.00">vector</text>
</a>
</g>
</g>
<!-- Node6&#45;&gt;Node10 -->
<g id="edge15" class="edge">
<title>Node6&#45;&gt;Node10</title>
<path fill="none" stroke="midnightblue" d="M280.23,-168.35C274.17,-147.85 261.53,-95.15 278,-56 283.03,-44.05 292.94,-33.69 302.29,-25.93"/>
<polygon fill="midnightblue" stroke="midnightblue" points="304.44,-28.69 310.21,-19.81 300.16,-23.15 304.44,-28.69"/>
</g>
<!-- Node11 -->
<g id="node11" class="node">
<title>Node11</title>
<g id="a_node11"><a xlink:href="LEDs_8h.html" target="_top" xlink:title=" ">
<polygon fill="white" stroke="black" points="562,-112.5 562,-131.5 612,-131.5 612,-112.5 562,-112.5"/>
<text text-anchor="middle" x="587" y="-119.5" font-family="Helvetica,sans-Serif" font-size="10.00">LEDs.h</text>
</a>
</g>
</g>
<!-- Node6&#45;&gt;Node11 -->
<g id="edge11" class="edge">
<title>Node6&#45;&gt;Node11</title>
<path fill="none" stroke="midnightblue" d="M310.25,-172.16C365.49,-162.35 490.63,-140.12 551.89,-129.24"/>
<polygon fill="midnightblue" stroke="midnightblue" points="552.62,-132.66 561.86,-127.47 551.4,-125.77 552.62,-132.66"/>
</g>
<!-- Node8&#45;&gt;Node5 -->
<g id="edge8" class="edge">
<title>Node8&#45;&gt;Node5</title>
<path fill="none" stroke="midnightblue" d="M402.69,-112.37C428.15,-93.57 488.84,-48.77 520.31,-25.53"/>
<polygon fill="midnightblue" stroke="midnightblue" points="522.4,-28.35 528.36,-19.59 518.24,-22.72 522.4,-28.35"/>
</g>
<!-- Node8&#45;&gt;Node9 -->
<g id="edge9" class="edge">
<title>Node8&#45;&gt;Node9</title>
<path fill="none" stroke="midnightblue" d="M380.24,-112.32C370.23,-104.26 355.11,-92.08 343.07,-82.37"/>
<polygon fill="midnightblue" stroke="midnightblue" points="344.94,-79.38 334.96,-75.83 340.55,-84.83 344.94,-79.38"/>
</g>
<!-- Node9&#45;&gt;Node10 -->
<g id="edge10" class="edge">
<title>Node9&#45;&gt;Node10</title>
<path fill="none" stroke="midnightblue" d="M324,-56.08C324,-49.01 324,-38.86 324,-29.99"/>
<polygon fill="midnightblue" stroke="midnightblue" points="327.5,-29.75 324,-19.75 320.5,-29.75 327.5,-29.75"/>
</g>
<!-- Node11&#45;&gt;Node10 -->
<g id="edge14" class="edge">
<title>Node11&#45;&gt;Node10</title>
<path fill="none" stroke="midnightblue" d="M566.36,-112.37C520.08,-93.01 407.84,-46.06 353.9,-23.51"/>
<polygon fill="midnightblue" stroke="midnightblue" points="355.12,-20.22 344.54,-19.59 352.42,-26.68 355.12,-20.22"/>
</g>
<!-- Node12 -->
<g id="node12" class="node">
<title>Node12</title>
<g id="a_node12"><a xlink:href="LED_8h.html" target="_top" xlink:title=" ">
<polygon fill="white" stroke="black" points="562,-56.5 562,-75.5 606,-75.5 606,-56.5 562,-56.5"/>
<text text-anchor="middle" x="584" y="-63.5" font-family="Helvetica,sans-Serif" font-size="10.00">LED.h</text>
</a>
</g>
</g>
<!-- Node11&#45;&gt;Node12 -->
<g id="edge12" class="edge">
<title>Node11&#45;&gt;Node12</title>
<path fill="none" stroke="midnightblue" d="M586.5,-112.08C586.11,-105.01 585.55,-94.86 585.05,-85.99"/>
<polygon fill="midnightblue" stroke="midnightblue" points="588.54,-85.54 584.49,-75.75 581.55,-85.93 588.54,-85.54"/>
</g>
<!-- Node12&#45;&gt;Node5 -->
<g id="edge13" class="edge">
<title>Node12&#45;&gt;Node5</title>
<path fill="none" stroke="midnightblue" d="M576.73,-56.08C570.46,-48.38 561.21,-37.03 553.57,-27.65"/>
<polygon fill="midnightblue" stroke="midnightblue" points="556.16,-25.29 547.13,-19.75 550.73,-29.71 556.16,-25.29"/>
</g>
<!-- Node13&#45;&gt;Node11 -->
<g id="edge17" class="edge">
<title>Node13&#45;&gt;Node11</title>
<path fill="none" stroke="midnightblue" d="M616.39,-224.36C622.2,-211.68 630.97,-187.45 624,-168 620.06,-157 612.14,-146.77 604.64,-138.85"/>
<polygon fill="midnightblue" stroke="midnightblue" points="607.02,-136.28 597.44,-131.76 602.11,-141.27 607.02,-136.28"/>
</g>
<!-- Node14&#45;&gt;Node6 -->
<g id="edge27" class="edge">
<title>Node14&#45;&gt;Node6</title>
<path fill="none" stroke="midnightblue" d="M378.69,-280.4C368.33,-271.59 352.07,-257.36 339,-244 323.62,-228.28 307.35,-209.07 296.34,-195.63"/>
<polygon fill="midnightblue" stroke="midnightblue" points="298.94,-193.28 289.92,-187.72 293.5,-197.69 298.94,-193.28"/>
</g>
<!-- Node14&#45;&gt;Node11 -->
<g id="edge28" class="edge">
<title>Node14&#45;&gt;Node11</title>
<path fill="none" stroke="midnightblue" d="M428.79,-280.47C455.51,-273.5 490.7,-261.85 518,-244 546.43,-225.41 553.65,-217.77 570,-188 577.89,-173.62 582.25,-155.43 584.56,-141.95"/>
<polygon fill="midnightblue" stroke="midnightblue" points="588.05,-142.33 586.07,-131.92 581.12,-141.29 588.05,-142.33"/>
</g>
<!-- Node15 -->
<g id="node15" class="node">
<title>Node15</title>
<g id="a_node15"><a xlink:title=" ">
<polygon fill="white" stroke="#bfbfbf" points="348,-224.5 348,-243.5 396,-243.5 396,-224.5 348,-224.5"/>
<text text-anchor="middle" x="372" y="-231.5" font-family="Helvetica,sans-Serif" font-size="10.00">MIDI.h</text>
</a>
</g>
</g>
<!-- Node14&#45;&gt;Node15 -->
<g id="edge19" class="edge">
<title>Node14&#45;&gt;Node15</title>
<path fill="none" stroke="midnightblue" d="M386.19,-280.08C383.92,-272.85 380.63,-262.41 377.79,-253.4"/>
<polygon fill="midnightblue" stroke="midnightblue" points="381.1,-252.24 374.75,-243.75 374.42,-254.34 381.1,-252.24"/>
</g>
<!-- Node16 -->
<g id="node16" class="node">
<title>Node16</title>
<g id="a_node16"><a xlink:href="EurorackClock_8h.html" target="_top" xlink:title=" ">
<polygon fill="white" stroke="black" points="414.5,-224.5 414.5,-243.5 509.5,-243.5 509.5,-224.5 414.5,-224.5"/>
<text text-anchor="middle" x="462" y="-231.5" font-family="Helvetica,sans-Serif" font-size="10.00">EurorackClock.h</text>
</a>
</g>
</g>
<!-- Node14&#45;&gt;Node16 -->
<g id="edge20" class="edge">
<title>Node14&#45;&gt;Node16</title>
<path fill="none" stroke="midnightblue" d="M400.73,-280.32C411.84,-272.11 428.74,-259.6 441.98,-249.81"/>
<polygon fill="midnightblue" stroke="midnightblue" points="444.1,-252.59 450.06,-243.83 439.94,-246.97 444.1,-252.59"/>
</g>
<!-- Node16&#45;&gt;Node5 -->
<g id="edge23" class="edge">
<title>Node16&#45;&gt;Node5</title>
<path fill="none" stroke="midnightblue" d="M465.06,-224.3C476.58,-191.49 517.55,-74.88 533.54,-29.38"/>
<polygon fill="midnightblue" stroke="midnightblue" points="536.87,-30.48 536.88,-19.88 530.26,-28.16 536.87,-30.48"/>
</g>
<!-- Node16&#45;&gt;Node6 -->
<g id="edge24" class="edge">
<title>Node16&#45;&gt;Node6</title>
<path fill="none" stroke="midnightblue" d="M433.64,-224.44C402.9,-215.17 353.75,-200.34 320,-190.16"/>
<polygon fill="midnightblue" stroke="midnightblue" points="320.64,-186.7 310.06,-187.16 318.62,-193.4 320.64,-186.7"/>
</g>
<!-- Node16&#45;&gt;Node9 -->
<g id="edge26" class="edge">
<title>Node16&#45;&gt;Node9</title>
<path fill="none" stroke="midnightblue" d="M420.7,-224.48C398.89,-217.96 373.34,-206.78 357,-188 331.6,-158.81 325.56,-111.84 324.24,-85.84"/>
<polygon fill="midnightblue" stroke="midnightblue" points="327.74,-85.68 323.92,-75.8 320.75,-85.91 327.74,-85.68"/>
</g>
<!-- Node16&#45;&gt;Node11 -->
<g id="edge25" class="edge">
<title>Node16&#45;&gt;Node11</title>
<path fill="none" stroke="midnightblue" d="M486.46,-224.41C505,-216.98 530.23,-204.77 548,-188 562.17,-174.63 573,-154.98 579.61,-140.79"/>
<polygon fill="midnightblue" stroke="midnightblue" points="582.83,-142.15 583.66,-131.59 576.43,-139.33 582.83,-142.15"/>
</g>
<!-- Node16&#45;&gt;Node12 -->
<g id="edge22" class="edge">
<title>Node16&#45;&gt;Node12</title>
<path fill="none" stroke="midnightblue" d="M473.21,-224.18C483.57,-215.65 498.99,-202.01 510,-188 533.99,-157.49 532.42,-144.9 553,-112 558.91,-102.55 565.93,-92.29 571.79,-83.96"/>
<polygon fill="midnightblue" stroke="midnightblue" points="574.64,-85.99 577.59,-75.81 568.94,-81.93 574.64,-85.99"/>
</g>
<!-- Node17 -->
<g id="node17" class="node">
<title>Node17</title>
<g id="a_node17"><a xlink:title=" ">
<polygon fill="white" stroke="#bfbfbf" points="366.5,-168.5 366.5,-187.5 467.5,-187.5 467.5,-168.5 366.5,-168.5"/>
<text text-anchor="middle" x="417" y="-175.5" font-family="Helvetica,sans-Serif" font-size="10.00">HardwareTimer.h</text>
</a>
</g>
</g>
<!-- Node16&#45;&gt;Node17 -->
<g id="edge21" class="edge">
<title>Node16&#45;&gt;Node17</title>
<path fill="none" stroke="midnightblue" d="M454.57,-224.08C448.15,-216.38 438.69,-205.03 430.88,-195.65"/>
<polygon fill="midnightblue" stroke="midnightblue" points="433.38,-193.19 424.29,-187.75 428.01,-197.67 433.38,-193.19"/>
</g>
<!-- Node18&#45;&gt;Node5 -->
<g id="edge31" class="edge">
<title>Node18&#45;&gt;Node5</title>
<path fill="none" stroke="midnightblue" d="M154.82,-224.16C159.15,-211.24 168.2,-186.71 180,-168 215.29,-112.06 220.31,-88.35 278,-56 317.3,-33.96 449.09,-19.36 509.4,-13.67"/>
<polygon fill="midnightblue" stroke="midnightblue" points="509.82,-17.15 519.46,-12.75 509.18,-10.18 509.82,-17.15"/>
</g>
<!-- Node18&#45;&gt;Node7 -->
<g id="edge32" class="edge">
<title>Node18&#45;&gt;Node7</title>
<path fill="none" stroke="midnightblue" d="M145.88,-224.37C133.01,-206.22 102.93,-163.8 86.05,-139.99"/>
<polygon fill="midnightblue" stroke="midnightblue" points="88.73,-137.72 80.09,-131.59 83.02,-141.77 88.73,-137.72"/>
</g>
<!-- Node18&#45;&gt;Node9 -->
<g id="edge35" class="edge">
<title>Node18&#45;&gt;Node9</title>
<path fill="none" stroke="midnightblue" d="M157.73,-224.28C171.89,-203.18 210.39,-148.45 252,-112 266.01,-99.73 283.72,-88.61 298.08,-80.5"/>
<polygon fill="midnightblue" stroke="midnightblue" points="299.88,-83.5 306.95,-75.62 296.5,-77.37 299.88,-83.5"/>
</g>
<!-- Node18&#45;&gt;Node19 -->
<g id="edge33" class="edge">
<title>Node18&#45;&gt;Node19</title>
<path fill="none" stroke="midnightblue" d="M136.74,-224.32C121.78,-215.82 98.75,-202.73 81.27,-192.8"/>
<polygon fill="midnightblue" stroke="midnightblue" points="82.65,-189.55 72.23,-187.65 79.19,-195.64 82.65,-189.55"/>
</g>
<!-- Node19&#45;&gt;Node7 -->
<g id="edge34" class="edge">
<title>Node19&#45;&gt;Node7</title>
<path fill="none" stroke="midnightblue" d="M59.81,-168.08C62.08,-160.85 65.37,-150.41 68.21,-141.4"/>
<polygon fill="midnightblue" stroke="midnightblue" points="71.58,-142.34 71.25,-131.75 64.9,-140.24 71.58,-142.34"/>
</g>
<!-- Node20&#45;&gt;Node5 -->
<g id="edge37" class="edge">
<title>Node20&#45;&gt;Node5</title>
<path fill="none" stroke="midnightblue" d="M630.67,-280.46C641.79,-272.32 657.61,-259.11 667,-244 682.89,-218.44 686,-209.1 686,-179 686,-179 686,-179 686,-121 686,-63.56 613.02,-32.36 570.26,-19"/>
<polygon fill="midnightblue" stroke="midnightblue" points="571.19,-15.63 560.61,-16.13 569.19,-22.34 571.19,-15.63"/>
</g>
</g>
</svg>
        <g id="navigator" transform="translate(0 0)" fill="#404254">
                <rect fill="#f2f5e9" fill-opacity="0.5" stroke="#606060" stroke-width=".5" x="0" y="0" width="60" height="60"/>
                <use id="zoomplus" xlink:href="#zoomPlus" x="17" y="9" onmousedown="handleZoom(evt,'in')"/>
                <use id="zoomminus" xlink:href="#zoomMin" x="42" y="9" onmousedown="handleZoom(evt,'out')"/>
                <use id="reset" xlink:href="#resetDef" x="30" y="36" onmousedown="handleReset()"/>
                <g id="arrowUp" xlink:href="#dirArrow" transform="translate(30 24)" onmousedown="handlePan(0,-1)">
                  <use xlink:href="#rim" fill="#404040">
                        <set attributeName="fill" to="#808080" begin="arrowUp.mouseover" end="arrowUp.mouseout"/>
                  </use>
                  <path fill="none" stroke="white" stroke-width="1.5" d="M0,-3.0v7 M-2.5,-0.5L0,-3.0L2.5,-0.5"/>
                </g>
                <g id="arrowRight" xlink:href="#dirArrow" transform="rotate(90) translate(36 -43)" onmousedown="handlePan(1,0)">
                  <use xlink:href="#rim" fill="#404040">
                        <set attributeName="fill" to="#808080" begin="arrowRight.mouseover" end="arrowRight.mouseout"/>
                  </use>
                  <path fill="none" stroke="white" stroke-width="1.5" d="M0,-3.0v7 M-2.5,-0.5L0,-3.0L2.5,-0.5"/>
                </g>
                <g id="arrowDown" xlink:href="#dirArrow" transform="rotate(180) translate(-30 -48)" onmousedown="handlePan(0,1)">
                  <use xlink:href="#rim" fill="#404040">
                        <set attributeName="fill" to="#808080" begin="arrowDown.mouseover" end="arrowDown.mouseout"/>
                  </use>
                  <path fill="none" stroke="white" stroke-width="1.5" d="M0,-3.0v7 M-2.5,-0.5L0,-3.0L2.5,-0.5"/>
                </g>
                <g id="arrowLeft" xlink:href="#dirArrow" transform="rotate(270) translate(-36 17)" onmousedown="handlePan(-1,0)">
                  <use xlink:href="#rim" fill="#404040">
                        <set attributeName="fill" to="#808080" begin="arrowLeft.mouseover" end="arrowLeft.mouseout"/>
                  </use>
                  <path fill="none" stroke="white" stroke-width="1.5" d="M0,-3.0v7 M-2.5,-0.5L0,-3.0L2.5,-0.5"/>
                </g>
        </g>
        <svg viewBox="0 0 15 15" width="100%" height="30px" preserveAspectRatio="xMaxYMin meet">
         <g id="arrow_out" transform="scale(0.3 0.3)">
          <a xlink:href="Mode1_8cpp__incl_org.svg" target="_base">
           <rect id="button" ry="5" rx="5" y="6" x="6" height="38" width="38"
                fill="#f2f5e9" fill-opacity="0.5" stroke="#606060" stroke-width="1.0"/>
           <path id="arrow"
             d="M 11.500037,31.436501 C 11.940474,20.09759 22.043105,11.32322 32.158766,21.979434 L 37.068811,17.246167 C 37.068811,17.246167 37.088388,32 37.088388,32 L 22.160133,31.978069 C 22.160133,31.978069 26.997745,27.140456 26.997745,27.140456 C 18.528582,18.264221 13.291696,25.230495 11.500037,31.436501 z"
             style="fill:#404040;"/>
          </a>
         </g>
        </svg>
</svg>
