<?xml version="1.0" encoding="UTF-8" standalone="no"?>
<!DOCTYPE svg PUBLIC "-//W3C//DTD SVG 1.1//EN"
 "http://www.w3.org/Graphics/SVG/1.1/DTD/svg11.dtd">
<!-- Generated by graphviz version 2.43.0 (0)
 -->
<!-- Title: include/ModeSelector.h Pages: 1 -->
<svg width="500pt" height="84pt"
 viewBox="0.00 0.00 500.00 84.00" xmlns="http://www.w3.org/2000/svg" xmlns:xlink="http://www.w3.org/1999/xlink">
<g id="graph0" class="graph" transform="scale(1 1) rotate(0) translate(4 80)">
<title>include/ModeSelector.h</title>
<polygon fill="white" stroke="transparent" points="-4,4 -4,-80 496,-80 496,4 -4,4"/>
<!-- Node1 -->
<g id="node1" class="node">
<title>Node1</title>
<g id="a_node1"><a xlink:title=" ">
<polygon fill="#bfbfbf" stroke="black" points="174,-56.5 174,-75.5 304,-75.5 304,-56.5 174,-56.5"/>
<text text-anchor="middle" x="239" y="-63.5" font-family="Helvetica,sans-Serif" font-size="10.00">include/ModeSelector.h</text>
</a>
</g>
</g>
<!-- Node2 -->
<g id="node2" class="node">
<title>Node2</title>
<g id="a_node2"><a xlink:href="EurorackClock_8cpp.xhtml" target="_top" xlink:title=" ">
<polygon fill="white" stroke="black" points="0,-0.5 0,-19.5 124,-19.5 124,-0.5 0,-0.5"/>
<text text-anchor="middle" x="62" y="-7.5" font-family="Helvetica,sans-Serif" font-size="10.00">src/EurorackClock.cpp</text>
</a>
</g>
</g>
<!-- Node1&#45;&gt;Node2 -->
<g id="edge1" class="edge">
<title>Node1&#45;&gt;Node2</title>
<path fill="none" stroke="midnightblue" d="M201.1,-53.44C167.72,-43.26 119.9,-28.66 89.91,-19.52"/>
<polygon fill="midnightblue" stroke="midnightblue" points="200.37,-56.87 210.95,-56.44 202.41,-50.18 200.37,-56.87"/>
</g>
<!-- Node3 -->
<g id="node3" class="node">
<title>Node3</title>
<g id="a_node3"><a xlink:href="main_8cpp.xhtml" target="_top" xlink:title=" ">
<polygon fill="white" stroke="black" points="142.5,-0.5 142.5,-19.5 221.5,-19.5 221.5,-0.5 142.5,-0.5"/>
<text text-anchor="middle" x="182" y="-7.5" font-family="Helvetica,sans-Serif" font-size="10.00">src/main.cpp</text>
</a>
</g>
</g>
<!-- Node1&#45;&gt;Node3 -->
<g id="edge2" class="edge">
<title>Node1&#45;&gt;Node3</title>
<path fill="none" stroke="midnightblue" d="M222.38,-49.25C212.27,-39.67 199.72,-27.79 191.32,-19.83"/>
<polygon fill="midnightblue" stroke="midnightblue" points="220.18,-51.99 229.84,-56.32 224.99,-46.91 220.18,-51.99"/>
</g>
<!-- Node4 -->
<g id="node4" class="node">
<title>Node4</title>
<g id="a_node4"><a xlink:href="MIDIHandler_8cpp.xhtml" target="_top" xlink:title=" ">
<polygon fill="white" stroke="black" points="240,-0.5 240,-19.5 354,-19.5 354,-0.5 240,-0.5"/>
<text text-anchor="middle" x="297" y="-7.5" font-family="Helvetica,sans-Serif" font-size="10.00">src/MIDIHandler.cpp</text>
</a>
</g>
</g>
<!-- Node1&#45;&gt;Node4 -->
<g id="edge3" class="edge">
<title>Node1&#45;&gt;Node4</title>
<path fill="none" stroke="midnightblue" d="M255.91,-49.25C266.2,-39.67 278.97,-27.79 287.51,-19.83"/>
<polygon fill="midnightblue" stroke="midnightblue" points="253.25,-46.95 248.32,-56.32 258.02,-52.07 253.25,-46.95"/>
</g>
<!-- Node5 -->
<g id="node5" class="node">
<title>Node5</title>
<g id="a_node5"><a xlink:href="ModeSelector_8cpp.xhtml" target="_top" xlink:title=" ">
<polygon fill="white" stroke="black" points="372,-0.5 372,-19.5 492,-19.5 492,-0.5 372,-0.5"/>
<text text-anchor="middle" x="432" y="-7.5" font-family="Helvetica,sans-Serif" font-size="10.00">src/ModeSelector.cpp</text>
</a>
</g>
</g>
<!-- Node1&#45;&gt;Node5 -->
<g id="edge4" class="edge">
<title>Node1&#45;&gt;Node5</title>
<path fill="none" stroke="midnightblue" d="M279.39,-53.7C315.82,-43.51 368.59,-28.74 401.56,-19.52"/>
<polygon fill="midnightblue" stroke="midnightblue" points="278.27,-50.38 269.58,-56.44 280.15,-57.12 278.27,-50.38"/>
</g>
</g>
</svg>
