<?xml version="1.0" encoding="UTF-8" standalone="no"?>
<!DOCTYPE svg PUBLIC "-//W3C//DTD SVG 1.1//EN"
 "http://www.w3.org/Graphics/SVG/1.1/DTD/svg11.dtd">
<!-- Generated by graphviz version 2.43.0 (0)
 -->
<!-- Title: include/Mode2.h Pages: 1 -->
<!--zoomable 364 -->
<svg id="main" version="1.1" xmlns="http://www.w3.org/2000/svg" xmlns:xlink="http://www.w3.org/1999/xlink" xml:space="preserve" onload="init(evt)">
<style type="text/css"><![CDATA[
.edge:hover path { stroke: red; }
.edge:hover polygon { stroke: red; fill: red; }
]]></style>
<script type="text/javascript"><![CDATA[
var edges = document.getElementsByTagName('g');
if (edges && edges.length) {
  for (var i=0;i<edges.length;i++) {
    if (edges[i].id.substr(0,4)=='edge') {
      edges[i].setAttribute('class','edge');
    }
  }
}
]]></script>
        <defs>
                <circle id="rim" cx="0" cy="0" r="7"/>
                <circle id="rim2" cx="0" cy="0" r="3.5"/>
                <g id="zoomPlus">
                        <use xlink:href="#rim" fill="#404040">
                                <set attributeName="fill" to="#808080" begin="zoomplus.mouseover" end="zoomplus.mouseout"/>
                        </use>
                        <path d="M-4,0h8M0,-4v8" fill="none" stroke="white" stroke-width="1.5" pointer-events="none"/>
                </g>
                <g id="zoomMin">
                        <use xlink:href="#rim" fill="#404040">
                                <set attributeName="fill" to="#808080" begin="zoomminus.mouseover" end="zoomminus.mouseout"/>
                        </use>
                        <path d="M-4,0h8" fill="none" stroke="white" stroke-width="1.5" pointer-events="none"/>
                </g>
                <g id="dirArrow">
                        <path fill="none" stroke="white" stroke-width="1.5" d="M0,-3.0v7 M-2.5,-0.5L0,-3.0L2.5,-0.5"/>
                </g>
               <g id="resetDef">
                       <use xlink:href="#rim2" fill="#404040">
                               <set attributeName="fill" to="#808080" begin="reset.mouseover" end="reset.mouseout"/>
                       </use>
               </g>
        </defs>

<script type="text/javascript">
var viewWidth = 836;
var viewHeight = 364;
var sectionId = 'dynsection-0';
</script>
<script xlink:href="svgpan.js"/>
<svg id="graph" class="graph">
<g id="viewport">
<title>include/Mode2.h</title>
<polygon fill="white" stroke="transparent" points="-4,4 -4,-360 831.5,-360 831.5,4 -4,4"/>
<!-- Node1 -->
<g id="node1" class="node">
<title>Node1</title>
<g id="a_node1"><a xlink:title=" ">
<polygon fill="#bfbfbf" stroke="black" points="316,-336.5 316,-355.5 413,-355.5 413,-336.5 316,-336.5"/>
<text text-anchor="middle" x="364.5" y="-343.5" font-family="Helvetica,sans-Serif" font-size="10.00">include/Mode2.h</text>
</a>
</g>
</g>
<!-- Node2 -->
<g id="node2" class="node">
<title>Node2</title>
<g id="a_node2"><a xlink:href="Mode_8h.xhtml" target="_top" xlink:title=" ">
<polygon fill="white" stroke="black" points="0,-280.5 0,-299.5 53,-299.5 53,-280.5 0,-280.5"/>
<text text-anchor="middle" x="26.5" y="-287.5" font-family="Helvetica,sans-Serif" font-size="10.00">Mode.h</text>
</a>
</g>
</g>
<!-- Node1&#45;&gt;Node2 -->
<g id="edge1" class="edge">
<title>Node1&#45;&gt;Node2</title>
<path fill="none" stroke="midnightblue" d="M315.87,-339.23C258.02,-332.04 158.38,-318.62 63.25,-299.97"/>
<polygon fill="midnightblue" stroke="midnightblue" points="63.66,-296.49 53.17,-297.97 62.3,-303.35 63.66,-296.49"/>
</g>
<!-- Node3 -->
<g id="node3" class="node">
<title>Node3</title>
<g id="a_node3"><a xlink:href="LEDController_8h.xhtml" target="_top" xlink:title=" ">
<polygon fill="white" stroke="black" points="206.5,-224.5 206.5,-243.5 298.5,-243.5 298.5,-224.5 206.5,-224.5"/>
<text text-anchor="middle" x="252.5" y="-231.5" font-family="Helvetica,sans-Serif" font-size="10.00">LEDController.h</text>
</a>
</g>
</g>
<!-- Node1&#45;&gt;Node3 -->
<g id="edge2" class="edge">
<title>Node1&#45;&gt;Node3</title>
<path fill="none" stroke="midnightblue" d="M355.71,-336.37C336.9,-317.89 292.51,-274.29 268.53,-250.74"/>
<polygon fill="midnightblue" stroke="midnightblue" points="270.83,-248.1 261.25,-243.59 265.93,-253.1 270.83,-248.1"/>
</g>
<!-- Node8 -->
<g id="node8" class="node">
<title>Node8</title>
<g id="a_node8"><a xlink:href="Encoder_8h.xhtml" target="_top" xlink:title=" ">
<polygon fill="white" stroke="black" points="173.5,-56.5 173.5,-75.5 237.5,-75.5 237.5,-56.5 173.5,-56.5"/>
<text text-anchor="middle" x="205.5" y="-63.5" font-family="Helvetica,sans-Serif" font-size="10.00">Encoder.h</text>
</a>
</g>
</g>
<!-- Node1&#45;&gt;Node8 -->
<g id="edge7" class="edge">
<title>Node1&#45;&gt;Node8</title>
<path fill="none" stroke="midnightblue" d="M333.33,-336.47C293.58,-323.72 226.54,-295.5 197.5,-244 168.6,-192.74 187.36,-119.26 198.69,-85.38"/>
<polygon fill="midnightblue" stroke="midnightblue" points="202.02,-86.45 202.03,-75.85 195.42,-84.13 202.02,-86.45"/>
</g>
<!-- Node9 -->
<g id="node9" class="node">
<title>Node9</title>
<g id="a_node9"><a xlink:href="Gates_8h.xhtml" target="_top" xlink:title=" ">
<polygon fill="white" stroke="black" points="555.5,-168.5 555.5,-187.5 609.5,-187.5 609.5,-168.5 555.5,-168.5"/>
<text text-anchor="middle" x="582.5" y="-175.5" font-family="Helvetica,sans-Serif" font-size="10.00">Gates.h</text>
</a>
</g>
</g>
<!-- Node1&#45;&gt;Node9 -->
<g id="edge9" class="edge">
<title>Node1&#45;&gt;Node9</title>
<path fill="none" stroke="midnightblue" d="M399.84,-336.44C444.51,-323.8 520.7,-295.83 563.5,-244 574.37,-230.84 579.02,-211.7 581.01,-197.6"/>
<polygon fill="midnightblue" stroke="midnightblue" points="584.5,-197.9 582.11,-187.57 577.54,-197.14 584.5,-197.9"/>
</g>
<!-- Node12 -->
<g id="node12" class="node">
<title>Node12</title>
<g id="a_node12"><a xlink:href="Constants_8h.xhtml" target="_top" xlink:title=" ">
<polygon fill="white" stroke="black" points="559.5,-56.5 559.5,-75.5 633.5,-75.5 633.5,-56.5 559.5,-56.5"/>
<text text-anchor="middle" x="596.5" y="-63.5" font-family="Helvetica,sans-Serif" font-size="10.00">Constants.h</text>
</a>
</g>
</g>
<!-- Node1&#45;&gt;Node12 -->
<g id="edge28" class="edge">
<title>Node1&#45;&gt;Node12</title>
<path fill="none" stroke="midnightblue" d="M413.17,-343.69C532.05,-339.18 827.5,-319.48 827.5,-235 827.5,-235 827.5,-235 827.5,-177 827.5,-96.3 711.16,-74.74 643.61,-69.03"/>
<polygon fill="midnightblue" stroke="midnightblue" points="643.85,-65.53 633.61,-68.26 643.32,-72.51 643.85,-65.53"/>
</g>
<!-- Node13 -->
<g id="node13" class="node">
<title>Node13</title>
<g id="a_node13"><a xlink:href="MIDIHandler_8h.xhtml" target="_top" xlink:title=" ">
<polygon fill="white" stroke="black" points="359.5,-280.5 359.5,-299.5 445.5,-299.5 445.5,-280.5 359.5,-280.5"/>
<text text-anchor="middle" x="402.5" y="-287.5" font-family="Helvetica,sans-Serif" font-size="10.00">MIDIHandler.h</text>
</a>
</g>
</g>
<!-- Node1&#45;&gt;Node13 -->
<g id="edge17" class="edge">
<title>Node1&#45;&gt;Node13</title>
<path fill="none" stroke="midnightblue" d="M370.77,-336.08C376.14,-328.46 384.02,-317.26 390.58,-307.94"/>
<polygon fill="midnightblue" stroke="midnightblue" points="393.45,-309.94 396.34,-299.75 387.72,-305.91 393.45,-309.94"/>
</g>
<!-- Node17 -->
<g id="node17" class="node">
<title>Node17</title>
<g id="a_node17"><a xlink:href="InputHandler_8h.xhtml" target="_top" xlink:title=" ">
<polygon fill="white" stroke="black" points="71.5,-280.5 71.5,-299.5 159.5,-299.5 159.5,-280.5 71.5,-280.5"/>
<text text-anchor="middle" x="115.5" y="-287.5" font-family="Helvetica,sans-Serif" font-size="10.00">InputHandler.h</text>
</a>
</g>
</g>
<!-- Node1&#45;&gt;Node17 -->
<g id="edge29" class="edge">
<title>Node1&#45;&gt;Node17</title>
<path fill="none" stroke="midnightblue" d="M325.05,-336.44C281.61,-327.02 211.71,-311.87 164.72,-301.68"/>
<polygon fill="midnightblue" stroke="midnightblue" points="165.28,-298.22 154.77,-299.52 163.8,-305.06 165.28,-298.22"/>
</g>
<!-- Node18 -->
<g id="node18" class="node">
<title>Node18</title>
<g id="a_node18"><a xlink:href="ResetButton_8h.xhtml" target="_top" xlink:title=" ">
<polygon fill="white" stroke="black" points="632.5,-224.5 632.5,-243.5 718.5,-243.5 718.5,-224.5 632.5,-224.5"/>
<text text-anchor="middle" x="675.5" y="-231.5" font-family="Helvetica,sans-Serif" font-size="10.00">ResetButton.h</text>
</a>
</g>
</g>
<!-- Node1&#45;&gt;Node18 -->
<g id="edge31" class="edge">
<title>Node1&#45;&gt;Node18</title>
<path fill="none" stroke="midnightblue" d="M413.31,-342.52C461.8,-338.48 537.29,-327.88 596.5,-300 621.72,-288.13 645.71,-266.38 660.5,-251.33"/>
<polygon fill="midnightblue" stroke="midnightblue" points="663.34,-253.42 667.71,-243.77 658.28,-248.59 663.34,-253.42"/>
</g>
<!-- Node4 -->
<g id="node4" class="node">
<title>Node4</title>
<g id="a_node4"><a xlink:href="LEDs_8h.xhtml" target="_top" xlink:title=" ">
<polygon fill="white" stroke="black" points="287.5,-112.5 287.5,-131.5 337.5,-131.5 337.5,-112.5 287.5,-112.5"/>
<text text-anchor="middle" x="312.5" y="-119.5" font-family="Helvetica,sans-Serif" font-size="10.00">LEDs.h</text>
</a>
</g>
</g>
<!-- Node3&#45;&gt;Node4 -->
<g id="edge3" class="edge">
<title>Node3&#45;&gt;Node4</title>
<path fill="none" stroke="midnightblue" d="M255.37,-224.28C259.74,-211.51 268.7,-187.16 279.5,-168 285.09,-158.08 292.5,-147.79 298.88,-139.55"/>
<polygon fill="midnightblue" stroke="midnightblue" points="301.77,-141.54 305.27,-131.54 296.3,-137.18 301.77,-141.54"/>
</g>
<!-- Node5 -->
<g id="node5" class="node">
<title>Node5</title>
<g id="a_node5"><a xlink:href="LED_8h.xhtml" target="_top" xlink:title=" ">
<polygon fill="white" stroke="black" points="259.5,-56.5 259.5,-75.5 303.5,-75.5 303.5,-56.5 259.5,-56.5"/>
<text text-anchor="middle" x="281.5" y="-63.5" font-family="Helvetica,sans-Serif" font-size="10.00">LED.h</text>
</a>
</g>
</g>
<!-- Node4&#45;&gt;Node5 -->
<g id="edge4" class="edge">
<title>Node4&#45;&gt;Node5</title>
<path fill="none" stroke="midnightblue" d="M307.38,-112.08C303.09,-104.61 296.84,-93.72 291.56,-84.52"/>
<polygon fill="midnightblue" stroke="midnightblue" points="294.54,-82.68 286.52,-75.75 288.47,-86.17 294.54,-82.68"/>
</g>
<!-- Node7 -->
<g id="node7" class="node">
<title>Node7</title>
<g id="a_node7"><a xlink:title=" ">
<polygon fill="white" stroke="#bfbfbf" points="508,-0.5 508,-19.5 555,-19.5 555,-0.5 508,-0.5"/>
<text text-anchor="middle" x="531.5" y="-7.5" font-family="Helvetica,sans-Serif" font-size="10.00">vector</text>
</a>
</g>
</g>
<!-- Node4&#45;&gt;Node7 -->
<g id="edge6" class="edge">
<title>Node4&#45;&gt;Node7</title>
<path fill="none" stroke="midnightblue" d="M329.68,-112.37C367.82,-93.21 459.76,-47.04 505.19,-24.22"/>
<polygon fill="midnightblue" stroke="midnightblue" points="507.03,-27.21 514.4,-19.59 503.89,-20.95 507.03,-27.21"/>
</g>
<!-- Node6 -->
<g id="node6" class="node">
<title>Node6</title>
<g id="a_node6"><a xlink:href="Pin_8h.xhtml" target="_top" xlink:title=" ">
<polygon fill="white" stroke="black" points="305,-0.5 305,-19.5 346,-19.5 346,-0.5 305,-0.5"/>
<text text-anchor="middle" x="325.5" y="-7.5" font-family="Helvetica,sans-Serif" font-size="10.00">Pin.h</text>
</a>
</g>
</g>
<!-- Node5&#45;&gt;Node6 -->
<g id="edge5" class="edge">
<title>Node5&#45;&gt;Node6</title>
<path fill="none" stroke="midnightblue" d="M288.77,-56.08C295.04,-48.38 304.29,-37.03 311.93,-27.65"/>
<polygon fill="midnightblue" stroke="midnightblue" points="314.77,-29.71 318.37,-19.75 309.34,-25.29 314.77,-29.71"/>
</g>
<!-- Node8&#45;&gt;Node6 -->
<g id="edge8" class="edge">
<title>Node8&#45;&gt;Node6</title>
<path fill="none" stroke="midnightblue" d="M224.51,-56.44C244.09,-47.64 274.81,-33.81 297.23,-23.72"/>
<polygon fill="midnightblue" stroke="midnightblue" points="298.89,-26.81 306.57,-19.52 296.02,-20.43 298.89,-26.81"/>
</g>
<!-- Node9&#45;&gt;Node4 -->
<g id="edge15" class="edge">
<title>Node9&#45;&gt;Node4</title>
<path fill="none" stroke="midnightblue" d="M555.38,-171.58C506.13,-161.73 402.07,-140.91 347.53,-130.01"/>
<polygon fill="midnightblue" stroke="midnightblue" points="348.12,-126.56 337.63,-128.03 346.75,-133.42 348.12,-126.56"/>
</g>
<!-- Node9&#45;&gt;Node7 -->
<g id="edge16" class="edge">
<title>Node9&#45;&gt;Node7</title>
<path fill="none" stroke="midnightblue" d="M574.82,-168.38C567.6,-159.78 557.11,-145.9 551.5,-132 537.61,-97.57 533.36,-53.9 532.07,-29.56"/>
<polygon fill="midnightblue" stroke="midnightblue" points="535.56,-29.4 531.65,-19.56 528.57,-29.69 535.56,-29.4"/>
</g>
<!-- Node10 -->
<g id="node10" class="node">
<title>Node10</title>
<g id="a_node10"><a xlink:title=" ">
<polygon fill="white" stroke="#bfbfbf" points="666,-112.5 666,-131.5 729,-131.5 729,-112.5 666,-112.5"/>
<text text-anchor="middle" x="697.5" y="-119.5" font-family="Helvetica,sans-Serif" font-size="10.00">Arduino.h</text>
</a>
</g>
</g>
<!-- Node9&#45;&gt;Node10 -->
<g id="edge10" class="edge">
<title>Node9&#45;&gt;Node10</title>
<path fill="none" stroke="midnightblue" d="M600.72,-168.44C619.4,-159.68 648.66,-145.94 670.12,-135.86"/>
<polygon fill="midnightblue" stroke="midnightblue" points="671.8,-138.93 679.36,-131.52 668.82,-132.6 671.8,-138.93"/>
</g>
<!-- Node11 -->
<g id="node11" class="node">
<title>Node11</title>
<g id="a_node11"><a xlink:href="Gate_8h.xhtml" target="_top" xlink:title=" ">
<polygon fill="white" stroke="black" points="560,-112.5 560,-131.5 609,-131.5 609,-112.5 560,-112.5"/>
<text text-anchor="middle" x="584.5" y="-119.5" font-family="Helvetica,sans-Serif" font-size="10.00">Gate.h</text>
</a>
</g>
</g>
<!-- Node9&#45;&gt;Node11 -->
<g id="edge11" class="edge">
<title>Node9&#45;&gt;Node11</title>
<path fill="none" stroke="midnightblue" d="M582.83,-168.08C583.09,-161.01 583.47,-150.86 583.8,-141.99"/>
<polygon fill="midnightblue" stroke="midnightblue" points="587.3,-141.87 584.18,-131.75 580.31,-141.61 587.3,-141.87"/>
</g>
<!-- Node11&#45;&gt;Node6 -->
<g id="edge12" class="edge">
<title>Node11&#45;&gt;Node6</title>
<path fill="none" stroke="midnightblue" d="M564.18,-112.37C518.6,-93.01 408.06,-46.06 354.95,-23.51"/>
<polygon fill="midnightblue" stroke="midnightblue" points="356.3,-20.28 345.73,-19.59 353.56,-26.72 356.3,-20.28"/>
</g>
<!-- Node11&#45;&gt;Node12 -->
<g id="edge13" class="edge">
<title>Node11&#45;&gt;Node12</title>
<path fill="none" stroke="midnightblue" d="M586.48,-112.08C588.07,-104.93 590.36,-94.64 592.35,-85.69"/>
<polygon fill="midnightblue" stroke="midnightblue" points="595.8,-86.27 594.56,-75.75 588.97,-84.75 595.8,-86.27"/>
</g>
<!-- Node12&#45;&gt;Node7 -->
<g id="edge14" class="edge">
<title>Node12&#45;&gt;Node7</title>
<path fill="none" stroke="midnightblue" d="M586.06,-56.32C576.35,-48.26 561.68,-36.08 550,-26.37"/>
<polygon fill="midnightblue" stroke="midnightblue" points="552.06,-23.53 542.13,-19.83 547.59,-28.92 552.06,-23.53"/>
</g>
<!-- Node13&#45;&gt;Node4 -->
<g id="edge27" class="edge">
<title>Node13&#45;&gt;Node4</title>
<path fill="none" stroke="midnightblue" d="M386.64,-280.36C373.71,-272.51 355.93,-259.77 345.5,-244 324.35,-212.03 316.69,-166.81 313.96,-141.68"/>
<polygon fill="midnightblue" stroke="midnightblue" points="317.44,-141.3 313.02,-131.67 310.47,-141.95 317.44,-141.3"/>
</g>
<!-- Node13&#45;&gt;Node9 -->
<g id="edge26" class="edge">
<title>Node13&#45;&gt;Node9</title>
<path fill="none" stroke="midnightblue" d="M414.21,-280.35C431.87,-267.45 466.54,-242.7 497.5,-224 516.5,-212.52 538.68,-200.83 555.62,-192.25"/>
<polygon fill="midnightblue" stroke="midnightblue" points="557.56,-195.19 564.92,-187.57 554.42,-188.93 557.56,-195.19"/>
</g>
<!-- Node14 -->
<g id="node14" class="node">
<title>Node14</title>
<g id="a_node14"><a xlink:title=" ">
<polygon fill="white" stroke="#bfbfbf" points="506.5,-224.5 506.5,-243.5 554.5,-243.5 554.5,-224.5 506.5,-224.5"/>
<text text-anchor="middle" x="530.5" y="-231.5" font-family="Helvetica,sans-Serif" font-size="10.00">MIDI.h</text>
</a>
</g>
</g>
<!-- Node13&#45;&gt;Node14 -->
<g id="edge18" class="edge">
<title>Node13&#45;&gt;Node14</title>
<path fill="none" stroke="midnightblue" d="M422.78,-280.44C443.85,-271.56 477.02,-257.56 500.99,-247.45"/>
<polygon fill="midnightblue" stroke="midnightblue" points="502.46,-250.63 510.31,-243.52 499.74,-244.18 502.46,-250.63"/>
</g>
<!-- Node15 -->
<g id="node15" class="node">
<title>Node15</title>
<g id="a_node15"><a xlink:href="EurorackClock_8h.xhtml" target="_top" xlink:title=" ">
<polygon fill="white" stroke="black" points="355,-224.5 355,-243.5 450,-243.5 450,-224.5 355,-224.5"/>
<text text-anchor="middle" x="402.5" y="-231.5" font-family="Helvetica,sans-Serif" font-size="10.00">EurorackClock.h</text>
</a>
</g>
</g>
<!-- Node13&#45;&gt;Node15 -->
<g id="edge19" class="edge">
<title>Node13&#45;&gt;Node15</title>
<path fill="none" stroke="midnightblue" d="M402.5,-280.08C402.5,-273.01 402.5,-262.86 402.5,-253.99"/>
<polygon fill="midnightblue" stroke="midnightblue" points="406,-253.75 402.5,-243.75 399,-253.75 406,-253.75"/>
</g>
<!-- Node15&#45;&gt;Node4 -->
<g id="edge24" class="edge">
<title>Node15&#45;&gt;Node4</title>
<path fill="none" stroke="midnightblue" d="M392.14,-224.29C382.16,-215.63 366.94,-201.7 355.5,-188 342.94,-172.96 330.83,-154.13 322.68,-140.61"/>
<polygon fill="midnightblue" stroke="midnightblue" points="325.59,-138.67 317.49,-131.84 319.57,-142.23 325.59,-138.67"/>
</g>
<!-- Node15&#45;&gt;Node5 -->
<g id="edge21" class="edge">
<title>Node15&#45;&gt;Node5</title>
<path fill="none" stroke="midnightblue" d="M382.89,-224.43C353.3,-210.24 298.55,-178.69 278.5,-132 272.23,-117.4 273.75,-99.23 276.4,-85.81"/>
<polygon fill="midnightblue" stroke="midnightblue" points="279.86,-86.38 278.74,-75.84 273.05,-84.78 279.86,-86.38"/>
</g>
<!-- Node15&#45;&gt;Node6 -->
<g id="edge22" class="edge">
<title>Node15&#45;&gt;Node6</title>
<path fill="none" stroke="midnightblue" d="M399.48,-224.3C388.1,-191.49 347.66,-74.88 331.87,-29.38"/>
<polygon fill="midnightblue" stroke="midnightblue" points="335.17,-28.18 328.58,-19.88 328.55,-30.48 335.17,-28.18"/>
</g>
<!-- Node15&#45;&gt;Node9 -->
<g id="edge23" class="edge">
<title>Node15&#45;&gt;Node9</title>
<path fill="none" stroke="midnightblue" d="M431.02,-224.44C461.93,-215.17 511.36,-200.34 545.29,-190.16"/>
<polygon fill="midnightblue" stroke="midnightblue" points="546.72,-193.39 555.29,-187.16 544.71,-186.68 546.72,-193.39"/>
</g>
<!-- Node15&#45;&gt;Node12 -->
<g id="edge25" class="edge">
<title>Node15&#45;&gt;Node12</title>
<path fill="none" stroke="midnightblue" d="M437.66,-224.39C459.99,-217.5 488.36,-205.97 508.5,-188 537.45,-162.16 528.01,-142.89 551.5,-112 559.59,-101.36 570.08,-90.73 578.9,-82.47"/>
<polygon fill="midnightblue" stroke="midnightblue" points="581.38,-84.95 586.41,-75.63 576.66,-79.78 581.38,-84.95"/>
</g>
<!-- Node16 -->
<g id="node16" class="node">
<title>Node16</title>
<g id="a_node16"><a xlink:title=" ">
<polygon fill="white" stroke="#bfbfbf" points="398,-168.5 398,-187.5 499,-187.5 499,-168.5 398,-168.5"/>
<text text-anchor="middle" x="448.5" y="-175.5" font-family="Helvetica,sans-Serif" font-size="10.00">HardwareTimer.h</text>
</a>
</g>
</g>
<!-- Node15&#45;&gt;Node16 -->
<g id="edge20" class="edge">
<title>Node15&#45;&gt;Node16</title>
<path fill="none" stroke="midnightblue" d="M410.1,-224.08C416.73,-216.3 426.52,-204.8 434.56,-195.37"/>
<polygon fill="midnightblue" stroke="midnightblue" points="437.23,-197.63 441.05,-187.75 431.9,-193.09 437.23,-197.63"/>
</g>
<!-- Node17&#45;&gt;Node6 -->
<g id="edge30" class="edge">
<title>Node17&#45;&gt;Node6</title>
<path fill="none" stroke="midnightblue" d="M117.79,-280.23C122.43,-261.69 132.5,-217.07 132.5,-179 132.5,-179 132.5,-179 132.5,-121 132.5,-88.8 139.73,-76.57 164.5,-56 201.94,-24.92 259.39,-15.25 294.59,-12.27"/>
<polygon fill="midnightblue" stroke="midnightblue" points="295.02,-15.75 304.75,-11.55 294.53,-8.77 295.02,-15.75"/>
</g>
<!-- Node18&#45;&gt;Node6 -->
<g id="edge32" class="edge">
<title>Node18&#45;&gt;Node6</title>
<path fill="none" stroke="midnightblue" d="M673.79,-224.34C669.01,-202.44 653.53,-144.24 618.5,-112 578.95,-75.6 422.64,-34.49 355.93,-18.2"/>
<polygon fill="midnightblue" stroke="midnightblue" points="356.57,-14.75 346.03,-15.8 354.92,-21.56 356.57,-14.75"/>
</g>
<!-- Node18&#45;&gt;Node10 -->
<g id="edge33" class="edge">
<title>Node18&#45;&gt;Node10</title>
<path fill="none" stroke="midnightblue" d="M677.23,-224.37C680.78,-206.62 688.97,-165.67 693.78,-141.6"/>
<polygon fill="midnightblue" stroke="midnightblue" points="697.25,-142.08 695.78,-131.59 690.39,-140.71 697.25,-142.08"/>
</g>
<!-- Node18&#45;&gt;Node12 -->
<g id="edge36" class="edge">
<title>Node18&#45;&gt;Node12</title>
<path fill="none" stroke="midnightblue" d="M716.55,-224.38C736.46,-217.92 758.59,-206.81 770.5,-188 775.25,-180.49 772.78,-176.59 770.5,-168 763.14,-140.29 760.8,-130.01 738.5,-112 711.41,-90.13 673.54,-78.82 643.72,-73"/>
<polygon fill="midnightblue" stroke="midnightblue" points="644.01,-69.5 633.54,-71.17 642.76,-76.39 644.01,-69.5"/>
</g>
<!-- Node19 -->
<g id="node19" class="node">
<title>Node19</title>
<g id="a_node19"><a xlink:href="Debug_8h.xhtml" target="_top" xlink:title=" ">
<polygon fill="white" stroke="black" points="704,-168.5 704,-187.5 761,-187.5 761,-168.5 704,-168.5"/>
<text text-anchor="middle" x="732.5" y="-175.5" font-family="Helvetica,sans-Serif" font-size="10.00">Debug.h</text>
</a>
</g>
</g>
<!-- Node18&#45;&gt;Node19 -->
<g id="edge34" class="edge">
<title>Node18&#45;&gt;Node19</title>
<path fill="none" stroke="midnightblue" d="M684.66,-224.32C693,-216.42 705.53,-204.55 715.68,-194.94"/>
<polygon fill="midnightblue" stroke="midnightblue" points="718.32,-197.25 723.18,-187.83 713.51,-192.17 718.32,-197.25"/>
</g>
<!-- Node19&#45;&gt;Node10 -->
<g id="edge35" class="edge">
<title>Node19&#45;&gt;Node10</title>
<path fill="none" stroke="midnightblue" d="M726.72,-168.08C721.83,-160.53 714.67,-149.49 708.67,-140.23"/>
<polygon fill="midnightblue" stroke="midnightblue" points="711.55,-138.24 703.17,-131.75 705.67,-142.05 711.55,-138.24"/>
</g>
</g>
</svg>
        <g id="navigator" transform="translate(0 0)" fill="#404254">
                <rect fill="#f2f5e9" fill-opacity="0.5" stroke="#606060" stroke-width=".5" x="0" y="0" width="60" height="60"/>
                <use id="zoomplus" xlink:href="#zoomPlus" x="17" y="9" onmousedown="handleZoom(evt,'in')"/>
                <use id="zoomminus" xlink:href="#zoomMin" x="42" y="9" onmousedown="handleZoom(evt,'out')"/>
                <use id="reset" xlink:href="#resetDef" x="30" y="36" onmousedown="handleReset()"/>
                <g id="arrowUp" xlink:href="#dirArrow" transform="translate(30 24)" onmousedown="handlePan(0,-1)">
                  <use xlink:href="#rim" fill="#404040">
                        <set attributeName="fill" to="#808080" begin="arrowUp.mouseover" end="arrowUp.mouseout"/>
                  </use>
                  <path fill="none" stroke="white" stroke-width="1.5" d="M0,-3.0v7 M-2.5,-0.5L0,-3.0L2.5,-0.5"/>
                </g>
                <g id="arrowRight" xlink:href="#dirArrow" transform="rotate(90) translate(36 -43)" onmousedown="handlePan(1,0)">
                  <use xlink:href="#rim" fill="#404040">
                        <set attributeName="fill" to="#808080" begin="arrowRight.mouseover" end="arrowRight.mouseout"/>
                  </use>
                  <path fill="none" stroke="white" stroke-width="1.5" d="M0,-3.0v7 M-2.5,-0.5L0,-3.0L2.5,-0.5"/>
                </g>
                <g id="arrowDown" xlink:href="#dirArrow" transform="rotate(180) translate(-30 -48)" onmousedown="handlePan(0,1)">
                  <use xlink:href="#rim" fill="#404040">
                        <set attributeName="fill" to="#808080" begin="arrowDown.mouseover" end="arrowDown.mouseout"/>
                  </use>
                  <path fill="none" stroke="white" stroke-width="1.5" d="M0,-3.0v7 M-2.5,-0.5L0,-3.0L2.5,-0.5"/>
                </g>
                <g id="arrowLeft" xlink:href="#dirArrow" transform="rotate(270) translate(-36 17)" onmousedown="handlePan(-1,0)">
                  <use xlink:href="#rim" fill="#404040">
                        <set attributeName="fill" to="#808080" begin="arrowLeft.mouseover" end="arrowLeft.mouseout"/>
                  </use>
                  <path fill="none" stroke="white" stroke-width="1.5" d="M0,-3.0v7 M-2.5,-0.5L0,-3.0L2.5,-0.5"/>
                </g>
        </g>
        <svg viewBox="0 0 15 15" width="100%" height="30px" preserveAspectRatio="xMaxYMin meet">
         <g id="arrow_out" transform="scale(0.3 0.3)">
          <a xlink:href="Mode2_8h__incl_org.svg" target="_base">
           <rect id="button" ry="5" rx="5" y="6" x="6" height="38" width="38"
                fill="#f2f5e9" fill-opacity="0.5" stroke="#606060" stroke-width="1.0"/>
           <path id="arrow"
             d="M 11.500037,31.436501 C 11.940474,20.09759 22.043105,11.32322 32.158766,21.979434 L 37.068811,17.246167 C 37.068811,17.246167 37.088388,32 37.088388,32 L 22.160133,31.978069 C 22.160133,31.978069 26.997745,27.140456 26.997745,27.140456 C 18.528582,18.264221 13.291696,25.230495 11.500037,31.436501 z"
             style="fill:#404040;"/>
          </a>
         </g>
        </svg>
</svg>
