<?xml version="1.0" encoding="UTF-8" standalone="no"?>
<!DOCTYPE svg PUBLIC "-//W3C//DTD SVG 1.1//EN"
 "http://www.w3.org/Graphics/SVG/1.1/DTD/svg11.dtd">
<!-- Generated by graphviz version 2.43.0 (0)
 -->
<!-- Title: include/Pin.h Pages: 1 -->
<!--zoomable 420 -->
<svg id="main" version="1.1" xmlns="http://www.w3.org/2000/svg" xmlns:xlink="http://www.w3.org/1999/xlink" xml:space="preserve" onload="init(evt)">
<style type="text/css"><![CDATA[
.edge:hover path { stroke: red; }
.edge:hover polygon { stroke: red; fill: red; }
]]></style>
<script type="text/javascript"><![CDATA[
var edges = document.getElementsByTagName('g');
if (edges && edges.length) {
  for (var i=0;i<edges.length;i++) {
    if (edges[i].id.substr(0,4)=='edge') {
      edges[i].setAttribute('class','edge');
    }
  }
}
]]></script>
        <defs>
                <circle id="rim" cx="0" cy="0" r="7"/>
                <circle id="rim2" cx="0" cy="0" r="3.5"/>
                <g id="zoomPlus">
                        <use xlink:href="#rim" fill="#404040">
                                <set attributeName="fill" to="#808080" begin="zoomplus.mouseover" end="zoomplus.mouseout"/>
                        </use>
                        <path d="M-4,0h8M0,-4v8" fill="none" stroke="white" stroke-width="1.5" pointer-events="none"/>
                </g>
                <g id="zoomMin">
                        <use xlink:href="#rim" fill="#404040">
                                <set attributeName="fill" to="#808080" begin="zoomminus.mouseover" end="zoomminus.mouseout"/>
                        </use>
                        <path d="M-4,0h8" fill="none" stroke="white" stroke-width="1.5" pointer-events="none"/>
                </g>
                <g id="dirArrow">
                        <path fill="none" stroke="white" stroke-width="1.5" d="M0,-3.0v7 M-2.5,-0.5L0,-3.0L2.5,-0.5"/>
                </g>
               <g id="resetDef">
                       <use xlink:href="#rim2" fill="#404040">
                               <set attributeName="fill" to="#808080" begin="reset.mouseover" end="reset.mouseout"/>
                       </use>
               </g>
        </defs>

<script type="text/javascript">
var viewWidth = 1369;
var viewHeight = 420;
var sectionId = 'dynsection-0';
</script>
<script xlink:href="svgpan.js"/>
<svg id="graph" class="graph">
<g id="viewport">
<title>include/Pin.h</title>
<polygon fill="white" stroke="transparent" points="-4,4 -4,-416 1365,-416 1365,4 -4,4"/>
<!-- Node1 -->
<g id="node1" class="node">
<title>Node1</title>
<g id="a_node1"><a xlink:title=" ">
<polygon fill="#bfbfbf" stroke="black" points="406.5,-392.5 406.5,-411.5 485.5,-411.5 485.5,-392.5 406.5,-392.5"/>
<text text-anchor="middle" x="446" y="-399.5" font-family="Helvetica,sans-Serif" font-size="10.00">include/Pin.h</text>
</a>
</g>
</g>
<!-- Node2 -->
<g id="node2" class="node">
<title>Node2</title>
<g id="a_node2"><a xlink:href="Pin_8cpp.xhtml" target="_top" xlink:title=" ">
<polygon fill="white" stroke="black" points="118.5,-336.5 118.5,-355.5 187.5,-355.5 187.5,-336.5 118.5,-336.5"/>
<text text-anchor="middle" x="153" y="-343.5" font-family="Helvetica,sans-Serif" font-size="10.00">src/Pin.cpp</text>
</a>
</g>
</g>
<!-- Node1&#45;&gt;Node2 -->
<g id="edge1" class="edge">
<title>Node1&#45;&gt;Node2</title>
<path fill="none" stroke="midnightblue" d="M396.31,-392.37C346.01,-383.54 266.01,-369.29 197,-356 193.94,-355.41 190.76,-354.78 187.57,-354.15"/>
<polygon fill="midnightblue" stroke="midnightblue" points="395.82,-395.83 406.27,-394.11 397.03,-388.94 395.82,-395.83"/>
</g>
<!-- Node3 -->
<g id="node3" class="node">
<title>Node3</title>
<g id="a_node3"><a xlink:href="SPDTSwitch_8cpp.xhtml" target="_top" xlink:title=" ">
<polygon fill="white" stroke="black" points="226,-280.5 226,-299.5 338,-299.5 338,-280.5 226,-280.5"/>
<text text-anchor="middle" x="282" y="-287.5" font-family="Helvetica,sans-Serif" font-size="10.00">src/SPDTSwitch.cpp</text>
</a>
</g>
</g>
<!-- Node1&#45;&gt;Node3 -->
<g id="edge2" class="edge">
<title>Node1&#45;&gt;Node3</title>
<path fill="none" stroke="midnightblue" d="M424.7,-386.71C390.14,-363.53 322.9,-318.43 294.81,-299.59"/>
<polygon fill="midnightblue" stroke="midnightblue" points="422.88,-389.7 433.13,-392.37 426.78,-383.89 422.88,-389.7"/>
</g>
<!-- Node4 -->
<g id="node4" class="node">
<title>Node4</title>
<g id="a_node4"><a xlink:href="Encoder_8h.xhtml" target="_top" xlink:title=" ">
<polygon fill="white" stroke="black" points="395,-112.5 395,-131.5 497,-131.5 497,-112.5 395,-112.5"/>
<text text-anchor="middle" x="446" y="-119.5" font-family="Helvetica,sans-Serif" font-size="10.00">include/Encoder.h</text>
</a>
</g>
</g>
<!-- Node1&#45;&gt;Node4 -->
<g id="edge3" class="edge">
<title>Node1&#45;&gt;Node4</title>
<path fill="none" stroke="midnightblue" d="M446,-382.25C446,-360.36 446,-323.05 446,-291 446,-291 446,-291 446,-233 446,-195.19 446,-150.06 446,-131.56"/>
<polygon fill="midnightblue" stroke="midnightblue" points="442.5,-382.44 446,-392.44 449.5,-382.44 442.5,-382.44"/>
</g>
<!-- Node17 -->
<g id="node17" class="node">
<title>Node17</title>
<g id="a_node17"><a xlink:href="EurorackClock_8h.xhtml" target="_top" xlink:title=" ">
<polygon fill="white" stroke="black" points="892,-168.5 892,-187.5 1026,-187.5 1026,-168.5 892,-168.5"/>
<text text-anchor="middle" x="959" y="-175.5" font-family="Helvetica,sans-Serif" font-size="10.00">include/EurorackClock.h</text>
</a>
</g>
</g>
<!-- Node1&#45;&gt;Node17 -->
<g id="edge20" class="edge">
<title>Node1&#45;&gt;Node17</title>
<path fill="none" stroke="midnightblue" d="M495.57,-400.44C604.47,-398.56 861.19,-390.51 940,-356 974.01,-341.11 986.92,-333.93 1002,-300 1006.88,-289.02 1013.17,-254.09 1001,-224 994.91,-208.94 981.24,-195.9 971.15,-187.79"/>
<polygon fill="midnightblue" stroke="midnightblue" points="495.44,-396.94 485.5,-400.6 495.56,-403.94 495.44,-396.94"/>
</g>
<!-- Node19 -->
<g id="node19" class="node">
<title>Node19</title>
<g id="a_node19"><a xlink:href="Gate_8h.xhtml" target="_top" xlink:title=" ">
<polygon fill="white" stroke="black" points="516.5,-336.5 516.5,-355.5 603.5,-355.5 603.5,-336.5 516.5,-336.5"/>
<text text-anchor="middle" x="560" y="-343.5" font-family="Helvetica,sans-Serif" font-size="10.00">include/Gate.h</text>
</a>
</g>
</g>
<!-- Node1&#45;&gt;Node19 -->
<g id="edge30" class="edge">
<title>Node1&#45;&gt;Node19</title>
<path fill="none" stroke="midnightblue" d="M473.24,-388.1C494.54,-378.01 523.54,-364.27 542.02,-355.52"/>
<polygon fill="midnightblue" stroke="midnightblue" points="471.6,-385 464.06,-392.44 474.6,-391.33 471.6,-385"/>
</g>
<!-- Node23 -->
<g id="node23" class="node">
<title>Node23</title>
<g id="a_node23"><a xlink:href="InputHandler_8h.xhtml" target="_top" xlink:title=" ">
<polygon fill="white" stroke="black" points="213,-112.5 213,-131.5 339,-131.5 339,-112.5 213,-112.5"/>
<text text-anchor="middle" x="276" y="-119.5" font-family="Helvetica,sans-Serif" font-size="10.00">include/InputHandler.h</text>
</a>
</g>
</g>
<!-- Node1&#45;&gt;Node23 -->
<g id="edge40" class="edge">
<title>Node1&#45;&gt;Node23</title>
<path fill="none" stroke="midnightblue" d="M435.45,-383.74C402.91,-330.54 304.93,-170.31 281.21,-131.52"/>
<polygon fill="midnightblue" stroke="midnightblue" points="432.52,-385.67 440.73,-392.38 438.49,-382.02 432.52,-385.67"/>
</g>
<!-- Node25 -->
<g id="node25" class="node">
<title>Node25</title>
<g id="a_node25"><a xlink:href="LED_8h.xhtml" target="_top" xlink:title=" ">
<polygon fill="white" stroke="black" points="848.5,-336.5 848.5,-355.5 931.5,-355.5 931.5,-336.5 848.5,-336.5"/>
<text text-anchor="middle" x="890" y="-343.5" font-family="Helvetica,sans-Serif" font-size="10.00">include/LED.h</text>
</a>
</g>
</g>
<!-- Node1&#45;&gt;Node25 -->
<g id="edge46" class="edge">
<title>Node1&#45;&gt;Node25</title>
<path fill="none" stroke="midnightblue" d="M495.82,-394.94C584.02,-384.21 766.08,-362.07 848.2,-352.08"/>
<polygon fill="midnightblue" stroke="midnightblue" points="495.3,-391.48 485.79,-396.16 496.14,-398.43 495.3,-391.48"/>
</g>
<!-- Node31 -->
<g id="node31" class="node">
<title>Node31</title>
<g id="a_node31"><a xlink:href="ResetButton_8h.xhtml" target="_top" xlink:title=" ">
<polygon fill="white" stroke="black" points="995,-112.5 995,-131.5 1119,-131.5 1119,-112.5 995,-112.5"/>
<text text-anchor="middle" x="1057" y="-119.5" font-family="Helvetica,sans-Serif" font-size="10.00">include/ResetButton.h</text>
</a>
</g>
</g>
<!-- Node1&#45;&gt;Node31 -->
<g id="edge62" class="edge">
<title>Node1&#45;&gt;Node31</title>
<path fill="none" stroke="midnightblue" d="M495.85,-399.14C609.35,-394.52 884.07,-381.03 973,-356 1035.18,-338.5 1103,-355.6 1103,-291 1103,-291 1103,-291 1103,-233 1103,-192.43 1076.04,-149.5 1063.4,-131.61"/>
<polygon fill="midnightblue" stroke="midnightblue" points="495.56,-395.65 485.7,-399.55 495.84,-402.64 495.56,-395.65"/>
</g>
<!-- Node33 -->
<g id="node33" class="node">
<title>Node33</title>
<g id="a_node33"><a xlink:href="SPDTSwitch_8h.xhtml" target="_top" xlink:title=" ">
<polygon fill="white" stroke="black" points="206,-336.5 206,-355.5 328,-355.5 328,-336.5 206,-336.5"/>
<text text-anchor="middle" x="267" y="-343.5" font-family="Helvetica,sans-Serif" font-size="10.00">include/SPDTSwitch.h</text>
</a>
</g>
</g>
<!-- Node1&#45;&gt;Node33 -->
<g id="edge69" class="edge">
<title>Node1&#45;&gt;Node33</title>
<path fill="none" stroke="midnightblue" d="M407.67,-389.44C373.92,-379.26 325.55,-364.66 295.23,-355.52"/>
<polygon fill="midnightblue" stroke="midnightblue" points="407.05,-392.91 417.64,-392.44 409.07,-386.2 407.05,-392.91"/>
</g>
<!-- Node5 -->
<g id="node5" class="node">
<title>Node5</title>
<g id="a_node5"><a xlink:href="Encoder_8cpp.xhtml" target="_top" xlink:title=" ">
<polygon fill="white" stroke="black" points="172,-56.5 172,-75.5 264,-75.5 264,-56.5 172,-56.5"/>
<text text-anchor="middle" x="218" y="-63.5" font-family="Helvetica,sans-Serif" font-size="10.00">src/Encoder.cpp</text>
</a>
</g>
</g>
<!-- Node4&#45;&gt;Node5 -->
<g id="edge4" class="edge">
<title>Node4&#45;&gt;Node5</title>
<path fill="none" stroke="midnightblue" d="M399.93,-110.09C356.85,-99.89 293.41,-84.86 253.96,-75.52"/>
<polygon fill="midnightblue" stroke="midnightblue" points="399.34,-113.54 409.87,-112.44 400.95,-106.73 399.34,-113.54"/>
</g>
<!-- Node6 -->
<g id="node6" class="node">
<title>Node6</title>
<g id="a_node6"><a xlink:href="main_8cpp.xhtml" target="_top" xlink:title=" ">
<polygon fill="white" stroke="black" points="687.5,-0.5 687.5,-19.5 766.5,-19.5 766.5,-0.5 687.5,-0.5"/>
<text text-anchor="middle" x="727" y="-7.5" font-family="Helvetica,sans-Serif" font-size="10.00">src/main.cpp</text>
</a>
</g>
</g>
<!-- Node4&#45;&gt;Node6 -->
<g id="edge5" class="edge">
<title>Node4&#45;&gt;Node6</title>
<path fill="none" stroke="midnightblue" d="M433.18,-103.94C424.1,-89.63 415.42,-69.45 427,-56 431.23,-51.09 606.6,-27.09 687.21,-16.29"/>
<polygon fill="midnightblue" stroke="midnightblue" points="430.43,-106.12 438.99,-112.36 436.19,-102.14 430.43,-106.12"/>
</g>
<!-- Node7 -->
<g id="node7" class="node">
<title>Node7</title>
<g id="a_node7"><a xlink:href="Mode0_8h.xhtml" target="_top" xlink:title=" ">
<polygon fill="white" stroke="black" points="551.5,-56.5 551.5,-75.5 648.5,-75.5 648.5,-56.5 551.5,-56.5"/>
<text text-anchor="middle" x="600" y="-63.5" font-family="Helvetica,sans-Serif" font-size="10.00">include/Mode0.h</text>
</a>
</g>
</g>
<!-- Node4&#45;&gt;Node7 -->
<g id="edge6" class="edge">
<title>Node4&#45;&gt;Node7</title>
<path fill="none" stroke="midnightblue" d="M480.11,-109.04C509.09,-98.88 549.96,-84.55 575.71,-75.52"/>
<polygon fill="midnightblue" stroke="midnightblue" points="478.68,-105.83 470.4,-112.44 481,-112.44 478.68,-105.83"/>
</g>
<!-- Node9 -->
<g id="node9" class="node">
<title>Node9</title>
<g id="a_node9"><a xlink:href="Mode1_8h.xhtml" target="_top" xlink:title=" ">
<polygon fill="white" stroke="black" points="282.5,-56.5 282.5,-75.5 379.5,-75.5 379.5,-56.5 282.5,-56.5"/>
<text text-anchor="middle" x="331" y="-63.5" font-family="Helvetica,sans-Serif" font-size="10.00">include/Mode1.h</text>
</a>
</g>
</g>
<!-- Node4&#45;&gt;Node9 -->
<g id="edge9" class="edge">
<title>Node4&#45;&gt;Node9</title>
<path fill="none" stroke="midnightblue" d="M418.52,-108.1C397.03,-98.01 367.78,-84.27 349.14,-75.52"/>
<polygon fill="midnightblue" stroke="midnightblue" points="417.24,-111.36 427.78,-112.44 420.21,-105.02 417.24,-111.36"/>
</g>
<!-- Node11 -->
<g id="node11" class="node">
<title>Node11</title>
<g id="a_node11"><a xlink:href="Mode2_8h.xhtml" target="_top" xlink:title=" ">
<polygon fill="white" stroke="black" points="436.5,-56.5 436.5,-75.5 533.5,-75.5 533.5,-56.5 436.5,-56.5"/>
<text text-anchor="middle" x="485" y="-63.5" font-family="Helvetica,sans-Serif" font-size="10.00">include/Mode2.h</text>
</a>
</g>
</g>
<!-- Node4&#45;&gt;Node11 -->
<g id="edge12" class="edge">
<title>Node4&#45;&gt;Node11</title>
<path fill="none" stroke="midnightblue" d="M458.38,-103.86C465.14,-94.5 473.21,-83.33 478.68,-75.75"/>
<polygon fill="midnightblue" stroke="midnightblue" points="455.46,-101.93 452.44,-112.08 461.13,-106.03 455.46,-101.93"/>
</g>
<!-- Node13 -->
<g id="node13" class="node">
<title>Node13</title>
<g id="a_node13"><a xlink:href="ModeSelector_8h.xhtml" target="_top" xlink:title=" ">
<polygon fill="white" stroke="black" points="1033,-56.5 1033,-75.5 1163,-75.5 1163,-56.5 1033,-56.5"/>
<text text-anchor="middle" x="1098" y="-63.5" font-family="Helvetica,sans-Serif" font-size="10.00">include/ModeSelector.h</text>
</a>
</g>
</g>
<!-- Node4&#45;&gt;Node13 -->
<g id="edge15" class="edge">
<title>Node4&#45;&gt;Node13</title>
<path fill="none" stroke="midnightblue" d="M507.17,-115.93C630.2,-105.74 906.6,-82.85 1032.86,-72.4"/>
<polygon fill="midnightblue" stroke="midnightblue" points="506.84,-112.45 497.16,-116.76 507.42,-119.43 506.84,-112.45"/>
</g>
<!-- Node7&#45;&gt;Node6 -->
<g id="edge7" class="edge">
<title>Node7&#45;&gt;Node6</title>
<path fill="none" stroke="midnightblue" d="M629.39,-52.5C653.2,-42.38 686.11,-28.39 706.97,-19.52"/>
<polygon fill="midnightblue" stroke="midnightblue" points="627.96,-49.31 620.12,-56.44 630.7,-55.75 627.96,-49.31"/>
</g>
<!-- Node8 -->
<g id="node8" class="node">
<title>Node8</title>
<g id="a_node8"><a xlink:href="Mode0_8cpp.xhtml" target="_top" xlink:title=" ">
<polygon fill="white" stroke="black" points="556.5,-0.5 556.5,-19.5 643.5,-19.5 643.5,-0.5 556.5,-0.5"/>
<text text-anchor="middle" x="600" y="-7.5" font-family="Helvetica,sans-Serif" font-size="10.00">src/Mode0.cpp</text>
</a>
</g>
</g>
<!-- Node7&#45;&gt;Node8 -->
<g id="edge8" class="edge">
<title>Node7&#45;&gt;Node8</title>
<path fill="none" stroke="midnightblue" d="M600,-45.8C600,-36.91 600,-26.78 600,-19.75"/>
<polygon fill="midnightblue" stroke="midnightblue" points="596.5,-46.08 600,-56.08 603.5,-46.08 596.5,-46.08"/>
</g>
<!-- Node9&#45;&gt;Node6 -->
<g id="edge10" class="edge">
<title>Node9&#45;&gt;Node6</title>
<path fill="none" stroke="midnightblue" d="M390.08,-56.55C391.4,-56.36 392.71,-56.18 394,-56 499.89,-41.28 624.81,-24.58 687.26,-16.27"/>
<polygon fill="midnightblue" stroke="midnightblue" points="389.25,-53.13 379.83,-57.99 390.22,-60.06 389.25,-53.13"/>
</g>
<!-- Node10 -->
<g id="node10" class="node">
<title>Node10</title>
<g id="a_node10"><a xlink:href="Mode1_8cpp.xhtml" target="_top" xlink:title=" ">
<polygon fill="white" stroke="black" points="287.5,-0.5 287.5,-19.5 374.5,-19.5 374.5,-0.5 287.5,-0.5"/>
<text text-anchor="middle" x="331" y="-7.5" font-family="Helvetica,sans-Serif" font-size="10.00">src/Mode1.cpp</text>
</a>
</g>
</g>
<!-- Node9&#45;&gt;Node10 -->
<g id="edge11" class="edge">
<title>Node9&#45;&gt;Node10</title>
<path fill="none" stroke="midnightblue" d="M331,-45.8C331,-36.91 331,-26.78 331,-19.75"/>
<polygon fill="midnightblue" stroke="midnightblue" points="327.5,-46.08 331,-56.08 334.5,-46.08 327.5,-46.08"/>
</g>
<!-- Node11&#45;&gt;Node6 -->
<g id="edge13" class="edge">
<title>Node11&#45;&gt;Node6</title>
<path fill="none" stroke="midnightblue" d="M533.32,-54.22C579.05,-44.01 646.78,-28.9 688.83,-19.52"/>
<polygon fill="midnightblue" stroke="midnightblue" points="532.34,-50.85 523.35,-56.44 533.87,-57.68 532.34,-50.85"/>
</g>
<!-- Node12 -->
<g id="node12" class="node">
<title>Node12</title>
<g id="a_node12"><a xlink:href="Mode2_8cpp.xhtml" target="_top" xlink:title=" ">
<polygon fill="white" stroke="black" points="441.5,-0.5 441.5,-19.5 528.5,-19.5 528.5,-0.5 441.5,-0.5"/>
<text text-anchor="middle" x="485" y="-7.5" font-family="Helvetica,sans-Serif" font-size="10.00">src/Mode2.cpp</text>
</a>
</g>
</g>
<!-- Node11&#45;&gt;Node12 -->
<g id="edge14" class="edge">
<title>Node11&#45;&gt;Node12</title>
<path fill="none" stroke="midnightblue" d="M485,-45.8C485,-36.91 485,-26.78 485,-19.75"/>
<polygon fill="midnightblue" stroke="midnightblue" points="481.5,-46.08 485,-56.08 488.5,-46.08 481.5,-46.08"/>
</g>
<!-- Node13&#45;&gt;Node6 -->
<g id="edge17" class="edge">
<title>Node13&#45;&gt;Node6</title>
<path fill="none" stroke="midnightblue" d="M1029.1,-54.97C951.88,-43.73 829.32,-25.89 766.69,-16.78"/>
<polygon fill="midnightblue" stroke="midnightblue" points="1028.81,-58.47 1039.21,-56.44 1029.82,-51.54 1028.81,-58.47"/>
</g>
<!-- Node14 -->
<g id="node14" class="node">
<title>Node14</title>
<g id="a_node14"><a xlink:href="EurorackClock_8cpp.xhtml" target="_top" xlink:title=" ">
<polygon fill="white" stroke="black" points="1237,-0.5 1237,-19.5 1361,-19.5 1361,-0.5 1237,-0.5"/>
<text text-anchor="middle" x="1299" y="-7.5" font-family="Helvetica,sans-Serif" font-size="10.00">src/EurorackClock.cpp</text>
</a>
</g>
</g>
<!-- Node13&#45;&gt;Node14 -->
<g id="edge16" class="edge">
<title>Node13&#45;&gt;Node14</title>
<path fill="none" stroke="midnightblue" d="M1139.58,-53.83C1177.53,-43.63 1232.81,-28.78 1267.3,-19.52"/>
<polygon fill="midnightblue" stroke="midnightblue" points="1138.6,-50.47 1129.85,-56.44 1140.41,-57.23 1138.6,-50.47"/>
</g>
<!-- Node15 -->
<g id="node15" class="node">
<title>Node15</title>
<g id="a_node15"><a xlink:href="MIDIHandler_8cpp.xhtml" target="_top" xlink:title=" ">
<polygon fill="white" stroke="black" points="859,-0.5 859,-19.5 973,-19.5 973,-0.5 859,-0.5"/>
<text text-anchor="middle" x="916" y="-7.5" font-family="Helvetica,sans-Serif" font-size="10.00">src/MIDIHandler.cpp</text>
</a>
</g>
</g>
<!-- Node13&#45;&gt;Node15 -->
<g id="edge18" class="edge">
<title>Node13&#45;&gt;Node15</title>
<path fill="none" stroke="midnightblue" d="M1059.47,-53.57C1025.14,-43.38 975.67,-28.7 944.7,-19.52"/>
<polygon fill="midnightblue" stroke="midnightblue" points="1058.58,-56.95 1069.16,-56.44 1060.57,-50.24 1058.58,-56.95"/>
</g>
<!-- Node16 -->
<g id="node16" class="node">
<title>Node16</title>
<g id="a_node16"><a xlink:href="ModeSelector_8cpp.xhtml" target="_top" xlink:title=" ">
<polygon fill="white" stroke="black" points="1038,-0.5 1038,-19.5 1158,-19.5 1158,-0.5 1038,-0.5"/>
<text text-anchor="middle" x="1098" y="-7.5" font-family="Helvetica,sans-Serif" font-size="10.00">src/ModeSelector.cpp</text>
</a>
</g>
</g>
<!-- Node13&#45;&gt;Node16 -->
<g id="edge19" class="edge">
<title>Node13&#45;&gt;Node16</title>
<path fill="none" stroke="midnightblue" d="M1098,-45.8C1098,-36.91 1098,-26.78 1098,-19.75"/>
<polygon fill="midnightblue" stroke="midnightblue" points="1094.5,-46.08 1098,-56.08 1101.5,-46.08 1094.5,-46.08"/>
</g>
<!-- Node17&#45;&gt;Node6 -->
<g id="edge22" class="edge">
<title>Node17&#45;&gt;Node6</title>
<path fill="none" stroke="midnightblue" d="M962.56,-158.1C966.36,-131.65 968.75,-83.73 943,-56 919.54,-30.74 822.28,-18.75 766.61,-13.86"/>
<polygon fill="midnightblue" stroke="midnightblue" points="959.05,-157.86 960.87,-168.3 965.96,-159 959.05,-157.86"/>
</g>
<!-- Node17&#45;&gt;Node7 -->
<g id="edge29" class="edge">
<title>Node17&#45;&gt;Node7</title>
<path fill="none" stroke="midnightblue" d="M942.68,-160.96C926.25,-145.81 899.47,-123.71 872,-112 798.24,-80.57 704.56,-71.01 648.6,-68.15"/>
<polygon fill="midnightblue" stroke="midnightblue" points="940.61,-163.82 950.28,-168.16 945.43,-158.74 940.61,-163.82"/>
</g>
<!-- Node17&#45;&gt;Node14 -->
<g id="edge21" class="edge">
<title>Node17&#45;&gt;Node14</title>
<path fill="none" stroke="midnightblue" d="M1027.8,-166.85C1118.76,-151.84 1271.38,-120.61 1304,-76 1316.29,-59.19 1308.33,-32.96 1302.88,-19.54"/>
<polygon fill="midnightblue" stroke="midnightblue" points="1027.15,-163.41 1017.84,-168.47 1028.27,-170.32 1027.15,-163.41"/>
</g>
<!-- Node18 -->
<g id="node18" class="node">
<title>Node18</title>
<g id="a_node18"><a xlink:href="MIDIHandler_8h.xhtml" target="_top" xlink:title=" ">
<polygon fill="white" stroke="black" points="591,-112.5 591,-131.5 715,-131.5 715,-112.5 591,-112.5"/>
<text text-anchor="middle" x="653" y="-119.5" font-family="Helvetica,sans-Serif" font-size="10.00">include/MIDIHandler.h</text>
</a>
</g>
</g>
<!-- Node17&#45;&gt;Node18 -->
<g id="edge23" class="edge">
<title>Node17&#45;&gt;Node18</title>
<path fill="none" stroke="midnightblue" d="M900.43,-166.66C842.6,-156.46 755.22,-141.04 701.26,-131.52"/>
<polygon fill="midnightblue" stroke="midnightblue" points="900.06,-170.15 910.51,-168.44 901.27,-163.26 900.06,-170.15"/>
</g>
<!-- Node18&#45;&gt;Node6 -->
<g id="edge24" class="edge">
<title>Node18&#45;&gt;Node6</title>
<path fill="none" stroke="midnightblue" d="M664.47,-103.96C680.5,-80.12 709.03,-37.71 721.22,-19.59"/>
<polygon fill="midnightblue" stroke="midnightblue" points="661.48,-102.12 658.81,-112.37 667.29,-106.02 661.48,-102.12"/>
</g>
<!-- Node18&#45;&gt;Node7 -->
<g id="edge26" class="edge">
<title>Node18&#45;&gt;Node7</title>
<path fill="none" stroke="midnightblue" d="M637.02,-104.72C627.68,-95.2 616.25,-83.56 608.59,-75.75"/>
<polygon fill="midnightblue" stroke="midnightblue" points="634.75,-107.4 644.25,-112.08 639.74,-102.49 634.75,-107.4"/>
</g>
<!-- Node18&#45;&gt;Node9 -->
<g id="edge27" class="edge">
<title>Node18&#45;&gt;Node9</title>
<path fill="none" stroke="midnightblue" d="M592,-110.77C530.4,-100.44 436.46,-84.69 379.68,-75.16"/>
<polygon fill="midnightblue" stroke="midnightblue" points="591.54,-114.24 601.98,-112.44 592.69,-107.34 591.54,-114.24"/>
</g>
<!-- Node18&#45;&gt;Node11 -->
<g id="edge28" class="edge">
<title>Node18&#45;&gt;Node11</title>
<path fill="none" stroke="midnightblue" d="M616.61,-109.3C584.96,-99.13 539.83,-84.62 511.5,-75.52"/>
<polygon fill="midnightblue" stroke="midnightblue" points="615.79,-112.72 626.38,-112.44 617.93,-106.05 615.79,-112.72"/>
</g>
<!-- Node18&#45;&gt;Node15 -->
<g id="edge25" class="edge">
<title>Node18&#45;&gt;Node15</title>
<path fill="none" stroke="midnightblue" d="M675.27,-107.1C698.7,-92.9 736.96,-70.87 772,-56 808.65,-40.44 852.54,-27.5 882.16,-19.54"/>
<polygon fill="midnightblue" stroke="midnightblue" points="673.18,-104.27 666.48,-112.48 676.84,-110.24 673.18,-104.27"/>
</g>
<!-- Node20 -->
<g id="node20" class="node">
<title>Node20</title>
<g id="a_node20"><a xlink:href="Gate_8cpp.xhtml" target="_top" xlink:title=" ">
<polygon fill="white" stroke="black" points="588.5,-280.5 588.5,-299.5 665.5,-299.5 665.5,-280.5 588.5,-280.5"/>
<text text-anchor="middle" x="627" y="-287.5" font-family="Helvetica,sans-Serif" font-size="10.00">src/Gate.cpp</text>
</a>
</g>
</g>
<!-- Node19&#45;&gt;Node20 -->
<g id="edge31" class="edge">
<title>Node19&#45;&gt;Node20</title>
<path fill="none" stroke="midnightblue" d="M578.83,-329.82C590.84,-320.15 605.97,-307.95 616.04,-299.83"/>
<polygon fill="midnightblue" stroke="midnightblue" points="576.35,-327.32 570.76,-336.32 580.75,-332.77 576.35,-327.32"/>
</g>
<!-- Node21 -->
<g id="node21" class="node">
<title>Node21</title>
<g id="a_node21"><a xlink:href="Gates_8h.xhtml" target="_top" xlink:title=" ">
<polygon fill="white" stroke="black" points="555,-224.5 555,-243.5 647,-243.5 647,-224.5 555,-224.5"/>
<text text-anchor="middle" x="601" y="-231.5" font-family="Helvetica,sans-Serif" font-size="10.00">include/Gates.h</text>
</a>
</g>
</g>
<!-- Node19&#45;&gt;Node21 -->
<g id="edge32" class="edge">
<title>Node19&#45;&gt;Node21</title>
<path fill="none" stroke="midnightblue" d="M564.46,-326.69C567.88,-313.51 573.03,-295.42 579,-280 584.03,-267.03 591.36,-252.69 596.16,-243.76"/>
<polygon fill="midnightblue" stroke="midnightblue" points="561.05,-325.88 562.01,-336.43 567.84,-327.59 561.05,-325.88"/>
</g>
<!-- Node21&#45;&gt;Node6 -->
<g id="edge34" class="edge">
<title>Node21&#45;&gt;Node6</title>
<path fill="none" stroke="midnightblue" d="M657.1,-227.23C737.15,-215.39 878.05,-179.98 910,-76 912.61,-67.5 915.48,-63 910,-56 892.54,-33.73 815.11,-21.01 766.73,-15.1"/>
<polygon fill="midnightblue" stroke="midnightblue" points="656.59,-223.77 647.17,-228.62 657.56,-230.7 656.59,-223.77"/>
</g>
<!-- Node21&#45;&gt;Node7 -->
<g id="edge37" class="edge">
<title>Node21&#45;&gt;Node7</title>
<path fill="none" stroke="midnightblue" d="M594.29,-215.02C586.33,-191.32 574.99,-148.4 582,-112 584.55,-98.78 590.94,-84.51 595.38,-75.66"/>
<polygon fill="midnightblue" stroke="midnightblue" points="590.99,-216.2 597.63,-224.46 597.59,-213.86 590.99,-216.2"/>
</g>
<!-- Node21&#45;&gt;Node9 -->
<g id="edge38" class="edge">
<title>Node21&#45;&gt;Node9</title>
<path fill="none" stroke="midnightblue" d="M564.19,-221.19C519.16,-205.57 442,-174.91 386,-132 364.41,-115.46 345.44,-89.11 336.48,-75.61"/>
<polygon fill="midnightblue" stroke="midnightblue" points="563.24,-224.57 573.84,-224.48 565.5,-217.94 563.24,-224.57"/>
</g>
<!-- Node21&#45;&gt;Node11 -->
<g id="edge39" class="edge">
<title>Node21&#45;&gt;Node11</title>
<path fill="none" stroke="midnightblue" d="M588.95,-215.76C564.38,-180.59 509.23,-101.68 490.99,-75.57"/>
<polygon fill="midnightblue" stroke="midnightblue" points="586.17,-217.88 594.76,-224.08 591.9,-213.87 586.17,-217.88"/>
</g>
<!-- Node21&#45;&gt;Node17 -->
<g id="edge35" class="edge">
<title>Node21&#45;&gt;Node17</title>
<path fill="none" stroke="midnightblue" d="M657.02,-224.55C723.96,-214.45 835.34,-197.65 902.5,-187.52"/>
<polygon fill="midnightblue" stroke="midnightblue" points="656.44,-221.1 647.07,-226.05 657.48,-228.02 656.44,-221.1"/>
</g>
<!-- Node21&#45;&gt;Node18 -->
<g id="edge36" class="edge">
<title>Node21&#45;&gt;Node18</title>
<path fill="none" stroke="midnightblue" d="M604.64,-214.33C607.67,-200.98 612.68,-182.83 620,-168 626.78,-154.27 637.76,-140.35 645.17,-131.7"/>
<polygon fill="midnightblue" stroke="midnightblue" points="601.19,-213.73 602.55,-224.23 608.04,-215.17 601.19,-213.73"/>
</g>
<!-- Node22 -->
<g id="node22" class="node">
<title>Node22</title>
<g id="a_node22"><a xlink:href="Gates_8cpp.xhtml" target="_top" xlink:title=" ">
<polygon fill="white" stroke="black" points="629.5,-168.5 629.5,-187.5 712.5,-187.5 712.5,-168.5 629.5,-168.5"/>
<text text-anchor="middle" x="671" y="-175.5" font-family="Helvetica,sans-Serif" font-size="10.00">src/Gates.cpp</text>
</a>
</g>
</g>
<!-- Node21&#45;&gt;Node22 -->
<g id="edge33" class="edge">
<title>Node21&#45;&gt;Node22</title>
<path fill="none" stroke="midnightblue" d="M620.31,-218.1C632.91,-208.38 648.93,-196.03 659.55,-187.83"/>
<polygon fill="midnightblue" stroke="midnightblue" points="618.03,-215.44 612.25,-224.32 622.3,-220.99 618.03,-215.44"/>
</g>
<!-- Node23&#45;&gt;Node6 -->
<g id="edge42" class="edge">
<title>Node23&#45;&gt;Node6</title>
<path fill="none" stroke="midnightblue" d="M223.59,-110.01C183.79,-99.38 139.59,-81.2 163,-56 200.08,-16.09 597.77,-25.25 652,-20 663.49,-18.89 675.94,-17.48 687.34,-16.1"/>
<polygon fill="midnightblue" stroke="midnightblue" points="222.75,-113.4 233.3,-112.48 224.47,-106.62 222.75,-113.4"/>
</g>
<!-- Node23&#45;&gt;Node7 -->
<g id="edge43" class="edge">
<title>Node23&#45;&gt;Node7</title>
<path fill="none" stroke="midnightblue" d="M337.39,-110.77C399.47,-100.42 494.18,-84.64 551.29,-75.12"/>
<polygon fill="midnightblue" stroke="midnightblue" points="336.63,-107.35 327.34,-112.44 337.78,-114.25 336.63,-107.35"/>
</g>
<!-- Node23&#45;&gt;Node9 -->
<g id="edge44" class="edge">
<title>Node23&#45;&gt;Node9</title>
<path fill="none" stroke="midnightblue" d="M292.29,-105C302.04,-95.43 314.05,-83.64 322.09,-75.75"/>
<polygon fill="midnightblue" stroke="midnightblue" points="289.77,-102.58 285.08,-112.08 294.67,-107.57 289.77,-102.58"/>
</g>
<!-- Node23&#45;&gt;Node11 -->
<g id="edge45" class="edge">
<title>Node23&#45;&gt;Node11</title>
<path fill="none" stroke="midnightblue" d="M318.98,-109.89C358.45,-99.7 416.1,-84.8 452.04,-75.52"/>
<polygon fill="midnightblue" stroke="midnightblue" points="317.92,-106.55 309.12,-112.44 319.67,-113.33 317.92,-106.55"/>
</g>
<!-- Node24 -->
<g id="node24" class="node">
<title>Node24</title>
<g id="a_node24"><a xlink:href="InputHandler_8cpp.xhtml" target="_top" xlink:title=" ">
<polygon fill="white" stroke="black" points="0,-56.5 0,-75.5 116,-75.5 116,-56.5 0,-56.5"/>
<text text-anchor="middle" x="58" y="-63.5" font-family="Helvetica,sans-Serif" font-size="10.00">src/InputHandler.cpp</text>
</a>
</g>
</g>
<!-- Node23&#45;&gt;Node24 -->
<g id="edge41" class="edge">
<title>Node23&#45;&gt;Node24</title>
<path fill="none" stroke="midnightblue" d="M231.69,-110.02C190.51,-99.82 130.03,-84.84 92.38,-75.52"/>
<polygon fill="midnightblue" stroke="midnightblue" points="230.91,-113.44 241.46,-112.44 232.59,-106.64 230.91,-113.44"/>
</g>
<!-- Node25&#45;&gt;Node17 -->
<g id="edge48" class="edge">
<title>Node25&#45;&gt;Node17</title>
<path fill="none" stroke="midnightblue" d="M939.56,-333.04C956.65,-326.29 973.99,-315.89 984,-300 1007.21,-263.16 977.89,-208.66 964.76,-187.67"/>
<polygon fill="midnightblue" stroke="midnightblue" points="938.37,-329.75 930.15,-336.43 940.74,-336.34 938.37,-329.75"/>
</g>
<!-- Node26 -->
<g id="node26" class="node">
<title>Node26</title>
<g id="a_node26"><a xlink:href="LED_8cpp.xhtml" target="_top" xlink:title=" ">
<polygon fill="white" stroke="black" points="902.5,-280.5 902.5,-299.5 975.5,-299.5 975.5,-280.5 902.5,-280.5"/>
<text text-anchor="middle" x="939" y="-287.5" font-family="Helvetica,sans-Serif" font-size="10.00">src/LED.cpp</text>
</a>
</g>
</g>
<!-- Node25&#45;&gt;Node26 -->
<g id="edge47" class="edge">
<title>Node25&#45;&gt;Node26</title>
<path fill="none" stroke="midnightblue" d="M905.03,-328.43C913.62,-318.97 924.04,-307.48 931.06,-299.75"/>
<polygon fill="midnightblue" stroke="midnightblue" points="902.22,-326.33 898.09,-336.08 907.4,-331.03 902.22,-326.33"/>
</g>
<!-- Node27 -->
<g id="node27" class="node">
<title>Node27</title>
<g id="a_node27"><a xlink:href="LEDs_8h.xhtml" target="_top" xlink:title=" ">
<polygon fill="white" stroke="black" points="796,-280.5 796,-299.5 884,-299.5 884,-280.5 796,-280.5"/>
<text text-anchor="middle" x="840" y="-287.5" font-family="Helvetica,sans-Serif" font-size="10.00">include/LEDs.h</text>
</a>
</g>
</g>
<!-- Node25&#45;&gt;Node27 -->
<g id="edge49" class="edge">
<title>Node25&#45;&gt;Node27</title>
<path fill="none" stroke="midnightblue" d="M874.92,-328.72C866.11,-319.2 855.33,-307.56 848.1,-299.75"/>
<polygon fill="midnightblue" stroke="midnightblue" points="872.38,-331.12 881.74,-336.08 877.52,-326.37 872.38,-331.12"/>
</g>
<!-- Node27&#45;&gt;Node6 -->
<g id="edge51" class="edge">
<title>Node27&#45;&gt;Node6</title>
<path fill="none" stroke="midnightblue" d="M879.95,-277.58C1003.81,-241.25 1369.27,-126.56 1304,-56 1301.71,-53.53 897.23,-23.54 766.94,-13.94"/>
<polygon fill="midnightblue" stroke="midnightblue" points="878.71,-274.3 870.09,-280.46 880.67,-281.02 878.71,-274.3"/>
</g>
<!-- Node27&#45;&gt;Node17 -->
<g id="edge52" class="edge">
<title>Node27&#45;&gt;Node17</title>
<path fill="none" stroke="midnightblue" d="M879.96,-276.75C897.8,-269.6 917.92,-258.97 932,-244 947.4,-227.62 954.61,-201.21 957.45,-187.65"/>
<polygon fill="midnightblue" stroke="midnightblue" points="878.46,-273.57 870.34,-280.37 880.93,-280.12 878.46,-273.57"/>
</g>
<!-- Node27&#45;&gt;Node18 -->
<g id="edge61" class="edge">
<title>Node27&#45;&gt;Node18</title>
<path fill="none" stroke="midnightblue" d="M826.15,-272.9C804.88,-248.66 762.29,-202.02 721,-168 703.85,-153.87 682.16,-140.14 667.95,-131.64"/>
<polygon fill="midnightblue" stroke="midnightblue" points="823.54,-275.23 832.75,-280.48 828.82,-270.64 823.54,-275.23"/>
</g>
<!-- Node27&#45;&gt;Node21 -->
<g id="edge53" class="edge">
<title>Node27&#45;&gt;Node21</title>
<path fill="none" stroke="midnightblue" d="M792.28,-278.22C747.11,-268.01 680.23,-252.9 638.69,-243.52"/>
<polygon fill="midnightblue" stroke="midnightblue" points="791.6,-281.65 802.13,-280.44 793.15,-274.83 791.6,-281.65"/>
</g>
<!-- Node28 -->
<g id="node28" class="node">
<title>Node28</title>
<g id="a_node28"><a xlink:href="LEDs_8cpp.xhtml" target="_top" xlink:title=" ">
<polygon fill="white" stroke="black" points="845,-224.5 845,-243.5 923,-243.5 923,-224.5 845,-224.5"/>
<text text-anchor="middle" x="884" y="-231.5" font-family="Helvetica,sans-Serif" font-size="10.00">src/LEDs.cpp</text>
</a>
</g>
</g>
<!-- Node27&#45;&gt;Node28 -->
<g id="edge50" class="edge">
<title>Node27&#45;&gt;Node28</title>
<path fill="none" stroke="midnightblue" d="M853.73,-272.14C861.4,-262.74 870.63,-251.4 876.87,-243.75"/>
<polygon fill="midnightblue" stroke="midnightblue" points="850.87,-270.12 847.27,-280.08 856.3,-274.54 850.87,-270.12"/>
</g>
<!-- Node29 -->
<g id="node29" class="node">
<title>Node29</title>
<g id="a_node29"><a xlink:href="LEDController_8h.xhtml" target="_top" xlink:title=" ">
<polygon fill="white" stroke="black" points="733,-112.5 733,-131.5 863,-131.5 863,-112.5 733,-112.5"/>
<text text-anchor="middle" x="798" y="-119.5" font-family="Helvetica,sans-Serif" font-size="10.00">include/LEDController.h</text>
</a>
</g>
</g>
<!-- Node27&#45;&gt;Node29 -->
<g id="edge54" class="edge">
<title>Node27&#45;&gt;Node29</title>
<path fill="none" stroke="midnightblue" d="M835.17,-269.93C826.06,-233.92 806.66,-157.23 800.17,-131.57"/>
<polygon fill="midnightblue" stroke="midnightblue" points="831.9,-271.24 837.74,-280.08 838.68,-269.52 831.9,-271.24"/>
</g>
<!-- Node29&#45;&gt;Node6 -->
<g id="edge56" class="edge">
<title>Node29&#45;&gt;Node6</title>
<path fill="none" stroke="midnightblue" d="M787,-103.96C771.61,-80.12 744.24,-37.71 732.55,-19.59"/>
<polygon fill="midnightblue" stroke="midnightblue" points="784.07,-105.86 792.43,-112.37 789.95,-102.07 784.07,-105.86"/>
</g>
<!-- Node29&#45;&gt;Node7 -->
<g id="edge57" class="edge">
<title>Node29&#45;&gt;Node7</title>
<path fill="none" stroke="midnightblue" d="M756.56,-109.7C719.19,-99.51 665.06,-84.74 631.23,-75.52"/>
<polygon fill="midnightblue" stroke="midnightblue" points="756.06,-113.19 766.63,-112.44 757.9,-106.44 756.06,-113.19"/>
</g>
<!-- Node29&#45;&gt;Node9 -->
<g id="edge58" class="edge">
<title>Node29&#45;&gt;Node9</title>
<path fill="none" stroke="midnightblue" d="M722.51,-111.83C592.67,-96.53 452.12,-80.62 379.72,-72.47"/>
<polygon fill="midnightblue" stroke="midnightblue" points="722.29,-115.33 732.63,-113.02 723.11,-108.38 722.29,-115.33"/>
</g>
<!-- Node29&#45;&gt;Node11 -->
<g id="edge59" class="edge">
<title>Node29&#45;&gt;Node11</title>
<path fill="none" stroke="midnightblue" d="M738.41,-110.72C678.99,-100.47 588.82,-84.91 533.59,-75.38"/>
<polygon fill="midnightblue" stroke="midnightblue" points="737.95,-114.19 748.4,-112.44 739.14,-107.29 737.95,-114.19"/>
</g>
<!-- Node29&#45;&gt;Node13 -->
<g id="edge60" class="edge">
<title>Node29&#45;&gt;Node13</title>
<path fill="none" stroke="midnightblue" d="M855.42,-110.66C912.12,-100.46 997.79,-85.04 1050.69,-75.52"/>
<polygon fill="midnightblue" stroke="midnightblue" points="854.76,-107.23 845.54,-112.44 856,-114.12 854.76,-107.23"/>
</g>
<!-- Node30 -->
<g id="node30" class="node">
<title>Node30</title>
<g id="a_node30"><a xlink:href="LEDController_8cpp.xhtml" target="_top" xlink:title=" ">
<polygon fill="white" stroke="black" points="781,-56.5 781,-75.5 901,-75.5 901,-56.5 781,-56.5"/>
<text text-anchor="middle" x="841" y="-63.5" font-family="Helvetica,sans-Serif" font-size="10.00">src/LEDController.cpp</text>
</a>
</g>
</g>
<!-- Node29&#45;&gt;Node30 -->
<g id="edge55" class="edge">
<title>Node29&#45;&gt;Node30</title>
<path fill="none" stroke="midnightblue" d="M811.42,-104.14C818.91,-94.74 827.94,-83.4 834.03,-75.75"/>
<polygon fill="midnightblue" stroke="midnightblue" points="808.59,-102.08 805.1,-112.08 814.07,-106.44 808.59,-102.08"/>
</g>
<!-- Node31&#45;&gt;Node6 -->
<g id="edge63" class="edge">
<title>Node31&#45;&gt;Node6</title>
<path fill="none" stroke="midnightblue" d="M1042.73,-104.56C1028.63,-89.44 1005.64,-67.64 981,-56 943.65,-38.35 828.2,-22.77 766.63,-15.44"/>
<polygon fill="midnightblue" stroke="midnightblue" points="1040.31,-107.1 1049.61,-112.17 1045.5,-102.41 1040.31,-107.1"/>
</g>
<!-- Node31&#45;&gt;Node7 -->
<g id="edge65" class="edge">
<title>Node31&#45;&gt;Node7</title>
<path fill="none" stroke="midnightblue" d="M984.9,-112.48C891,-101.38 729.33,-82.28 648.69,-72.75"/>
<polygon fill="midnightblue" stroke="midnightblue" points="984.55,-115.96 994.89,-113.66 985.37,-109.01 984.55,-115.96"/>
</g>
<!-- Node31&#45;&gt;Node9 -->
<g id="edge66" class="edge">
<title>Node31&#45;&gt;Node9</title>
<path fill="none" stroke="midnightblue" d="M984.54,-116.35C867.31,-108.7 628.82,-92.67 427,-76 411.65,-74.73 394.94,-73.21 379.82,-71.79"/>
<polygon fill="midnightblue" stroke="midnightblue" points="984.61,-119.86 994.82,-117.02 985.07,-112.88 984.61,-119.86"/>
</g>
<!-- Node31&#45;&gt;Node11 -->
<g id="edge67" class="edge">
<title>Node31&#45;&gt;Node11</title>
<path fill="none" stroke="midnightblue" d="M984.35,-116.25C884.47,-109.35 699.24,-95.26 542,-76 539.32,-75.67 536.56,-75.31 533.79,-74.93"/>
<polygon fill="midnightblue" stroke="midnightblue" points="984.41,-119.76 994.62,-116.95 984.89,-112.78 984.41,-119.76"/>
</g>
<!-- Node31&#45;&gt;Node13 -->
<g id="edge68" class="edge">
<title>Node31&#45;&gt;Node13</title>
<path fill="none" stroke="midnightblue" d="M1070.02,-103.86C1077.12,-94.5 1085.6,-83.33 1091.36,-75.75"/>
<polygon fill="midnightblue" stroke="midnightblue" points="1067.03,-102 1063.77,-112.08 1072.61,-106.24 1067.03,-102"/>
</g>
<!-- Node32 -->
<g id="node32" class="node">
<title>Node32</title>
<g id="a_node32"><a xlink:href="ResetButton_8cpp.xhtml" target="_top" xlink:title=" ">
<polygon fill="white" stroke="black" points="1181,-56.5 1181,-75.5 1295,-75.5 1295,-56.5 1181,-56.5"/>
<text text-anchor="middle" x="1238" y="-63.5" font-family="Helvetica,sans-Serif" font-size="10.00">src/ResetButton.cpp</text>
</a>
</g>
</g>
<!-- Node31&#45;&gt;Node32 -->
<g id="edge64" class="edge">
<title>Node31&#45;&gt;Node32</title>
<path fill="none" stroke="midnightblue" d="M1095.32,-109.57C1129.46,-99.38 1178.66,-84.7 1209.45,-75.52"/>
<polygon fill="midnightblue" stroke="midnightblue" points="1094.26,-106.23 1085.68,-112.44 1096.26,-112.94 1094.26,-106.23"/>
</g>
<!-- Node33&#45;&gt;Node3 -->
<g id="edge70" class="edge">
<title>Node33&#45;&gt;Node3</title>
<path fill="none" stroke="midnightblue" d="M272.17,-326.4C274.68,-317.36 277.57,-306.94 279.57,-299.75"/>
<polygon fill="midnightblue" stroke="midnightblue" points="268.78,-325.51 269.48,-336.08 275.53,-327.38 268.78,-325.51"/>
</g>
</g>
</svg>
        <g id="navigator" transform="translate(0 0)" fill="#404254">
                <rect fill="#f2f5e9" fill-opacity="0.5" stroke="#606060" stroke-width=".5" x="0" y="0" width="60" height="60"/>
                <use id="zoomplus" xlink:href="#zoomPlus" x="17" y="9" onmousedown="handleZoom(evt,'in')"/>
                <use id="zoomminus" xlink:href="#zoomMin" x="42" y="9" onmousedown="handleZoom(evt,'out')"/>
                <use id="reset" xlink:href="#resetDef" x="30" y="36" onmousedown="handleReset()"/>
                <g id="arrowUp" xlink:href="#dirArrow" transform="translate(30 24)" onmousedown="handlePan(0,-1)">
                  <use xlink:href="#rim" fill="#404040">
                        <set attributeName="fill" to="#808080" begin="arrowUp.mouseover" end="arrowUp.mouseout"/>
                  </use>
                  <path fill="none" stroke="white" stroke-width="1.5" d="M0,-3.0v7 M-2.5,-0.5L0,-3.0L2.5,-0.5"/>
                </g>
                <g id="arrowRight" xlink:href="#dirArrow" transform="rotate(90) translate(36 -43)" onmousedown="handlePan(1,0)">
                  <use xlink:href="#rim" fill="#404040">
                        <set attributeName="fill" to="#808080" begin="arrowRight.mouseover" end="arrowRight.mouseout"/>
                  </use>
                  <path fill="none" stroke="white" stroke-width="1.5" d="M0,-3.0v7 M-2.5,-0.5L0,-3.0L2.5,-0.5"/>
                </g>
                <g id="arrowDown" xlink:href="#dirArrow" transform="rotate(180) translate(-30 -48)" onmousedown="handlePan(0,1)">
                  <use xlink:href="#rim" fill="#404040">
                        <set attributeName="fill" to="#808080" begin="arrowDown.mouseover" end="arrowDown.mouseout"/>
                  </use>
                  <path fill="none" stroke="white" stroke-width="1.5" d="M0,-3.0v7 M-2.5,-0.5L0,-3.0L2.5,-0.5"/>
                </g>
                <g id="arrowLeft" xlink:href="#dirArrow" transform="rotate(270) translate(-36 17)" onmousedown="handlePan(-1,0)">
                  <use xlink:href="#rim" fill="#404040">
                        <set attributeName="fill" to="#808080" begin="arrowLeft.mouseover" end="arrowLeft.mouseout"/>
                  </use>
                  <path fill="none" stroke="white" stroke-width="1.5" d="M0,-3.0v7 M-2.5,-0.5L0,-3.0L2.5,-0.5"/>
                </g>
        </g>
        <svg viewBox="0 0 15 15" width="100%" height="30px" preserveAspectRatio="xMaxYMin meet">
         <g id="arrow_out" transform="scale(0.3 0.3)">
          <a xlink:href="Pin_8h__dep__incl_org.svg" target="_base">
           <rect id="button" ry="5" rx="5" y="6" x="6" height="38" width="38"
                fill="#f2f5e9" fill-opacity="0.5" stroke="#606060" stroke-width="1.0"/>
           <path id="arrow"
             d="M 11.500037,31.436501 C 11.940474,20.09759 22.043105,11.32322 32.158766,21.979434 L 37.068811,17.246167 C 37.068811,17.246167 37.088388,32 37.088388,32 L 22.160133,31.978069 C 22.160133,31.978069 26.997745,27.140456 26.997745,27.140456 C 18.528582,18.264221 13.291696,25.230495 11.500037,31.436501 z"
             style="fill:#404040;"/>
          </a>
         </g>
        </svg>
</svg>
