<?xml version="1.0" encoding="UTF-8" standalone="no"?>
<!DOCTYPE svg PUBLIC "-//W3C//DTD SVG 1.1//EN"
 "http://www.w3.org/Graphics/SVG/1.1/DTD/svg11.dtd">
<!-- Generated by graphviz version 2.43.0 (0)
 -->
<!-- Title: src/Encoder.cpp Pages: 1 -->
<svg width="179pt" height="140pt"
 viewBox="0.00 0.00 178.50 140.00" xmlns="http://www.w3.org/2000/svg" xmlns:xlink="http://www.w3.org/1999/xlink">
<g id="graph0" class="graph" transform="scale(1 1) rotate(0) translate(4 136)">
<title>src/Encoder.cpp</title>
<polygon fill="white" stroke="transparent" points="-4,4 -4,-136 174.5,-136 174.5,4 -4,4"/>
<!-- Node1 -->
<g id="node1" class="node">
<title>Node1</title>
<g id="a_node1"><a xlink:title=" ">
<polygon fill="#bfbfbf" stroke="black" points="65,-112.5 65,-131.5 157,-131.5 157,-112.5 65,-112.5"/>
<text text-anchor="middle" x="111" y="-119.5" font-family="Helvetica,sans-Serif" font-size="10.00">src/Encoder.cpp</text>
</a>
</g>
</g>
<!-- Node2 -->
<g id="node2" class="node">
<title>Node2</title>
<g id="a_node2"><a xlink:href="Encoder_8h.html" target="_top" xlink:title=" ">
<polygon fill="white" stroke="black" points="0,-56.5 0,-75.5 64,-75.5 64,-56.5 0,-56.5"/>
<text text-anchor="middle" x="32" y="-63.5" font-family="Helvetica,sans-Serif" font-size="10.00">Encoder.h</text>
</a>
</g>
</g>
<!-- Node1&#45;&gt;Node2 -->
<g id="edge1" class="edge">
<title>Node1&#45;&gt;Node2</title>
<path fill="none" stroke="midnightblue" d="M98.31,-112.32C86.1,-103.98 67.42,-91.21 53,-81.35"/>
<polygon fill="midnightblue" stroke="midnightblue" points="54.89,-78.41 44.66,-75.65 50.94,-84.19 54.89,-78.41"/>
</g>
<!-- Node4 -->
<g id="node4" class="node">
<title>Node4</title>
<g id="a_node4"><a xlink:href="Debug_8h.html" target="_top" xlink:title=" ">
<polygon fill="white" stroke="black" points="82.5,-56.5 82.5,-75.5 139.5,-75.5 139.5,-56.5 82.5,-56.5"/>
<text text-anchor="middle" x="111" y="-63.5" font-family="Helvetica,sans-Serif" font-size="10.00">Debug.h</text>
</a>
</g>
</g>
<!-- Node1&#45;&gt;Node4 -->
<g id="edge3" class="edge">
<title>Node1&#45;&gt;Node4</title>
<path fill="none" stroke="midnightblue" d="M111,-112.08C111,-105.01 111,-94.86 111,-85.99"/>
<polygon fill="midnightblue" stroke="midnightblue" points="114.5,-85.75 111,-75.75 107.5,-85.75 114.5,-85.75"/>
</g>
<!-- Node5 -->
<g id="node5" class="node">
<title>Node5</title>
<g id="a_node5"><a xlink:title=" ">
<polygon fill="white" stroke="#bfbfbf" points="107.5,-0.5 107.5,-19.5 170.5,-19.5 170.5,-0.5 107.5,-0.5"/>
<text text-anchor="middle" x="139" y="-7.5" font-family="Helvetica,sans-Serif" font-size="10.00">Arduino.h</text>
</a>
</g>
</g>
<!-- Node1&#45;&gt;Node5 -->
<g id="edge5" class="edge">
<title>Node1&#45;&gt;Node5</title>
<path fill="none" stroke="midnightblue" d="M121.71,-112.3C130.94,-104.07 143.59,-90.79 149,-76 154.57,-60.77 150.88,-42.43 146.49,-29.12"/>
<polygon fill="midnightblue" stroke="midnightblue" points="149.75,-27.84 142.99,-19.68 143.19,-30.27 149.75,-27.84"/>
</g>
<!-- Node3 -->
<g id="node3" class="node">
<title>Node3</title>
<g id="a_node3"><a xlink:href="Pin_8h.html" target="_top" xlink:title=" ">
<polygon fill="white" stroke="black" points="11.5,-0.5 11.5,-19.5 52.5,-19.5 52.5,-0.5 11.5,-0.5"/>
<text text-anchor="middle" x="32" y="-7.5" font-family="Helvetica,sans-Serif" font-size="10.00">Pin.h</text>
</a>
</g>
</g>
<!-- Node2&#45;&gt;Node3 -->
<g id="edge2" class="edge">
<title>Node2&#45;&gt;Node3</title>
<path fill="none" stroke="midnightblue" d="M32,-56.08C32,-49.01 32,-38.86 32,-29.99"/>
<polygon fill="midnightblue" stroke="midnightblue" points="35.5,-29.75 32,-19.75 28.5,-29.75 35.5,-29.75"/>
</g>
<!-- Node4&#45;&gt;Node5 -->
<g id="edge4" class="edge">
<title>Node4&#45;&gt;Node5</title>
<path fill="none" stroke="midnightblue" d="M115.62,-56.08C119.46,-48.69 125.02,-37.95 129.76,-28.81"/>
<polygon fill="midnightblue" stroke="midnightblue" points="132.97,-30.24 134.46,-19.75 126.75,-27.02 132.97,-30.24"/>
</g>
</g>
</svg>
