<?xml version="1.0" encoding="UTF-8" standalone="no"?>
<!DOCTYPE svg PUBLIC "-//W3C//DTD SVG 1.1//EN"
 "http://www.w3.org/Graphics/SVG/1.1/DTD/svg11.dtd">
<!-- Generated by graphviz version 2.43.0 (0)
 -->
<!-- Title: include/Gates.h Pages: 1 -->
<svg width="313pt" height="196pt"
 viewBox="0.00 0.00 312.94 196.00" xmlns="http://www.w3.org/2000/svg" xmlns:xlink="http://www.w3.org/1999/xlink">
<g id="graph0" class="graph" transform="scale(1 1) rotate(0) translate(4 192)">
<title>include/Gates.h</title>
<polygon fill="white" stroke="transparent" points="-4,4 -4,-192 308.94,-192 308.94,4 -4,4"/>
<!-- Node1 -->
<g id="node1" class="node">
<title>Node1</title>
<g id="a_node1"><a xlink:title=" ">
<polygon fill="#bfbfbf" stroke="black" points="71.5,-168.5 71.5,-187.5 163.5,-187.5 163.5,-168.5 71.5,-168.5"/>
<text text-anchor="middle" x="117.5" y="-175.5" font-family="Helvetica,sans-Serif" font-size="10.00">include/Gates.h</text>
</a>
</g>
</g>
<!-- Node2 -->
<g id="node2" class="node">
<title>Node2</title>
<g id="a_node2"><a xlink:title=" ">
<polygon fill="white" stroke="#bfbfbf" points="0,-112.5 0,-131.5 63,-131.5 63,-112.5 0,-112.5"/>
<text text-anchor="middle" x="31.5" y="-119.5" font-family="Helvetica,sans-Serif" font-size="10.00">Arduino.h</text>
</a>
</g>
</g>
<!-- Node1&#45;&gt;Node2 -->
<g id="edge1" class="edge">
<title>Node1&#45;&gt;Node2</title>
<path fill="none" stroke="midnightblue" d="M103.68,-168.32C90.27,-159.9 69.68,-146.97 53.91,-137.07"/>
<polygon fill="midnightblue" stroke="midnightblue" points="55.61,-134.01 45.28,-131.65 51.89,-139.94 55.61,-134.01"/>
</g>
<!-- Node3 -->
<g id="node3" class="node">
<title>Node3</title>
<g id="a_node3"><a xlink:href="Gate_8h.html" target="_top" xlink:title=" ">
<polygon fill="white" stroke="black" points="232,-112.5 232,-131.5 281,-131.5 281,-112.5 232,-112.5"/>
<text text-anchor="middle" x="256.5" y="-119.5" font-family="Helvetica,sans-Serif" font-size="10.00">Gate.h</text>
</a>
</g>
</g>
<!-- Node1&#45;&gt;Node3 -->
<g id="edge2" class="edge">
<title>Node1&#45;&gt;Node3</title>
<path fill="none" stroke="midnightblue" d="M139.52,-168.44C162.6,-159.48 199.06,-145.31 225.14,-135.18"/>
<polygon fill="midnightblue" stroke="midnightblue" points="226.52,-138.4 234.58,-131.52 223.99,-131.88 226.52,-138.4"/>
</g>
<!-- Node6 -->
<g id="node6" class="node">
<title>Node6</title>
<g id="a_node6"><a xlink:title=" ">
<polygon fill="white" stroke="#bfbfbf" points="106,-0.5 106,-19.5 153,-19.5 153,-0.5 106,-0.5"/>
<text text-anchor="middle" x="129.5" y="-7.5" font-family="Helvetica,sans-Serif" font-size="10.00">vector</text>
</a>
</g>
</g>
<!-- Node1&#45;&gt;Node6 -->
<g id="edge10" class="edge">
<title>Node1&#45;&gt;Node6</title>
<path fill="none" stroke="midnightblue" d="M115.76,-168.42C114.03,-159.4 111.49,-144.77 110.5,-132 107.67,-95.4 117.3,-53.13 123.87,-29.48"/>
<polygon fill="midnightblue" stroke="midnightblue" points="127.27,-30.33 126.7,-19.75 120.55,-28.38 127.27,-30.33"/>
</g>
<!-- Node7 -->
<g id="node7" class="node">
<title>Node7</title>
<g id="a_node7"><a xlink:href="LEDs_8h.html" target="_top" xlink:title=" ">
<polygon fill="white" stroke="black" points="119.5,-112.5 119.5,-131.5 169.5,-131.5 169.5,-112.5 119.5,-112.5"/>
<text text-anchor="middle" x="144.5" y="-119.5" font-family="Helvetica,sans-Serif" font-size="10.00">LEDs.h</text>
</a>
</g>
</g>
<!-- Node1&#45;&gt;Node7 -->
<g id="edge6" class="edge">
<title>Node1&#45;&gt;Node7</title>
<path fill="none" stroke="midnightblue" d="M121.96,-168.08C125.65,-160.69 131.02,-149.95 135.59,-140.81"/>
<polygon fill="midnightblue" stroke="midnightblue" points="138.78,-142.26 140.12,-131.75 132.52,-139.13 138.78,-142.26"/>
</g>
<!-- Node4 -->
<g id="node4" class="node">
<title>Node4</title>
<g id="a_node4"><a xlink:href="Pin_8h.html" target="_top" xlink:title=" ">
<polygon fill="white" stroke="black" points="236,-0.5 236,-19.5 277,-19.5 277,-0.5 236,-0.5"/>
<text text-anchor="middle" x="256.5" y="-7.5" font-family="Helvetica,sans-Serif" font-size="10.00">Pin.h</text>
</a>
</g>
</g>
<!-- Node3&#45;&gt;Node4 -->
<g id="edge3" class="edge">
<title>Node3&#45;&gt;Node4</title>
<path fill="none" stroke="midnightblue" d="M270.29,-112.19C281.33,-104.24 296,-91.45 302.5,-76 310.46,-57.08 293.71,-38.24 278.23,-25.75"/>
<polygon fill="midnightblue" stroke="midnightblue" points="280.03,-22.72 269.93,-19.51 275.82,-28.31 280.03,-22.72"/>
</g>
<!-- Node5 -->
<g id="node5" class="node">
<title>Node5</title>
<g id="a_node5"><a xlink:href="Constants_8h.html" target="_top" xlink:title=" ">
<polygon fill="white" stroke="black" points="219.5,-56.5 219.5,-75.5 293.5,-75.5 293.5,-56.5 219.5,-56.5"/>
<text text-anchor="middle" x="256.5" y="-63.5" font-family="Helvetica,sans-Serif" font-size="10.00">Constants.h</text>
</a>
</g>
</g>
<!-- Node3&#45;&gt;Node5 -->
<g id="edge4" class="edge">
<title>Node3&#45;&gt;Node5</title>
<path fill="none" stroke="midnightblue" d="M256.5,-112.08C256.5,-105.01 256.5,-94.86 256.5,-85.99"/>
<polygon fill="midnightblue" stroke="midnightblue" points="260,-85.75 256.5,-75.75 253,-85.75 260,-85.75"/>
</g>
<!-- Node5&#45;&gt;Node6 -->
<g id="edge5" class="edge">
<title>Node5&#45;&gt;Node6</title>
<path fill="none" stroke="midnightblue" d="M236.38,-56.44C215.48,-47.56 182.57,-33.56 158.78,-23.45"/>
<polygon fill="midnightblue" stroke="midnightblue" points="160.1,-20.21 149.53,-19.52 157.36,-26.65 160.1,-20.21"/>
</g>
<!-- Node7&#45;&gt;Node6 -->
<g id="edge9" class="edge">
<title>Node7&#45;&gt;Node6</title>
<path fill="none" stroke="midnightblue" d="M143.32,-112.37C140.9,-94.62 135.32,-53.67 132.04,-29.6"/>
<polygon fill="midnightblue" stroke="midnightblue" points="135.49,-29.03 130.67,-19.59 128.55,-29.97 135.49,-29.03"/>
</g>
<!-- Node8 -->
<g id="node8" class="node">
<title>Node8</title>
<g id="a_node8"><a xlink:href="LED_8h.html" target="_top" xlink:title=" ">
<polygon fill="white" stroke="black" points="157.5,-56.5 157.5,-75.5 201.5,-75.5 201.5,-56.5 157.5,-56.5"/>
<text text-anchor="middle" x="179.5" y="-63.5" font-family="Helvetica,sans-Serif" font-size="10.00">LED.h</text>
</a>
</g>
</g>
<!-- Node7&#45;&gt;Node8 -->
<g id="edge7" class="edge">
<title>Node7&#45;&gt;Node8</title>
<path fill="none" stroke="midnightblue" d="M150.28,-112.08C155.17,-104.53 162.33,-93.49 168.33,-84.23"/>
<polygon fill="midnightblue" stroke="midnightblue" points="171.33,-86.05 173.83,-75.75 165.45,-82.24 171.33,-86.05"/>
</g>
<!-- Node8&#45;&gt;Node4 -->
<g id="edge8" class="edge">
<title>Node8&#45;&gt;Node4</title>
<path fill="none" stroke="midnightblue" d="M191.87,-56.32C203.66,-48.06 221.63,-35.45 235.64,-25.63"/>
<polygon fill="midnightblue" stroke="midnightblue" points="237.98,-28.26 244.16,-19.65 233.96,-22.53 237.98,-28.26"/>
</g>
</g>
</svg>
