<?xml version="1.0" encoding="UTF-8" standalone="no"?>
<!DOCTYPE svg PUBLIC "-//W3C//DTD SVG 1.1//EN"
 "http://www.w3.org/Graphics/SVG/1.1/DTD/svg11.dtd">
<!-- Generated by graphviz version 2.43.0 (0)
 -->
<!-- Title: include/Gate.h Pages: 1 -->
<svg width="142pt" height="140pt"
 viewBox="0.00 0.00 141.50 140.00" xmlns="http://www.w3.org/2000/svg" xmlns:xlink="http://www.w3.org/1999/xlink">
<g id="graph0" class="graph" transform="scale(1 1) rotate(0) translate(4 136)">
<title>include/Gate.h</title>
<polygon fill="white" stroke="transparent" points="-4,4 -4,-136 137.5,-136 137.5,4 -4,4"/>
<!-- Node1 -->
<g id="node1" class="node">
<title>Node1</title>
<g id="a_node1"><a xlink:title=" ">
<polygon fill="#bfbfbf" stroke="black" points="15,-112.5 15,-131.5 102,-131.5 102,-112.5 15,-112.5"/>
<text text-anchor="middle" x="58.5" y="-119.5" font-family="Helvetica,sans-Serif" font-size="10.00">include/Gate.h</text>
</a>
</g>
</g>
<!-- Node2 -->
<g id="node2" class="node">
<title>Node2</title>
<g id="a_node2"><a xlink:href="Pin_8h.html" target="_top" xlink:title=" ">
<polygon fill="white" stroke="black" points="0,-56.5 0,-75.5 41,-75.5 41,-56.5 0,-56.5"/>
<text text-anchor="middle" x="20.5" y="-63.5" font-family="Helvetica,sans-Serif" font-size="10.00">Pin.h</text>
</a>
</g>
</g>
<!-- Node1&#45;&gt;Node2 -->
<g id="edge1" class="edge">
<title>Node1&#45;&gt;Node2</title>
<path fill="none" stroke="midnightblue" d="M52.23,-112.08C46.86,-104.46 38.98,-93.26 32.42,-83.94"/>
<polygon fill="midnightblue" stroke="midnightblue" points="35.28,-81.91 26.66,-75.75 29.55,-85.94 35.28,-81.91"/>
</g>
<!-- Node3 -->
<g id="node3" class="node">
<title>Node3</title>
<g id="a_node3"><a xlink:href="Constants_8h.html" target="_top" xlink:title=" ">
<polygon fill="white" stroke="black" points="59.5,-56.5 59.5,-75.5 133.5,-75.5 133.5,-56.5 59.5,-56.5"/>
<text text-anchor="middle" x="96.5" y="-63.5" font-family="Helvetica,sans-Serif" font-size="10.00">Constants.h</text>
</a>
</g>
</g>
<!-- Node1&#45;&gt;Node3 -->
<g id="edge2" class="edge">
<title>Node1&#45;&gt;Node3</title>
<path fill="none" stroke="midnightblue" d="M64.77,-112.08C70.14,-104.46 78.02,-93.26 84.58,-83.94"/>
<polygon fill="midnightblue" stroke="midnightblue" points="87.45,-85.94 90.34,-75.75 81.72,-81.91 87.45,-85.94"/>
</g>
<!-- Node4 -->
<g id="node4" class="node">
<title>Node4</title>
<g id="a_node4"><a xlink:title=" ">
<polygon fill="white" stroke="#bfbfbf" points="73,-0.5 73,-19.5 120,-19.5 120,-0.5 73,-0.5"/>
<text text-anchor="middle" x="96.5" y="-7.5" font-family="Helvetica,sans-Serif" font-size="10.00">vector</text>
</a>
</g>
</g>
<!-- Node3&#45;&gt;Node4 -->
<g id="edge3" class="edge">
<title>Node3&#45;&gt;Node4</title>
<path fill="none" stroke="midnightblue" d="M96.5,-56.08C96.5,-49.01 96.5,-38.86 96.5,-29.99"/>
<polygon fill="midnightblue" stroke="midnightblue" points="100,-29.75 96.5,-19.75 93,-29.75 100,-29.75"/>
</g>
</g>
</svg>
