<?xml version="1.0" encoding="UTF-8" standalone="no"?>
<!DOCTYPE svg PUBLIC "-//W3C//DTD SVG 1.1//EN"
 "http://www.w3.org/Graphics/SVG/1.1/DTD/svg11.dtd">
<!-- Generated by graphviz version 2.43.0 (0)
 -->
<!-- Title: include/MIDIHandler.h Pages: 1 -->
<svg width="526pt" height="140pt"
 viewBox="0.00 0.00 525.50 140.00" xmlns="http://www.w3.org/2000/svg" xmlns:xlink="http://www.w3.org/1999/xlink">
<g id="graph0" class="graph" transform="scale(1 1) rotate(0) translate(4 136)">
<title>include/MIDIHandler.h</title>
<polygon fill="white" stroke="transparent" points="-4,4 -4,-136 521.5,-136 521.5,4 -4,4"/>
<!-- Node1 -->
<g id="node1" class="node">
<title>Node1</title>
<g id="a_node1"><a xlink:title=" ">
<polygon fill="#bfbfbf" stroke="black" points="159.5,-112.5 159.5,-131.5 283.5,-131.5 283.5,-112.5 159.5,-112.5"/>
<text text-anchor="middle" x="221.5" y="-119.5" font-family="Helvetica,sans-Serif" font-size="10.00">include/MIDIHandler.h</text>
</a>
</g>
</g>
<!-- Node2 -->
<g id="node2" class="node">
<title>Node2</title>
<g id="a_node2"><a xlink:href="main_8cpp.html" target="_top" xlink:title=" ">
<polygon fill="white" stroke="black" points="105,-0.5 105,-19.5 184,-19.5 184,-0.5 105,-0.5"/>
<text text-anchor="middle" x="144.5" y="-7.5" font-family="Helvetica,sans-Serif" font-size="10.00">src/main.cpp</text>
</a>
</g>
</g>
<!-- Node1&#45;&gt;Node2 -->
<g id="edge1" class="edge">
<title>Node1&#45;&gt;Node2</title>
<path fill="none" stroke="midnightblue" d="M197.33,-106.8C185.92,-99 172.99,-88.39 164.5,-76 152.36,-58.27 147.37,-32.9 145.5,-19.71"/>
<polygon fill="midnightblue" stroke="midnightblue" points="195.73,-109.93 206.03,-112.43 199.53,-104.06 195.73,-109.93"/>
</g>
<!-- Node3 -->
<g id="node3" class="node">
<title>Node3</title>
<g id="a_node3"><a xlink:href="MIDIHandler_8cpp.html" target="_top" xlink:title=" ">
<polygon fill="white" stroke="black" points="403.5,-56.5 403.5,-75.5 517.5,-75.5 517.5,-56.5 403.5,-56.5"/>
<text text-anchor="middle" x="460.5" y="-63.5" font-family="Helvetica,sans-Serif" font-size="10.00">src/MIDIHandler.cpp</text>
</a>
</g>
</g>
<!-- Node1&#45;&gt;Node3 -->
<g id="edge2" class="edge">
<title>Node1&#45;&gt;Node3</title>
<path fill="none" stroke="midnightblue" d="M269.22,-110.22C314.39,-100.01 381.27,-84.9 422.81,-75.52"/>
<polygon fill="midnightblue" stroke="midnightblue" points="268.35,-106.83 259.37,-112.44 269.9,-113.65 268.35,-106.83"/>
</g>
<!-- Node4 -->
<g id="node4" class="node">
<title>Node4</title>
<g id="a_node4"><a xlink:href="Mode0_8h.html" target="_top" xlink:title=" ">
<polygon fill="white" stroke="black" points="19,-56.5 19,-75.5 116,-75.5 116,-56.5 19,-56.5"/>
<text text-anchor="middle" x="67.5" y="-63.5" font-family="Helvetica,sans-Serif" font-size="10.00">include/Mode0.h</text>
</a>
</g>
</g>
<!-- Node1&#45;&gt;Node4 -->
<g id="edge3" class="edge">
<title>Node1&#45;&gt;Node4</title>
<path fill="none" stroke="midnightblue" d="M187.39,-109.04C158.41,-98.88 117.54,-84.55 91.79,-75.52"/>
<polygon fill="midnightblue" stroke="midnightblue" points="186.5,-112.44 197.1,-112.44 188.82,-105.83 186.5,-112.44"/>
</g>
<!-- Node6 -->
<g id="node6" class="node">
<title>Node6</title>
<g id="a_node6"><a xlink:href="Mode1_8h.html" target="_top" xlink:title=" ">
<polygon fill="white" stroke="black" points="173,-56.5 173,-75.5 270,-75.5 270,-56.5 173,-56.5"/>
<text text-anchor="middle" x="221.5" y="-63.5" font-family="Helvetica,sans-Serif" font-size="10.00">include/Mode1.h</text>
</a>
</g>
</g>
<!-- Node1&#45;&gt;Node6 -->
<g id="edge6" class="edge">
<title>Node1&#45;&gt;Node6</title>
<path fill="none" stroke="midnightblue" d="M221.5,-101.8C221.5,-92.91 221.5,-82.78 221.5,-75.75"/>
<polygon fill="midnightblue" stroke="midnightblue" points="218,-102.08 221.5,-112.08 225,-102.08 218,-102.08"/>
</g>
<!-- Node8 -->
<g id="node8" class="node">
<title>Node8</title>
<g id="a_node8"><a xlink:href="Mode2_8h.html" target="_top" xlink:title=" ">
<polygon fill="white" stroke="black" points="288,-56.5 288,-75.5 385,-75.5 385,-56.5 288,-56.5"/>
<text text-anchor="middle" x="336.5" y="-63.5" font-family="Helvetica,sans-Serif" font-size="10.00">include/Mode2.h</text>
</a>
</g>
</g>
<!-- Node1&#45;&gt;Node8 -->
<g id="edge9" class="edge">
<title>Node1&#45;&gt;Node8</title>
<path fill="none" stroke="midnightblue" d="M248.98,-108.1C270.47,-98.01 299.72,-84.27 318.36,-75.52"/>
<polygon fill="midnightblue" stroke="midnightblue" points="247.29,-105.02 239.72,-112.44 250.26,-111.36 247.29,-105.02"/>
</g>
<!-- Node4&#45;&gt;Node2 -->
<g id="edge4" class="edge">
<title>Node4&#45;&gt;Node2</title>
<path fill="none" stroke="midnightblue" d="M88.4,-50.34C102.41,-40.52 120.38,-27.91 132.16,-19.65"/>
<polygon fill="midnightblue" stroke="midnightblue" points="86.05,-47.72 79.87,-56.32 90.07,-53.45 86.05,-47.72"/>
</g>
<!-- Node5 -->
<g id="node5" class="node">
<title>Node5</title>
<g id="a_node5"><a xlink:href="Mode0_8cpp.html" target="_top" xlink:title=" ">
<polygon fill="white" stroke="black" points="0,-0.5 0,-19.5 87,-19.5 87,-0.5 0,-0.5"/>
<text text-anchor="middle" x="43.5" y="-7.5" font-family="Helvetica,sans-Serif" font-size="10.00">src/Mode0.cpp</text>
</a>
</g>
</g>
<!-- Node4&#45;&gt;Node5 -->
<g id="edge5" class="edge">
<title>Node4&#45;&gt;Node5</title>
<path fill="none" stroke="midnightblue" d="M59.36,-46.69C55.32,-37.59 50.62,-27.01 47.39,-19.75"/>
<polygon fill="midnightblue" stroke="midnightblue" points="56.28,-48.37 63.54,-56.08 62.67,-45.52 56.28,-48.37"/>
</g>
<!-- Node6&#45;&gt;Node2 -->
<g id="edge7" class="edge">
<title>Node6&#45;&gt;Node2</title>
<path fill="none" stroke="midnightblue" d="M200.6,-50.34C186.59,-40.52 168.62,-27.91 156.84,-19.65"/>
<polygon fill="midnightblue" stroke="midnightblue" points="198.93,-53.45 209.13,-56.32 202.95,-47.72 198.93,-53.45"/>
</g>
<!-- Node7 -->
<g id="node7" class="node">
<title>Node7</title>
<g id="a_node7"><a xlink:href="Mode1_8cpp.html" target="_top" xlink:title=" ">
<polygon fill="white" stroke="black" points="202,-0.5 202,-19.5 289,-19.5 289,-0.5 202,-0.5"/>
<text text-anchor="middle" x="245.5" y="-7.5" font-family="Helvetica,sans-Serif" font-size="10.00">src/Mode1.cpp</text>
</a>
</g>
</g>
<!-- Node6&#45;&gt;Node7 -->
<g id="edge8" class="edge">
<title>Node6&#45;&gt;Node7</title>
<path fill="none" stroke="midnightblue" d="M229.64,-46.69C233.68,-37.59 238.38,-27.01 241.61,-19.75"/>
<polygon fill="midnightblue" stroke="midnightblue" points="226.33,-45.52 225.46,-56.08 232.72,-48.37 226.33,-45.52"/>
</g>
<!-- Node8&#45;&gt;Node2 -->
<g id="edge10" class="edge">
<title>Node8&#45;&gt;Node2</title>
<path fill="none" stroke="midnightblue" d="M296.32,-53.7C260.08,-43.51 207.59,-28.74 174.78,-19.52"/>
<polygon fill="midnightblue" stroke="midnightblue" points="295.5,-57.11 306.08,-56.44 297.4,-50.37 295.5,-57.11"/>
</g>
<!-- Node9 -->
<g id="node9" class="node">
<title>Node9</title>
<g id="a_node9"><a xlink:href="Mode2_8cpp.html" target="_top" xlink:title=" ">
<polygon fill="white" stroke="black" points="307,-0.5 307,-19.5 394,-19.5 394,-0.5 307,-0.5"/>
<text text-anchor="middle" x="350.5" y="-7.5" font-family="Helvetica,sans-Serif" font-size="10.00">src/Mode2.cpp</text>
</a>
</g>
</g>
<!-- Node8&#45;&gt;Node9 -->
<g id="edge11" class="edge">
<title>Node8&#45;&gt;Node9</title>
<path fill="none" stroke="midnightblue" d="M341.32,-46.4C343.67,-37.36 346.37,-26.94 348.23,-19.75"/>
<polygon fill="midnightblue" stroke="midnightblue" points="337.93,-45.52 338.81,-56.08 344.71,-47.28 337.93,-45.52"/>
</g>
</g>
</svg>
