<?xml version="1.0" encoding="UTF-8" standalone="no"?>
<!DOCTYPE svg PUBLIC "-//W3C//DTD SVG 1.1//EN"
 "http://www.w3.org/Graphics/SVG/1.1/DTD/svg11.dtd">
<!-- Generated by graphviz version 2.43.0 (0)
 -->
<!-- Title: src/Mode2.cpp Pages: 1 -->
<!--zoomable 420 -->
<svg id="main" version="1.1" xmlns="http://www.w3.org/2000/svg" xmlns:xlink="http://www.w3.org/1999/xlink" xml:space="preserve" onload="init(evt)">
<style type="text/css"><![CDATA[
.edge:hover path { stroke: red; }
.edge:hover polygon { stroke: red; fill: red; }
]]></style>
<script type="text/javascript"><![CDATA[
var edges = document.getElementsByTagName('g');
if (edges && edges.length) {
  for (var i=0;i<edges.length;i++) {
    if (edges[i].id.substr(0,4)=='edge') {
      edges[i].setAttribute('class','edge');
    }
  }
}
]]></script>
        <defs>
                <circle id="rim" cx="0" cy="0" r="7"/>
                <circle id="rim2" cx="0" cy="0" r="3.5"/>
                <g id="zoomPlus">
                        <use xlink:href="#rim" fill="#404040">
                                <set attributeName="fill" to="#808080" begin="zoomplus.mouseover" end="zoomplus.mouseout"/>
                        </use>
                        <path d="M-4,0h8M0,-4v8" fill="none" stroke="white" stroke-width="1.5" pointer-events="none"/>
                </g>
                <g id="zoomMin">
                        <use xlink:href="#rim" fill="#404040">
                                <set attributeName="fill" to="#808080" begin="zoomminus.mouseover" end="zoomminus.mouseout"/>
                        </use>
                        <path d="M-4,0h8" fill="none" stroke="white" stroke-width="1.5" pointer-events="none"/>
                </g>
                <g id="dirArrow">
                        <path fill="none" stroke="white" stroke-width="1.5" d="M0,-3.0v7 M-2.5,-0.5L0,-3.0L2.5,-0.5"/>
                </g>
               <g id="resetDef">
                       <use xlink:href="#rim2" fill="#404040">
                               <set attributeName="fill" to="#808080" begin="reset.mouseover" end="reset.mouseout"/>
                       </use>
               </g>
        </defs>

<script type="text/javascript">
var viewWidth = 824;
var viewHeight = 420;
var sectionId = 'dynsection-0';
</script>
<script xlink:href="svgpan.js"/>
<svg id="graph" class="graph">
<g id="viewport">
<title>src/Mode2.cpp</title>
<polygon fill="white" stroke="transparent" points="-4,4 -4,-416 820,-416 820,4 -4,4"/>
<!-- Node1 -->
<g id="node1" class="node">
<title>Node1</title>
<g id="a_node1"><a xlink:title=" ">
<polygon fill="#bfbfbf" stroke="black" points="727.5,-392.5 727.5,-411.5 814.5,-411.5 814.5,-392.5 727.5,-392.5"/>
<text text-anchor="middle" x="771" y="-399.5" font-family="Helvetica,sans-Serif" font-size="10.00">src/Mode2.cpp</text>
</a>
</g>
</g>
<!-- Node2 -->
<g id="node2" class="node">
<title>Node2</title>
<g id="a_node2"><a xlink:href="Mode2_8h.html" target="_top" xlink:title=" ">
<polygon fill="white" stroke="black" points="451.5,-336.5 451.5,-355.5 510.5,-355.5 510.5,-336.5 451.5,-336.5"/>
<text text-anchor="middle" x="481" y="-343.5" font-family="Helvetica,sans-Serif" font-size="10.00">Mode2.h</text>
</a>
</g>
</g>
<!-- Node1&#45;&gt;Node2 -->
<g id="edge1" class="edge">
<title>Node1&#45;&gt;Node2</title>
<path fill="none" stroke="midnightblue" d="M727.27,-392.86C671.23,-382.42 574.88,-364.48 520.8,-354.41"/>
<polygon fill="midnightblue" stroke="midnightblue" points="521.37,-350.96 510.89,-352.57 520.08,-357.84 521.37,-350.96"/>
</g>
<!-- Node11 -->
<g id="node11" class="node">
<title>Node11</title>
<g id="a_node11"><a xlink:title=" ">
<polygon fill="white" stroke="#bfbfbf" points="709.5,-112.5 709.5,-131.5 772.5,-131.5 772.5,-112.5 709.5,-112.5"/>
<text text-anchor="middle" x="741" y="-119.5" font-family="Helvetica,sans-Serif" font-size="10.00">Arduino.h</text>
</a>
</g>
</g>
<!-- Node1&#45;&gt;Node11 -->
<g id="edge39" class="edge">
<title>Node1&#45;&gt;Node11</title>
<path fill="none" stroke="midnightblue" d="M777.26,-392.37C789.62,-374.44 816,-331.44 816,-291 816,-291 816,-291 816,-233 816,-202.9 813.72,-193.02 797,-168 788.74,-155.64 776.04,-145.04 764.82,-137.24"/>
<polygon fill="midnightblue" stroke="midnightblue" points="766.53,-134.17 756.25,-131.6 762.68,-140.02 766.53,-134.17"/>
</g>
<!-- Node20 -->
<g id="node20" class="node">
<title>Node20</title>
<g id="a_node20"><a xlink:href="Debug_8h.html" target="_top" xlink:title=" ">
<polygon fill="white" stroke="black" points="730.5,-168.5 730.5,-187.5 787.5,-187.5 787.5,-168.5 730.5,-168.5"/>
<text text-anchor="middle" x="759" y="-175.5" font-family="Helvetica,sans-Serif" font-size="10.00">Debug.h</text>
</a>
</g>
</g>
<!-- Node1&#45;&gt;Node20 -->
<g id="edge38" class="edge">
<title>Node1&#45;&gt;Node20</title>
<path fill="none" stroke="midnightblue" d="M770.53,-392.3C768.76,-359.63 762.51,-243.87 760.02,-197.96"/>
<polygon fill="midnightblue" stroke="midnightblue" points="763.51,-197.68 759.48,-187.88 756.53,-198.06 763.51,-197.68"/>
</g>
<!-- Node3 -->
<g id="node3" class="node">
<title>Node3</title>
<g id="a_node3"><a xlink:href="Mode_8h.html" target="_top" xlink:title=" ">
<polygon fill="white" stroke="black" points="547.5,-280.5 547.5,-299.5 600.5,-299.5 600.5,-280.5 547.5,-280.5"/>
<text text-anchor="middle" x="574" y="-287.5" font-family="Helvetica,sans-Serif" font-size="10.00">Mode.h</text>
</a>
</g>
</g>
<!-- Node2&#45;&gt;Node3 -->
<g id="edge2" class="edge">
<title>Node2&#45;&gt;Node3</title>
<path fill="none" stroke="midnightblue" d="M495.94,-336.32C510.59,-327.82 533.13,-314.73 550.24,-304.8"/>
<polygon fill="midnightblue" stroke="midnightblue" points="552.2,-307.7 559.1,-299.65 548.69,-301.65 552.2,-307.7"/>
</g>
<!-- Node4 -->
<g id="node4" class="node">
<title>Node4</title>
<g id="a_node4"><a xlink:href="LEDController_8h.html" target="_top" xlink:title=" ">
<polygon fill="white" stroke="black" points="147,-224.5 147,-243.5 239,-243.5 239,-224.5 147,-224.5"/>
<text text-anchor="middle" x="193" y="-231.5" font-family="Helvetica,sans-Serif" font-size="10.00">LEDController.h</text>
</a>
</g>
</g>
<!-- Node2&#45;&gt;Node4 -->
<g id="edge3" class="edge">
<title>Node2&#45;&gt;Node4</title>
<path fill="none" stroke="midnightblue" d="M456.89,-336.38C432.05,-327.45 392.22,-313 358,-300 311.05,-282.17 256.94,-260.67 223.85,-247.42"/>
<polygon fill="midnightblue" stroke="midnightblue" points="224.88,-244.06 214.29,-243.58 222.27,-250.55 224.88,-244.06"/>
</g>
<!-- Node9 -->
<g id="node9" class="node">
<title>Node9</title>
<g id="a_node9"><a xlink:href="Encoder_8h.html" target="_top" xlink:title=" ">
<polygon fill="white" stroke="black" points="0,-56.5 0,-75.5 64,-75.5 64,-56.5 0,-56.5"/>
<text text-anchor="middle" x="32" y="-63.5" font-family="Helvetica,sans-Serif" font-size="10.00">Encoder.h</text>
</a>
</g>
</g>
<!-- Node2&#45;&gt;Node9 -->
<g id="edge8" class="edge">
<title>Node2&#45;&gt;Node9</title>
<path fill="none" stroke="midnightblue" d="M451.37,-344.26C372.64,-341.86 160.11,-332.47 99,-300 65.33,-282.11 43,-273.13 43,-235 43,-235 43,-235 43,-177 43,-144.79 38.27,-107.53 35.02,-85.69"/>
<polygon fill="midnightblue" stroke="midnightblue" points="38.43,-84.87 33.44,-75.53 31.51,-85.95 38.43,-84.87"/>
</g>
<!-- Node10 -->
<g id="node10" class="node">
<title>Node10</title>
<g id="a_node10"><a xlink:href="Gates_8h.html" target="_top" xlink:title=" ">
<polygon fill="white" stroke="black" points="468,-168.5 468,-187.5 522,-187.5 522,-168.5 468,-168.5"/>
<text text-anchor="middle" x="495" y="-175.5" font-family="Helvetica,sans-Serif" font-size="10.00">Gates.h</text>
</a>
</g>
</g>
<!-- Node2&#45;&gt;Node10 -->
<g id="edge10" class="edge">
<title>Node2&#45;&gt;Node10</title>
<path fill="none" stroke="midnightblue" d="M510.56,-344C541.15,-341.2 587.54,-331.62 610,-300 640.89,-256.51 567.9,-213 524.45,-191.99"/>
<polygon fill="midnightblue" stroke="midnightblue" points="525.69,-188.7 515.15,-187.61 522.71,-195.04 525.69,-188.7"/>
</g>
<!-- Node13 -->
<g id="node13" class="node">
<title>Node13</title>
<g id="a_node13"><a xlink:href="Constants_8h.html" target="_top" xlink:title=" ">
<polygon fill="white" stroke="black" points="442,-56.5 442,-75.5 516,-75.5 516,-56.5 442,-56.5"/>
<text text-anchor="middle" x="479" y="-63.5" font-family="Helvetica,sans-Serif" font-size="10.00">Constants.h</text>
</a>
</g>
</g>
<!-- Node2&#45;&gt;Node13 -->
<g id="edge29" class="edge">
<title>Node2&#45;&gt;Node13</title>
<path fill="none" stroke="midnightblue" d="M484.7,-336.27C497.56,-305.44 539.16,-201.67 531,-168 523.3,-136.21 503.75,-103.22 490.94,-83.92"/>
<polygon fill="midnightblue" stroke="midnightblue" points="493.8,-81.91 485.27,-75.62 488.01,-85.85 493.8,-81.91"/>
</g>
<!-- Node14 -->
<g id="node14" class="node">
<title>Node14</title>
<g id="a_node14"><a xlink:href="MIDIHandler_8h.html" target="_top" xlink:title=" ">
<polygon fill="white" stroke="black" points="367,-280.5 367,-299.5 453,-299.5 453,-280.5 367,-280.5"/>
<text text-anchor="middle" x="410" y="-287.5" font-family="Helvetica,sans-Serif" font-size="10.00">MIDIHandler.h</text>
</a>
</g>
</g>
<!-- Node2&#45;&gt;Node14 -->
<g id="edge18" class="edge">
<title>Node2&#45;&gt;Node14</title>
<path fill="none" stroke="midnightblue" d="M469.59,-336.32C458.89,-328.18 442.66,-315.84 429.84,-306.09"/>
<polygon fill="midnightblue" stroke="midnightblue" points="431.69,-303.1 421.61,-299.83 427.46,-308.67 431.69,-303.1"/>
</g>
<!-- Node18 -->
<g id="node18" class="node">
<title>Node18</title>
<g id="a_node18"><a xlink:href="InputHandler_8h.html" target="_top" xlink:title=" ">
<polygon fill="white" stroke="black" points="108,-280.5 108,-299.5 196,-299.5 196,-280.5 108,-280.5"/>
<text text-anchor="middle" x="152" y="-287.5" font-family="Helvetica,sans-Serif" font-size="10.00">InputHandler.h</text>
</a>
</g>
</g>
<!-- Node2&#45;&gt;Node18 -->
<g id="edge30" class="edge">
<title>Node2&#45;&gt;Node18</title>
<path fill="none" stroke="midnightblue" d="M451.22,-340.11C395.82,-331.02 276.18,-311.38 206.12,-299.88"/>
<polygon fill="midnightblue" stroke="midnightblue" points="206.59,-296.41 196.16,-298.25 205.46,-303.32 206.59,-296.41"/>
</g>
<!-- Node19 -->
<g id="node19" class="node">
<title>Node19</title>
<g id="a_node19"><a xlink:href="ResetButton_8h.html" target="_top" xlink:title=" ">
<polygon fill="white" stroke="black" points="657,-224.5 657,-243.5 743,-243.5 743,-224.5 657,-224.5"/>
<text text-anchor="middle" x="700" y="-231.5" font-family="Helvetica,sans-Serif" font-size="10.00">ResetButton.h</text>
</a>
</g>
</g>
<!-- Node2&#45;&gt;Node19 -->
<g id="edge32" class="edge">
<title>Node2&#45;&gt;Node19</title>
<path fill="none" stroke="midnightblue" d="M486.28,-336.42C495.33,-322.45 515.13,-294.88 539,-280 571.81,-259.55 614.07,-248.2 647.06,-242.01"/>
<polygon fill="midnightblue" stroke="midnightblue" points="647.75,-245.44 656.98,-240.25 646.53,-238.55 647.75,-245.44"/>
</g>
<!-- Node5 -->
<g id="node5" class="node">
<title>Node5</title>
<g id="a_node5"><a xlink:href="LEDs_8h.html" target="_top" xlink:title=" ">
<polygon fill="white" stroke="black" points="297,-112.5 297,-131.5 347,-131.5 347,-112.5 297,-112.5"/>
<text text-anchor="middle" x="322" y="-119.5" font-family="Helvetica,sans-Serif" font-size="10.00">LEDs.h</text>
</a>
</g>
</g>
<!-- Node4&#45;&gt;Node5 -->
<g id="edge4" class="edge">
<title>Node4&#45;&gt;Node5</title>
<path fill="none" stroke="midnightblue" d="M195.39,-224.31C199.55,-210.69 209.28,-184.21 226,-168 243.08,-151.45 267.36,-140.15 287.23,-133.01"/>
<polygon fill="midnightblue" stroke="midnightblue" points="288.53,-136.26 296.87,-129.74 286.28,-129.64 288.53,-136.26"/>
</g>
<!-- Node6 -->
<g id="node6" class="node">
<title>Node6</title>
<g id="a_node6"><a xlink:href="LED_8h.html" target="_top" xlink:title=" ">
<polygon fill="white" stroke="black" points="196,-56.5 196,-75.5 240,-75.5 240,-56.5 196,-56.5"/>
<text text-anchor="middle" x="218" y="-63.5" font-family="Helvetica,sans-Serif" font-size="10.00">LED.h</text>
</a>
</g>
</g>
<!-- Node5&#45;&gt;Node6 -->
<g id="edge5" class="edge">
<title>Node5&#45;&gt;Node6</title>
<path fill="none" stroke="midnightblue" d="M305.29,-112.32C288.69,-103.7 263,-90.36 243.78,-80.39"/>
<polygon fill="midnightblue" stroke="midnightblue" points="245.16,-77.16 234.67,-75.65 241.93,-83.37 245.16,-77.16"/>
</g>
<!-- Node8 -->
<g id="node8" class="node">
<title>Node8</title>
<g id="a_node8"><a xlink:title=" ">
<polygon fill="white" stroke="#bfbfbf" points="455.5,-0.5 455.5,-19.5 502.5,-19.5 502.5,-0.5 455.5,-0.5"/>
<text text-anchor="middle" x="479" y="-7.5" font-family="Helvetica,sans-Serif" font-size="10.00">vector</text>
</a>
</g>
</g>
<!-- Node5&#45;&gt;Node8 -->
<g id="edge7" class="edge">
<title>Node5&#45;&gt;Node8</title>
<path fill="none" stroke="midnightblue" d="M334.32,-112.37C361.15,-93.57 425.09,-48.77 458.26,-25.53"/>
<polygon fill="midnightblue" stroke="midnightblue" points="460.56,-28.2 466.74,-19.59 456.54,-22.46 460.56,-28.2"/>
</g>
<!-- Node7 -->
<g id="node7" class="node">
<title>Node7</title>
<g id="a_node7"><a xlink:href="Pin_8h.html" target="_top" xlink:title=" ">
<polygon fill="white" stroke="black" points="172.5,-0.5 172.5,-19.5 213.5,-19.5 213.5,-0.5 172.5,-0.5"/>
<text text-anchor="middle" x="193" y="-7.5" font-family="Helvetica,sans-Serif" font-size="10.00">Pin.h</text>
</a>
</g>
</g>
<!-- Node6&#45;&gt;Node7 -->
<g id="edge6" class="edge">
<title>Node6&#45;&gt;Node7</title>
<path fill="none" stroke="midnightblue" d="M213.87,-56.08C210.49,-48.77 205.58,-38.18 201.38,-29.1"/>
<polygon fill="midnightblue" stroke="midnightblue" points="204.43,-27.36 197.05,-19.75 198.08,-30.3 204.43,-27.36"/>
</g>
<!-- Node9&#45;&gt;Node7 -->
<g id="edge9" class="edge">
<title>Node9&#45;&gt;Node7</title>
<path fill="none" stroke="midnightblue" d="M57.51,-56.44C86.03,-46.88 132.19,-31.4 162.57,-21.21"/>
<polygon fill="midnightblue" stroke="midnightblue" points="163.85,-24.47 172.22,-17.97 161.62,-17.83 163.85,-24.47"/>
</g>
<!-- Node10&#45;&gt;Node5 -->
<g id="edge16" class="edge">
<title>Node10&#45;&gt;Node5</title>
<path fill="none" stroke="midnightblue" d="M467.97,-168.56C438,-159.21 389.57,-144.09 356.79,-133.86"/>
<polygon fill="midnightblue" stroke="midnightblue" points="357.74,-130.49 347.16,-130.85 355.66,-137.17 357.74,-130.49"/>
</g>
<!-- Node10&#45;&gt;Node8 -->
<g id="edge17" class="edge">
<title>Node10&#45;&gt;Node8</title>
<path fill="none" stroke="midnightblue" d="M500.7,-168.5C513.47,-148.34 541.95,-96.3 525,-56 519.97,-44.05 510.06,-33.69 500.71,-25.93"/>
<polygon fill="midnightblue" stroke="midnightblue" points="502.84,-23.15 492.79,-19.81 498.56,-28.69 502.84,-23.15"/>
</g>
<!-- Node10&#45;&gt;Node11 -->
<g id="edge11" class="edge">
<title>Node10&#45;&gt;Node11</title>
<path fill="none" stroke="midnightblue" d="M522.27,-171.01C565.22,-161.59 648.93,-143.21 699.42,-132.13"/>
<polygon fill="midnightblue" stroke="midnightblue" points="700.34,-135.51 709.35,-129.95 698.84,-128.67 700.34,-135.51"/>
</g>
<!-- Node12 -->
<g id="node12" class="node">
<title>Node12</title>
<g id="a_node12"><a xlink:href="Gate_8h.html" target="_top" xlink:title=" ">
<polygon fill="white" stroke="black" points="365.5,-112.5 365.5,-131.5 414.5,-131.5 414.5,-112.5 365.5,-112.5"/>
<text text-anchor="middle" x="390" y="-119.5" font-family="Helvetica,sans-Serif" font-size="10.00">Gate.h</text>
</a>
</g>
</g>
<!-- Node10&#45;&gt;Node12 -->
<g id="edge12" class="edge">
<title>Node10&#45;&gt;Node12</title>
<path fill="none" stroke="midnightblue" d="M478.13,-168.32C461.29,-159.66 435.19,-146.24 415.76,-136.25"/>
<polygon fill="midnightblue" stroke="midnightblue" points="417.32,-133.12 406.83,-131.65 414.12,-139.34 417.32,-133.12"/>
</g>
<!-- Node12&#45;&gt;Node7 -->
<g id="edge13" class="edge">
<title>Node12&#45;&gt;Node7</title>
<path fill="none" stroke="midnightblue" d="M374.54,-112.37C340.38,-93.29 258.23,-47.42 217.19,-24.51"/>
<polygon fill="midnightblue" stroke="midnightblue" points="218.82,-21.41 208.39,-19.59 215.41,-27.52 218.82,-21.41"/>
</g>
<!-- Node12&#45;&gt;Node13 -->
<g id="edge14" class="edge">
<title>Node12&#45;&gt;Node13</title>
<path fill="none" stroke="midnightblue" d="M404.3,-112.32C418.18,-103.9 439.49,-90.97 455.8,-81.07"/>
<polygon fill="midnightblue" stroke="midnightblue" points="458,-83.83 464.74,-75.65 454.37,-77.85 458,-83.83"/>
</g>
<!-- Node13&#45;&gt;Node8 -->
<g id="edge15" class="edge">
<title>Node13&#45;&gt;Node8</title>
<path fill="none" stroke="midnightblue" d="M479,-56.08C479,-49.01 479,-38.86 479,-29.99"/>
<polygon fill="midnightblue" stroke="midnightblue" points="482.5,-29.75 479,-19.75 475.5,-29.75 482.5,-29.75"/>
</g>
<!-- Node14&#45;&gt;Node5 -->
<g id="edge28" class="edge">
<title>Node14&#45;&gt;Node5</title>
<path fill="none" stroke="midnightblue" d="M407.76,-280.41C404.34,-267.8 397.35,-243.64 389,-224 377.95,-198.02 374.71,-191.46 359,-168 352.32,-158.02 343.87,-147.62 336.74,-139.33"/>
<polygon fill="midnightblue" stroke="midnightblue" points="339.14,-136.76 329.91,-131.57 333.89,-141.38 339.14,-136.76"/>
</g>
<!-- Node14&#45;&gt;Node10 -->
<g id="edge27" class="edge">
<title>Node14&#45;&gt;Node10</title>
<path fill="none" stroke="midnightblue" d="M441.98,-280.37C460.26,-273.63 481.73,-262.28 493,-244 501.42,-230.33 501.11,-211.8 499.16,-198.02"/>
<polygon fill="midnightblue" stroke="midnightblue" points="502.53,-196.98 497.3,-187.77 495.64,-198.23 502.53,-196.98"/>
</g>
<!-- Node15 -->
<g id="node15" class="node">
<title>Node15</title>
<g id="a_node15"><a xlink:title=" ">
<polygon fill="white" stroke="#bfbfbf" points="436,-224.5 436,-243.5 484,-243.5 484,-224.5 436,-224.5"/>
<text text-anchor="middle" x="460" y="-231.5" font-family="Helvetica,sans-Serif" font-size="10.00">MIDI.h</text>
</a>
</g>
</g>
<!-- Node14&#45;&gt;Node15 -->
<g id="edge19" class="edge">
<title>Node14&#45;&gt;Node15</title>
<path fill="none" stroke="midnightblue" d="M418.26,-280.08C425.46,-272.3 436.11,-260.8 444.85,-251.37"/>
<polygon fill="midnightblue" stroke="midnightblue" points="447.67,-253.47 451.9,-243.75 442.53,-248.71 447.67,-253.47"/>
</g>
<!-- Node16 -->
<g id="node16" class="node">
<title>Node16</title>
<g id="a_node16"><a xlink:href="EurorackClock_8h.html" target="_top" xlink:title=" ">
<polygon fill="white" stroke="black" points="284.5,-224.5 284.5,-243.5 379.5,-243.5 379.5,-224.5 284.5,-224.5"/>
<text text-anchor="middle" x="332" y="-231.5" font-family="Helvetica,sans-Serif" font-size="10.00">EurorackClock.h</text>
</a>
</g>
</g>
<!-- Node14&#45;&gt;Node16 -->
<g id="edge20" class="edge">
<title>Node14&#45;&gt;Node16</title>
<path fill="none" stroke="midnightblue" d="M397.47,-280.32C385.41,-271.98 366.97,-259.21 352.73,-249.35"/>
<polygon fill="midnightblue" stroke="midnightblue" points="354.72,-246.47 344.5,-243.65 350.73,-252.22 354.72,-246.47"/>
</g>
<!-- Node16&#45;&gt;Node5 -->
<g id="edge25" class="edge">
<title>Node16&#45;&gt;Node5</title>
<path fill="none" stroke="midnightblue" d="M336.22,-224.12C341.64,-211.56 349.79,-187.92 345,-168 342.69,-158.42 337.98,-148.58 333.42,-140.56"/>
<polygon fill="midnightblue" stroke="midnightblue" points="336.29,-138.54 328.1,-131.81 330.31,-142.17 336.29,-138.54"/>
</g>
<!-- Node16&#45;&gt;Node6 -->
<g id="edge22" class="edge">
<title>Node16&#45;&gt;Node6</title>
<path fill="none" stroke="midnightblue" d="M284.44,-224.55C263.05,-218.2 239.6,-207.15 226,-188 204.33,-157.5 208.89,-111.04 213.71,-85.47"/>
<polygon fill="midnightblue" stroke="midnightblue" points="217.15,-86.12 215.78,-75.62 210.3,-84.68 217.15,-86.12"/>
</g>
<!-- Node16&#45;&gt;Node7 -->
<g id="edge23" class="edge">
<title>Node16&#45;&gt;Node7</title>
<path fill="none" stroke="midnightblue" d="M284.23,-226.2C259.29,-220.21 230.25,-208.99 212,-188 172.84,-142.97 181.94,-65.16 188.78,-29.65"/>
<polygon fill="midnightblue" stroke="midnightblue" points="192.24,-30.2 190.86,-19.7 185.39,-28.77 192.24,-30.2"/>
</g>
<!-- Node16&#45;&gt;Node10 -->
<g id="edge24" class="edge">
<title>Node16&#45;&gt;Node10</title>
<path fill="none" stroke="midnightblue" d="M357.83,-224.44C385.25,-215.36 428.78,-200.94 459.43,-190.78"/>
<polygon fill="midnightblue" stroke="midnightblue" points="460.9,-193.98 469.29,-187.52 458.7,-187.34 460.9,-193.98"/>
</g>
<!-- Node16&#45;&gt;Node13 -->
<g id="edge26" class="edge">
<title>Node16&#45;&gt;Node13</title>
<path fill="none" stroke="midnightblue" d="M339.98,-224.45C356.08,-207.17 393.48,-166.76 424,-132 438.24,-115.78 454.13,-96.92 465.15,-83.7"/>
<polygon fill="midnightblue" stroke="midnightblue" points="467.92,-85.84 471.63,-75.92 462.54,-81.37 467.92,-85.84"/>
</g>
<!-- Node17 -->
<g id="node17" class="node">
<title>Node17</title>
<g id="a_node17"><a xlink:title=" ">
<polygon fill="white" stroke="#bfbfbf" points="234.5,-168.5 234.5,-187.5 335.5,-187.5 335.5,-168.5 234.5,-168.5"/>
<text text-anchor="middle" x="285" y="-175.5" font-family="Helvetica,sans-Serif" font-size="10.00">HardwareTimer.h</text>
</a>
</g>
</g>
<!-- Node16&#45;&gt;Node17 -->
<g id="edge21" class="edge">
<title>Node16&#45;&gt;Node17</title>
<path fill="none" stroke="midnightblue" d="M324.24,-224.08C317.46,-216.3 307.46,-204.8 299.24,-195.37"/>
<polygon fill="midnightblue" stroke="midnightblue" points="301.82,-193 292.62,-187.75 296.54,-197.59 301.82,-193"/>
</g>
<!-- Node18&#45;&gt;Node7 -->
<g id="edge31" class="edge">
<title>Node18&#45;&gt;Node7</title>
<path fill="none" stroke="midnightblue" d="M143.4,-280.47C126.81,-263.04 92,-221.42 92,-179 92,-179 92,-179 92,-121 92,-76.59 137.21,-42.37 167.14,-24.58"/>
<polygon fill="midnightblue" stroke="midnightblue" points="168.92,-27.59 175.87,-19.59 165.45,-21.51 168.92,-27.59"/>
</g>
<!-- Node19&#45;&gt;Node7 -->
<g id="edge33" class="edge">
<title>Node19&#45;&gt;Node7</title>
<path fill="none" stroke="midnightblue" d="M694.73,-224.24C676.09,-194.19 609.82,-94.97 525,-56 471.58,-31.46 295.55,-17.62 223.83,-12.88"/>
<polygon fill="midnightblue" stroke="midnightblue" points="223.84,-9.37 213.64,-12.22 223.39,-16.36 223.84,-9.37"/>
</g>
<!-- Node19&#45;&gt;Node11 -->
<g id="edge34" class="edge">
<title>Node19&#45;&gt;Node11</title>
<path fill="none" stroke="midnightblue" d="M702.79,-224.1C706.78,-211.51 714.47,-187.82 722,-168 725.43,-158.97 729.57,-149.07 733.11,-140.85"/>
<polygon fill="midnightblue" stroke="midnightblue" points="736.38,-142.12 737.17,-131.55 729.96,-139.32 736.38,-142.12"/>
</g>
<!-- Node19&#45;&gt;Node13 -->
<g id="edge37" class="edge">
<title>Node19&#45;&gt;Node13</title>
<path fill="none" stroke="midnightblue" d="M690.36,-224.31C660.47,-197.38 570.91,-116.8 564,-112 546.23,-99.66 524.67,-88.28 507.72,-80.06"/>
<polygon fill="midnightblue" stroke="midnightblue" points="508.86,-76.72 498.33,-75.59 505.85,-83.05 508.86,-76.72"/>
</g>
<!-- Node19&#45;&gt;Node20 -->
<g id="edge35" class="edge">
<title>Node19&#45;&gt;Node20</title>
<path fill="none" stroke="midnightblue" d="M709.48,-224.32C718.2,-216.34 731.34,-204.31 741.9,-194.65"/>
<polygon fill="midnightblue" stroke="midnightblue" points="744.33,-197.17 749.35,-187.83 739.61,-192 744.33,-197.17"/>
</g>
<!-- Node20&#45;&gt;Node11 -->
<g id="edge36" class="edge">
<title>Node20&#45;&gt;Node11</title>
<path fill="none" stroke="midnightblue" d="M756.03,-168.08C753.62,-160.85 750.14,-150.41 747.13,-141.4"/>
<polygon fill="midnightblue" stroke="midnightblue" points="750.4,-140.13 743.92,-131.75 743.76,-142.34 750.4,-140.13"/>
</g>
</g>
</svg>
        <g id="navigator" transform="translate(0 0)" fill="#404254">
                <rect fill="#f2f5e9" fill-opacity="0.5" stroke="#606060" stroke-width=".5" x="0" y="0" width="60" height="60"/>
                <use id="zoomplus" xlink:href="#zoomPlus" x="17" y="9" onmousedown="handleZoom(evt,'in')"/>
                <use id="zoomminus" xlink:href="#zoomMin" x="42" y="9" onmousedown="handleZoom(evt,'out')"/>
                <use id="reset" xlink:href="#resetDef" x="30" y="36" onmousedown="handleReset()"/>
                <g id="arrowUp" xlink:href="#dirArrow" transform="translate(30 24)" onmousedown="handlePan(0,-1)">
                  <use xlink:href="#rim" fill="#404040">
                        <set attributeName="fill" to="#808080" begin="arrowUp.mouseover" end="arrowUp.mouseout"/>
                  </use>
                  <path fill="none" stroke="white" stroke-width="1.5" d="M0,-3.0v7 M-2.5,-0.5L0,-3.0L2.5,-0.5"/>
                </g>
                <g id="arrowRight" xlink:href="#dirArrow" transform="rotate(90) translate(36 -43)" onmousedown="handlePan(1,0)">
                  <use xlink:href="#rim" fill="#404040">
                        <set attributeName="fill" to="#808080" begin="arrowRight.mouseover" end="arrowRight.mouseout"/>
                  </use>
                  <path fill="none" stroke="white" stroke-width="1.5" d="M0,-3.0v7 M-2.5,-0.5L0,-3.0L2.5,-0.5"/>
                </g>
                <g id="arrowDown" xlink:href="#dirArrow" transform="rotate(180) translate(-30 -48)" onmousedown="handlePan(0,1)">
                  <use xlink:href="#rim" fill="#404040">
                        <set attributeName="fill" to="#808080" begin="arrowDown.mouseover" end="arrowDown.mouseout"/>
                  </use>
                  <path fill="none" stroke="white" stroke-width="1.5" d="M0,-3.0v7 M-2.5,-0.5L0,-3.0L2.5,-0.5"/>
                </g>
                <g id="arrowLeft" xlink:href="#dirArrow" transform="rotate(270) translate(-36 17)" onmousedown="handlePan(-1,0)">
                  <use xlink:href="#rim" fill="#404040">
                        <set attributeName="fill" to="#808080" begin="arrowLeft.mouseover" end="arrowLeft.mouseout"/>
                  </use>
                  <path fill="none" stroke="white" stroke-width="1.5" d="M0,-3.0v7 M-2.5,-0.5L0,-3.0L2.5,-0.5"/>
                </g>
        </g>
        <svg viewBox="0 0 15 15" width="100%" height="30px" preserveAspectRatio="xMaxYMin meet">
         <g id="arrow_out" transform="scale(0.3 0.3)">
          <a xlink:href="Mode2_8cpp__incl_org.svg" target="_base">
           <rect id="button" ry="5" rx="5" y="6" x="6" height="38" width="38"
                fill="#f2f5e9" fill-opacity="0.5" stroke="#606060" stroke-width="1.0"/>
           <path id="arrow"
             d="M 11.500037,31.436501 C 11.940474,20.09759 22.043105,11.32322 32.158766,21.979434 L 37.068811,17.246167 C 37.068811,17.246167 37.088388,32 37.088388,32 L 22.160133,31.978069 C 22.160133,31.978069 26.997745,27.140456 26.997745,27.140456 C 18.528582,18.264221 13.291696,25.230495 11.500037,31.436501 z"
             style="fill:#404040;"/>
          </a>
         </g>
        </svg>
</svg>
